<svg xmlns="http://www.w3.org/2000/svg" viewBox="0 0 1317.33 685">
  <g id="background">
    <rect width="1316.79" height="685" fill="#b3b5bf"/>
  </g>
  <g id="shapes">
    <g id="Layer_2" data-name="Layer 2">
      <path d="M157,283.37A186.28,186.28,0,0,1,197,287.92c13.89,3.28,28,5.81,41.75,9.48,17.76,4.74,35.48,9.77,52.89,15.64a381.46,381.46,0,0,1,40.43,16.37c15.11,7.13,30,14.89,44.4,23.35,12.48,7.34,25.2,14.87,36,24.4,15.4,13.64,29.44,28.82,38.34,48,4.6,9.93,11,19,15.83,28.85a121.82,121.82,0,0,1,8.45,22.15c2.71,10.12-2.44,18.71-12.8,21.05-10.58,2.39-21.46,3.48-32.2,5.19-13.19,2.1-26.32,5.53-39.58,6.05a143.71,143.71,0,0,0-42.44,7.67c-3.22,1.13-6.77,1.29-10.16,2-10,2-16.1-4-21.68-10.7-2.94-3.53-4.81-8-7.78-11.47-8.06-9.47-15.49-19.83-25-27.66a118,118,0,0,0-38.3-20.7c-14.87-5-29.79-7.62-45.23-6.56-12,.83-24,2.84-35.94,4.62-10.35,1.54-20.7,3.15-30.91,5.36a144.8,144.8,0,0,0-23,6.68A337.14,337.14,0,0,0,78.43,472.2c-5.85,3.06-10.62,8.12-16.34,11.5-10.21,6-14.64,16.74-21.63,25.36-2.41,3-3.58,6.95-5.31,10.48a71.16,71.16,0,0,1-3.23,6.63c-5.54,8.88-11.17,17.68-16.82,26.49C7.77,564.11-2.51,571.77-15,576.93c-11.27,4.63-23,5.17-34.86,5.61-16.14.6-32.29.92-48.44,1.25-8.11.17-12.49-4.09-12.27-12.43a111.5,111.5,0,0,1,1.93-15.45c1.49-8.74,3-17.5,4.93-26.15,2.18-9.76,4.1-19.68,7.5-29a377.12,377.12,0,0,1,15.14-34.84c5.25-10.9,11-21.6,17-32.09,5.52-9.6,11.51-18.95,17.73-28.13,4-5.84,8.66-11.18,13.1-16.69,8-9.93,15.92-19.93,24.14-29.69,3-3.57,6.77-6.52,10.2-9.74C6.28,344.67,11.24,339.4,16.84,335c7.57-6,15.46-11.68,23.55-17a212.08,212.08,0,0,1,23.32-13.5,257.21,257.21,0,0,1,25.51-10.19C96,291.83,103,289.82,110,288a84.09,84.09,0,0,1,13.1-2C134.35,285.06,145.66,284.26,157,283.37Z" fill="#cec562" opacity="0.23"/>
    </g>
    <g id="Layer_3" data-name="Layer 3">
      <path d="M-178.29,89.38c-.32-28.68,1.94-57.09,9.72-84.83,10.9-38.85,31.84-71,64.91-94.49,15.5-11,33.14-16.5,52.42-17s37,4.83,55.08,10.21c10.09,3,20.58,5.83,31,6.28a61.37,61.37,0,0,0,37.23-10.32c20.66-13.91,41-28.36,61.47-42.48,10.43-7.17,21.4-13.22,33.89-16.26,20.16-4.91,39.07-1.83,56.41,9.22,26.13,16.65,43.92,40,53.13,69.61,2.12,6.82,2.52,14.17,3.91,21.24,2.47,12.64,2.93,25.43,2.89,38.26,0,6.14.34,12.33-.26,18.43-.62,6.35-2.26,12.59-3.31,18.91-1.17,7-1.38,14.35-3.43,21.12C271.3,55.39,266,73.63,258.92,91.16c-11.43,28.48-26.62,55.13-42.66,81.28a71.47,71.47,0,0,0-8,17.7c-2.1,7.46-.48,15.09,5.4,20.44,6.75,6.14,14.27,11.47,21.62,16.94,12.41,9.25,22.06,20.48,23.31,36.49a62.26,62.26,0,0,1-10.53,40.34c-24.94,36.94-58.24,62.17-102.42,71.37-19.75,4.12-39.84,4.79-60,3.23-12.87-1-25.79-1.38-38.68-2.08-30.64-1.66-59.64-9.38-88-21.2-25.48-10.63-46.2-27-65.15-46.37-22.62-23.12-36.85-51-47-81.35-9-27-16.54-54.37-20.82-82.47-2.81-18.51-3.72-37.31-5.49-56Z" fill="#e3c4bc" opacity="0.37"/>
    </g>
    <g id="Layer_4" data-name="Layer 4">
      <path d="M712.49,532.45c0-18.7-.64-37.42.15-56.09,1.19-28.29,4.43-56.36,15.68-82.78,13.25-31.11,34.13-55.41,65-70.1,20.73-9.86,45.07-5.21,62,10.29,20.68,18.94,33.53,43,45.17,67.84a379.78,379.78,0,0,1,29.3,92.14c3,16.32,4.59,32.92,7.32,49.31,4.17,25,4.6,50.21,3.71,75.41-.59,17-2.33,33.92-3.79,50.85a265,265,0,0,1-19.61,81c-11.23,26.54-26.25,50.61-46.67,71-27.4,27.31-60.65,44.11-98.12,52.66-31.93,7.28-64.42,9.49-97,7.74a274.37,274.37,0,0,1-101.89-25.78c-38.28-17.84-72.92-41.24-104.66-69-18.34-16.05-34.39-34.23-49.25-53.47C407.39,717.35,403,698,398.27,678.76c-5.33-21.53-6.16-43.47-4.7-65.35s7.47-42.33,21.2-60.11c14.22-18.42,37-18.58,51.06.22,12.17,16.26,20.43,34.65,27.91,53.35s18.27,35.11,31,50.37c5,6,11.92,9.16,19.43,10.76,6.14,1.31,12.26-4.22,12.61-11.4.48-10-.18-19.85-3.57-29.48q-15.8-44.79-31.18-89.73c-7.4-21.59-12.08-43.85-12.09-66.66,0-23.57,3.47-46.62,17-67,14.47-21.83,38-27.28,60.82-14.45,18,10.13,29.53,25.33,37.16,44.17,16.57,40.9,33.43,81.69,50.14,122.54a83.8,83.8,0,0,0,17.21,26.67c6.86,7.15,12.5,6,15.2-3.59a121.26,121.26,0,0,0,3.91-22.54c.66-8,.15-16.07.15-24.11Z" fill="#8fa0a7" opacity="0.33"/>
    </g>
    <g id="Layer_7" data-name="Layer 7">
      <path d="M205.55,720.61c-20.59,0-41.18.26-61.76-.15-6.78-.13-13.52-2-20.3-3-8.19-1.21-16.43-2.12-24.6-3.52-7.62-1.3-15.16-3.07-22.75-4.63-.64-.13-1.31-.13-2-.26q-11.94-2.67-23.88-5.26c-5.34-1.18-10.7-2.34-16-3.64-3.61-.88-7.2-1.87-10.73-3-8.14-2.6-16.31-5.13-24.34-8-13.53-4.86-27.31-9.14-39.49-17.21-3-2-6.79-2.88-10.06-4.57A136.43,136.43,0,0,1-63.18,660c-4.54-3-8.8-6.49-13.11-9.86-3.83-3-7.91-5.78-11.26-9.25-6.43-6.68-12.74-13.53-18.49-20.79a69.11,69.11,0,0,1-9.13-15.19c-2.8-6.37-3.68-13.66-6.91-19.75-4.65-8.77-3.62-18.44-6-27.34-5.38-19.78-1-39.63-2.54-59.36,5.35-8.5,1.87-18.75,5.64-27.71,2.79-6.63,3.93-13.93,6.27-20.77,4.73-13.8,10.12-27.35,19.55-38.79C-93.3,404-86.71,397.4-81.15,390c6.26-8.37,16.39-11.58,23.47-19,3.26-3.4,9.24-4.17,14-6.2,2.55-1.09,5-2.34,7.55-3.48,10.92-4.94,22.74-6.55,34.12-9.67,14.4-3.94,28.45-1.58,42.61-2.29,14.45-.72,29.17-1.46,43.38.58,6.94,1,14.87-.66,21.51,4.14,2.14,1.54,6.11.4,9.19.81,5.77.77,11.57,1.48,17.23,2.78,6.31,1.45,12.47,3.55,18.71,5.32a12.55,12.55,0,0,0,2.92.36,31.63,31.63,0,0,1,12.14,2.48c6.61,3,14.2,3.77,21.31,5.7,6,1.63,11.82,3.69,17.79,5.34,4.74,1.31,9.63,2.11,14.36,3.47,7,2,13.93,4.34,20.88,6.54,2.25.71,4.5,1.41,6.74,2.15,4.77,1.58,9.55,3.12,14.29,4.77,2.85,1,5.67,3.15,8.45,3.06,5.65-.18,9.76,2.83,14.37,5a70.76,70.76,0,0,0,9.33,3.39c4,1.29,8.18,2.32,12.21,3.66,2.1.71,4,2,6.07,2.78,7.54,2.89,15,6.3,22.73,8.33,6.07,1.59,11.74,3.1,16,8a3.07,3.07,0,0,0,2.33.55c7.53-.74,12.93,4.42,19.12,7.15,6.77,3,13.1,7.09,19.41,11,2.46,1.53,4.39,3.92,6.47,6,7.45,7.68,15.35,14.88,22.27,22.93,4,4.63,6.39,10.62,9.46,16,.31.55.14,1.55.54,1.84,6.88,4.94,7.3,13.52,10.22,20.28a101.27,101.27,0,0,1,7.56,27.63c1.54,12.41,2.4,24.81,1.08,36.92-.86,7.82.09,16.32-4.23,23.9-2.12,3.71-1.93,8.67-3.47,12.81-2.24,6-5,11.8-7.72,17.64a51,51,0,0,1-3.6,6.57c-1.77,2.77-3.72,5.43-5.64,8.09-4.93,6.87-9.86,13.74-14.89,20.54a20,20,0,0,1-3.81,3.83c-2.74,2.15-5.42,4.52-8.48,6.1-8.24,4.26-14,12.22-23.17,15.13-4.24,1.35-8,4.32-12.12,6-4.67,1.91-9.6,3.17-14.39,4.82-4.3,1.48-8.55,3.11-12.81,4.7a14.43,14.43,0,0,1-2.19,1c-5.8,1.09-12.21.9-17.29,3.42-8.25,4.09-17.52.88-25.5,5a9.18,9.18,0,0,1-2.89.49C259.58,722.29,232.53,720.24,205.55,720.61Z" fill="#a1c786" opacity="0.19"/>
    </g>
    <g id="Layer_10" data-name="Layer 10">
      <path d="M1130-52.2c11.89-.88,23.77-1.95,35.67-2.59,20.85-1.13,41.28,1.93,61.77,5.62,17.51,3.16,34.93,6.55,51.65,12.46,14.49,5.12,28.44,11.75,42.63,17.73a3.3,3.3,0,0,1,1.19.75c11.61,12.68,27.18,21.71,35,37.84,2.19,4.51,4.73,9.06,5.72,13.88,3.26,15.81,12.1,28.93,19.67,42.65,9.2,16.68,13.78,34.66,16,53.37,1.2,10.23-.26,20.15-5.32,29.25-4.73,8.51-9.68,16.9-14.75,25.22-6.47,10.62-16.43,17.62-26.37,24.62-14.43,10.12-28.88,20-45.88,25.71-28.72,9.62-58.28,15.16-88.19,19.11-19.87,2.63-39.76,5.17-59.68,7.36-10.12,1.11-20.33,1.63-30.52,1.94-18.39.56-36.79.86-55.19,1-6.27.06-12.54-.83-18.81-.84-6.75,0-13.49.54-20.24.79-21.82.82-42.93-2.72-64.29-7.52-26.19-5.89-47.68-19.64-69.34-33.93-15.66-10.33-27-24.2-35.16-41a187.32,187.32,0,0,0-11.08-19.17c-6.93-10.85-9.34-23-9.88-35.45a196.26,196.26,0,0,1,1-29.19c.6-5.48,2.78-11,5.11-16,4.65-10.12,9.48-20.21,15.1-29.81,2.6-4.45,6.83-8.24,11-11.44q13.83-10.63,28.35-20.25a69.26,69.26,0,0,1,14.68-7.22c11.26-4.08,23-6.88,34-11.59,18.27-7.86,36-16.91,54.11-25.24,10.11-4.67,20.12-9.94,30.72-13.09a573,573,0,0,1,56-13.9c11.47-2.18,23.47-1.56,35.23-2.2Z" fill="#e7924a" opacity="0.26"/>
    </g>
    <g id="Layer_11" data-name="Layer 11">
      <path d="M64.73,134.5c-13.48.58-25.68,1.82-37.84,1.48-17.65-.48-33.21-8.14-48.32-16.45-10.82-6-19.54-14.4-27.61-23.74-6-6.89-13.35-12.55-19.3-19.45C-82.75,59.63-95.6,42-96.11,18.6c-.24-10.27.64-20.5,1.37-30.75,1.52-21.5,12.27-38.52,23.81-55.34,8.29-12.06,18.06-22.83,30.14-31.31,8-5.65,15.44-12.24,23.68-17.54A216.52,216.52,0,0,1,9.34-130.8c6.35-2.92,13.41-4.3,20.13-6.41,6-1.93,12-4,18-6a14.13,14.13,0,0,1,2.79-.65q19.38-2.4,38.73-4.73c13.39-1.64,27-2.33,40.13-5.14,12.8-2.73,25.24-7.29,37.63-11.66,24.54-8.56,49.21-16.86,74.9-21,23.45-3.76,47.07-7.13,70.74-8.62,21.51-1.33,43.26-2.38,64.77,1.07,8.36,1.34,16.59,3.5,24.82,5.54,5.94,1.44,12.29,2.47,17.58,5.27A101.16,101.16,0,0,1,439.86-169c4.79,4.33,8.4,10.15,11.88,15.71,1.93,3.1,2.31,7.13,3.76,10.6,4.51,10.81,5.39,22.32,5.79,33.73.37,10.53-.72,21.16-1.18,31.68-.24,5.35-1.08,10.75-.66,16.05.91,11.44-1.55,22.36-4.27,33.23a231.72,231.72,0,0,1-8,25.89,77.17,77.17,0,0,1-8.64,15.7c-5.36,7.85-11.21,15.37-17,22.9-1.09,1.41-3.08,2.1-4.42,3.36-3.38,3.17-6.3,6.89-10,9.65-6.55,5-12.35,11.16-20.64,13.65-2,.62-3.68,2.48-5.7,3.41-7.37,3.41-14.71,6.88-22.23,9.92-7.74,3.12-15.67,5.76-23.52,8.61a12.91,12.91,0,0,1-1.85.49c-23.73,4.56-47.38,9.26-71.43,12.33-12.57,1.61-25.58,2-37.77,5.4-9.88,2.76-19.94,2.48-29.7,4.6-8.63,1.84-17.09,4.56-25.63,6.88-.61.16-1.27.19-1.9.29-10.51,1.71-21.09,3.11-31.51,5.22-9.13,1.88-18.08,4.5-27.11,6.8-.61.16-1.21.43-1.84.53Z" fill="#dfa0b0" opacity="0.35"/>
    </g>
    <g id="Layer_5" data-name="Layer 5">
      <path d="M861.33-109.19c30.15-31.12,66.17-51.64,109-59.35a134.84,134.84,0,0,1,59.93,2.73c21.7,5.91,36,19.52,42.82,41,1.86,5.93,3.54,11.92,5.63,17.76,1.65,4.58,4,5.34,8.27,3,3.24-1.84,6.37-3.91,9.52-5.93,16.87-10.78,35.06-11.33,53.91-7,20.16,4.6,38.41,13.7,56,24,28.43,16.74,56.87,33.51,84.48,51.54,20.24,13.16,37,30.67,52.59,49.09A241.18,241.18,0,0,1,1383,72.48c9.38,22.84,11.87,46.57,6.5,70.83-9,40.51-45.28,69.89-89.44,68.95-27.34-.57-51.79-9.36-74.42-24.22-14.27-9.36-26-21.27-36.23-34.81-3.84-5-7.58-10.25-12-14.73A78.88,78.88,0,0,0,1164,128c-3.92-2.51-8.48-1.42-11,3a129.9,129.9,0,0,0-8,17.24c-4,10.13-7,20.72-11.72,30.52a39.73,39.73,0,0,1-19,19c-9.37,4.43-20.45,2.19-28.34-4.53-10.81-9.25-16.79-21.39-22.28-34.06-5.24-12.08-10.19-24.46-17-35.69-23.06-38.22-62-52.29-103.83-41.48-23.28,6-44.39,16.9-65.5,27.92-15.42,8.07-30.32,17.39-47.61,21.31-16.63,3.81-33.24,3.83-48.43-4.28-27.13-14.41-34.88-34.51-18.71-62,11.77-20,21.26-40.52,27.12-63,6-23.1,17.75-43.7,31.62-63,8-11.11,16.15-22.1,24.75-32.73C850.63-99.37,856.22-104.09,861.33-109.19Z" fill="#c3845f" opacity="0.33"/>
    </g>
    <g id="Layer_6" data-name="Layer 6">
      <path d="M917.9,453c14.91-15.95,32.44-26.68,54.71-28,16.85-1,32.36,3.92,47.35,11.24,20.32,9.94,36.13,25.21,50.6,42.12,22.73,26.6,37.32,58.18,54.14,88.41,4.06,7.26,8.52,14.48,14.09,20.52,11.8,12.79,25,13.1,39.52,3.28,18.27-12.3,30.1-29.77,40.69-48.4,13.85-24.43,27.31-49.06,41.39-73.4,6.27-10.88,13.76-21,24.86-27.94,14.44-9.1,30.06-9.41,46.15-6.84,24.61,3.93,46,14.2,62.64,33,12,13.69,18,30.22,20.69,48.06,4.12,27.62-.58,54.42-7.36,81-6.67,26.2-16.52,51.07-31.88,73.51a201.12,201.12,0,0,1-33.43,38c-9.58,8.37-19.34,16.51-31.54,21.1-13.37,5-27.22,6.13-41.22,6.24-16.83.14-33.54,1-49.83,5.74-13.91,4-26,11.4-37.64,19.64-6.12,4.32-12.46,8.36-18.36,13-5,3.89-9.33,8.66-14.26,12.61-31.24,25-66.56,37.57-106.9,34-41-3.68-77.52-19.65-111.51-42a188.76,188.76,0,0,1-24.27-18.79c-19.32-17.72-30.75-40.26-37.72-65.23-15.95-57-15-113.7,3.71-169.92,6.71-20.16,17.49-38.32,31.28-54.58C908.44,463.9,913.2,458.46,917.9,453Z" fill="#d3a659" opacity="0.4"/>
    </g>
  </g>
  <g id="floral">
    <g opacity="0.59">
      <path d="M1300.31,657.52c4.48-13.1,6.94-26.52,5.71-40.38a110.4,110.4,0,0,0-2.73-16.46c-3.08-12.69-11-21.28-22.88-26.67-12.45-5.66-26.83-2.37-35,8.57-2.41,3.21-4.27,6.84-6.65,10.08-2,2.66-2.62,5.05-.22,7.74a7.83,7.83,0,0,1,1,2.17,14.63,14.63,0,0,1,.72,9.19c-.56,2.31-1.32,2.85-3.65,3.32a7.74,7.74,0,0,0-3.63,1.65,15.64,15.64,0,0,1-7.67,3.88c-2.46.48-3.56,1.56-3.83,4.16-.33,3.18-3.47,4.31-6.2,2.69a13.53,13.53,0,0,0-4.16-1.64,3.47,3.47,0,0,1-3-2.63,14.31,14.31,0,0,0-1.31-3.12c-1.3-2.22-1.24-3.05.92-4.55a5.87,5.87,0,0,0,2.63-4.7c.19-2.55.49-5.09.84-7.62a12.3,12.3,0,0,1,12.61-10.48,2.81,2.81,0,0,0,3-1.85,90.72,90.72,0,0,1,4.72-8.67c7-10.72,16.36-17.94,29.34-19.62,7.52-1,15.18-1.66,22.35,1.49a112.48,112.48,0,0,1,14.83,8c7.23,4.59,11.26,11.78,14.36,19.47,4.86,12.07,6.19,24.73,5.71,37.64-.06,1.68-.14,3.35-.21,5a2.88,2.88,0,0,0,1.15-1.4,38.38,38.38,0,0,0,3.11-13.38c.11-5.34,0-10.68.37-16q.87-14.11,13.13-17.74c4.13-1.23,8.36-2.16,12.58-3.08a8.38,8.38,0,0,1,8.18,2.31c3.11,3.21,6.62,3.63,10.59,1.9,4.7-2,9.71-2.78,14.73-3.43a18.63,18.63,0,0,1,11.51,2.41c4.51,2.48,7,6.41,6.36,11.67a20.5,20.5,0,0,1-2.21,6.76c-2.83,5.48-7.51,8.85-13.3,10.77-1.06.35-2.09.77-3.16,1.17.28.67.49,1.14.67,1.61,1.6,4.15.66,7.2-3.22,9.42a22.44,22.44,0,0,1-5.84,2.31c-2.92.69-5.93,1-8.91,1.44A75.4,75.4,0,0,0,1330,644.17c-8,5.68-14.11,13.29-19.62,21.34-.93,1.36-1.69,2.82-2.53,4.23l.32.35,6.55-2.38a2.88,2.88,0,0,1,3.33.48c1,1.07.67,2.3,0,3.31-3.07,4.77-6,9.68-9.4,14.17a41.24,41.24,0,0,1-16.38,12.78c-2.91,1.27-4.28,1.11-6.32-1.33a19.68,19.68,0,0,1-3.29-5.32c-2.1-5.36-1.89-10.95-.65-16.45,2-9,1.23-17.39-3.3-25.57a110.15,110.15,0,0,1-7-15.55c-2.14-5.89,1.23-10,7.53-9.74a12.12,12.12,0,0,1,4.1,1c4.39,1.89,7.3,5.29,9.31,9.55a32.25,32.25,0,0,1,2.87,13.92c0,4,1.77,7.06,4,10.37A19.76,19.76,0,0,0,1300.31,657.52Zm31.09-35.27c7.26-4.62,14.54-4.82,22-.33,4.75,2.85,9.73,5.38,15.55,4.59a27.28,27.28,0,0,0,7.37-1.89c3.39-1.5,3.7-4.53,1-7.12-3.08-3-7-4.11-11-5a25.31,25.31,0,0,0-12.81.47c-1.08.32-2.14.32-2.54-.94s.69-1.8,1.67-2.1a26.22,26.22,0,0,1,14.13-.58c3.24.79,6.31,2.22,9.52,3.15a8.05,8.05,0,0,0,4.07.18,36.62,36.62,0,0,0,6.69-2.56c5.09-2.48,8-6.75,9.36-12.14.95-3.88-1.55-7.94-5.77-10a17.66,17.66,0,0,0-11.32-1.29c-3.56.68-7,1.84-10.52,2.82-1.59.44-3.13,1-4.74,1.42a7.77,7.77,0,0,1-7.84-2.09c-3-3.06-6.48-3.78-10.47-2.67-3.06.85-6.09,1.86-9.17,2.66-6.53,1.71-9.87,6.33-10.52,12.62-.72,7-.68,14-1,21.06,0,1.18,0,2.37,0,4C1327.36,624.94,1329.35,623.55,1331.4,622.25Zm-107-22.06c3.72-1.94,3.64-2,4.89,2,.67,2.17,1.5,4.3,2.37,6.39a4.64,4.64,0,0,0,3.76,2.87c.94.15,1.42-.08,1.63-1.15a11.49,11.49,0,0,0-3.14-10.66c-2-2.19-2.06-2.39-.51-4.81,2.92-4.54,5.65-9.21,8.79-13.58C1250.36,570,1265,565,1278,569.59c14.12,5,24.09,14.4,28.18,29.21a89.77,89.77,0,0,1,1.25,44.17c-.66,2.91-1.14,5.85-1.7,8.77l.44.22c1.89-2.76,3.84-5.49,5.68-8.3,2.21-3.38,2.26-7.33,2.64-11.16a85.37,85.37,0,0,0-5.5-40.8c-4-10.08-11.21-17-20.74-21.86-13.21-6.71-26.35-6.45-39.48.12-7.34,3.68-12.48,9.57-16.28,16.69-1.31,2.45-2.46,5-3.54,7.57a2.41,2.41,0,0,1-2.56,1.75c-.85,0-1.71,0-2.56,0-3.42-.24-5.83,1-7.69,4.23C1219,602.11,1221.75,601.59,1224.43,600.19Zm69,79.32c4.72-6.26,5.23-12.89,2.16-20.06-2.1-4.91-6.11-7.43-10.57-9.59a8.9,8.9,0,0,0-3-1,10.5,10.5,0,0,0,.62,1.79c4.16,7.45,4.27,15.37,2.92,23.51-.56,3.35-.84,6.76-1.1,10.15a10.11,10.11,0,0,0,1.82,6.81C1287.8,686.45,1290.79,683.08,1293.47,679.51Z" fill="#2d2d2d"/>
    </g>
    <g opacity="0.53">
      <path d="M1300.34,186.3c-5.59,3.87-7.12,8.07-5,14.12,2.27,6.57,3.56,13.15,2,20.14a7,7,0,0,0,1,5.2c6,7.49,4.22,15.36,1.73,23.4-1.13,3.65-1.9,7.43-3.23,11-.48,1.29-2.11,2.14-3.21,3.19-.68-1.4-2-2.82-1.93-4.22.12-10.24-2-20.1-4.69-29.88-2.41-8.69-3-17.41-.24-26.17a14.43,14.43,0,0,0,.24-2.19c-1.45,1.24-2.49,2.06-3.46,3-3,2.8-6,5.58-8.95,8.48a5.17,5.17,0,0,0-1.63,3c-.19,5.46-.3,10.93-.1,16.38a10.22,10.22,0,0,0,1.8,5.87c5.2,6.19,6.62,13.46,6.85,21.18a69.76,69.76,0,0,1-6.7,31.58,7.63,7.63,0,0,1-1.49,2.58,14.51,14.51,0,0,1-3.09,1.66c-.36-1.22-1.15-2.5-1-3.66.58-4.42,1.66-8.78,2.18-13.21a38.15,38.15,0,0,0-2.46-19.63c-4.57-10.62-5-21.56-3.8-32.76l.33-3.12-.77-.3a28.24,28.24,0,0,0-2.9,3.72c-4.55,8.4-9.43,16.66-13.37,25.35a55.85,55.85,0,0,1-19.43,23.17,5.53,5.53,0,0,1-2.69,1.06c-2.18.11-3.24-1.41-2.05-3.15,5-7.32,6.9-15.8,9.56-24,2.52-7.83,8-13.48,14.19-18.7,10.25-8.67,20.22-17.66,30.3-26.52a13.08,13.08,0,0,0,1.22-1.55c-4.27-.33-7.82.25-10.65,3.15-1.73,1.76-3.19,3.81-5,5.41-2.61,2.25-5.2,4.78-8.27,6.17a44,44,0,0,0-16.74,13.34,21.09,21.09,0,0,1-2.61,3.16,11.42,11.42,0,0,1-2.94,1.33c-.32-1.16-1.14-2.45-.87-3.45a84.12,84.12,0,0,1,3.86-11.65c5.2-11.79,13.44-20.87,25.32-26.13a25.59,25.59,0,0,1,10-1.8c4,0,8,.77,12,1.35,4.15.6,7.27-.55,9.4-4.39,2.3-4.13,4.91-8.09,7.33-12.15a13.77,13.77,0,0,0,.84-2.43,10.09,10.09,0,0,0-1.46.79,22.08,22.08,0,0,1-13.66,4.88,21.79,21.79,0,0,0-12.57,4.09,38.2,38.2,0,0,1-22.57,8c-4.45.13-8.88.85-13.33,1.1-2.1.12-4.15-.56-4.66-3s1.27-3.67,3.08-4.63c2.09-1.11,4.31-2,6.43-3.05a47.47,47.47,0,0,0,14.56-11c4.38-5,9.73-7.12,16.37-6,5.32.87,10.69,1.43,16,2.29a11,11,0,0,0,10-3,40.67,40.67,0,0,1,5.67-4.75c5.21-3.39,5.67-9,7.41-14.93-2.67,1.25-4.76,2-6.66,3.17a25.35,25.35,0,0,1-17.09,3.38,26.41,26.41,0,0,0-16.67,3.14c-8.16,4.4-16.71,3.93-25.37,2.47-3.16-.53-4.4-3.38-2.91-6.26,1.77-3.46,4.76-5.33,8.42-6.47,6.51-2,13-4.07,19.38-6.48s12.45-3.15,18.64-.5c7.07,3,14.38,3,21.78,2.5a2.21,2.21,0,0,0,1.65-1.26c1.28-7.07,3-14.1,2.53-21.8-4.61,2.47-9,4.59-13.22,7.16-6.23,3.83-12.67,4.67-19.93,3.71-7.65-1-15.46-.78-23.21-.94-4.9-.11-9.7-.48-13.76-3.57-1.78-1.37-3.21-3.1-2.6-5.62.56-2.33,2.36-3.35,4.48-3.93,7.82-2.14,15.57-4.6,23.48-6.28a24,24,0,0,1,18.1,3.66,21.29,21.29,0,0,0,19.07,2.5,40.45,40.45,0,0,1,5.83-1.47c1.83-.31,2.68-1.09,2.63-3-.11-4.27-.07-8.54-.1-13.47a30.84,30.84,0,0,0-4.41,2.31c-8.74,6.76-18.48,8.14-29,5.64-2.57-.61-5.26-.68-7.8-1.36-4.36-1.17-7.6-4.12-10.87-7.1-4-3.68-8.39-7-12.51-10.56a13.25,13.25,0,0,1-2-3.12c1.11-.6,2.18-1.6,3.34-1.73a40.63,40.63,0,0,1,24.74,5c5.67,3.13,12,5.12,18.27,7,2.45.75,5.41.08,8.11-.24,3.84-.45,7.65-1.17,12-1.86-.46-7.49-1-15.5-1.45-23.51l-.89-.2c-.92,1.3-1.92,2.56-2.75,3.92-4.26,7.06-10.8,11-18.45,13.25a13.19,13.19,0,0,1-6.95-.33,66.86,66.86,0,0,1-10.12-4.07c-1-.46-2.14-1.81-2.11-2.71s1.43-2,2.45-2.34c7.38-2.36,14.76-4.72,22.24-6.7,5.57-1.47,9.92-4.95,14.61-7.89a1.85,1.85,0,0,0,.57-1.59c-1-4.79-2.14-9.57-3.43-15.26-2.31,1.79-4.43,3-6,4.73-2.84,3.2-5.29,6.75-8,10.08-7.87,9.73-18.26,14.2-30.56,13.24-7.52-.59-14.95-2.43-22.37-3.91-1.07-.22-2.69-1.6-2.67-2.41a4.44,4.44,0,0,1,2.2-3.18c6.76-3.38,14.1-3.82,21.53-4.31,10.7-.69,20.85-3.23,29.14-10.85,4.23-3.89,8.81-7.47,15.37-7.94l-5.46-16.29-5.4,7.61c-1.79,2.52-3.41,5.2-5.41,7.55a27.11,27.11,0,0,1-14,8.69c-10,2.69-20.06,5.39-30.14,7.9a5.5,5.5,0,0,1-4.39-.77c-1.56-1.44-.82-3.61.57-4.89a76.71,76.71,0,0,1,8.62-7c4.43-3,9.26-5.43,13.59-8.56a26.66,26.66,0,0,1,13.42-5c8-.72,14-4.78,19.35-10.26a2.87,2.87,0,0,0,.31-2.74c-2.6-3.71-5.36-7.31-8.19-10.86-1.13-1.41-2.72-2.46-3.82-3.89-1.26-1.64-.34-3.55,1.68-3.35,1.7.16,3.9.64,4.86,1.82a99.71,99.71,0,0,1,9,12.67c1.88,3.22,3.73,5.5,7.82,5s8.46-.78,12.7-1c2.44-.13,5.11-.58,7.31.18,6.08,2.1,12.14,1.82,18.37,1.18,8.79-.91,16.36,2.92,23.74,7,1.84,1,1.69,2.7-.27,3.48-1.39.55-3,.41-4.52.73-4.34.92-9,1.22-12.93,3-6.47,3-12.71,3.94-19.61,2-5.08-1.44-10.45-1.84-15.48-3.4-3.75-1.16-7.16-3.42-11.61-5.64,1.19,2.68,1.65,5.19,3.12,6.72,4.28,4.46,9,8.06,16,7.31,4.8-.52,9.23,1.79,13.41,4.13a44.74,44.74,0,0,0,18.87,6,62.56,62.56,0,0,0,9.28-.26A21.25,21.25,0,0,1,1383,48.36c3.46,2,6.87,4.15,10.29,6.25.53.33,1.21.71,1.42,1.22.42,1,1,2.4.65,3.14s-2,1.08-3,.91c-3.58-.64-7.08-1.83-10.68-2.28a19.18,19.18,0,0,0-7.85.42c-16.34,5-30.6.07-43.86-9.1-4.77-3.31-8.9-7.53-13.33-11.32a4.59,4.59,0,0,0-2.72-1.19c1.08,4.27,2.12,8.56,3.27,12.81.14.52.84.92,1.34,1.28,4.25,3.12,8.45,6.22,13.55,8.07,2.37.86,4.48,3.14,6.11,5.23,2.86,3.67,6.29,5.19,10.76,4.09,8-2,15.66-.6,23,2.31a23.71,23.71,0,0,1,7.76,5.4c3.71,3.73,7.57,7.07,12.36,9.36,1,.47,1.46,1.93,2.17,2.94-1.07.65-2.09,1.77-3.21,1.88-7.48.73-14.47-.17-21.35-4-4.45-2.5-10-3.21-15.13-4.26s-10.68-1.47-16-2.39c-4-.68-6.68-3.22-8.45-6.75-1.39-2.77-2.68-5.6-4-8.39a19.82,19.82,0,0,0-7.48-7.87c.77,8.2,1.47,16,2.3,23.76a3.39,3.39,0,0,0,1.48,2.3c3,1.63,6.2,3,9.32,4.53,3.44,1.65,7,3.14,10.3,5a14.27,14.27,0,0,0,11,1.72c7.42-1.9,14.52-.45,21.29,2.7,7.76,3.62,15.55,7.22,23.07,11.31,3.79,2.06,7,5.13,10.46,7.84a5.53,5.53,0,0,1,1.51,2.23c.9,2.16.06,3.22-2.23,2.72a30.56,30.56,0,0,1-5.74-1.78c-7.21-3.19-14.69-3.87-22.49-3.31a26.72,26.72,0,0,1-10.2-1.29c-8.2-2.75-16.21-6-24.32-9.06-4.86-1.81-8.53-5.15-12.1-8.73s-7-6.69-10.59-10l-.58.52c.1,5.74.16,11.48.37,17.21a2.67,2.67,0,0,0,1.53,1.74c1.67.69,3.47,1.1,5.21,1.65a21.36,21.36,0,0,1,10.69,7.27,13.63,13.63,0,0,0,9.27,5.28,27.35,27.35,0,0,1,13.06,5.24,11.33,11.33,0,0,0,11.09,1.73c7.44-2.49,15-1.4,22.51-.42,1.86.25,2.23,1.52,1.52,3a7.15,7.15,0,0,1-1.91,2.27c-2.89,2.39-5.82,4.72-8.76,7.05a17,17,0,0,1-16.22,3.13c-4.72-1.38-9.61-2.26-14.25-3.84-11.27-3.82-21.4-9.27-27.44-20.32-1.42-2.59-3.58-4.77-5.93-7.82-.38,1.69-.68,2.57-.77,3.48-.44,4.64-.79,9.28-1.24,13.92a4.56,4.56,0,0,0,2.77,5.11c2.31,1.07,4.7,2,6.89,3.29a72.84,72.84,0,0,1,8.38,5.61c3.86,3.09,7.94,5.43,12.93,6.07a30.39,30.39,0,0,1,18.09,8.92c5.31,5.39,10.25,11.14,15.34,16.73a62,62,0,0,1,4.19,4.7,14.27,14.27,0,0,1,1.36,3.33c-1.33.28-2.8,1.08-4,.76a61.8,61.8,0,0,1-24.17-12.92,25.14,25.14,0,0,0-14-6.17,11.89,11.89,0,0,1-5.55-2.06c-5.55-4.15-11-8.39-16.26-12.95-2.78-2.43-4.93-5.58-7.53-8.6-1.07,3.66-2.16,7.44-3.27,11.21-.79,2.71-1.57,5.43-2.45,8.11s-.45,4.87,2.25,6.22c1.7.84,3.37,2,5.18,2.33,6.48,1.2,11.22,4.84,15.4,9.7A31.13,31.13,0,0,0,1343,183c10.59,6.25,17.52,15.49,22.63,26.4,1.26,2.7,3,5.2,4.35,7.83.34.64.67,1.91.39,2.14a3.35,3.35,0,0,1-2.57.86,15.63,15.63,0,0,1-4-2.29,11.34,11.34,0,0,1-2.36-2.28c-7.37-9.77-17.18-16.2-28.38-20.72a29.21,29.21,0,0,1-17-16.79c-1.5-3.69-4.27-6.88-6.8-10.81-1.52,3-2.68,5.2-3.68,7.44-2.27,5-.85,9.33,4.07,11.92,6.59,3.48,10.16,9.16,11.33,16.22a71.8,71.8,0,0,0,7.62,22.12,43.14,43.14,0,0,1,4.82,23.82c-.09,1.16-1.08,3.23-1.58,3.21-1.45-.06-3.35-.59-4.17-1.64-1.89-2.43-3.22-5.29-4.84-7.94-2.32-3.83-4.59-7.69-7.08-11.41-4.43-6.64-7.5-13.75-8.17-21.79S1303.4,193.91,1300.34,186.3Z" fill="#2d2d2d"/>
    </g>
    <g opacity="0.53">
      <path d="M939.06,662.88c-6.69,1.23-10.75-.67-13.54-6.42-3-6.25-6.79-11.81-12.79-15.69a7,7,0,0,1-3-4.41c-1.07-9.52-7.88-13.85-15.32-17.77-3.38-1.79-6.59-3.91-10.06-5.5-1.25-.57-3,0-4.53,0,.51,1.47.62,3.37,1.62,4.34,7.33,7.16,12.82,15.61,17.81,24.45,4.45,7.85,10.22,14.41,18.34,18.67a16.23,16.23,0,0,1,1.71,1.38c-1.89.15-3.21.31-4.53.35-4.11.15-8.22.33-12.33.33a5.07,5.07,0,0,1-3.26-1c-4-3.72-7.94-7.51-11.65-11.51a10.26,10.26,0,0,1-2.88-5.41c-.7-8.06-4.84-14.21-10.13-19.83a69.91,69.91,0,0,0-27.07-17.59,8,8,0,0,0-2.88-.78,14.71,14.71,0,0,0-3.36,1c.61,1.12,1,2.58,1.88,3.29,3.54,2.72,7.39,5,10.88,7.8a38.13,38.13,0,0,1,12.15,15.62c4.27,10.74,11.72,18.77,20.48,25.85l2.44,2-.34.75a27.85,27.85,0,0,1-4.68-.58c-9.16-2.72-18.45-5.11-27.38-8.47a55.85,55.85,0,0,0-30.12-2.64,5.6,5.6,0,0,0-2.66,1.15c-1.61,1.46-1.29,3.28.79,3.68,8.7,1.65,16,6.28,23.75,10.23,7.32,3.75,15.2,3.86,23.26,3.19,13.37-1.12,26.78-1.82,40.17-2.67a12.78,12.78,0,0,1,2,.23c-2.78,3.25-5.7,5.35-9.76,5.3-2.46,0-4.94-.43-7.38-.26-3.44.25-7.07.3-10.21,1.49a44.18,44.18,0,0,1-21.28,2.4,20.93,20.93,0,0,0-4.07-.39,11.45,11.45,0,0,0-3,1.14c.6,1,.93,2.54,1.83,3.05a83.32,83.32,0,0,0,11,5.51c12,4.66,24.26,5.25,36.38.58a25.75,25.75,0,0,0,8.37-5.83c2.84-2.8,5.11-6.2,7.51-9.42s5.53-4.75,9.75-3.55c4.55,1.3,9.19,2.26,13.77,3.41a14.28,14.28,0,0,1,2.32,1.13,9.86,9.86,0,0,1-1.6.47,22.08,22.08,0,0,0-13.11,6.22,21.79,21.79,0,0,1-11.78,6,38.17,38.17,0,0,0-21.58,10.32c-3.24,3.06-6.88,5.68-10.21,8.65-1.57,1.4-2.54,3.33-1.2,5.39s3.49,1.7,5.45,1.1c2.27-.69,4.45-1.64,6.71-2.39a47.44,47.44,0,0,1,18.07-2.51c6.65.45,11.92-1.84,15.85-7.31,3.15-4.37,6.55-8.56,9.7-12.93a11,11,0,0,1,9.23-5,40.32,40.32,0,0,0,7.37-.65c6.08-1.29,10.35,2.33,15.8,5.32-2.77,1-4.82,1.92-7,2.47a25.28,25.28,0,0,0-14.48,9.69,26.34,26.34,0,0,1-14,9.56c-8.88,2.66-14.6,9-19.69,16.19-1.86,2.62-.72,5.51,2.37,6.5,3.69,1.18,7.13.4,10.53-1.39,6-3.17,12.08-6.32,18.29-9.12s11-6.57,13.53-12.82c2.86-7.13,8.06-12.28,13.63-17.17a2.21,2.21,0,0,1,2.06-.28c5.9,4.1,12.07,7.87,17.2,13.63-5,1.51-9.65,3.15-14.41,4.29-7.12,1.69-12.26,5.65-16.72,11.46-4.69,6.12-10.38,11.49-15.74,17.08-3.39,3.54-6.52,7.19-7.2,12.25-.3,2.23-.09,4.47,2.12,5.82,2,1.24,4,.69,6-.4,7-4,14.25-7.75,21-12.15a24,24,0,0,0,10.21-15.39,21.3,21.3,0,0,1,11.72-15.26,39.38,39.38,0,0,0,5.15-3.08c1.52-1.07,2.67-1.13,4,.29,2.94,3.1,6,6.09,9.46,9.6a29.89,29.89,0,0,1-4.75,1.48c-11,1.41-18.83,7.31-24.51,16.54-1.39,2.24-3.24,4.2-4.55,6.47-2.26,3.91-2.47,8.29-2.67,12.71-.24,5.45-1,10.87-1.38,16.31a13.3,13.3,0,0,0,.79,3.63c1.21-.36,2.67-.41,3.58-1.14a40.66,40.66,0,0,0,13.94-21c1.79-6.22,4.89-12.13,8-17.89,1.2-2.26,3.77-3.88,5.9-5.56,3-2.4,6.24-4.58,9.79-7.17l15.6,17.65-.49.78c-1.57-.28-3.17-.46-4.71-.84-8-2-15.45-.16-22.42,3.68a13.17,13.17,0,0,0-4.68,5.15,67.47,67.47,0,0,0-4.28,10c-.36,1-.23,2.79.43,3.4s2.44.42,3.39-.07c6.88-3.55,13.77-7.1,20.46-11,5-2.9,10.51-3.52,15.91-4.76a1.85,1.85,0,0,1,1.52.73c2.67,4.11,5.26,8.28,8.37,13.21-2.9.37-5.25,1-7.56.88-4.28-.25-8.52-1-12.78-1.48-12.45-1.31-23,2.87-31,12.25-4.89,5.73-8.84,12.29-13,18.59-.6.9-.77,3-.18,3.58a4.42,4.42,0,0,0,3.81.69c7.17-2.38,12.67-7.26,18.26-12.17,8.06-7.08,17-12.46,28.29-12.93,5.74-.24,11.5-1,16.47-5.26,2.57,5.15,5,9.92,7.66,15.38l-9.2-1.56c-3-.52-6.08-1.26-9.16-1.52a27.11,27.11,0,0,0-16,3.75c-9,5.18-18,10.37-26.9,15.72a5.5,5.5,0,0,0-2.56,3.65c-.08,2.12,2,3.13,3.86,3a76.7,76.7,0,0,0,11-1.17c5.25-1,10.39-2.7,15.66-3.55a26.71,26.71,0,0,0,13-6c6.18-5.16,13.29-6.54,20.94-6.43a2.9,2.9,0,0,1,2.15,1.72c.78,4.46,1.38,9,1.88,13.47.21,1.8-.18,3.67.06,5.46.27,2,2.27,2.75,3.56,1.18,1.08-1.32,2.3-3.22,2.14-4.73a100,100,0,0,0-2.61-15.3c-1-3.61-1.25-6.52,2-9.09s6.53-5.43,9.7-8.26c1.82-1.63,4-3.21,5-5.3,2.83-5.78,7.3-9.87,12.16-13.82,6.86-5.57,9.5-13.64,11.84-21.74.58-2-.71-3.1-2.65-2.27-1.37.59-2.44,1.85-3.72,2.68-3.72,2.42-7.21,5.49-11.28,7-6.66,2.48-11.78,6.2-15.28,12.46-2.58,4.6-6.09,8.69-8.54,13.34-1.84,3.47-2.65,7.49-4.22,12.19-1-2.73-2.51-4.82-2.55-6.95-.13-6.18.65-12.05,6.14-16.47,3.76-3,5.25-7.79,6.56-12.4a44.61,44.61,0,0,1,9.08-17.61,60.83,60.83,0,0,1,6.75-6.38,21.27,21.27,0,0,0,7.26-11c1-3.89,1.93-7.79,2.85-11.7a3.3,3.3,0,0,0,.15-1.87c-.42-1-1-2.43-1.76-2.67s-2.19.66-2.75,1.46c-2.08,3-3.71,6.3-5.93,9.16a19.42,19.42,0,0,1-5.85,5.26c-15.13,8-21.69,21.58-24.58,37.44-1,5.71-1,11.62-1.43,17.44a4.74,4.74,0,0,1-1.07,2.76c-2.27-3.79-4.56-7.55-6.76-11.38-.26-.46-.05-1.23,0-1.84.81-5.22,1.59-10.37,3.88-15.29,1.07-2.29,1-5.38.62-8-.57-4.62.78-8.12,4.72-10.51,7-4.24,11.5-10.64,14.66-17.92a23.61,23.61,0,0,0,1.67-9.3,44.92,44.92,0,0,1,2.12-15.36c.35-1-.34-2.4-.54-3.61-1.22.29-2.73.22-3.61.94-5.8,4.77-10.1,10.36-12.24,17.94-1.38,4.91-4.79,9.34-7.69,13.72s-6.51,8.59-9.61,13c-2.32,3.29-2.45,7-1.2,10.76,1,2.94,2.07,5.85,3.08,8.78a19.79,19.79,0,0,1,.28,10.85c-5.26-6.35-10.27-12.35-15.18-18.43a3.36,3.36,0,0,1-.57-2.67c1-3.3,2.23-6.53,3.38-9.79,1.27-3.61,2.71-7.16,3.75-10.83a14.28,14.28,0,0,1,6.57-9c6.6-3.9,10.59-9.95,13.15-17,2.93-8,5.89-16.1,8.31-24.3,1.23-4.14,1.35-8.61,1.86-12.95a5.59,5.59,0,0,0-.51-2.64c-.89-2.16-2.23-2.32-3.5-.34a30.28,30.28,0,0,0-2.8,5.31c-2.85,7.35-7.66,13.12-13.57,18.24a26.81,26.81,0,0,0-6.29,8.13c-3.86,7.74-7.19,15.74-10.79,23.61-2.16,4.7-2.39,9.67-2.39,14.72,0,4.86-.25,9.72-.4,14.58l-.77,0c-4-4.13-8-8.22-11.91-12.43a2.64,2.64,0,0,1-.15-2.31c.7-1.67,1.68-3.23,2.52-4.84a21.34,21.34,0,0,0,2.41-12.71,13.67,13.67,0,0,1,2.83-10.29,27.27,27.27,0,0,0,5.53-12.94,11.3,11.3,0,0,1,6.62-9.06c7-3.51,11.59-9.61,16.21-15.63,1.14-1.48.51-2.64-1.05-3.2a7.16,7.16,0,0,0-3-.25c-3.73.35-7.45.78-11.18,1.2a17,17,0,0,0-13.68,9.27c-2.36,4.31-5.2,8.38-7.37,12.79-5.26,10.67-8.56,21.69-5,33.77.83,2.83.85,5.91,1.35,9.72a32.75,32.75,0,0,1-3-1.91c-3.59-3-7.12-6-10.72-9a4.56,4.56,0,0,1-1.66-5.57c.88-2.39,1.91-4.75,2.55-7.21a72.65,72.65,0,0,0,2-9.89c.55-4.9,1.78-9.45,4.85-13.43a30.33,30.33,0,0,0,6.49-19.1c-.06-7.56-.63-15.12-1-22.68a62.61,62.61,0,0,0-.36-6.28,14.38,14.38,0,0,0-1.39-3.32c-1.14.74-2.75,1.22-3.33,2.26a61.82,61.82,0,0,0-8,26.22,25.12,25.12,0,0,1-5.56,14.29,11.86,11.86,0,0,0-2.47,5.39c-1,6.85-1.88,13.74-2.34,20.65-.25,3.69.46,7.44.75,11.4-3.34-1.83-6.78-3.73-10.23-5.61-2.48-1.35-4.95-2.73-7.47-4s-3.77-3.13-2.81-6c.6-1.81,1-3.8,2-5.32,3.73-5.43,4.51-11.35,4-17.75a31.34,31.34,0,0,1,.72-10c3.07-11.91,1.44-23.34-2.66-34.67-1-2.8-1.59-5.76-2.46-8.61-.22-.7-.88-1.82-1.24-1.79a3.35,3.35,0,0,0-2.43,1.21,15.84,15.84,0,0,0-1.19,4.44,10.93,10.93,0,0,0-.06,3.28c1.69,12.13-.7,23.61-5.42,34.72a29.23,29.23,0,0,0-.16,23.9c1.56,3.67,1.84,7.88,2.84,12.46-3.22-1.09-5.57-1.79-7.86-2.66-5.17-2-7.2-6-5.56-11.31,2.21-7.13.71-13.66-3.45-19.48a71.8,71.8,0,0,1-10.25-21,43.23,43.23,0,0,0-13.44-20.26c-.88-.76-3.05-1.51-3.39-1.14-1,1.06-1.95,2.78-1.78,4.1.38,3.06,1.46,6,2.19,9,1.06,4.35,2.18,8.68,3.06,13.07,1.56,7.83,4.42,15,9.63,21.19S935.84,655.34,939.06,662.88Z" fill="#2d2d2d"/>
    </g>
    <g opacity="0.53">
      <path d="M515,655.82c1.23-6.7-.67-10.75-6.42-13.55-6.25-3-11.81-6.78-15.69-12.79a7,7,0,0,0-4.41-2.94c-9.52-1.07-13.85-7.88-17.77-15.32-1.79-3.38-3.91-6.6-5.5-10.06-.57-1.25,0-3,0-4.54,1.47.52,3.37.62,4.35,1.62,7.15,7.34,15.6,12.82,24.44,17.82,7.85,4.44,14.41,10.22,18.67,18.33a15.07,15.07,0,0,0,1.38,1.72c.15-1.9.31-3.21.36-4.53.14-4.11.32-8.22.33-12.33a5.14,5.14,0,0,0-1-3.26c-3.72-4-7.51-7.94-11.51-11.65-1.47-1.36-3.52-2.72-5.41-2.88-8.06-.71-14.21-4.84-19.83-10.13a69.91,69.91,0,0,1-17.59-27.07,7.73,7.73,0,0,1-.77-2.88,14.05,14.05,0,0,1,1-3.36c1.12.61,2.58,1,3.29,1.88,2.72,3.54,5,7.39,7.8,10.88a38,38,0,0,0,15.62,12.14c10.74,4.28,18.77,11.73,25.85,20.48l2,2.44.75-.33a27.6,27.6,0,0,0-.58-4.68c-2.72-9.16-5.11-18.45-8.47-27.38a55.85,55.85,0,0,1-2.64-30.12,5.52,5.52,0,0,1,1.15-2.66c1.46-1.62,3.28-1.29,3.68.78,1.65,8.7,6.28,16.06,10.23,23.75,3.75,7.32,3.86,15.2,3.19,23.27-1.12,13.37-1.81,26.78-2.67,40.17a12.91,12.91,0,0,0,.23,2c3.25-2.79,5.35-5.71,5.3-9.76,0-2.47-.43-4.94-.26-7.39.26-3.43.3-7.06,1.49-10.21a44.12,44.12,0,0,0,2.4-21.27,21,21,0,0,1-.39-4.08,11.39,11.39,0,0,1,1.14-3c1,.59,2.54.93,3,1.82a82.83,82.83,0,0,1,5.51,11c4.66,12,5.25,24.25.58,36.37a25.79,25.79,0,0,1-5.83,8.38c-2.8,2.84-6.2,5.11-9.42,7.51s-4.75,5.52-3.54,9.75c1.29,4.54,2.25,9.18,3.4,13.77a14.26,14.26,0,0,0,1.13,2.31,11.45,11.45,0,0,0,.48-1.59,22,22,0,0,1,6.21-13.11,21.82,21.82,0,0,0,6-11.78,38.2,38.2,0,0,1,10.32-21.59c3.06-3.23,5.69-6.87,8.65-10.2,1.41-1.57,3.33-2.54,5.39-1.2s1.7,3.49,1.1,5.45c-.69,2.27-1.64,4.45-2.39,6.7A47.49,47.49,0,0,0,557,636.52c.45,6.65-1.84,11.92-7.31,15.85-4.37,3.15-8.56,6.55-12.93,9.7a11,11,0,0,0-5,9.23,40.13,40.13,0,0,1-.65,7.36c-1.29,6.08,2.33,10.36,5.32,15.81,1-2.78,1.92-4.82,2.47-7A25.29,25.29,0,0,1,548.55,673a26.37,26.37,0,0,0,9.56-14c2.66-8.88,9-14.6,16.19-19.68,2.62-1.87,5.51-.72,6.5,2.37,1.19,3.69.4,7.12-1.39,10.52-3.16,6-6.32,12.09-9.11,18.29s-6.58,11-12.83,13.54c-7.13,2.86-12.28,8.06-17.17,13.63a2.19,2.19,0,0,0-.28,2c4.1,5.91,7.87,12.08,13.63,17.21,1.51-5,3.15-9.65,4.29-14.42,1.69-7.11,5.65-12.26,11.46-16.71,6.12-4.69,11.49-10.38,17.08-15.74,3.54-3.4,7.19-6.53,12.25-7.21,2.23-.3,4.47-.08,5.82,2.13,1.24,2,.69,4-.4,6-4,7-7.75,14.26-12.15,21-3.54,5.46-9,8.79-15.39,10.21a21.29,21.29,0,0,0-15.26,11.71,39.49,39.49,0,0,1-3.08,5.16c-1.07,1.52-1.13,2.67.29,4,3.1,2.94,6.09,6,9.6,9.46a29.89,29.89,0,0,0,1.48-4.75c1.41-11,7.31-18.83,16.54-24.52,2.24-1.38,4.2-3.23,6.47-4.55,3.91-2.25,8.29-2.46,12.71-2.66,5.45-.24,10.87-1,16.31-1.38a13.65,13.65,0,0,1,3.63.78c-.36,1.21-.41,2.68-1.14,3.59a40.66,40.66,0,0,1-21,13.94c-6.22,1.78-12.13,4.89-17.89,7.94-2.26,1.21-3.88,3.77-5.56,5.9-2.4,3-4.58,6.25-7.16,9.8l17.64,15.6.78-.49c-.28-1.57-.46-3.17-.84-4.71-2-8-.16-15.45,3.68-22.42a13.17,13.17,0,0,1,5.15-4.68,67.47,67.47,0,0,1,10-4.28c1-.37,2.79-.23,3.4.43s.42,2.43-.07,3.38c-3.55,6.88-7.1,13.78-11,20.47-2.9,5-3.51,10.51-4.76,15.91a1.85,1.85,0,0,0,.73,1.52c4.11,2.67,8.28,5.26,13.21,8.37.37-2.9,1-5.26.88-7.57-.25-4.27-1-8.51-1.48-12.77-1.31-12.45,2.87-23,12.25-31,5.73-4.9,12.29-8.85,18.59-13,.9-.6,3-.77,3.58-.19A4.43,4.43,0,0,1,645,705c-2.38,7.18-7.26,12.68-12.17,18.27-7.08,8.06-12.46,17-12.93,28.28-.24,5.74-1,11.51-5.26,16.48L630,775.69c-.58-3.43-1.06-6.32-1.56-9.2-.52-3-1.26-6.09-1.52-9.16a27.11,27.11,0,0,1,3.75-16c5.18-9,10.37-18,15.72-26.91a5.48,5.48,0,0,1,3.65-2.55c2.12-.09,3.13,2,3.05,3.86a76.56,76.56,0,0,1-1.17,11c-1,5.26-2.7,10.39-3.55,15.67a26.71,26.71,0,0,1-6,13c-5.16,6.17-6.54,13.29-6.43,20.93a2.9,2.9,0,0,0,1.72,2.16c4.46.78,9,1.38,13.47,1.88,1.8.2,3.67-.18,5.46,0,2,.27,2.75,2.28,1.18,3.56-1.32,1.08-3.22,2.3-4.73,2.15a98.84,98.84,0,0,1-15.3-2.62c-3.6-.94-6.52-1.25-9.09,2s-5.43,6.54-8.26,9.7c-1.63,1.82-3.21,4-5.3,5-5.78,2.82-9.87,7.3-13.82,12.16-5.57,6.86-13.64,9.5-21.74,11.84-2,.58-3.1-.72-2.27-2.66.59-1.36,1.85-2.43,2.68-3.71,2.42-3.72,5.49-7.22,7-11.28,2.48-6.67,6.2-11.78,12.46-15.28,4.6-2.58,8.69-6.09,13.34-8.55,3.48-1.83,7.49-2.64,12.19-4.22-2.73-1-4.82-2.5-7-2.54-6.18-.13-12,.64-16.47,6.13-3,3.77-7.79,5.26-12.4,6.57a44.48,44.48,0,0,0-17.61,9.08,61.63,61.63,0,0,0-6.38,6.74,21.29,21.29,0,0,1-11,7.27c-3.89,1-7.79,1.92-11.7,2.85a3.3,3.3,0,0,1-1.87.15c-1-.42-2.43-1-2.67-1.76s.66-2.19,1.46-2.75c3-2.08,6.3-3.72,9.16-5.94a19.3,19.3,0,0,0,5.26-5.85c8-15.12,21.58-21.69,37.44-24.57,5.71-1,11.62-1,17.44-1.43a4.69,4.69,0,0,0,2.76-1.08c-3.79-2.26-7.55-4.55-11.38-6.75-.46-.26-1.23,0-1.84,0-5.22.81-10.37,1.58-15.29,3.88-2.29,1.07-5.38.95-8,.62-4.61-.57-8.12.78-10.5,4.72-4.25,7-10.65,11.49-17.93,14.66a23.79,23.79,0,0,1-9.3,1.67,44.91,44.91,0,0,0-15.36,2.11c-1,.36-2.4-.33-3.61-.54.29-1.21.22-2.73.94-3.6,4.77-5.8,10.36-10.11,17.94-12.24,4.91-1.38,9.34-4.8,13.72-7.69s8.59-6.51,13-9.62c3.28-2.31,7-2.44,10.75-1.19,2.94,1,5.85,2.06,8.78,3.08a19.79,19.79,0,0,0,10.85.28c-6.35-5.26-12.35-10.27-18.43-15.18a3.35,3.35,0,0,0-2.66-.58c-3.31,1-6.54,2.24-9.8,3.39-3.6,1.27-7.16,2.71-10.83,3.75a14.28,14.28,0,0,0-9,6.57c-3.9,6.59-10,10.58-17,13.14-8,2.94-16.11,5.89-24.31,8.32-4.14,1.23-8.61,1.35-12.95,1.86a5.59,5.59,0,0,1-2.64-.51c-2.16-.9-2.32-2.23-.34-3.5a29.62,29.62,0,0,1,5.31-2.8c7.35-2.85,13.13-7.66,18.24-13.57a26.81,26.81,0,0,1,8.13-6.29c7.74-3.86,15.74-7.19,23.61-10.8,4.71-2.15,9.67-2.38,14.72-2.38,4.86,0,9.72-.26,14.58-.4l0-.78c-4.13-4-8.22-8-12.43-11.9a2.64,2.64,0,0,0-2.31-.15c-1.67.69-3.23,1.67-4.84,2.52A21.4,21.4,0,0,1,538.6,734a13.67,13.67,0,0,0-10.29,2.83,27.28,27.28,0,0,1-12.93,5.53,11.3,11.3,0,0,0-9.07,6.62c-3.51,7-9.61,11.59-15.63,16.21-1.48,1.14-2.64.5-3.19-1a7,7,0,0,1-.26-3c.35-3.73.78-7.46,1.2-11.18a17,17,0,0,1,9.27-13.68c4.31-2.36,8.38-5.2,12.79-7.37,10.67-5.26,21.69-8.57,33.77-5,2.83.83,5.91.84,9.72,1.34a33.72,33.72,0,0,0-1.91-3c-3-3.6-6-7.13-9-10.73a4.56,4.56,0,0,0-5.57-1.65c-2.39.87-4.75,1.91-7.2,2.54a71.33,71.33,0,0,1-9.9,2c-4.9.55-9.45,1.77-13.43,4.85a30.33,30.33,0,0,1-19.1,6.49c-7.56-.06-15.12-.63-22.68-1-2.09-.1-4.21-.06-6.28-.36a14.38,14.38,0,0,1-3.32-1.39c.74-1.14,1.22-2.75,2.26-3.34a61.81,61.81,0,0,1,26.22-8,25.13,25.13,0,0,0,14.29-5.57,11.84,11.84,0,0,1,5.39-2.46c6.85-1,13.74-1.88,20.65-2.34,3.69-.25,7.44.45,11.4.75-1.83-3.34-3.73-6.78-5.61-10.23-1.35-2.48-2.73-4.95-4-7.47s-3.12-3.77-6-2.81c-1.81.6-3.8,1-5.32,2-5.43,3.73-11.35,4.5-17.75,4a31.35,31.35,0,0,0-9.95.73c-11.91,3.07-23.34,1.44-34.67-2.67-2.8-1-5.76-1.58-8.61-2.46-.7-.21-1.82-.87-1.79-1.23a3.35,3.35,0,0,1,1.21-2.43,16.2,16.2,0,0,1,4.44-1.2,10.93,10.93,0,0,1,3.28,0c12.13,1.69,23.61-.7,34.72-5.42a29.23,29.23,0,0,1,23.9-.16c3.67,1.55,7.88,1.84,12.46,2.84-1.09-3.23-1.79-5.58-2.66-7.86-2-5.17-6-7.2-11.31-5.56-7.13,2.21-13.66.71-19.48-3.46a72,72,0,0,0-21-10.25A43.21,43.21,0,0,1,447.42,635c-.76-.89-1.51-3.05-1.14-3.39,1.06-1,2.78-1.95,4.11-1.79,3.05.38,6,1.46,9,2.2,4.35,1.06,8.69,2.18,13.07,3.06,7.83,1.56,15,4.41,21.19,9.62S507.5,652.6,515,655.82Z" fill="#2d2d2d"/>
    </g>
    <g opacity="0.6">
      <path d="M1304,537a8.1,8.1,0,0,0-.62-1.06c-10.74-12.6-27.2-14-38.66-1.39a113.61,113.61,0,0,0-7.7,10.11A33.28,33.28,0,0,1,1245.51,555a26.85,26.85,0,0,1-6.92,2.19c-2.16.46-3.4-.34-4.28-2.37-3.83-8.83-2.57-17.65,6-23.8a44.6,44.6,0,0,1,5.53-3.3,53.06,53.06,0,0,0,9.85-6.09c4.33-3.58,9.62-4.58,15.14-4.43,1.78,0,3.56.28,5.35.4a3,3,0,0,0,1.62-.35,82.94,82.94,0,0,0-26.85-6.83,58,58,0,0,0-27.47,4.44,19.59,19.59,0,0,1,1.93,1.46,13.66,13.66,0,0,1,2.56,2.89,2.89,2.89,0,0,1,0,2.63,3.6,3.6,0,0,1-2.67.83,29.28,29.28,0,0,1-4.5-.95c.17,2.07,0,4,.53,5.74,1.84,5.4,3.89,10.75,6,16,1.71,4.23,3.49,8.48,3,13.12a24.79,24.79,0,0,1-2.28,8c-1.84,3.66-5.27,3.7-7.63.31-1.29-1.85-2.24-3.94-3.47-5.84-.82-1.27-1.85-2.4-2.94-3.77-.7,2.61-1.27,4.83-1.9,7a19.65,19.65,0,0,1-1,2.69c-2.76,6.22-8.57,8-14.07,4-1.71-1.23-2.69-1.13-4.19.19-2.45,2.16-5.32,3.5-8.72,2.63-4.07-1-6.29-4-6.56-8.76a22.72,22.72,0,0,1,0-3.4c.13-1.49-.55-1.8-1.89-1.78-4.2.07-8.39-.17-12.27-2a29.76,29.76,0,0,1-5.26-3c-8.17-6.08-8.79-16.1-1.51-23.23,1-1,2-1.86,3.15-2.93-4-4.06-6.12-8.63-4-14.3s6.8-7.49,12.32-8.91c-.66-.54-1.06-.94-1.52-1.26-2.34-1.64-4.71-3.26-7-4.91-1.28-.91-2.21-2-1.84-3.76s1.56-2.41,3.13-2.79c8.41-2,16.66-2.35,24.52,2.06a3.48,3.48,0,0,0,.84.29,4.27,4.27,0,0,0,.84-.05c0-.93,0-1.85,0-2.78,0-3.51.69-6.81,4.26-8.41a10.38,10.38,0,0,1,10.84,1.22,11.36,11.36,0,0,1,2.7,2.83c3.6,5.36,7,10.84,9.15,17,.2.54.46,1.07.75,1.75.93-.47,1.7-.91,2.49-1.27,1.82-.81,3.05-.3,3.53,1.64.39,1.54.51,3.14.8,5,21.4-8.14,42.22-6.6,63,3.43-.39-1.1-.58-1.68-.8-2.25-1.62-4.36-3.52-8.63-4.82-13.08-2.22-7.62,1.07-14.07,8.4-17.14,2.26-.95,4.61-1.66,6.86-2.6,3.1-1.3,5.52-3.1,5-7.09a1.5,1.5,0,0,1,2.45-1.4A6.7,6.7,0,0,1,1304,473a14.58,14.58,0,0,1-.31,9.49c-1.55,4.19-3,8.44-4.67,12.58a26.3,26.3,0,0,0,2.09,25c2.19,3.53,4.56,7.18,7.65,9.86,10.87,9.44,18.13,21.1,22.82,34.55a38.72,38.72,0,0,0,1.79,4.48,11.34,11.34,0,0,1,.71,7.5,22,22,0,0,1-4.36,10.26c-.67.81-2.06,1.69-2.87,1.5a3.67,3.67,0,0,1-2-2.59c-.54-3-.6-6-1-9a81.56,81.56,0,0,0-8.09-24.72c-2.57-5.13-7.85-7.35-14.25-5.87a113,113,0,0,0-12.77,4c-3.15,1.12-6.21,2.58-9.66,2.2a13.23,13.23,0,0,1-4.12-1.05c-4.48-2.1-5.42-7-2.11-10.7a15.76,15.76,0,0,1,10.1-4.88,51.26,51.26,0,0,1,19.19,1C1302.59,536.74,1303.17,536.82,1304,537Zm-136.33-11.5a45.57,45.57,0,0,1-3.45,3.65c-1.5,1.25-3.29,2.19-4.76,3.48-4.86,4.24-5.3,10.41-1.12,15.08a17.7,17.7,0,0,0,9.46,5.46c7.74,1.77,15-.17,22.14-3a7.77,7.77,0,0,0,1.62-1.29c-3.34-.57-6.3-.93-9.19-1.59-5.57-1.25-7.07-4.57-4.48-9.63a12.45,12.45,0,0,0,1.21-8.14c-.88-5,0-9.51,3.63-13.26a2.91,2.91,0,0,0,.35-.71c-3.47-2.8-6.9-5.58-10.35-8.32a1.46,1.46,0,0,0-1.14-.24,66.07,66.07,0,0,0-8.51,2.63c-3.35,1.5-4.34,4.53-4,8.06.3,3.16,2.11,5,5,6.07A35,35,0,0,1,1167.64,525.47Zm45.67-4.44c0-3.41-.11-3.54-3.35-2.83-6.59,1.46-13.17,1.92-19.84.39a5.6,5.6,0,0,0-7,4.48,12.72,12.72,0,0,0-.21,4.6c.63,4.3.5,8.44-1.68,12.32-.78,1.41-.29,2.14,1,2.74a20.64,20.64,0,0,0,13.12,1.26C1205.34,541.83,1213.22,531.68,1213.31,521ZM1300,480.78l-.38-.51c-4.49,2-9.11,3.69-13.42,6-3.15,1.68-4.32,4.88-3.88,8.43,1.16,9.46,5.73,17.19,12.31,23.87.08.08.29,0,.49.07a6.06,6.06,0,0,0,0-1.29,18,18,0,0,0-.63-2.05,26.86,26.86,0,0,1-.36-17.72c1.35-4.2,2.94-8.32,4.41-12.47C1299,483.66,1299.46,482.22,1300,480.78ZM1217.33,530l-.67-.07c-1,2.64-2.2,5.24-3.11,7.93a10.53,10.53,0,0,0,1,9.11c3,5,5.84,10.13,8.76,15.19a13.43,13.43,0,0,0,1,1.24c.74-2.26,1.79-4.12,1.85-6a21.69,21.69,0,0,0-1-8C1222.82,542.77,1220,536.4,1217.33,530Zm30.06,18.14.38.24a7,7,0,0,0,1.41-1c2.43-2.92,5-5.75,7.18-8.85,4.79-6.87,10.49-12.52,18.62-15.27a8.07,8.07,0,0,0,1.61-1.12,20.88,20.88,0,0,0-9.9-.7c-6.94,1.06-12,4.29-14.14,11.37-1.29,4.27-2.86,8.46-4.3,12.69C1248,546.32,1247.68,547.21,1247.39,548.1Zm53.71-7.3c-6.08-2.34-15.87-2.41-21.42-.21a6.8,6.8,0,0,0-2.85,1.75c-.78,1-1.66,2.48-1.45,3.54a3.17,3.17,0,0,0,3.67,2.2,32.51,32.51,0,0,0,6.81-1.29c4.56-1.56,9-3.41,13.52-5.16C1299.86,541.45,1300.31,541.19,1301.1,540.8Zm-63.21,10.52c5.35-2.35,11.13-14.38,9.65-19.88C1238.59,534.64,1233.57,543.82,1237.89,551.32Zm82.6-.54-.65.3c3.8,8.56,7.1,17.26,8.12,26.63a2.58,2.58,0,0,0,.33.83c.13.26.31.49.61,1,1-2.69,2.13-5.11,1-7.87-2.42-5.83-4.76-11.69-7.23-17.5A21.9,21.9,0,0,0,1320.49,550.78Z" fill="#2d2d2d"/>
    </g>
    <g opacity="0.53">
      <path d="M1212.65,63.18a9.88,9.88,0,0,0-1.41.24c-6.53,2.13-13,1.64-19.44-.38-3.18-1-6.46-1.68-9.71-2.44-2.79-.66-5.49,0-8.18.71-1.11.3-2.57,1-3.11-.35a3.61,3.61,0,0,1,1-3c4.88-4.55,10.41-7.87,17.23-8.64a26.7,26.7,0,0,1,12.77,2.07,78.87,78.87,0,0,0,8.85,3.13,10.47,10.47,0,0,0,10.45-2.8,23.79,23.79,0,0,0,3.43-4.18c-1.07.06-2.15.09-3.23.17-4.73.38-9.27-.18-13.17-3.14-2.57-2-2.45-4.15.13-6.17,3.23-2.51,7-3.1,10.88-2.66,3,.33,6,.9,9,1.38a2.26,2.26,0,0,0,2.69-1.49c3.63-9,6.82-18.19,6.1-28.11-.24-3.29-1.39-6.51-2.1-9.76-.22-1-1.3-2.33.21-2.91,1.28-.49,2.07.77,2.6,1.85A26.2,26.2,0,0,1,1240,7.17c.54,11.42-3,21.91-7.48,32.18-.7,1.6-1.51,3.17-2.34,4.72a13.49,13.49,0,0,0-.54,12,89,89,0,0,1,3.71,10.17,37.7,37.7,0,0,1,.88,7.89c.09,2-.77,2.67-2.77,2.53a9.36,9.36,0,0,1-8.09-5.68c-.93-1.9-1.54-4-2.29-5.94-.26-.69-.51-1.39-.78-2.13-1,1.22-1.63,4.54-1.29,7a26,26,0,0,1-2.29,14.15A37.43,37.43,0,0,1,1196.94,104a2.46,2.46,0,0,1-1,.37c-.71-.06-1.67-.06-2-.5a2.47,2.47,0,0,1,.06-2,7.91,7.91,0,0,1,1.55-2.4,41.6,41.6,0,0,0,8.87-14.84c1.33-3.69,2.69-7.37,4-11.06l-.3-.35a13.34,13.34,0,0,0-2.19,1.24c-2.73,2.3-5.35,4.74-8.1,7a51.19,51.19,0,0,1-17.06,8.83c-6,2-12,3.93-18.06,5.85a4.3,4.3,0,0,1-1.82,0c-1.23-.18-1.27-1-.77-1.85a5.61,5.61,0,0,1,.9-1.11c3.86-4,7.77-7.91,11.58-11.94,4.9-5.19,11-7.87,17.94-8.88,3.94-.57,7.89-1.13,11.79-1.93,4.07-.84,7.2-3.32,9.91-6.36A5,5,0,0,0,1212.65,63.18Z" fill="#2d2d2d"/>
    </g>
    <g opacity="0.53">
      <path d="M155.23,343.51a11.28,11.28,0,0,0-1.41.25c-6.53,2.13-13,1.63-19.44-.38-3.18-1-6.46-1.69-9.71-2.45-2.79-.65-5.49,0-8.18.71-1.11.3-2.57,1-3.11-.35a3.6,3.6,0,0,1,1-3c4.88-4.55,10.41-7.87,17.23-8.64a26.46,26.46,0,0,1,12.77,2.07,76.87,76.87,0,0,0,8.85,3.12A10.45,10.45,0,0,0,163.71,332a24.16,24.16,0,0,0,3.43-4.18c-1.07.05-2.15.08-3.23.17-4.73.37-9.27-.18-13.16-3.15-2.58-2-2.46-4.14.12-6.16,3.23-2.52,7-3.1,10.88-2.66,3,.33,6,.89,9,1.37a2.25,2.25,0,0,0,2.69-1.48c3.63-9,6.82-18.19,6.1-28.11-.23-3.29-1.39-6.51-2.1-9.77-.22-1-1.3-2.33.21-2.9,1.28-.49,2.07.77,2.6,1.85a26.16,26.16,0,0,1,2.33,10.51c.54,11.41-3,21.91-7.48,32.17-.7,1.61-1.51,3.17-2.33,4.72a13.43,13.43,0,0,0-.54,12,89.14,89.14,0,0,1,3.7,10.18,37.63,37.63,0,0,1,.88,7.89c.09,2-.77,2.67-2.77,2.53a9.38,9.38,0,0,1-8.09-5.68c-.93-1.9-1.54-4-2.29-5.95-.26-.69-.51-1.38-.78-2.12-.95,1.21-1.62,4.53-1.29,7a26,26,0,0,1-2.29,14.15,37.43,37.43,0,0,1-19.75,19.93,2.47,2.47,0,0,1-1,.37c-.72-.07-1.68-.07-2-.5a2.49,2.49,0,0,1,.06-2,8.06,8.06,0,0,1,1.55-2.39A41.68,41.68,0,0,0,146.92,365c1.33-3.69,2.7-7.37,4.05-11.06l-.31-.36a13.38,13.38,0,0,0-2.19,1.25c-2.73,2.3-5.35,4.73-8.1,7a51.38,51.38,0,0,1-17.06,8.83c-6,1.95-12,3.93-18,5.85a4.35,4.35,0,0,1-1.83,0c-1.23-.17-1.27-.95-.77-1.84a5.61,5.61,0,0,1,.9-1.11c3.86-4,7.77-7.91,11.58-11.94,4.9-5.19,11-7.87,17.94-8.88,3.94-.57,7.89-1.14,11.79-1.94,4.07-.83,7.2-3.31,9.91-6.35A4.83,4.83,0,0,0,155.23,343.51Z" fill="#2d2d2d"/>
    </g>
    <g opacity="0.53">
      <path d="M279.24,189.16c4.73,2.83,9.76,4.78,15.35,4.21,5.35-.53,10.67-1.39,16-2.24,9.38-1.49,18.32-.48,26.73,4.25,6.53,3.67,13.16,7.17,19.73,10.75a7.71,7.71,0,0,1,1.62,1.07c1,1,1.26,2-.25,2.69a5.62,5.62,0,0,1-2.36.75c-8.55,0-17.09-.18-25.64-.29-8.78-.1-17.38-1.21-25.57-4.53-4.47-1.82-8.82-3.9-13.27-5.78a19,19,0,0,0-3.32-.73l-.26.59q4.85,6.32,9.67,12.64a56.27,56.27,0,0,0,17.41,15.59,10.66,10.66,0,0,1,3,2.47c.57.69,1.16,1.94.89,2.59s-1.53,1.09-2.42,1.46a3.31,3.31,0,0,1-1.49-.06,50.63,50.63,0,0,1-33.51-17.77,35.29,35.29,0,0,1-8.64-17.35c-.57-3.36-2.77-7.37-4.49-8.56-.05,1.07-.09,2.07-.15,3.06-.17,2.87-.14,5.77-.57,8.6-.76,5-3.34,8.69-8.15,10.57-2.53,1-3.92.46-4.59-2.14a50.08,50.08,0,0,1-2-10.54,117.3,117.3,0,0,1,.69-14.62A18.22,18.22,0,0,0,248,170.58c-1.69-1.67-3.37-3.36-4.92-5.15-9.88-11.45-18.69-23.56-22.58-38.51-1.23-4.74-2-9.58-1.22-14.51.25-1.61.77-3.55,2.61-3.43,2.18.13,1.32,2.28,1.44,3.67.39,4.48.2,9.1,1.21,13.44,3.07,13.09,10.86,23.64,19.18,33.83a3.06,3.06,0,0,0,4.07.84c3.66-1.83,7.28-3.75,11-5.39,4.88-2.14,9.94-2.89,15.11-.94,4.15,1.57,5.18,4.34,2.64,7.91-3.83,5.38-9.47,7.93-15.72,9.35-1.43.32-2.83.71-4.25,1.08a32.58,32.58,0,0,0,6.12,4,14.12,14.12,0,0,0,14.61-.59,107.86,107.86,0,0,0,10.17-7.59c4.67-3.72,9.66-6.66,15.64-7.81,9.12-1.75,17.58.32,25.7,4.23,1.2.57,2.64,2.37,2.56,3.5-.15,1.95-2.32,1.64-3.88,1.7-3.75.14-7.5.41-10.83,2.37-3.89,2.29-7.85,4.5-11.56,7.06-7.53,5.2-15.65,8.43-24.93,8.3a15.69,15.69,0,0,0-1.92.26A6.44,6.44,0,0,0,279.24,189.16Z" fill="#2d2d2d"/>
    </g>
    <g opacity="0.53">
      <path d="M1246.32,680.82c-4.73-2.83-9.76-4.78-15.35-4.22-5.35.54-10.67,1.4-16,2.24-9.38,1.5-18.32.49-26.73-4.24-6.53-3.68-13.16-7.17-19.73-10.75a7.77,7.77,0,0,1-1.61-1.07c-1-1-1.27-2,.24-2.7a5.93,5.93,0,0,1,2.36-.75c8.55.06,17.1.19,25.64.29,8.78.11,17.38,1.22,25.57,4.54,4.47,1.81,8.82,3.9,13.27,5.78a19,19,0,0,0,3.32.73l.26-.59q-4.85-6.32-9.67-12.64a56.27,56.27,0,0,0-17.41-15.59,10.66,10.66,0,0,1-3-2.47c-.57-.69-1.16-1.94-.89-2.59s1.53-1.09,2.42-1.46a3.45,3.45,0,0,1,1.49,0,50.65,50.65,0,0,1,33.51,17.78,35.3,35.3,0,0,1,8.64,17.34c.57,3.36,2.77,7.38,4.49,8.56,0-1.07.09-2.06.15-3,.17-2.87.14-5.77.57-8.6.76-4.95,3.34-8.69,8.15-10.58,2.53-1,3.92-.45,4.6,2.15a50.7,50.7,0,0,1,2,10.54,117.3,117.3,0,0,1-.69,14.62,18.22,18.22,0,0,0,5.52,15.26c1.69,1.66,3.37,3.35,4.92,5.15,9.88,11.45,18.69,23.56,22.58,38.51,1.23,4.74,2,9.58,1.22,14.51-.25,1.6-.77,3.54-2.61,3.43-2.18-.14-1.32-2.29-1.44-3.67-.39-4.49-.2-9.1-1.21-13.44-3.07-13.09-10.86-23.65-19.18-33.83a3.06,3.06,0,0,0-4.07-.84c-3.66,1.82-7.28,3.75-11,5.39-4.88,2.14-9.94,2.88-15.11.94-4.15-1.57-5.18-4.35-2.64-7.91,3.83-5.39,9.47-7.93,15.72-9.35,1.43-.32,2.83-.72,4.25-1.08a32.58,32.58,0,0,0-6.12-4,14.12,14.12,0,0,0-14.61.59,106.16,106.16,0,0,0-10.17,7.59c-4.67,3.71-9.66,6.65-15.64,7.8-9.12,1.76-17.58-.31-25.7-4.22-1.2-.57-2.64-2.38-2.56-3.5.15-2,2.32-1.65,3.88-1.7,3.75-.14,7.5-.41,10.83-2.37,3.89-2.29,7.85-4.5,11.56-7.06,7.53-5.2,15.65-8.44,24.93-8.31a15.36,15.36,0,0,0,1.92-.25A6,6,0,0,0,1246.32,680.82Z" fill="#2d2d2d"/>
    </g>
    <g opacity="0.53">
      <path d="M1302.86,445.08a10.75,10.75,0,0,0-.49-1.35c-3.27-6-3.94-12.46-3.12-19.19.41-3.31.5-6.66.66-10,.14-2.86-1-5.41-2.17-7.92-.49-1-1.44-2.35-.21-3.12a3.58,3.58,0,0,1,3.17.47c5.35,4,9.61,8.82,11.59,15.4a26.53,26.53,0,0,1,.26,12.92,77.38,77.38,0,0,0-1.48,9.27,10.46,10.46,0,0,0,4.62,9.78,24.81,24.81,0,0,0,4.73,2.63c-.24-1.05-.47-2.11-.74-3.15-1.22-4.59-1.49-9.16.72-13.52,1.47-2.88,3.64-3.16,6.09-1,3,2.72,4.3,6.29,4.57,10.22.21,3,.2,6.05.26,9.08a2.25,2.25,0,0,0,1.94,2.37c9.53,2,19.13,3.44,28.76,1,3.19-.83,6.15-2.54,9.22-3.82,1-.4,2.06-1.7,2.9-.32.71,1.17-.39,2.17-1.35,2.89a26.26,26.26,0,0,1-9.93,4.18c-11.13,2.59-22.09,1-33-1.58-1.71-.39-3.39-.91-5.06-1.45a13.44,13.44,0,0,0-11.89,1.63,89.38,89.38,0,0,1-9.35,5.46,37.08,37.08,0,0,1-7.6,2.29c-1.94.45-2.77-.28-3-2.27a9.38,9.38,0,0,1,4.13-9c1.71-1.25,3.62-2.22,5.44-3.32l2-1.15c-1.36-.72-4.75-.78-7.15,0a26.06,26.06,0,0,1-14.33.29A37.44,37.44,0,0,1,1259.87,437a2.38,2.38,0,0,1-.55-.95c-.06-.72-.24-1.66.13-2.09a2.44,2.44,0,0,1,2-.31,7.82,7.82,0,0,1,2.63,1.1,41.65,41.65,0,0,0,16.19,6.05c3.87.65,7.74,1.33,11.61,2l.3-.37a13.3,13.3,0,0,0-1.63-1.93c-2.75-2.27-5.61-4.41-8.34-6.71a51.7,51.7,0,0,1-11.75-15.2c-3-5.57-6-11.12-9-16.71a4.12,4.12,0,0,1-.32-1.8c0-1.24.71-1.42,1.68-1.08a5.35,5.35,0,0,1,1.26.69c4.6,3.08,9.17,6.22,13.82,9.24,6,3.88,9.71,9.39,12,16.06,1.27,3.77,2.53,7.55,4,11.24,1.55,3.86,4.56,6.49,8,8.61A4.44,4.44,0,0,0,1302.86,445.08Z" fill="#2d2d2d"/>
    </g>
    <g opacity="0.53">
      <path d="M1166.47,25.14c-2.72,1.41-5.48,2.75-8.16,4.22A45.23,45.23,0,0,1,1132.62,35,42.13,42.13,0,0,1,1117,31.2c-3.29-1.6-7-2.38-10.4-3.7a14.33,14.33,0,0,1-3-2.16c1-.71,2-1.78,3.09-2.06a35.91,35.91,0,0,1,13.89-.77c7.67,1.11,15.33,2.34,23,3.38a51.32,51.32,0,0,0,6.49,0c-.47-.57-.57-.8-.74-.88-6-2.83-12-5.69-18-8.43-1.42-.65-3.06-.77-4.51-1.36-.88-.35-2.16-1.07-2.23-1.74a2.67,2.67,0,0,1,2.15-2.9,23.16,23.16,0,0,1,14.19.53c4.58,1.63,9,3.62,13.62,5.26,8.47,3,16.67,2.09,24.56-2.07,1.83-1,3.64-2,5.46-3l0-.56a14.06,14.06,0,0,0-2.3-.35A50.72,50.72,0,0,1,1160.92,6a117.61,117.61,0,0,1-10.58-6.13,26.1,26.1,0,0,0-11.76-3.65c-.13,0-.29.07-.39,0l-2.84-1.49c.73-.85,1.3-2.13,2.21-2.47a30.33,30.33,0,0,1,13.14-1.72c7.76.62,14.84,3.29,21.71,6.73a60.32,60.32,0,0,0,21.16,5.9,20.27,20.27,0,0,0,12-2.34,26.62,26.62,0,0,0,2.35-1.6c-3.94-.95-7.68-1.69-11.31-2.75a50.26,50.26,0,0,1-19.62-11c-.87-.78-1.17-2.2-1.74-3.32,1.36-.05,2.88-.54,4-.09a101.87,101.87,0,0,0,33.62,7.08c9.4.23,18.82,0,28.21-.4,12.61-.51,24.77,1.34,36.08,7,6,3,11.65,6.88,17.45,10.36a2.44,2.44,0,0,1,.46.39c.67.71,1.69,1.52.68,2.46a2.75,2.75,0,0,1-2.38.11,15.23,15.23,0,0,1-3.18-2c-14.08-10.06-29.54-15.61-47-15-6.83.22-10.5,4.55-13.89,9.42-2.56,3.66-4.62,7.68-7.17,11.36a80.83,80.83,0,0,1-6.19,7.42c-.39.44-1.5.83-1.81.61a3,3,0,0,1-1.18-2,10.14,10.14,0,0,1,.77-3.25c1.41-4.1,2.86-8.18,4.53-13a31.28,31.28,0,0,0-3.32,2.07c-6.16,5.06-10.06,11.73-13.58,18.76a186.84,186.84,0,0,1-9.62,16.77,17.69,17.69,0,0,1-8.56,6.79,15.51,15.51,0,0,1-2.62.44,162.84,162.84,0,0,1,7.34-19.72c2.91-6.22,6.49-12.12,9.94-18.44-1,.38-1.89.7-2.75,1-6.38,2.56-10.55,7.61-14.17,13.07-4.5,6.82-8.7,13.84-12.9,20.85s-10.26,11.55-18.37,13.07c-.86.16-1.86-.45-2.8-.7a7.78,7.78,0,0,1,1.19-2.49c3.43-3.13,5.61-7.11,7.94-11,3.3-5.55,6.85-11,10.28-16.41.23-.37.4-.79.6-1.18Z" fill="#2d2d2d"/>
    </g>
    <g opacity="0.53">
      <path d="M997.19,21.46c-.28-.48-.52-1-.84-1.43C991.58,13.45,986.68,7,982.08.26c-3.25-4.74-6.31-9.55-10.87-13.2-.84-.67-1.15-2-1.7-3,1.16-.4,2.37-1.25,3.46-1.12,10.31,1.25,18.24,6.37,24.15,14.9S1008.81,14.76,1015,23c5,6.57,10.65,12.57,18.86,15.25,1.12.37,2.24.7,3.54,1.09-4.84-7.65-9.83-14.77-14-22.33A204.34,204.34,0,0,1,1012.6-7.21a19.69,19.69,0,0,1,3.33.35A22.14,22.14,0,0,1,1027.23,1a235.93,235.93,0,0,1,13.46,20.28c5,8.54,10.44,16.59,18.59,22.44a39.76,39.76,0,0,0,4.34,2.32c-2.49-5.86-4.65-10.86-6.75-15.9a12.82,12.82,0,0,1-1.23-4,3.69,3.69,0,0,1,1.31-2.65c.37-.31,1.8.1,2.32.62a98.22,98.22,0,0,1,8.39,8.81c3.5,4.41,6.42,9.28,9.93,13.68,4.66,5.83,9.63,11,18.22,10.68,22-.72,41-9,57.85-22.75a19.13,19.13,0,0,1,3.84-2.72c.85-.41,2.39-.56,3-.06,1.34,1.1.12,2.19-.66,3.15a3,3,0,0,1-.54.52c-7,4.85-13.73,10.17-21.07,14.44-13.74,8-28.85,11.34-44.73,11.74-11.83.3-23.68.75-35.46,1.81-14.53,1.32-28.35,5.6-41.64,11.65-1.43.66-3.38.18-5.09.22.61-1.45.87-3.26,1.9-4.31A63.24,63.24,0,0,1,1037,55.48c4.48-1.63,9.1-2.86,14-4.38a30.86,30.86,0,0,0-3.09-1.82,25.57,25.57,0,0,0-15.22-2,75.9,75.9,0,0,0-26.09,9.14c-8.34,4.89-17,8.82-26.7,10.24a38.18,38.18,0,0,1-16.65-1.08c-1.17-.35-2-1.92-3-2.92,1.14-.71,2.28-1.42,3.44-2.1.12-.08.33,0,.49,0a32.68,32.68,0,0,0,14.46-5.54c4.23-2.91,8.3-6.12,12.79-8.56a63.82,63.82,0,0,1,26.37-7.36,19.1,19.1,0,0,0,2.85-.62V37.8c-2.37-1.09-4.72-2.2-7.1-3.27-10.25-4.58-20.63-5.07-31-.58-5.61,2.43-11,5.3-16.66,7.72a29.13,29.13,0,0,1-17.78,1.83A3.37,3.37,0,0,1,945.11,40c0-.85,1.59-1.86,2.66-2.37,1.77-.86,3.83-1.15,5.55-2.08,7.37-3.94,14.66-8,22-12.07.21-.12.32-.41.87-1.16-3.11.2-5.69.08-8.15.58-9.56,1.94-19.08,4.11-28.63,6.13a45.21,45.21,0,0,1-17.5.18c-1.45-.26-2.71-1.53-4-2.34,1.2-1,2.25-2.33,3.62-3,4.2-1.94,8.76-3.22,12.75-5.5,6-3.46,12.57-5.07,19.27-6a57,57,0,0,1,32.72,5c3.5,1.63,7.06,3.09,10.6,4.63Z" fill="#2d2d2d"/>
    </g>
    <g opacity="0.53">
      <path d="M181.36,256.55c-.24.5-.53,1-.72,1.5-2.82,7.62-5.49,15.3-8.5,22.84-2.13,5.34-4.43,10.56-4.93,16.38-.09,1.07-1,2.07-1.56,3.09-1-.74-2.35-1.27-2.85-2.25-4.7-9.26-4.85-18.7-1-28.36s7.57-19.13,10.92-28.85c2.69-7.8,4.52-15.84,2.19-24.16-.32-1.13-.67-2.25-1.06-3.55-3.67,8.28-6.81,16.38-10.78,24.05A205,205,0,0,1,149,259.68a18.31,18.31,0,0,1-1.56-3,22.2,22.2,0,0,1,.21-13.73A235.82,235.82,0,0,1,157,220.53c4.32-8.91,8-17.91,8.31-27.94a41,41,0,0,0-.48-4.9c-3.48,5.33-6.45,9.91-9.46,14.45a12.84,12.84,0,0,1-2.65,3.26,3.67,3.67,0,0,1-2.93.38c-.46-.13-.92-1.55-.78-2.27a101.36,101.36,0,0,1,2.66-11.87c1.72-5.36,4.14-10.49,5.85-15.86,2.25-7.11,3.76-14.1-1.25-21.08-12.86-17.92-30.25-29.1-51.09-35.43a20,20,0,0,1-4.39-1.68c-.81-.48-1.8-1.68-1.72-2.46.17-1.72,1.76-1.32,3-1.2a2.58,2.58,0,0,1,.73.16c7.93,3.12,16.09,5.75,23.72,9.47,14.3,7,25.47,17.68,34.63,30.66,6.82,9.66,13.79,19.26,21.22,28.46,9.18,11.35,20.42,20.45,32.84,28.13,1.34.83,2,2.72,3,4.11-1.55.3-3.19,1.09-4.63.82a63.23,63.23,0,0,1-26-11.15c-3.85-2.82-7.44-6-11.42-9.19a32.42,32.42,0,0,0,.21,3.58,25.6,25.6,0,0,0,6.84,13.74,76.33,76.33,0,0,0,22.1,16.6c8.71,4.22,16.8,9.24,23.37,16.5A38.19,38.19,0,0,1,237,260.25c.37,1.18-.48,2.73-.77,4.11-1.22-.57-2.45-1.12-3.66-1.7-.13-.06-.18-.28-.29-.4a32.81,32.81,0,0,0-12.65-8.94c-4.76-1.89-9.7-3.49-14.22-5.86a64.05,64.05,0,0,1-20.78-17.83,19.2,19.2,0,0,0-2.1-2l-.59.4c.41,2.57.79,5.15,1.23,7.72,1.9,11.07,7.25,20,16.76,26.1,5.15,3.32,10.55,6.24,15.69,9.56A29.18,29.18,0,0,1,227,285.14a3.38,3.38,0,0,1-1.24,4.37c-.72.44-2.42-.29-3.45-.89-1.7-1-3.08-2.55-4.81-3.47-7.37-3.93-14.82-7.72-22.25-11.55a6.43,6.43,0,0,0-1.45-.07,64.77,64.77,0,0,0,5,6.45c6.93,6.87,14,13.57,21,20.38a45.06,45.06,0,0,1,9.88,14.46c.59,1.34.23,3.09.31,4.66-1.5-.43-3.19-.58-4.47-1.36-4-2.41-7.55-5.49-11.66-7.54-6.24-3.1-11.21-7.63-15.73-12.67a57,57,0,0,1-14.09-30c-.58-3.8-1.35-7.58-2-11.37Z" fill="#2d2d2d"/>
    </g>
    <g opacity="0.53">
      <path d="M1120.34,629.7c.05-.55.15-1.1.15-1.65,0-8.13-.23-16.26-.06-24.38.12-5.74.44-11.44-1.14-17.06-.29-1,.24-2.29.38-3.45,1.17.36,2.65.37,3.46,1.12,7.65,7,11.11,15.8,10.93,26.18s-.38,20.58-.1,30.85c.22,8.25,1.32,16.42,6.43,23.4.69.94,1.42,1.87,2.24,2.95.53-9,.63-17.73,1.65-26.31a206.47,206.47,0,0,1,5.29-26,19,19,0,0,1,2.51,2.22,22.26,22.26,0,0,1,4.62,12.94,235,235,0,0,1-.89,24.32c-.91,9.86-1.19,19.57,2,29.07a39.74,39.74,0,0,0,2.17,4.42c1.39-6.21,2.56-11.54,3.79-16.85a13.15,13.15,0,0,1,1.33-4,3.76,3.76,0,0,1,2.61-1.39c.49,0,1.41,1.13,1.53,1.86a100.34,100.34,0,0,1,1.68,12c.27,5.62-.2,11.28.09,16.9.38,7.45,1.43,14.52,8.57,19.3,18.33,12.27,38.53,16.64,60.27,15.25a20,20,0,0,1,4.7,0c.93.17,2.27.94,2.47,1.7.45,1.67-1.18,1.86-2.37,2.18a2.69,2.69,0,0,1-.74.1c-8.52-.14-17.09.26-25.54-.54-15.84-1.51-30.05-7.62-43.18-16.55-9.79-6.66-19.68-13.21-29.87-19.21-12.57-7.41-26.29-12-40.62-14.81-1.54-.31-2.85-1.84-4.26-2.8,1.34-.82,2.61-2.13,4-2.39a63.29,63.29,0,0,1,28.28,1.31c4.6,1.29,9.07,3,13.92,4.59a33.05,33.05,0,0,0-1.45-3.28A25.59,25.59,0,0,0,1134,671.38a76,76,0,0,0-26.53-7.78c-9.63-.9-19-2.76-27.67-7.26A38.15,38.15,0,0,1,1067,645.76c-.75-1-.5-2.72-.71-4.11,1.34.09,2.68.18,4,.3.14,0,.26.2.41.27a32.78,32.78,0,0,0,15,3.93c5.13.1,10.31-.13,15.38.5a63.8,63.8,0,0,1,25.71,9.41,20.59,20.59,0,0,0,2.68,1.15l.41-.57c-1.28-2.27-2.55-4.55-3.86-6.8-5.66-9.7-13.8-16.15-24.85-18.56-6-1.3-12.07-2.14-18-3.45a29.15,29.15,0,0,1-15.51-8.87,3.38,3.38,0,0,1-.37-4.53c.53-.67,2.38-.58,3.55-.38,1.94.34,3.78,1.3,5.72,1.56,8.28,1.09,16.59,2,24.89,3,.23,0,.5-.15,1.38-.44a64.4,64.4,0,0,0-7-4.28c-8.9-4-17.9-7.78-26.83-11.71a45.15,45.15,0,0,1-14.33-10.07c-1-1.05-1.3-2.82-1.92-4.26,1.56-.11,3.18-.57,4.66-.29,4.55.87,9,2.49,13.57,3,6.93.72,13.17,3.21,19.17,6.34a57,57,0,0,1,23.7,23.1c1.89,3.36,3.93,6.63,5.91,9.93Z" fill="#2d2d2d"/>
    </g>
    <g opacity="0.53">
      <path d="M19.36,495.84c5.17-4.43,6.25-8.77,3.55-14.57C20,475,18,468.56,18.8,461.46a7,7,0,0,0-1.57-5.07c-6.72-6.83-5.78-14.85-4.14-23.1.75-3.75,1.13-7.58,2.08-11.27.35-1.33,1.88-2.35,2.87-3.51.82,1.33,2.23,2.6,2.36,4,.93,10.2,4,19.79,7.73,29.24,3.3,8.4,4.75,17,2.94,26a14.83,14.83,0,0,0,0,2.2c1.31-1.37,2.26-2.3,3.13-3.29,2.71-3.1,5.44-6.18,8-9.36a5.15,5.15,0,0,0,1.32-3.14c-.37-5.44-.83-10.9-1.59-16.3a10.32,10.32,0,0,0-2.39-5.65c-5.81-5.62-8-12.71-9-20.36A69.76,69.76,0,0,1,34,389.75,7.74,7.74,0,0,1,35.18,387a14.3,14.3,0,0,1,2.91-2c.48,1.18,1.4,2.37,1.37,3.53-.12,4.46-.75,8.91-.81,13.37a38.22,38.22,0,0,0,4.47,19.27c5.64,10.09,7.18,20.93,7.16,32.2,0,1,0,2.09,0,3.14l.79.21a29,29,0,0,0,2.5-4c3.66-8.82,7.66-17.54,10.69-26.59A55.82,55.82,0,0,1,81.2,401.14a5.5,5.5,0,0,1,2.56-1.33c2.16-.34,3.37,1.06,2.36,2.92-4.2,7.79-5.24,16.43-7,24.89-1.7,8-6.58,14.23-12.19,20.06-9.29,9.68-18.29,19.65-27.4,29.51a13.21,13.21,0,0,0-1,1.66c4.28-.11,7.74-1.06,10.27-4.23,1.53-1.93,2.77-4.11,4.45-5.9,2.36-2.5,4.68-5.29,7.59-7a44.12,44.12,0,0,0,15.28-15,20.58,20.58,0,0,1,2.26-3.41,11.3,11.3,0,0,1,2.79-1.63c.44,1.12,1.39,2.32,1.22,3.34a84,84,0,0,1-2.64,12c-4,12.26-11.22,22.14-22.48,28.6a25.8,25.8,0,0,1-9.81,2.83,80.72,80.72,0,0,1-12-.12c-4.19-.17-7.17,1.3-8.9,5.34-1.86,4.34-4.05,8.55-6,12.83a13.48,13.48,0,0,0-.58,2.51,11.23,11.23,0,0,0,1.37-.94,22,22,0,0,1,13.08-6.26,21.77,21.77,0,0,0,12.08-5.36A38.21,38.21,0,0,1,68,486.21c4.41-.58,8.74-1.75,13.14-2.46,2.08-.34,4.19.12,4.94,2.46s-.88,3.78-2.58,4.92c-2,1.33-4.08,2.42-6.08,3.7a47.28,47.28,0,0,0-13.34,12.45c-3.85,5.45-9,8.09-15.67,7.7-5.38-.32-10.78-.32-16.16-.63a11,11,0,0,0-9.69,4,39.71,39.71,0,0,1-5.15,5.3c-4.83,3.91-4.71,9.51-5.83,15.63,2.52-1.53,4.53-2.53,6.3-3.84a25.25,25.25,0,0,1,16.65-5.13,26.42,26.42,0,0,0,16.25-4.84c7.67-5.22,16.23-5.63,25-5.08,3.21.21,4.73,2.91,3.55,5.94-1.41,3.61-4.19,5.78-7.71,7.3C65.32,536.33,59.05,539,53,542.09s-12.06,4.42-18.49,2.42c-7.34-2.27-14.61-1.48-21.93-.24-.58.1-1.47.89-1.5,1.42-.55,7.16-1.51,14.33-.27,21.95,4.32-2.94,8.53-5.51,12.41-8.49,5.8-4.45,12.12-5.95,19.44-5.74,7.71.21,15.46-.82,23.18-1.46,4.89-.4,9.7-.53,14.06,2.14,1.91,1.17,3.51,2.74,3.17,5.31-.32,2.38-2,3.58-4.06,4.38-7.56,2.93-15,6.17-22.7,8.66a24,24,0,0,1-18.39-1.77,21.28,21.28,0,0,0-19.22-.53A40.65,40.65,0,0,1,13,572.21c-1.79.49-2.56,1.36-2.31,3.29.55,4.23,1,8.49,1.49,13.39a30.7,30.7,0,0,0,4.15-2.75c8-7.62,17.54-10,28.29-8.6,2.61.34,5.3.13,7.9.55,4.45.71,8,3.31,11.54,5.94,4.38,3.25,9.07,6.08,13.53,9.21a13.38,13.38,0,0,1,2.32,2.9c-1,.71-2,1.82-3.14,2.06a40.6,40.6,0,0,1-25.13-2.45c-6-2.53-12.5-3.85-18.9-5.11-2.51-.49-5.39.48-8,1.08-3.78.84-7.5,1.95-11.74,3.08,1.23,7.4,2.55,15.32,3.86,23.24l.91.1c.78-1.39,1.65-2.74,2.33-4.18,3.51-7.46,9.61-12.1,17-15.08a13.23,13.23,0,0,1,6.94-.39,67.8,67.8,0,0,1,10.49,3c1,.35,2.32,1.58,2.38,2.48s-1.22,2.15-2.2,2.58c-7.09,3.1-14.19,6.21-21.43,9-5.39,2-9.35,6-13.72,9.36a1.84,1.84,0,0,0-.4,1.63c1.51,4.67,3.11,9.31,5,14.83,2.11-2,4.1-3.44,5.45-5.31,2.5-3.48,4.57-7.26,6.91-10.86,6.83-10.49,16.7-16,29-16.32,7.54-.18,15.11.88,22.65,1.59,1.09.1,2.84,1.31,2.91,2.12a4.5,4.5,0,0,1-1.87,3.39c-6.38,4.06-13.63,5.26-21,6.5-10.57,1.8-20.41,5.37-27.87,13.8-3.8,4.31-8,8.34-14.47,9.48L33,661.36c1.72-3,3.16-5.57,4.59-8.12,1.53-2.7,2.86-5.53,4.6-8.07a27.1,27.1,0,0,1,13-10.08c9.7-3.72,19.4-7.44,29.17-11a5.5,5.5,0,0,1,4.45.31c1.7,1.28,1.18,3.51-.07,4.92a76.25,76.25,0,0,1-7.86,7.81c-4.09,3.45-8.65,6.36-12.63,9.92a26.59,26.59,0,0,1-12.84,6.36c-7.9,1.54-13.45,6.2-18.19,12.2a2.89,2.89,0,0,0,0,2.75c3,3.42,6.09,6.73,9.27,10,1.27,1.29,3,2.17,4.2,3.48,1.42,1.5.7,3.5-1.33,3.51-1.7,0-4-.24-5-1.32a99.6,99.6,0,0,1-10.23-11.68c-2.2-3-4.27-5.08-8.29-4.19s-8.34,1.65-12.53,2.31c-2.42.39-5,1.1-7.29.58-6.27-1.46-12.26-.56-18.39.72-8.66,1.81-16.58-1.23-24.35-4.52-1.93-.82-1.95-2.51-.08-3.49,1.32-.69,3-.72,4.42-1.19,4.23-1.36,8.81-2.14,12.55-4.35,6.12-3.6,12.23-5.23,19.3-4,5.19.9,10.58.75,15.74,1.78,3.86.77,7.48,2.67,12.13,4.41-1.46-2.54-2.17-5-3.79-6.36-4.72-4-9.76-7.09-16.65-5.62-4.73,1-9.37-.83-13.77-2.72a44.71,44.71,0,0,0-19.39-4.06,61,61,0,0,0-9.21,1.21,21.23,21.23,0,0,1-13.12-1.29c-3.65-1.67-7.26-3.42-10.88-5.16-.56-.28-1.28-.58-1.54-1.07-.52-1-1.28-2.28-1-3.05s1.9-1.28,2.87-1.21c3.63.26,7.23,1.08,10.85,1.17A19.37,19.37,0,0,0-40.51,631c15.74-6.7,30.43-3.23,44.56,4.53,5.09,2.8,9.63,6.58,14.44,9.89a4.65,4.65,0,0,0,2.82.9c-1.51-4.14-3-8.3-4.58-12.41-.19-.5-.92-.82-1.45-1.13-4.56-2.67-9-5.31-14.32-6.63-2.45-.62-4.77-2.66-6.61-4.58-3.22-3.35-6.79-4.51-11.13-3-7.72,2.77-15.51,2.22-23.16.08a23.87,23.87,0,0,1-8.27-4.57,45,45,0,0,0-13.25-8c-1-.36-1.65-1.77-2.47-2.69,1-.76,1.9-2,3-2.21,7.35-1.5,14.41-1.32,21.64,1.81,4.69,2,10.27,2.16,15.5,2.68s10.77.36,16.14.72c4,.28,7,2.52,9.1,5.85,1.67,2.62,3.23,5.3,4.87,7.93a19.78,19.78,0,0,0,8.25,7.06c-1.61-8.08-3.11-15.75-4.73-23.4a3.42,3.42,0,0,0-1.71-2.13c-3.2-1.31-6.49-2.38-9.74-3.55-3.6-1.28-7.27-2.4-10.77-3.91a14.3,14.3,0,0,0-11.13-.58c-7.18,2.66-14.4,2-21.45-.49-8.1-2.79-16.22-5.58-24.12-8.87-4-1.66-7.53-4.38-11.22-6.72A5.59,5.59,0,0,1-82,575.53c-1.12-2.06-.4-3.2,1.94-2.93a30.27,30.27,0,0,1,5.89,1.17c7.5,2.43,15,2.33,22.71,1A26.69,26.69,0,0,1-41.2,575c8.44,1.89,16.76,4.35,25.14,6.51,5,1.29,9,4.24,12.93,7.43,3.77,3.07,7.7,5.93,11.56,8.88l.53-.57c-.69-5.7-1.34-11.4-2.15-17.08a2.67,2.67,0,0,0-1.69-1.58c-1.74-.51-3.57-.73-5.35-1.1a21.35,21.35,0,0,1-11.39-6.13,13.63,13.63,0,0,0-9.77-4.3,27.17,27.17,0,0,1-13.52-3.86,11.33,11.33,0,0,0-11.22-.58c-7.14,3.25-14.76,2.94-22.34,2.74-1.88-.05-2.37-1.28-1.82-2.84a7.08,7.08,0,0,1,1.67-2.45c2.62-2.68,5.3-5.3,8-7.92a17,17,0,0,1,15.82-4.78c4.84.88,9.79,1.25,14.57,2.34,11.61,2.65,22.24,7,29.39,17.39,1.68,2.43,4.06,4.38,6.7,7.17a32.77,32.77,0,0,0,.41-3.54c0-4.66-.17-9.32-.2-14a4.56,4.56,0,0,0-3.28-4.8c-2.41-.83-4.89-1.51-7.2-2.57a70.87,70.87,0,0,1-8.91-4.72c-4.15-2.67-8.45-4.58-13.49-4.7a30.34,30.34,0,0,1-18.91-7c-5.83-4.81-11.34-10-17-15.05-1.56-1.4-3.23-2.71-4.64-4.25a13.73,13.73,0,0,1-1.7-3.17c1.29-.41,2.67-1.36,3.86-1.16a61.76,61.76,0,0,1,25.36,10.35,25.18,25.18,0,0,0,14.6,4.7,11.88,11.88,0,0,1,5.74,1.48C-13.57,529.39-7.67,533-2,537c3,2.13,5.49,5.05,8.38,7.77.68-3.74,1.38-7.61,2.1-11.48.51-2.77,1-5.56,1.6-8.32s-.05-4.89-2.87-6c-1.78-.67-3.57-1.64-5.4-1.78-6.57-.53-11.66-3.66-16.32-8.07a31.2,31.2,0,0,0-8.18-5.71c-11.18-5.13-19-13.6-25.23-23.92-1.53-2.56-3.47-4.87-5.14-7.35-.4-.6-.86-1.82-.61-2.08A3.39,3.39,0,0,1-51.22,469,15.84,15.84,0,0,1-47,470.9a11,11,0,0,1,2.58,2c8.34,9,18.76,14.34,30.37,17.68A29.25,29.25,0,0,1,4.59,505.55c1.87,3.52,4.95,6.4,7.88,10.05,1.19-3.18,2.12-5.45,2.89-7.77,1.73-5.25-.12-9.38-5.28-11.45-6.92-2.77-11-8.06-12.94-15a71.86,71.86,0,0,0-9.86-21.21A43.24,43.24,0,0,1-20,437c0-1.17.74-3.33,1.25-3.36,1.44-.08,3.39.25,4.31,1.21,2.13,2.22,3.75,4.92,5.63,7.4,2.71,3.56,5.36,7.17,8.22,10.61C4.53,459,8.32,465.78,9.81,473.7S15.53,488.58,19.36,495.84Z" fill="#2d2d2d"/>
    </g>
    <g opacity="0.53">
      <path d="M56.21,163c5.17,4.42,6.25,8.76,3.56,14.56-2.94,6.3-4.9,12.71-4.12,19.82a7,7,0,0,1-1.56,5.07c-6.72,6.83-5.79,14.84-4.14,23.09.74,3.75,1.12,7.58,2.08,11.28.34,1.32,1.87,2.34,2.87,3.51.81-1.33,2.22-2.61,2.35-4,.93-10.21,4-19.79,7.74-29.24,3.29-8.4,4.75-17,2.94-26a14.37,14.37,0,0,1,0-2.2c1.32,1.38,2.27,2.3,3.14,3.3,2.7,3.09,5.43,6.17,8,9.36a5.1,5.1,0,0,1,1.32,3.13c-.37,5.45-.82,10.9-1.59,16.3a10.18,10.18,0,0,1-2.39,5.65c-5.81,5.63-8,12.71-9,20.36a69.75,69.75,0,0,0,3.42,32.1A7.62,7.62,0,0,0,72,271.85a15.4,15.4,0,0,0,2.9,2c.49-1.18,1.41-2.38,1.37-3.54-.11-4.46-.74-8.91-.8-13.37A38.13,38.13,0,0,1,80,237.64c5.64-10.09,7.18-20.93,7.16-32.19v-3.14l.79-.22a27.17,27.17,0,0,1,2.5,4c3.66,8.83,7.67,17.55,10.69,26.59a55.77,55.77,0,0,0,16.94,25.05,5.55,5.55,0,0,0,2.57,1.34c2.15.33,3.36-1.07,2.36-2.93-4.21-7.79-5.24-16.42-7-24.89-1.71-8-6.59-14.23-12.19-20.06-9.3-9.68-18.3-19.65-27.41-29.5a13.21,13.21,0,0,1-1-1.66c4.28.1,7.75,1.05,10.27,4.22,1.53,1.93,2.78,4.12,4.45,5.9,2.36,2.51,4.69,5.29,7.59,7a44.12,44.12,0,0,1,15.28,15,20.72,20.72,0,0,0,2.27,3.42,11.24,11.24,0,0,0,2.79,1.63c.43-1.12,1.39-2.33,1.22-3.34a84.17,84.17,0,0,0-2.64-12c-4-12.26-11.22-22.13-22.49-28.59a25.63,25.63,0,0,0-9.8-2.83c-4-.44-8-.06-12,.11-4.19.17-7.17-1.3-8.9-5.33-1.86-4.35-4-8.55-6-12.84a14.34,14.34,0,0,1-.58-2.51,11.23,11.23,0,0,1,1.37.94,22,22,0,0,0,13.09,6.26,21.74,21.74,0,0,1,12.08,5.37,38.24,38.24,0,0,0,21.62,10.24c4.41.58,8.75,1.76,13.15,2.47,2.08.33,4.18-.13,4.94-2.47s-.89-3.78-2.59-4.92c-2-1.32-4.08-2.42-6.07-3.7a47.32,47.32,0,0,1-13.35-12.45c-3.85-5.45-8.94-8.09-15.67-7.69-5.38.31-10.77.31-16.15.63a11,11,0,0,1-9.69-4,40.43,40.43,0,0,0-5.15-5.31c-4.83-3.91-4.72-9.51-5.84-15.62,2.53,1.52,4.53,2.52,6.31,3.84a25.29,25.29,0,0,0,16.64,5.12,26.46,26.46,0,0,1,16.26,4.85c7.66,5.21,16.22,5.63,25,5.07,3.2-.21,4.72-2.91,3.54-5.94-1.41-3.61-4.18-5.78-7.71-7.29-6.26-2.69-12.52-5.4-18.61-8.45s-12-4.41-18.49-2.42c-7.34,2.28-14.61,1.49-21.92.25a2.22,2.22,0,0,1-1.51-1.43c-.54-7.16-1.51-14.33-.27-21.94,4.33,2.93,8.53,5.5,12.42,8.48,5.8,4.46,12.12,6,19.43,5.75,7.71-.22,15.47.81,23.19,1.45,4.88.4,9.69.53,14-2.13,1.91-1.17,3.52-2.75,3.17-5.32-.32-2.37-2-3.58-4.06-4.37-7.55-2.94-15-6.18-22.7-8.67a24,24,0,0,0-18.38,1.78,21.3,21.3,0,0,1-19.23.52,39.36,39.36,0,0,0-5.65-2.06c-1.79-.5-2.55-1.36-2.3-3.3.55-4.23,1-8.49,1.49-13.39a31.17,31.17,0,0,1,4.14,2.75c8,7.63,17.55,10,28.3,8.61,2.61-.35,5.3-.14,7.89-.56,4.45-.71,8-3.31,11.54-5.94,4.39-3.24,9.07-6.07,13.53-9.21a13.18,13.18,0,0,0,2.33-2.9c-1.05-.71-2-1.82-3.15-2.06a40.68,40.68,0,0,0-25.13,2.45C82.56,65.66,76,67,69.62,68.23c-2.52.5-5.39-.48-8-1.07-3.78-.85-7.49-2-11.74-3.09,1.23-7.4,2.55-15.31,3.87-23.23l.91-.11c.78,1.39,1.64,2.74,2.32,4.18,3.51,7.46,9.61,12.1,17,15.08a13.23,13.23,0,0,0,6.94.39,67.88,67.88,0,0,0,10.5-3c1-.36,2.31-1.59,2.37-2.49s-1.21-2.15-2.19-2.58c-7.1-3.1-14.2-6.21-21.44-9-5.38-2-9.35-6-13.72-9.36A1.83,1.83,0,0,1,56,32.37c1.51-4.67,3.1-9.31,5-14.83,2.12,2,4.11,3.44,5.46,5.32,2.49,3.48,4.56,7.26,6.9,10.85,6.83,10.49,16.7,16,29,16.32,7.54.19,15.12-.88,22.66-1.59,1.08-.1,2.84-1.31,2.9-2.12a4.46,4.46,0,0,0-1.87-3.39c-6.37-4.06-13.63-5.25-21-6.5-10.56-1.79-20.41-5.36-27.86-13.8-3.81-4.31-8-8.33-14.47-9.48,2.38-5.23,4.58-10.09,7.11-15.64l4.59,8.12c1.52,2.7,2.85,5.53,4.59,8.08a27.2,27.2,0,0,0,13,10.08c9.7,3.71,19.4,7.43,29.16,11a5.54,5.54,0,0,0,4.45-.32c1.7-1.27,1.19-3.5-.07-4.92a75.17,75.17,0,0,0-7.85-7.81c-4.1-3.45-8.65-6.36-12.63-9.92A26.77,26.77,0,0,0,92.29,5.43C84.39,3.89,78.83-.77,74.1-6.77a2.89,2.89,0,0,1,0-2.75c3-3.42,6.09-6.72,9.27-10,1.27-1.29,3-2.17,4.21-3.48,1.42-1.5.7-3.5-1.33-3.51-1.71,0-4,.25-5,1.32A100.41,100.41,0,0,0,71-13.47c-2.19,3-4.27,5.08-8.29,4.2s-8.33-1.66-12.53-2.32c-2.41-.39-5-1.1-7.29-.57-6.27,1.45-12.26.56-18.39-.73C15.81-14.7,7.89-11.66.12-8.37c-1.93.82-2,2.51-.09,3.49,1.32.69,3,.73,4.43,1.2C8.68-2.32,13.26-1.54,17,.66c6.13,3.61,12.24,5.23,19.3,4,5.2-.91,10.59-.76,15.75-1.78C55.9,2.12,59.53.22,64.17-1.53,62.71,1,62,3.46,60.38,4.83c-4.72,4-9.76,7.1-16.65,5.62-4.73-1-9.37.84-13.77,2.73a44.65,44.65,0,0,1-19.39,4.06A62.46,62.46,0,0,1,1.36,16a21.23,21.23,0,0,0-13.12,1.3C-15.41,19-19,20.73-22.63,22.47c-.57.28-1.29.58-1.55,1.07-.52,1-1.28,2.28-1,3.05s1.9,1.28,2.88,1.21c3.62-.26,7.23-1.08,10.85-1.16a19.25,19.25,0,0,1,7.77,1.22c15.73,6.7,30.43,3.23,44.56-4.53,5.08-2.79,9.63-6.57,14.43-9.88a4.64,4.64,0,0,1,2.82-.91c-1.51,4.14-3,8.3-4.57,12.41-.19.5-.93.82-1.46,1.14-4.55,2.66-9.05,5.31-14.31,6.63-2.45.61-4.78,2.65-6.62,4.57-3.22,3.35-6.79,4.52-11.13,3C12.35,37.48,4.57,38-3.08,40.17a23.69,23.69,0,0,0-8.27,4.57,44.89,44.89,0,0,1-13.26,8c-1,.36-1.65,1.77-2.46,2.7,1,.76,1.89,2,3,2.2,7.36,1.5,14.41,1.32,21.64-1.81,4.69-2,10.27-2.16,15.5-2.68s10.77-.36,16.14-.72c4-.27,7-2.52,9.1-5.85C40,44,41.55,41.33,43.19,38.69c1.92-3.1,4.68-5.22,8.25-7.06C49.82,39.71,48.32,47.39,46.7,55A3.37,3.37,0,0,1,45,57.16c-3.19,1.31-6.48,2.38-9.74,3.55C31.66,62,28,63.11,24.49,64.62a14.26,14.26,0,0,1-11.13.58C6.17,62.54-1,63.26-8.1,65.69c-8.1,2.8-16.21,5.58-24.11,8.87-4,1.66-7.54,4.38-11.22,6.72a5.53,5.53,0,0,0-1.73,2.06c-1.11,2.06-.39,3.2,1.94,2.94a30.74,30.74,0,0,0,5.89-1.18c7.5-2.42,15-2.33,22.72-1a26.69,26.69,0,0,0,10.27-.24C4.1,82,12.41,79.55,20.79,77.38c5-1.29,9-4.24,12.93-7.43S41.43,64,45.29,61.07l.52.58c-.69,5.69-1.34,11.39-2.14,17.07A2.68,2.68,0,0,1,42,80.3c-1.74.51-3.56.73-5.35,1.1a21.35,21.35,0,0,0-11.38,6.13,13.64,13.64,0,0,1-9.77,4.3A27.28,27.28,0,0,0,1.94,95.69a11.29,11.29,0,0,1-11.21.58C-16.42,93-24,93.33-31.62,93.54c-1.87,0-2.37,1.27-1.82,2.83a7.12,7.12,0,0,0,1.67,2.46c2.62,2.67,5.3,5.29,8,7.91A17,17,0,0,0-8,111.52c4.84-.88,9.79-1.25,14.58-2.34,11.6-2.65,22.24-7,29.38-17.39,1.68-2.43,4.06-4.38,6.7-7.17a32.77,32.77,0,0,1,.41,3.54c0,4.66-.17,9.32-.19,14a4.57,4.57,0,0,1-3.29,4.79c-2.41.83-4.89,1.52-7.19,2.57a71.49,71.49,0,0,0-8.91,4.72c-4.16,2.67-8.46,4.58-13.49,4.7a30.37,30.37,0,0,0-18.92,7c-5.83,4.81-11.34,10-17,15.06a62.33,62.33,0,0,0-4.65,4.24,14.53,14.53,0,0,0-1.7,3.17c1.29.42,2.68,1.37,3.86,1.16A61.8,61.8,0,0,0-3,139.21a25,25,0,0,1,14.6-4.69A12,12,0,0,0,17.33,133c6-3.55,11.85-7.21,17.51-11.21,3-2.13,5.48-5,8.38-7.77.68,3.75,1.37,7.61,2.09,11.48.51,2.78,1,5.56,1.6,8.32s0,4.89-2.87,5.95c-1.78.67-3.56,1.64-5.4,1.79-6.57.52-11.65,3.66-16.32,8.06a30.88,30.88,0,0,1-8.18,5.71C3,160.5-4.88,169-11.09,179.3c-1.53,2.55-3.47,4.86-5.13,7.34-.41.6-.87,1.83-.61,2.08a3.36,3.36,0,0,0,2.47,1.13,16.07,16.07,0,0,0,4.2-1.87,10.87,10.87,0,0,0,2.58-2c8.35-9,18.77-14.34,30.37-17.68a29.25,29.25,0,0,0,18.65-15c1.87-3.52,5-6.4,7.88-10,1.19,3.18,2.13,5.45,2.89,7.78,1.74,5.24-.12,9.37-5.27,11.44-6.92,2.78-11,8.06-12.95,15a71.85,71.85,0,0,1-9.85,21.21,43.26,43.26,0,0,0-7.26,23.21c0,1.16.75,3.32,1.25,3.35,1.44.09,3.39-.24,4.31-1.2,2.14-2.22,3.75-4.93,5.63-7.4,2.71-3.57,5.37-7.17,8.22-10.62,5.09-6.15,8.88-12.91,10.38-20.83S52.39,170.29,56.21,163Z" fill="#2d2d2d"/>
    </g>
    <g opacity="0.53">
      <path d="M296.85,73.15c6.58-1.72,10.77-.13,14,5.39,3.5,6,7.65,11.27,13.93,14.68A7,7,0,0,1,328,97.4c1.78,9.41,8.9,13.22,16.61,16.57,3.51,1.52,6.88,3.4,10.45,4.72,1.29.48,3-.2,4.52-.35-.63-1.43-.87-3.32-1.94-4.22-7.85-6.58-14-14.6-19.61-23-5-7.5-11.27-13.61-19.68-17.25a15.12,15.12,0,0,1-1.82-1.24c1.88-.29,3.18-.55,4.5-.69,4.08-.46,8.17-1,12.26-1.26a5.22,5.22,0,0,1,3.33.7c4.26,3.41,8.48,6.9,12.48,10.61a10.23,10.23,0,0,1,3.28,5.18c1.31,8,5.89,13.8,11.59,19a69.89,69.89,0,0,0,28.32,15.5,7.69,7.69,0,0,0,2.93.56,15.09,15.09,0,0,0,3.27-1.26c-.69-1.07-1.15-2.51-2.12-3.15-3.73-2.44-7.74-4.46-11.44-7a38,38,0,0,1-13.28-14.66c-5.07-10.39-13.1-17.83-22.37-24.24l-2.58-1.79.28-.77a27.29,27.29,0,0,1,4.71.23c9.34,2,18.78,3.71,27.93,6.38a55.79,55.79,0,0,0,30.24.37A5.5,5.5,0,0,0,412.47,75c1.5-1.57,1-3.37-1.06-3.6-8.8-1-16.48-5.07-24.45-8.42-7.59-3.19-15.45-2.7-23.44-1.43-13.25,2.12-26.57,3.82-39.86,5.68a12.39,12.39,0,0,1-2-.08c2.53-3.45,5.29-5.76,9.33-6,2.46-.16,5,.06,7.39-.3,3.4-.51,7-.83,10.07-2.25a44.19,44.19,0,0,1,21-4,20,20,0,0,0,4.09.09,11.56,11.56,0,0,0,2.93-1.36c-.67-1-1.11-2.47-2-2.91a84.11,84.11,0,0,0-11.35-4.67C350.8,42,338.54,42.33,326.81,47.9a25.76,25.76,0,0,0-7.91,6.44,80.45,80.45,0,0,0-6.78,10c-2.25,3.54-5.15,5.15-9.46,4.27-4.63-.95-9.33-1.55-14-2.36a13.81,13.81,0,0,1-2.39-1,11.69,11.69,0,0,1,1.55-.59,22,22,0,0,0,12.61-7.17,21.68,21.68,0,0,1,11.3-6.86,38.2,38.2,0,0,0,20.74-11.92c3-3.3,6.43-6.19,9.53-9.4,1.46-1.51,2.28-3.51.79-5.46s-3.61-1.43-5.52-.69c-2.2.86-4.31,2-6.5,2.89a47.47,47.47,0,0,1-17.84,3.86c-6.67.05-11.74,2.73-15.25,8.48-2.81,4.6-5.89,9-8.7,13.63a11,11,0,0,1-8.83,5.67,40.48,40.48,0,0,0-7.29,1.2c-6,1.74-10.51-1.55-16.17-4.12,2.69-1.2,4.66-2.27,6.75-3A25.28,25.28,0,0,0,277.16,41a26.39,26.39,0,0,1,13.25-10.58c8.65-3.32,13.87-10.12,18.41-17.63,1.66-2.75.3-5.54-2.85-6.3-3.78-.9-7.14.14-10.4,2.18C289.8,12.31,284,15.91,278,19.16S267.52,26.55,265.49,33c-2.32,7.33-7.11,12.85-12.3,18.15a2.2,2.2,0,0,1-2,.43C245,47.91,238.53,44.61,233,39.25c4.88-1.88,9.38-3.86,14.05-5.35,7-2.23,11.8-6.57,15.8-12.69C267.05,14.75,272.32,9,277.25,3c3.12-3.78,6-7.66,6.26-12.76.13-2.24-.25-4.46-2.56-5.64-2.13-1.09-4.08-.39-5.91.84C268.33-10,261.41-5.76,255-.86c-5.18,3.94-8.09,9.68-9,16.11a21.26,21.26,0,0,1-10.53,16.09,42.23,42.23,0,0,0-4.92,3.46c-1.42,1.19-2.57,1.33-4,0C223.32,32,220.05,29.2,216.33,26A31.47,31.47,0,0,1,221,24.12c10.83-2.22,18.22-8.7,23.2-18.33,1.21-2.34,2.91-4.43,4.05-6.8,1.95-4.07,1.83-8.45,1.7-12.87-.17-5.45.18-10.91.15-16.37A13.39,13.39,0,0,0,249-33.81c-1.17.45-2.63.61-3.48,1.41a40.6,40.6,0,0,0-12.32,22c-1.31,6.34-4,12.46-6.58,18.43-1,2.35-3.47,4.16-5.46,6-2.85,2.62-5.89,5-9.23,7.88L195,5.52l.43-.81c1.59.15,3.2.21,4.77.48,8.13,1.37,15.42-1,22.07-5.36a13.08,13.08,0,0,0,4.28-5.48A67.59,67.59,0,0,0,230.11-16c.28-1,0-2.81-.69-3.37s-2.46-.23-3.37.33c-6.59,4.06-13.2,8.12-19.58,12.5C201.73-3.26,196.25-2.23,191-.58a1.85,1.85,0,0,1-1.56-.61c-3-3.9-5.88-7.86-9.35-12.55,2.87-.58,5.17-1.41,7.48-1.44,4.28-.07,8.57.39,12.85.51,12.51.38,22.68-4.58,30-14.55,4.45-6.08,7.9-12.91,11.61-19.51.54-1,.55-3.08-.08-3.59a4.45,4.45,0,0,0-3.85-.4c-7,2.92-12.09,8.2-17.3,13.52-7.5,7.65-16,13.7-27.23,15-5.7.67-11.4,1.82-16,6.49l-8.8-14.76c3.47.32,6.38.58,9.29.86,3.09.29,6.17.8,9.25.83a27.16,27.16,0,0,0,15.71-4.95c8.58-5.84,17.17-11.69,25.64-17.7a5.53,5.53,0,0,0,2.28-3.83c-.08-2.12-2.2-3-4.08-2.75a75.75,75.75,0,0,0-10.9,2c-5.17,1.4-10.16,3.47-15.35,4.72A26.68,26.68,0,0,0,188-46.36c-5.77,5.61-12.76,7.52-20.39,8a2.86,2.86,0,0,1-2.27-1.55c-1.12-4.39-2.06-8.84-2.9-13.29-.33-1.78-.09-3.67-.46-5.44-.42-2-2.47-2.57-3.64-.91-1,1.4-2.05,3.38-1.79,4.88a99.62,99.62,0,0,0,3.77,15.06c1.21,3.52,1.73,6.41-1.28,9.21s-6.12,5.9-9.06,9c-1.69,1.76-3.76,3.5-4.62,5.66-2.38,6-6.53,10.39-11.09,14.69-6.42,6.08-8.44,14.32-10.16,22.58-.43,2.05.94,3,2.81,2.06,1.32-.7,2.29-2,3.51-3,3.52-2.69,6.78-6,10.72-7.82,6.46-3,11.27-7.07,14.3-13.57,2.22-4.78,5.41-9.13,7.51-13.95,1.57-3.6,2.08-7.67,3.3-12.48,1.25,2.65,2.85,4.63,3.06,6.74.59,6.16.26,12.06-4.88,16.89-3.53,3.3-4.66,8.17-5.62,12.86a44.74,44.74,0,0,1-7.72,18.24,62.58,62.58,0,0,1-6.25,6.87,21.23,21.23,0,0,0-6.42,11.52c-.72,3.95-1.33,7.91-2,11.88a3.39,3.39,0,0,0,0,1.87c.49,1,1.14,2.35,2,2.54s2.14-.83,2.64-1.67c1.85-3.13,3.23-6.56,5.23-9.58a19.25,19.25,0,0,1,5.43-5.68c14.48-9.11,20-23.16,21.69-39.19.61-5.77.1-11.66.12-17.49a4.71,4.71,0,0,1,.86-2.84c2.54,3.61,5.11,7.19,7.59,10.84.3.44.15,1.23.1,1.84-.41,5.26-.8,10.46-2.72,15.54-.89,2.36-.54,5.44,0,8,.91,4.56-.17,8.16-3.92,10.83-6.68,4.77-10.66,11.48-13.27,19a23.6,23.6,0,0,0-1,9.4,45,45,0,0,1-1,15.47c-.28,1,.51,2.37.81,3.56,1.19-.38,2.71-.43,3.52-1.21,5.43-5.19,9.3-11.08,10.86-18.81,1-5,4.08-9.67,6.64-14.25s5.84-9.06,8.61-13.68c2.06-3.45,1.91-7.16.39-10.81-1.2-2.86-2.51-5.67-3.74-8.52a19.87,19.87,0,0,1-1.09-10.8c5.71,5.93,11.17,11.54,16.52,17.23a3.37,3.37,0,0,1,.77,2.62c-.75,3.37-1.74,6.69-2.64,10-1,3.69-2.16,7.34-2.92,11.08A14.25,14.25,0,0,1,192,52.56c-6.28,4.39-9.8,10.72-11.83,17.91-2.32,8.24-4.66,16.49-6.46,24.86-.91,4.22-.7,8.69-.88,13a5.53,5.53,0,0,0,.7,2.59c1.06,2.09,2.41,2.15,3.52.08a30.24,30.24,0,0,0,2.4-5.51c2.28-7.54,6.64-13.66,12.15-19.21a26.74,26.74,0,0,0,5.67-8.57c3.26-8,6-16.24,9-24.36,1.8-4.85,1.65-9.82,1.27-14.86-.37-4.84-.47-9.71-.7-14.57l.78-.1c4.28,3.82,8.59,7.6,12.8,11.5a2.7,2.7,0,0,1,.33,2.3c-.57,1.72-1.43,3.34-2.15,5a21.32,21.32,0,0,0-1.45,12.85,13.62,13.62,0,0,1-2,10.47,27.33,27.33,0,0,0-4.54,13.32,11.31,11.31,0,0,1-5.92,9.54c-6.74,4-10.83,10.45-15,16.79-1,1.57-.3,2.68,1.29,3.12a7.07,7.07,0,0,0,3,0c3.7-.62,7.37-1.33,11-2a17,17,0,0,0,13-10.27c2-4.48,4.55-8.75,6.39-13.31,4.44-11,6.91-22.27,2.47-34-1-2.76-1.28-5.83-2.07-9.6a33.9,33.9,0,0,1,3.15,1.69c3.8,2.69,7.55,5.45,11.36,8.13a4.56,4.56,0,0,1,2.07,5.43c-.69,2.45-1.55,4.88-2,7.38a71.79,71.79,0,0,0-1.21,10c-.18,4.93-1.06,9.56-3.83,13.76a30.35,30.35,0,0,0-5,19.53c.63,7.54,1.76,15,2.68,22.54a61.56,61.56,0,0,0,.84,6.24,14,14,0,0,0,1.63,3.2c1.08-.82,2.65-1.41,3.16-2.5a62,62,0,0,0,6-26.74A25.16,25.16,0,0,1,248,93.54,11.91,11.91,0,0,0,250,88c.48-6.91.84-13.85.78-20.77,0-3.69-1-7.38-1.6-11.31,3.47,1.57,7,3.21,10.62,4.82,2.58,1.16,5.14,2.35,7.75,3.43s4,2.83,3.25,5.76c-.46,1.84-.68,3.86-1.61,5.45-3.31,5.69-3.64,11.66-2.68,18a31.23,31.23,0,0,1,0,10c-2.16,12.11.33,23.38,5.27,34.37,1.22,2.71,2,5.62,3.1,8.4.27.68,1,1.75,1.36,1.69a3.39,3.39,0,0,0,2.34-1.38,16,16,0,0,0,.86-4.53,10.88,10.88,0,0,0-.19-3.27c-2.6-12-1.08-23.59,2.79-35a29.24,29.24,0,0,0-1.64-23.84C278.62,76.2,278,72,276.68,67.54c3.3.84,5.69,1.36,8,2.06,5.3,1.57,7.63,5.44,6.39,10.86-1.66,7.27.33,13.68,4.91,19.17a71.75,71.75,0,0,1,11.81,20.19A43.12,43.12,0,0,0,322.75,139c.94.69,3.15,1.28,3.46.89.9-1.14,1.74-2.93,1.47-4.23-.6-3-1.91-5.89-2.86-8.85-1.39-4.25-2.83-8.49-4-12.8-2.14-7.69-5.53-14.66-11.19-20.4S300.63,80.43,296.85,73.15Z" fill="#2d2d2d"/>
    </g>
    <g opacity="0.53">
      <path d="M115.19,616.86a9.88,9.88,0,0,0,1.41-.24c6.53-2.13,13-1.64,19.43.38,3.19,1,6.47,1.68,9.72,2.44,2.79.66,5.49,0,8.18-.71,1.11-.3,2.57-1,3.1.35a3.58,3.58,0,0,1-1,3c-4.87,4.55-10.4,7.87-17.23,8.64A26.68,26.68,0,0,1,126,628.69a78.87,78.87,0,0,0-8.85-3.13,10.47,10.47,0,0,0-10.45,2.8,23.83,23.83,0,0,0-3.44,4.18c1.08-.06,2.16-.09,3.24-.17,4.73-.38,9.27.18,13.16,3.14,2.58,2,2.46,4.15-.13,6.17-3.22,2.51-7,3.1-10.87,2.66-3-.33-6-.9-9-1.38A2.26,2.26,0,0,0,97,644.45c-3.64,9-6.82,18.19-6.11,28.11.24,3.29,1.39,6.51,2.11,9.76.22,1,1.3,2.33-.22,2.91-1.27.49-2.06-.77-2.59-1.85a26.2,26.2,0,0,1-2.33-10.51c-.55-11.42,3-21.91,7.47-32.18.7-1.6,1.52-3.17,2.34-4.72a13.43,13.43,0,0,0,.54-12,89,89,0,0,1-3.7-10.17,37.7,37.7,0,0,1-.88-7.89c-.1-2,.77-2.67,2.77-2.53a9.33,9.33,0,0,1,8.08,5.68c.93,1.9,1.55,4,2.3,5.94.26.69.51,1.39.78,2.13,1-1.22,1.62-4.54,1.29-7A26.12,26.12,0,0,1,111.14,596,37.45,37.45,0,0,1,130.9,576a2.47,2.47,0,0,1,1-.37c.71.06,1.67.06,2,.5a2.43,2.43,0,0,1-.07,2,7.73,7.73,0,0,1-1.55,2.4,41.57,41.57,0,0,0-8.86,14.84c-1.34,3.69-2.7,7.37-4,11.06l.31.35a13.34,13.34,0,0,0,2.19-1.24c2.73-2.3,5.34-4.74,8.1-7a51.19,51.19,0,0,1,17.06-8.83c6-2,12-3.93,18-5.85a4.34,4.34,0,0,1,1.83,0c1.23.18,1.27,1,.77,1.85a5.33,5.33,0,0,1-.91,1.11c-3.85,4-7.77,7.91-11.57,11.94-4.9,5.19-11,7.87-17.95,8.88-3.94.57-7.88,1.13-11.78,1.93-4.07.84-7.2,3.32-9.92,6.36A5.16,5.16,0,0,0,115.19,616.86Z" fill="#2d2d2d"/>
    </g>
    <g opacity="0.53">
      <path d="M161.37,654.9c2.72-1.41,5.47-2.75,8.16-4.22a45.23,45.23,0,0,1,25.69-5.62,42.13,42.13,0,0,1,15.59,3.78c3.29,1.6,7,2.38,10.4,3.7a14.33,14.33,0,0,1,3,2.16c-1,.71-2,1.78-3.09,2.06a35.91,35.91,0,0,1-13.89.77c-7.68-1.11-15.33-2.34-23-3.38a51.28,51.28,0,0,0-6.49,0c.48.57.58.8.75.88,6,2.83,12,5.69,18,8.43,1.41.65,3.06.77,4.51,1.36.87.35,2.16,1.07,2.23,1.74a2.68,2.68,0,0,1-2.15,2.9,23.16,23.16,0,0,1-14.19-.53c-4.59-1.63-9-3.62-13.62-5.26-8.47-3-16.67-2.09-24.56,2.07-1.83,1-3.64,2-5.46,3l0,.56a14.06,14.06,0,0,0,2.3.35A50.72,50.72,0,0,1,166.92,674a119,119,0,0,1,10.58,6.13,26.06,26.06,0,0,0,11.76,3.65c.13,0,.28-.07.39,0,.95.49,1.89,1,2.83,1.49-.72.85-1.29,2.13-2.2,2.47a30.37,30.37,0,0,1-13.15,1.72c-7.75-.62-14.83-3.29-21.7-6.73a60.37,60.37,0,0,0-21.16-5.9,20.26,20.26,0,0,0-12,2.34,28.25,28.25,0,0,0-2.36,1.6c4,1,7.68,1.69,11.32,2.75a50.33,50.33,0,0,1,19.62,11c.87.78,1.17,2.2,1.73,3.32-1.35,0-2.88.54-4.05.09a101.87,101.87,0,0,0-33.62-7.08c-9.39-.23-18.81,0-28.21.4-12.61.51-24.76-1.34-36.07-7-6-3-11.65-6.88-17.46-10.36a2.38,2.38,0,0,1-.45-.39c-.67-.71-1.69-1.52-.69-2.46a2.77,2.77,0,0,1,2.39-.11,15.76,15.76,0,0,1,3.18,2C51.7,683,67.16,688.53,84.68,688c6.82-.22,10.5-4.55,13.89-9.42,2.56-3.66,4.62-7.68,7.17-11.36a79.26,79.26,0,0,1,6.19-7.42c.39-.44,1.5-.83,1.81-.6a3,3,0,0,1,1.18,2,10.43,10.43,0,0,1-.78,3.25c-1.4,4.1-2.85,8.18-4.52,13a31.28,31.28,0,0,0,3.32-2.07c6.16-5.06,10-11.73,13.58-18.76a186.84,186.84,0,0,1,9.62-16.77,17.66,17.66,0,0,1,8.55-6.79,15.67,15.67,0,0,1,2.63-.44A164.53,164.53,0,0,1,140,652.28c-2.91,6.22-6.5,12.12-9.94,18.44,1-.38,1.88-.7,2.75-1.05,6.37-2.56,10.55-7.61,14.16-13.07,4.51-6.82,8.7-13.84,12.9-20.85s10.27-11.55,18.37-13.07c.86-.16,1.87.45,2.81.7a8,8,0,0,1-1.19,2.49c-3.43,3.13-5.61,7.11-7.94,11-3.3,5.55-6.85,11-10.28,16.41a13.07,13.07,0,0,0-.6,1.18Z" fill="#2d2d2d"/>
    </g>
    <g opacity="0.53">
      <path d="M330.88,667.82c.25.49.46,1,.75,1.48C336,676.18,340.42,683,344.57,690c2.94,4.93,5.68,9.94,10,13.88.79.72,1,2.07,1.5,3.13-1.18.31-2.45,1.08-3.53.88-10.2-1.91-17.78-7.54-23.12-16.44s-10.56-17.67-16.23-26.24c-4.55-6.88-9.81-13.24-17.83-16.46-1.09-.43-2.19-.83-3.46-1.31,4.34,8,8.84,15.37,12.51,23.2a205.29,205.29,0,0,1,9.23,24.82,19.61,19.61,0,0,1-3.3-.56,22.22,22.22,0,0,1-10.76-8.54,237,237,0,0,1-12.11-21.11c-4.44-8.85-9.34-17.23-17.09-23.61a41.55,41.55,0,0,0-4.18-2.6c2.11,6,3.93,11.15,5.7,16.31a13,13,0,0,1,1,4.08,3.71,3.71,0,0,1-1.48,2.56c-.39.28-1.79-.21-2.28-.76a101.83,101.83,0,0,1-7.79-9.35c-3.21-4.63-5.8-9.68-9-14.29C248,631.43,243.4,626,234.81,625.7c-22.05-.72-41.5,6.26-59.22,18.93a19.75,19.75,0,0,1-4,2.46c-.88.35-2.43.4-3-.13-1.26-1.19,0-2.21.86-3.11a3,3,0,0,1,.58-.48c7.3-4.38,14.36-9.25,22-13,14.24-7.09,29.53-9.43,45.4-8.79,11.83.47,23.68.8,35.5.5,14.59-.36,28.66-3.73,42.32-8.91,1.47-.56,3.38,0,5.09.12-.71,1.41-1.08,3.19-2.18,4.17a63.16,63.16,0,0,1-24.69,13.85c-4.58,1.34-9.27,2.27-14.24,3.46a34.11,34.11,0,0,0,3,2,25.51,25.51,0,0,0,15.07,2.94,76,76,0,0,0,26.62-7.42c8.65-4.33,17.56-7.69,27.32-8.48A38.15,38.15,0,0,1,367.7,626c1.15.43,1.86,2,2.78,3.11-1.19.63-2.38,1.26-3.57,1.87-.13.07-.33,0-.49,0a32.86,32.86,0,0,0-14.8,4.59c-4.41,2.63-8.68,5.56-13.31,7.71a63.76,63.76,0,0,1-26.8,5.62,17.87,17.87,0,0,0-2.89.44l0,.7c2.29,1.24,4.57,2.51,6.87,3.73,9.93,5.23,20.25,6.41,30.91,2.6,5.77-2,11.37-4.56,17.14-6.61a29.1,29.1,0,0,1,17.85-.67,3.36,3.36,0,0,1,2.71,3.65c-.09.84-1.7,1.74-2.8,2.19-1.83.74-3.9.9-5.68,1.7-7.61,3.46-15.15,7.06-22.71,10.62-.22.1-.35.39-.94,1.11a64.26,64.26,0,0,0,8.16-.06c9.67-1.31,19.31-2.86,29-4.24a45,45,0,0,1,17.48,1c1.43.36,2.6,1.7,3.89,2.6-1.26.92-2.4,2.17-3.81,2.71-4.32,1.67-8.94,2.64-13.08,4.66-6.26,3.05-12.88,4.24-19.62,4.76a57.06,57.06,0,0,1-32.33-7.07c-3.38-1.85-6.85-3.55-10.27-5.31Z" fill="#2d2d2d"/>
    </g>
  </g>
</svg>
