<svg xmlns="http://www.w3.org/2000/svg" viewBox="0 0 685.34 1316.42">
  <g id="background">
    <rect x="-315.56" y="315.56" width="1316.79" height="685" transform="translate(1000.89 315.22) rotate(90)" fill="#b3b5bf"/>
  </g>
  <g id="shapes">
    <g id="Layer_2" data-name="Layer 2">
      <path d="M542.25,750.63a185.39,185.39,0,0,1,31.55-25.12c12.14-7.5,23.91-15.69,36.23-22.82,15.91-9.21,32-18.18,48.45-26.34a382.79,382.79,0,0,1,40.17-17c15.72-5.64,31.74-10.69,47.91-14.89,14-3.63,28.33-7.3,42.7-8.2,20.54-1.24,41.2-.44,61.09,6.87,10.28,3.77,21.21,5.65,31.59,9.2A122,122,0,0,1,903.58,662c9.07,5.24,11.51,15,5.84,23.94-5.8,9.17-12.72,17.63-19.1,26.44-7.84,10.81-14.7,22.52-23.71,32.26A143.9,143.9,0,0,0,842,780.08c-1.48,3.08-3.87,5.7-5.77,8.6-5.66,8.49-14.21,8.56-22.89,7.77-4.58-.42-9.06-2.26-13.62-2.61-12.39-1-25-3.07-37.23-1.88a117.94,117.94,0,0,0-41.72,12.44c-14,7-26.45,15.68-36.62,27.34-7.9,9.08-15,19-22.15,28.69-6.23,8.4-12.41,16.86-18.07,25.64a145.13,145.13,0,0,0-11.54,21,337,337,0,0,0-12.17,32.62c-2,6.3-1.76,13.25-3.42,19.68-3,11.47,1.49,22.19,2.64,33.23.42,3.83,2.38,7.45,3.66,11.17a73.45,73.45,0,0,1,2.4,7c2.36,10.19,4.6,20.4,6.84,30.62,2.91,13.28,1.06,26-4.16,38.48-4.7,11.25-12.61,19.92-20.68,28.62-11,11.84-22.19,23.48-33.37,35.14-5.62,5.85-11.73,5.94-17.47-.12a110.49,110.49,0,0,1-9.56-12.29c-5.12-7.23-10.25-14.49-15-22-5.36-8.45-11-16.82-15.2-25.81A374.52,374.52,0,0,1,503,1048.06c-4-11.42-7.5-23.06-10.68-34.72-2.88-10.69-5.26-21.53-7.35-32.42-1.3-7-1.78-14-2.54-21.07-1.36-12.68-2.83-25.35-3.92-38.06-.41-4.65.17-9.4.32-14.1.23-7.17,0-14.41.82-21.51,1.11-9.6,2.68-19.19,4.64-28.68a212.86,212.86,0,0,1,6.94-26,259,259,0,0,1,10.83-25.24c3.08-6.52,6.58-12.87,10.27-19.07a83.54,83.54,0,0,1,7.85-10.68C527.46,767.81,534.89,759.25,542.25,750.63Z" fill="#cec562" opacity="0.23"/>
    </g>
    <g id="Layer_3" data-name="Layer 3">
      <path d="M-202.17,376.51c-.32-28.68,1.94-57.09,9.72-84.83,10.9-38.85,31.84-71,64.91-94.49,15.5-11,33.14-16.5,52.42-17S-38.12,185-20,190.4c10.09,3,20.58,5.83,31,6.28a61.5,61.5,0,0,0,37.23-10.32c20.66-13.91,41-28.36,61.47-42.48,10.43-7.17,21.4-13.22,33.89-16.26,20.16-4.91,39.07-1.83,56.41,9.22,26.13,16.65,43.92,40,53.13,69.61,2.12,6.82,2.52,14.17,3.91,21.24,2.47,12.64,2.93,25.43,2.89,38.26,0,6.14.34,12.33-.26,18.43-.62,6.35-2.26,12.59-3.31,18.91-1.17,7-1.38,14.35-3.43,21.12-5.47,18.11-10.81,36.35-17.85,53.88-11.43,28.48-26.62,55.13-42.66,81.28a71.47,71.47,0,0,0-8,17.7c-2.1,7.46-.48,15.09,5.4,20.44,6.75,6.14,14.27,11.47,21.62,16.94,12.41,9.25,22.06,20.48,23.31,36.49a62.17,62.17,0,0,1-10.53,40.34c-24.94,36.94-58.24,62.17-102.42,71.37-19.75,4.12-39.84,4.79-60,3.23-12.87-1-25.79-1.38-38.68-2.08-30.64-1.66-59.64-9.38-88-21.2-25.48-10.63-46.2-27-65.15-46.37-22.62-23.12-36.85-51-47-81.35-9-27-16.54-54.37-20.82-82.47-2.81-18.51-3.72-37.31-5.49-56Z" fill="#e3c4bc" opacity="0.37"/>
    </g>
    <g id="Layer_4" data-name="Layer 4">
      <path d="M599,270.15c0,20.6.71,41.22-.16,61.78C597.55,363.09,594,394,581.59,423.1,567,457.36,544,484.13,510,500.31,487.17,511.17,460.36,506,441.72,489c-22.78-20.86-36.93-47.36-49.75-74.71A418.28,418.28,0,0,1,359.7,312.78c-3.31-18-5.06-36.26-8.06-54.31-4.6-27.54-5.07-55.3-4.09-83.06.65-18.72,2.57-37.35,4.17-56,2.67-30.84,9.51-60.58,21.6-89.21C385.69,1,402.23-25.54,424.72-48c30.18-30.08,66.8-48.58,108.07-58,35.17-8,71-10.45,106.83-8.52A302.43,302.43,0,0,1,751.84-86.13c42.16,19.65,80.31,45.42,115.27,76,20.2,17.67,37.87,37.7,54.24,58.89,13.7,17.75,18.51,39.1,23.75,60.25,5.87,23.72,6.78,47.88,5.17,72s-8.22,46.62-23.35,66.2c-15.66,20.29-40.75,20.46-56.23-.24C857.28,229,848.19,208.79,840,188.19s-20.12-38.67-34.14-55.48c-5.51-6.55-13.13-10.08-21.4-11.85-6.77-1.44-13.51,4.65-13.89,12.56-.53,11,.2,21.86,3.93,32.47q17.38,49.32,34.34,98.82c8.15,23.78,13.31,48.3,13.32,73.42,0,26-3.83,51.35-18.73,73.79-15.93,24-41.85,30.05-67,15.92-19.83-11.16-32.53-27.9-40.93-48.65-18.25-45.05-36.82-90-55.22-135a92.44,92.44,0,0,0-19-29.38c-7.55-7.87-13.76-6.6-16.74,4a132.25,132.25,0,0,0-4.3,24.82c-.73,8.81-.17,17.7-.17,26.56Z" fill="#8fa0a7" opacity="0.33"/>
    </g>
    <g id="Layer_7" data-name="Layer 7">
      <path d="M479.26,79.54c0-20.59-.26-41.18.15-61.76.13-6.78,2-13.52,3-20.3,1.21-8.19,2.12-16.43,3.52-24.6,1.3-7.62,3.07-15.16,4.63-22.75.13-.64.13-1.31.26-2q2.67-11.94,5.26-23.88c1.18-5.34,2.34-10.7,3.64-16,.88-3.61,1.87-7.2,3-10.73,2.6-8.14,5.13-16.31,8-24.34,4.86-13.53,9.14-27.31,17.21-39.49,2-3,2.88-6.79,4.57-10.06a139.65,139.65,0,0,1,7.35-12.87c3-4.54,6.49-8.8,9.86-13.11,3-3.83,5.78-7.91,9.25-11.26,6.68-6.43,13.53-12.74,20.79-18.49a69.58,69.58,0,0,1,15.19-9.13c6.37-2.8,13.66-3.68,19.75-6.91,8.77-4.65,18.44-3.62,27.34-6,19.78-5.38,39.63-1,59.36-2.54,8.5,5.35,18.75,1.87,27.71,5.64,6.63,2.79,13.93,3.93,20.77,6.27,13.8,4.73,27.35,10.12,38.79,19.55,7.17,5.91,13.81,12.5,21.23,18.06,8.37,6.26,11.58,16.39,19,23.47,3.4,3.26,4.17,9.24,6.2,14,1.09,2.55,2.34,5,3.48,7.55,4.94,10.92,6.55,22.74,9.67,34.12,3.94,14.4,1.58,28.45,2.29,42.61C851.25-71,852-56.24,850-42c-1,6.94.66,14.87-4.14,21.51-1.54,2.14-.4,6.11-.81,9.19-.77,5.77-1.48,11.57-2.78,17.23-1.45,6.31-3.55,12.47-5.32,18.71a13,13,0,0,0-.36,2.92,31.3,31.3,0,0,1-2.48,12.14c-3,6.61-3.77,14.2-5.7,21.31-1.63,6-3.69,11.82-5.34,17.79-1.31,4.74-2.11,9.63-3.47,14.36-2,7-4.34,13.93-6.54,20.88-.71,2.25-1.41,4.5-2.15,6.74-1.58,4.77-3.12,9.55-4.77,14.29-1,2.85-3.15,5.67-3.06,8.45.18,5.65-2.83,9.76-5,14.37a73.18,73.18,0,0,0-3.39,9.33c-1.29,4-2.32,8.18-3.66,12.21-.71,2.1-2,4-2.78,6.07-2.89,7.54-6.3,15-8.33,22.73-1.59,6.07-3.1,11.74-8,16a3.16,3.16,0,0,0-.55,2.33c.74,7.53-4.42,12.93-7.15,19.12-3,6.77-7.09,13.1-11,19.41-1.53,2.46-3.92,4.39-6,6.47-7.68,7.45-14.88,15.35-22.93,22.27-4.63,4-10.62,6.39-16,9.46-.55.31-1.55.14-1.84.54-4.94,6.88-13.52,7.3-20.28,10.22a101.08,101.08,0,0,1-27.63,7.56c-12.41,1.54-24.81,2.4-36.92,1.08-7.82-.86-16.32.09-23.9-4.23C594,316.31,589,316.5,584.86,315c-6-2.24-11.8-5-17.64-7.72a51.7,51.7,0,0,1-6.57-3.6c-2.77-1.77-5.43-3.72-8.09-5.64-6.87-4.93-13.74-9.86-20.54-14.89a20.62,20.62,0,0,1-3.83-3.81c-2.15-2.74-4.52-5.42-6.1-8.48-4.26-8.24-12.22-14-15.13-23.17-1.35-4.24-4.32-8-6-12.12-1.91-4.67-3.17-9.6-4.82-14.39-1.48-4.3-3.11-8.55-4.7-12.81a16,16,0,0,1-1-2.19c-1.09-5.8-.9-12.21-3.42-17.29-4.09-8.25-.88-17.52-5-25.5a9.47,9.47,0,0,1-.49-2.89C477.58,133.57,479.63,106.52,479.26,79.54Z" fill="#a1c786" opacity="0.19"/>
    </g>
    <g id="Layer_10" data-name="Layer 10">
      <path d="M79.15,621.46c.66,8.88,1.46,17.75,1.94,26.63.84,15.57-1.44,30.82-4.2,46.11-2.36,13.08-4.89,26.08-9.3,38.56-3.82,10.82-8.77,21.23-13.24,31.83a2.4,2.4,0,0,1-.56.88c-9.46,8.67-16.2,20.29-28.24,26.13-3.37,1.64-6.77,3.53-10.37,4.27-11.8,2.44-21.59,9-31.83,14.69-12.46,6.86-25.88,10.28-39.85,11.94a35.4,35.4,0,0,1-21.83-4c-6.35-3.53-12.62-7.23-18.83-11-7.93-4.83-13.15-12.27-18.38-19.69-7.55-10.77-14.93-21.56-19.19-34.25-7.18-21.44-11.32-43.5-14.27-65.83-2-14.84-3.86-29.68-5.49-44.56-.83-7.55-1.22-15.17-1.45-22.78-.42-13.73-.64-27.46-.75-41.2,0-4.68.62-9.36.63-14,0-5-.4-10.07-.59-15.11-.61-16.29,2-32,5.62-48,4.39-19.55,14.66-35.6,25.32-51.77,7.72-11.69,18.07-20.15,30.61-26.24a140.3,140.3,0,0,0,14.31-8.28c8.1-5.17,17.17-7,26.47-7.37a144.21,144.21,0,0,1,21.79.75A39.1,39.1,0,0,1-20.59,413c7.56,3.47,15.09,7.08,22.25,11.27,3.33,1.94,6.16,5.1,8.55,8.21q7.93,10.33,15.11,21.17a51.19,51.19,0,0,1,5.39,11c3,8.4,5.14,17.17,8.65,25.38C45.23,503.6,52,516.83,58.21,530.35c3.48,7.55,7.42,15,9.77,22.93a429.61,429.61,0,0,1,10.37,41.81c1.63,8.56,1.17,17.52,1.65,26.3Z" fill="#e7924a" opacity="0.26"/>
    </g>
    <g id="Layer_11" data-name="Layer 11">
      <path d="M297.48-110.63c13.49-.58,25.68-1.82,37.84-1.48,17.65.48,33.21,8.14,48.32,16.45,10.82,6,19.54,14.4,27.61,23.74,6,6.89,13.35,12.55,19.3,19.45C445-35.76,457.81-18.15,458.32,5.27c.24,10.27-.64,20.5-1.37,30.75-1.52,21.5-12.27,38.52-23.81,55.34-8.28,12.06-18.06,22.83-30.14,31.31-8,5.65-15.44,12.24-23.68,17.54a216.52,216.52,0,0,1-26.45,14.46c-6.35,2.92-13.41,4.3-20.12,6.41-6,1.93-12,4-18,6a14.13,14.13,0,0,1-2.79.65q-19.38,2.39-38.73,4.73c-13.39,1.64-27,2.33-40.13,5.14-12.8,2.73-25.24,7.29-37.63,11.66-24.54,8.56-49.21,16.86-74.9,21-23.45,3.76-47.06,7.13-70.74,8.62-21.51,1.33-43.26,2.38-64.77-1.07-8.36-1.34-16.59-3.5-24.82-5.54-5.94-1.44-12.29-2.47-17.58-5.27a101.16,101.16,0,0,1-20.32-14.12c-4.79-4.33-8.4-10.15-11.88-15.71-1.93-3.1-2.31-7.13-3.76-10.6-4.51-10.81-5.39-22.32-5.79-33.73-.37-10.53.72-21.16,1.19-31.68.23-5.35,1.07-10.75.65-16.05-.91-11.44,1.55-22.36,4.27-33.23A231.72,231.72,0,0,1-85,26a77.17,77.17,0,0,1,8.64-15.7c5.36-7.85,11.21-15.37,17-22.9,1.09-1.41,3.07-2.1,4.41-3.36,3.38-3.17,6.3-6.89,10-9.65,6.55-4.95,12.35-11.16,20.64-13.65,2-.62,3.68-2.48,5.7-3.41,7.37-3.41,14.71-6.88,22.24-9.92,7.73-3.12,15.66-5.76,23.51-8.61A12.91,12.91,0,0,1,29-61.71C52.71-66.27,76.36-71,100.41-74c12.57-1.61,25.58-2,37.77-5.4,9.89-2.76,19.94-2.48,29.7-4.6,8.63-1.84,17.09-4.56,25.63-6.88.61-.16,1.27-.19,1.9-.29,10.51-1.71,21.09-3.11,31.51-5.22,9.13-1.88,18.08-4.5,27.11-6.8.62-.16,1.21-.43,1.85-.53Z" fill="#dfa0b0" opacity="0.35"/>
    </g>
    <g id="Layer_5" data-name="Layer 5">
      <path d="M318.06,1430.52c-37.72,20.46-78.4,28-122.46,20.1a143.83,143.83,0,0,1-58-24.77c-19.71-13.94-30.2-33-31.2-57.28-.26-6.68-.33-13.37-.85-20.06-.41-5.23-2.54-6.88-7.32-6-3.66.66-7.27,1.62-10.89,2.51C68,1349.71,50,1343.6,32.66,1332.3c-18.55-12-34-28-48.55-44.9-23.47-27.39-46.94-54.82-69.27-83.21-16.38-20.77-28.18-44.64-38.65-69A289.44,289.44,0,0,1-145.52,1055c-3.2-26.59.59-51.55,12.22-74.14,19.44-37.75,62.72-54.19,105.75-37C-.91,954.46,20.74,972.34,39,995.69c11.52,14.73,19.9,31.1,26.37,48.57,2.44,6.52,4.74,13.16,7.92,19.33a95.53,95.53,0,0,0,10.38,15.53c3.18,4,7.94,4.55,11.56,1a120.91,120.91,0,0,0,12.31-14.55c6.59-8.79,12.34-18.4,19.5-26.62a35.7,35.7,0,0,1,23.67-12.31c10.33-1.05,20.6,5.29,26.58,15,8.16,13.34,10.84,27.83,12.89,42.68,2,14.17,3.57,28.52,7.26,42.38,12.57,47.18,47,75.72,90.87,80.13,24.39,2.45,47.93-.82,71.51-4.24,17.23-2.52,34.28-6.49,52.25-4.11,17.3,2.23,33.59,8.32,46.34,22.1,22.81,24.55,25.13,47.77,2.06,69.72-16.8,16-31.48,33.25-43.13,53.9-12,21.19-28.86,37.75-47.52,52.22-10.74,8.33-21.63,16.46-32.85,24.08C331.12,1424.5,324.4,1427.23,318.06,1430.52Z" fill="#c3845f" opacity="0.33"/>
    </g>
    <g id="Layer_6" data-name="Layer 6">
      <path d="M331.41,1167c-.74-21.82,4.07-41.8,18.89-58.48,11.21-12.62,25.65-20.11,41.43-25.53,21.4-7.34,43.37-7.72,65.56-6,34.88,2.74,67.53,14.76,100.8,24.24,8,2.26,16.26,4.21,24.47,4.54,17.39.7,26.91-8.38,30.27-25.62,4.22-21.62.23-42.34-5.46-63-7.48-27.07-15.38-54-22.63-81.17-3.26-12.13-5.12-24.58-2.18-37.33,3.78-16.65,14.6-27.91,27.8-37.47,20.18-14.62,42.57-22.49,67.65-20.94,18.2,1.16,34.12,8.62,48.61,19.36,22.44,16.61,38.07,38.89,52.09,62.49,13.81,23.24,24.43,47.79,29.43,74.52a201.14,201.14,0,0,1,3.21,50.49c-.85,12.69-2,25.35-7.38,37.22-5.91,13-14.91,23.58-24.73,33.56-11.81,12-23,24.43-31.18,39.29-7,12.67-10.3,26.43-12.73,40.51-1.27,7.38-2.9,14.72-3.82,22.14-.78,6.29-.47,12.72-1.16,19-4.39,39.8-20.5,73.63-51.58,99.6-31.61,26.41-68.71,40.93-108.52,49.19a189.27,189.27,0,0,1-30.45,3.87c-26.19,1.13-50.21-6.73-72.79-19.45-51.56-29-91-69.8-117.53-122.78-9.51-19-14.73-39.46-16.48-60.71C332.43,1181.4,332,1174.19,331.41,1167Z" fill="#d3a659" opacity="0.4"/>
    </g>
  </g>
  <g id="floral">
    <g opacity="0.41">
      <path d="M194.59,39.92c4.32,6.25,9,7.95,15.76,5.62,7.34-2.53,14.69-4,22.49-2.29a7.78,7.78,0,0,0,5.81-1.16c8.37-6.67,17.16-4.71,26.13-1.94,4.08,1.27,8.3,2.13,12.29,3.61,1.44.54,2.39,2.36,3.57,3.59-1.57.76-3.15,2.18-4.71,2.16-11.44-.14-22.45,2.2-33.37,5.23-9.72,2.69-19.46,3.32-29.23.27a16.81,16.81,0,0,0-2.45-.27c1.38,1.62,2.3,2.78,3.3,3.86,3.13,3.36,6.24,6.75,9.48,10A5.75,5.75,0,0,0,227,70.42c6.09.22,12.2.34,18.29.11,2.23-.09,4.92-.64,6.55-2,6.92-5.81,15-7.4,23.65-7.66a78,78,0,0,1,35.27,7.49A8.65,8.65,0,0,1,313.64,70a16.25,16.25,0,0,1,1.85,3.45c-1.36.4-2.79,1.29-4.09,1.12-4.94-.65-9.8-1.86-14.75-2.43a42.51,42.51,0,0,0-21.92,2.74c-11.86,5.1-24.08,5.56-36.59,4.24l-3.49-.36-.33.86a30.35,30.35,0,0,0,4.16,3.23c9.38,5.09,18.6,10.54,28.3,14.94a62.23,62.23,0,0,1,25.88,21.7,6.14,6.14,0,0,1,1.19,3c.12,2.44-1.57,3.62-3.52,2.29-8.17-5.57-17.64-7.71-26.84-10.68-8.74-2.81-15.05-9-20.89-15.85C232.92,86.83,222.89,75.69,213,64.44a15.2,15.2,0,0,0-1.73-1.37c-.37,4.77.28,8.73,3.52,11.9,2,1.93,4.25,3.56,6,5.63,2.52,2.91,5.35,5.81,6.9,9.23a49.17,49.17,0,0,0,14.89,18.7,22.78,22.78,0,0,1,3.53,2.91,12.82,12.82,0,0,1,1.49,3.29c-1.29.35-2.74,1.27-3.85,1a93.7,93.7,0,0,1-13-4.32c-13.16-5.8-23.3-15-29.18-28.27a28.87,28.87,0,0,1-2-11.21c0-4.46.86-8.93,1.51-13.37.68-4.63-.61-8.12-4.9-10.5-4.61-2.57-9-5.48-13.56-8.19a15.62,15.62,0,0,0-2.73-.93,12.7,12.7,0,0,0,.89,1.63,24.62,24.62,0,0,1,5.45,15.26,24.31,24.31,0,0,0,4.57,14A42.7,42.7,0,0,1,199.68,95c.14,5,.95,9.92,1.23,14.89.13,2.35-.62,4.63-3.31,5.2s-4.09-1.41-5.17-3.43c-1.24-2.34-2.22-4.82-3.41-7.18a53,53,0,0,0-12.29-16.26c-5.61-4.9-8-10.86-6.75-18.29,1-5.94,1.6-11.93,2.56-17.87a12.33,12.33,0,0,0-3.35-11.23,44.35,44.35,0,0,1-5.3-6.33c-3.79-5.82-10-6.33-16.68-8.28,1.4,3,2.28,5.32,3.54,7.44a28.26,28.26,0,0,1,3.77,19.09A29.59,29.59,0,0,0,158,71.39c4.92,9.11,4.39,18.67,2.77,28.33-.6,3.54-3.78,4.92-7,3.26-3.85-2-5.94-5.31-7.21-9.41C144.31,86.31,142,79,139.33,71.93s-3.51-13.9-.55-20.82c3.37-7.89,3.33-16.06,2.79-24.32a2.49,2.49,0,0,0-1.41-1.85c-7.89-1.42-15.74-3.32-24.35-2.82,2.77,5.14,5.14,10.11,8,14.77,4.28,7,5.22,14.15,4.15,22.25-1.13,8.54-.88,17.27-1.06,25.92-.11,5.48-.52,10.83-4,15.37-1.53,2-3.46,3.59-6.28,2.91-2.59-.63-3.74-2.64-4.39-5-2.39-8.73-5.13-17.38-7-26.22-1.52-7.11.19-14.09,4.09-20.22,4.3-6.76,5.28-13.73,2.79-21.3a44.18,44.18,0,0,1-1.64-6.5c-.35-2.05-1.22-3-3.39-2.94-4.77.12-9.54.08-15,.11a33.67,33.67,0,0,0,2.58,4.92c7.55,9.77,9.09,20.64,6.3,32.42-.68,2.86-.76,5.87-1.52,8.71-1.31,4.86-4.6,8.48-7.94,12.13-4.1,4.5-7.78,9.38-11.78,14-.88,1-2.31,1.51-3.49,2.24-.67-1.24-1.79-2.43-1.93-3.73A45.37,45.37,0,0,1,79.88,64.3c3.5-6.32,5.71-13.44,7.85-20.4.84-2.74.08-6-.27-9-.5-4.3-1.31-8.55-2.08-13.4L59.13,23.07l-.23,1c1.46,1,2.86,2.14,4.39,3.06,7.88,4.76,12.33,12.07,14.79,20.61a14.68,14.68,0,0,1-.37,7.76,75.44,75.44,0,0,1-4.54,11.31c-.51,1.08-2,2.39-3,2.35s-2.26-1.6-2.62-2.73C64.89,58.19,62.25,49.94,60,41.59c-1.64-6.22-5.53-11.08-8.81-16.32a2,2,0,0,0-1.77-.63C44.1,25.78,38.77,27,32.41,28.46c2,2.58,3.35,5,5.28,6.67C41.27,38.3,45.23,41,49,44.05c10.87,8.8,15.87,20.39,14.79,34.14-.66,8.39-2.72,16.69-4.37,25-.24,1.2-1.78,3-2.69,3a5,5,0,0,1-3.55-2.46c-3.78-7.55-4.27-15.75-4.81-24-.78-12-3.61-23.29-12.13-32.55-4.34-4.72-8.33-9.83-8.85-17.16L9.14,36l8.49,6c2.83,2,5.81,3.81,8.44,6a30.26,30.26,0,0,1,9.7,15.62c3,11.2,6,22.41,8.83,33.66.38,1.52.1,3.86-.86,4.91-1.61,1.74-4,.91-5.46-.64A86.34,86.34,0,0,1,30.51,92c-3.36-5-6.07-10.34-9.57-15.17a29.87,29.87,0,0,1-5.58-15c-.8-9-5.34-15.66-11.46-21.61A3.21,3.21,0,0,0,.84,39.9c-4.14,2.91-8.16,6-12.12,9.15-1.58,1.26-2.75,3-4.35,4.27-1.83,1.4-4,.37-3.75-1.88.19-1.9.73-4.36,2-5.43A111.78,111.78,0,0,1-3.18,36C.41,33.89,3,31.83,2.43,27.26S1.55,17.81,1.3,13.08c-.15-2.73-.64-5.71.2-8.17,2.34-6.79,2-13.55,1.31-20.51-1-9.82,3.27-18.27,7.83-26.52,1.13-2.05,3-1.89,3.88.3.62,1.55.47,3.38.82,5.06,1,4.84,1.36,10,3.38,14.43C22-15.11,23.12-8.13,21-.43c-1.6,5.67-2.05,11.67-3.79,17.29-1.3,4.19-3.83,8-6.3,13,3-1.33,5.79-1.83,7.5-3.48,5-4.78,9-10,8.16-17.85-.58-5.37,2-10.31,4.62-15C34.8-13.07,37.38-20,37.87-27.57a67.72,67.72,0,0,0-.29-10.36,23.74,23.74,0,0,1,3-14.43c2.26-3.86,4.63-7.67,7-11.49.37-.59.78-1.35,1.36-1.59,1.13-.46,2.68-1.16,3.5-.72s1.21,2.25,1,3.32c-.71,4-2,7.91-2.55,11.93a21.55,21.55,0,0,0,.47,8.77C57-23.89,51.4-8,41.15,6.84c-3.68,5.33-8.41,9.94-12.64,14.89a5.25,5.25,0,0,0-1.33,3c4.78-1.2,9.57-2.36,14.32-3.65.57-.15,1-.93,1.43-1.49,3.48-4.75,6.94-9.44,9-15.14,1-2.65,3.5-5,5.84-6.82,4.09-3.19,5.8-7,4.57-12-2.19-8.9-.68-17.48,2.58-25.73a26.5,26.5,0,0,1,6-8.66c4.17-4.14,7.9-8.46,10.46-13.8.52-1.09,2.16-1.63,3.28-2.43.73,1.19,2,2.34,2.1,3.59.82,8.35-.19,16.16-4.5,23.83-2.79,5-3.59,11.16-4.76,16.91S75.89-8.73,74.87-2.8c-.76,4.42-3.6,7.46-7.54,9.43-3.1,1.56-6.26,3-9.37,4.51-3.67,1.78-6.34,4.6-8.8,8.35,9.17-.87,17.86-1.65,26.55-2.57a3.74,3.74,0,0,0,2.55-1.65c1.83-3.4,3.4-6.93,5.07-10.41C85.17,1,86.84-2.94,88.91-6.65c2.2-3.93,3.06-7.86,1.92-12.3-2.12-8.29-.49-16.22,3-23.78,4-8.67,8.07-17.37,12.63-25.76,2.3-4.24,5.73-7.87,8.75-11.69a6.15,6.15,0,0,1,2.49-1.68c2.42-1,3.6-.08,3,2.49a34,34,0,0,1-2,6.41c-3.56,8-4.32,16.41-3.69,25.12a29.9,29.9,0,0,1-1.45,11.38c-3.07,9.16-6.76,18.11-10.12,27.17-2,5.42-5.76,9.52-9.75,13.51-3.84,3.83-7.47,7.88-11.2,11.83l.58.65c6.41-.12,12.82-.18,19.22-.42a3,3,0,0,0,1.95-1.7c.77-1.88,1.22-3.88,1.83-5.82a23.84,23.84,0,0,1,8.13-11.94,15.22,15.22,0,0,0,5.89-10.36A30.53,30.53,0,0,1,126-28.12,12.64,12.64,0,0,0,128-40.51c-2.79-8.31-1.57-16.74-.47-25.14.27-2.08,1.69-2.49,3.36-1.7a8,8,0,0,1,2.53,2.14c2.68,3.22,5.28,6.5,7.88,9.77a19,19,0,0,1,3.49,18.12c-1.54,5.28-2.52,10.73-4.28,15.92-4.28,12.59-10.36,23.9-22.7,30.64-2.89,1.59-5.33,4-8.74,6.62a39.52,39.52,0,0,0,3.89.87c5.18.49,10.37.88,15.55,1.39,2.66.26,4.56-.65,5.7-3.1s2.25-5.26,3.69-7.7A78.53,78.53,0,0,1,144.12-2c3.44-4.31,6.06-8.87,6.78-14.45a33.87,33.87,0,0,1,10-20.2c6-5.93,12.44-11.44,18.68-17.14a70.07,70.07,0,0,1,5.25-4.67A15.78,15.78,0,0,1,188.51-60c.31,1.48,1.21,3.13.84,4.42a68.89,68.89,0,0,1-14.42,27A28,28,0,0,0,168-12.93a13.28,13.28,0,0,1-2.3,6.2c-4.63,6.2-9.38,12.34-14.47,18.16-2.71,3.11-6.23,5.51-9.59,8.41,4.08,1.19,8.3,2.41,12.51,3.65,3,.89,6.06,1.75,9.06,2.74s5.44.51,6.94-2.51c.95-1.9,2.23-3.77,2.6-5.79,1.34-7.23,5.41-12.52,10.84-17.2a34.67,34.67,0,0,0,7.28-8.43c7-11.83,17.3-19.57,29.49-25.27,3-1.41,5.8-3.3,8.74-4.86.72-.38,2.13-.75,2.39-.44a3.73,3.73,0,0,1,1,2.88,17.89,17.89,0,0,1-2.56,4.45,12,12,0,0,1-2.55,2.63c-10.91,8.24-18.09,19.19-23.13,31.7-3.61,9-9.63,15.3-18.75,19-4.13,1.67-7.68,4.77-12.08,7.6,3.4,1.69,5.81,3,8.31,4.1,5.63,2.53,10.42.95,13.31-4.54,3.89-7.37,10.24-11.35,18.12-12.65a80.73,80.73,0,0,0,24.7-8.51A48.13,48.13,0,0,1,264.46,3c1.3.1,3.61,1.21,3.59,1.77-.07,1.61-.67,3.74-1.84,4.65-2.71,2.12-5.9,3.6-8.86,5.4-4.27,2.6-8.59,5.14-12.74,7.91-7.42,4.95-15.36,8.38-24.34,9.13S203.08,36.5,194.59,39.92Z" fill="#2d2d2d"/>
    </g>
    <g opacity="0.41">
      <path d="M57.08,137.86a11.34,11.34,0,0,0,.27,1.57c2.38,7.29,1.83,14.49-.42,21.71-1.11,3.55-1.88,7.22-2.73,10.85-.73,3.11,0,6.13.79,9.13.34,1.24,1.11,2.87-.39,3.47-.87.35-2.64-.35-3.39-1.15-5.08-5.45-8.79-11.62-9.65-19.24-.56-5,.53-9.66,2.31-14.26a86.61,86.61,0,0,0,3.5-9.88,11.68,11.68,0,0,0-3.13-11.67,26.23,26.23,0,0,0-4.67-3.84c.06,1.2.1,2.41.19,3.61.42,5.29-.2,10.36-3.51,14.7-2.18,2.88-4.63,2.75-6.88-.14-2.81-3.6-3.46-7.77-3-12.15.38-3.35,1-6.68,1.54-10a2.52,2.52,0,0,0-1.65-3C16.2,113.49,6,109.94-5.12,110.74c-3.67.26-7.27,1.55-10.91,2.34-1.12.25-2.6,1.46-3.24-.23-.55-1.43.86-2.31,2.06-2.9a29.49,29.49,0,0,1,11.75-2.61c12.74-.6,24.46,3.37,35.93,8.35,1.79.79,3.54,1.69,5.27,2.62a15,15,0,0,0,13.39.6,99,99,0,0,1,11.36-4.14,41.65,41.65,0,0,1,8.81-1c2.22-.11,3,.86,2.83,3.1a10.44,10.44,0,0,1-6.34,9c-2.13,1-4.42,1.73-6.64,2.57l-2.38.87c1.36,1.06,5.07,1.81,7.86,1.43a29.17,29.17,0,0,1,15.8,2.56,41.84,41.84,0,0,1,22.26,22.07,2.85,2.85,0,0,1,.41,1.16c-.08.79-.07,1.86-.56,2.27a2.76,2.76,0,0,1-2.26-.07A8.93,8.93,0,0,1,97.6,157,46.37,46.37,0,0,0,81,147.14c-4.12-1.49-8.23-3-12.35-4.52l-.4.34a15.83,15.83,0,0,0,1.39,2.45c2.57,3,5.29,6,7.82,9.05,4.63,5.64,7.62,12.15,9.86,19,2.18,6.72,4.39,13.43,6.53,20.16a4.68,4.68,0,0,1,0,2c-.2,1.37-1.06,1.42-2.07.86a6.55,6.55,0,0,1-1.23-1c-4.45-4.31-8.83-8.68-13.34-12.93-5.8-5.47-8.78-12.27-9.91-20-.64-4.4-1.27-8.81-2.16-13.16-.93-4.55-3.71-8-7.1-11.08A5.74,5.74,0,0,0,57.08,137.86Z" fill="#2d2d2d"/>
    </g>
    <g opacity="0.41">
      <path d="M14.61,189.43c1.56,3,3.06,6.11,4.71,9.11a50.56,50.56,0,0,1,6.27,28.69c-.46,6-1.51,11.87-4.22,17.42-1.79,3.67-2.65,7.77-4.13,11.61a16.37,16.37,0,0,1-2.41,3.38c-.8-1.15-2-2.19-2.31-3.45a40.18,40.18,0,0,1-.85-15.52c1.23-8.57,2.6-17.12,3.77-25.7a57.69,57.69,0,0,0,0-7.25c-.63.53-.89.64-1,.83-3.16,6.71-6.35,13.4-9.42,20.16-.72,1.58-.86,3.42-1.51,5-.4,1-1.2,2.41-1.95,2.49a3,3,0,0,1-3.24-2.41A25.89,25.89,0,0,1-1,218c1.82-5.12,4-10.09,5.87-15.21,3.37-9.46,2.33-18.62-2.32-27.43-1.07-2-2.2-4.07-3.3-6.1l-.63,0a17.19,17.19,0,0,0-.38,2.56,56.8,56.8,0,0,1-5,23.78c-1.9,4.11-4.51,7.91-6.84,11.82a29.06,29.06,0,0,0-4.07,13.13c0,.14.07.32,0,.43-.54,1.06-1.1,2.12-1.66,3.17-.94-.81-2.38-1.44-2.76-2.47A33.92,33.92,0,0,1-24,207c.7-8.66,3.68-16.57,7.52-24.25A67.32,67.32,0,0,0-9.9,159.17a22.66,22.66,0,0,0-2.61-13.37,30.08,30.08,0,0,0-1.79-2.63c-1.06,4.41-1.89,8.57-3.07,12.64a56.19,56.19,0,0,1-12.29,21.91c-.87,1-2.45,1.3-3.71,1.93-.06-1.51-.6-3.21-.1-4.52,4.59-12.12,7.58-24.6,7.91-37.55.26-10.49,0-21-.45-31.5-.57-14.09,1.5-27.66,7.8-40.29,3.36-6.75,7.68-13,11.57-19.49a2.64,2.64,0,0,1,.43-.51c.8-.75,1.7-1.89,2.76-.77a3.12,3.12,0,0,1,.12,2.66,17.77,17.77,0,0,1-2.19,3.56c-11.24,15.72-17.43,33-16.8,52.54.25,7.63,5.08,11.73,10.51,15.52,4.1,2.85,8.58,5.16,12.69,8a87.83,87.83,0,0,1,8.29,6.92c.49.43.93,1.67.68,2a3.29,3.29,0,0,1-2.27,1.31A11.38,11.38,0,0,1,4,136.69c-4.58-1.57-9.14-3.19-14.47-5.06a36.27,36.27,0,0,0,2.3,3.72c5.66,6.87,13.1,11.22,21,15.16a209.38,209.38,0,0,1,18.73,10.75,19.66,19.66,0,0,1,7.57,9.55,16.6,16.6,0,0,1,.5,2.93,184.22,184.22,0,0,1-22-8.2c-6.94-3.25-13.53-7.25-20.59-11.1.43,1.13.79,2.11,1.17,3.07C1,164.63,6.6,169.3,12.71,173.33c7.61,5,15.45,9.72,23.28,14.41s12.9,11.46,14.59,20.52c.18,1-.5,2.08-.78,3.13-.94-.43-2.13-.63-2.77-1.33-3.5-3.83-7.94-6.26-12.32-8.87-6.2-3.68-12.23-7.65-18.34-11.48a14.66,14.66,0,0,0-1.31-.67Z" fill="#2d2d2d"/>
    </g>
    <g opacity="0.41">
      <path d="M10.49,378.48a16,16,0,0,0-1.6.95c-7.35,5.31-14.6,10.79-22.08,15.92-5.28,3.63-10.66,7-14.74,12.15-.75.93-2.23,1.28-3.37,1.89-.44-1.29-1.39-2.64-1.25-3.86,1.39-11.51,7.11-20.37,16.65-27S3,365.5,12.15,358.56c7.34-5.57,14-11.89,17-21.07.41-1.24.77-2.5,1.22-3.95-8.55,5.41-16.5,11-24.95,15.63s-17.38,8.33-27,12.1a22.27,22.27,0,0,1,.39-3.72,24.81,24.81,0,0,1,8.72-12.61,263.8,263.8,0,0,1,22.65-15c9.54-5.59,18.53-11.66,25.07-20.76a47.06,47.06,0,0,0,2.59-4.85c-6.54,2.78-12.14,5.19-17.76,7.54a14.43,14.43,0,0,1-4.48,1.38,4.12,4.12,0,0,1-3-1.47c-.35-.41.1-2,.68-2.59a112.91,112.91,0,0,1,9.84-9.37c4.93-3.9,10.37-7.17,15.28-11.09,6.51-5.2,12.24-10.75,11.93-20.34-.81-24.62-10-45.8-25.41-64.62a21.37,21.37,0,0,1-3-4.28c-.46-.95-.63-2.67-.07-3.35,1.23-1.49,2.46-.14,3.52.74a2.75,2.75,0,0,1,.58.6c5.42,7.82,11.36,15.33,16.14,23.52,8.94,15.36,12.66,32.23,13.1,50,.33,13.21.83,26.45,2,39.6,1.46,16.23,6.25,31.67,13,46.51.73,1.6.19,3.78.24,5.69-1.62-.69-3.64-1-4.81-2.13a70.62,70.62,0,0,1-17.23-26.51c-1.82-5-3.2-10.17-4.89-15.62a38.09,38.09,0,0,0-2,3.45,28.61,28.61,0,0,0-2.18,17,85,85,0,0,0,10.21,29.13c5.46,9.32,9.85,19,11.44,29.82a42.71,42.71,0,0,1-1.21,18.59c-.39,1.32-2.14,2.23-3.27,3.33-.78-1.28-1.57-2.56-2.34-3.85-.08-.14,0-.36,0-.55A36.57,36.57,0,0,0,48,399.24c-3.24-4.72-6.83-9.27-9.56-14.28a71.28,71.28,0,0,1-8.21-29.45,22.47,22.47,0,0,0-.7-3.19h-.79c-1.22,2.64-2.46,5.27-3.65,7.93-5.11,11.45-5.67,23-.65,34.64,2.71,6.27,5.91,12.33,8.62,18.61a32.63,32.63,0,0,1,2,19.85,3.77,3.77,0,0,1-3.87,3.29c-.95,0-2.07-1.78-2.65-3-1-2-1.28-4.28-2.31-6.21-4.41-8.23-9-16.37-13.49-24.53-.13-.24-.46-.36-1.3-1,.23,3.47.1,6.35.65,9.1,2.17,10.68,4.6,21.31,6.85,32a50.45,50.45,0,0,1,.2,19.55c-.29,1.61-1.71,3-2.61,4.52-1.13-1.33-2.6-2.51-3.31-4-2.17-4.69-3.59-9.78-6.14-14.24-3.86-6.75-5.66-14-6.73-21.52a63.67,63.67,0,0,1,5.52-36.55c1.82-3.9,3.45-7.88,5.17-11.83Z" fill="#2d2d2d"/>
    </g>
    <g opacity="0.41">
      <path d="M454,1312.67c-5.32-6.2-10.53-7.5-17.5-4.26-7.57,3.52-15.26,5.87-23.8,4.94a8.43,8.43,0,0,0-6.09,1.88c-8.2,8.07-17.83,6.94-27.73,5-4.51-.9-9.11-1.35-13.55-2.5-1.59-.41-2.82-2.25-4.21-3.44,1.6-1,3.13-2.68,4.8-2.83,12.25-1.12,23.77-4.84,35.12-9.29,10.09-4,20.44-5.71,31.23-3.53a19.61,19.61,0,0,0,2.65,0c-1.66-1.58-2.77-2.72-4-3.76-3.72-3.25-7.41-6.53-11.24-9.64a6.2,6.2,0,0,0-3.77-1.59c-6.54.45-13.09,1-19.57,1.92-2.38.33-5.2,1.22-6.79,2.86-6.76,7-15.26,9.58-24.46,10.81a83.75,83.75,0,0,1-38.55-4.1,9.1,9.1,0,0,1-3.27-1.45,17.56,17.56,0,0,1-2.37-3.49c1.42-.58,2.85-1.69,4.25-1.65,5.36.14,10.7.9,16.05,1a45.79,45.79,0,0,0,23.15-5.36c12.12-6.78,25.14-8.62,38.67-8.6h3.77l.26-1a32.86,32.86,0,0,0-4.81-3c-10.6-4.4-21.07-9.21-31.93-12.84a66.94,66.94,0,0,1-30.09-20.35,6.68,6.68,0,0,1-1.6-3.08c-.41-2.59,1.28-4,3.51-2.83,9.36,5,19.73,6.29,29.89,8.44,9.67,2,17.09,7.91,24.1,14.64,11.63,11.17,23.6,22,35.43,32.91a16.11,16.11,0,0,0,2,1.27c-.13-5.14-1.27-9.3-5.08-12.34-2.31-1.84-4.94-3.33-7.08-5.35-3-2.83-6.36-5.62-8.4-9.11a52.89,52.89,0,0,0-18-18.35,24.32,24.32,0,0,1-4.1-2.72,13.66,13.66,0,0,1-2-3.35c1.34-.53,2.79-1.67,4-1.47a100.62,100.62,0,0,1,14.41,3.18c14.73,4.75,26.58,13.47,34.34,27a30.78,30.78,0,0,1,3.4,11.78c.52,4.76.07,9.64-.13,14.47-.21,5,1.55,8.61,6.4,10.68,5.22,2.24,10.27,4.86,15.42,7.26a16.87,16.87,0,0,0,3,.69,13.22,13.22,0,0,0-1.12-1.64,26.37,26.37,0,0,1-7.52-15.72,26.13,26.13,0,0,0-6.45-14.51,45.87,45.87,0,0,1-12.3-26c-.7-5.3-2.11-10.5-3-15.79-.4-2.49.16-5,3-5.93s4.54,1.06,5.92,3.1c1.59,2.36,2.9,4.9,4.44,7.3a56.72,56.72,0,0,0,14.95,16c6.54,4.62,9.72,10.74,9.24,18.82-.38,6.46-.38,12.94-.75,19.4a13.24,13.24,0,0,0,4.82,11.64,47.83,47.83,0,0,1,6.38,6.18c4.7,5.81,11.42,5.67,18.76,7-1.83-3-3-5.43-4.61-7.57a30.33,30.33,0,0,1-6.15-20,31.76,31.76,0,0,0-5.82-19.52c-6.27-9.21-6.77-19.49-6.1-30,.25-3.85,3.5-5.68,7.13-4.27,4.34,1.7,6.95,5,8.77,9.27,3.22,7.52,6.48,15,10.14,22.35,3.59,7.15,5.3,14.48,2.91,22.21-2.74,8.81-1.79,17.54-.3,26.33a2.68,2.68,0,0,0,1.71,1.81c8.6.65,17.21,1.81,26.36.32-3.52-5.19-6.61-10.24-10.19-14.91-5.35-7-7.15-14.56-6.9-23.34.26-9.26-1-18.58-1.75-27.85-.48-5.87-.63-11.64,2.57-16.88,1.4-2.3,3.29-4.22,6.38-3.81,2.85.39,4.3,2.42,5.25,4.88,3.53,9.07,7.42,18,10.42,27.27,2.4,7.43,1.35,15.09-2.14,22.08-3.86,7.71-4.13,15.27-.63,23.09a47.8,47.8,0,0,1,2.48,6.78c.6,2.15,1.63,3.07,3.95,2.77,5.09-.66,10.2-1.15,16.09-1.79-1.33-2-2.1-3.72-3.31-5-9.15-9.62-12-21.07-10.33-34,.41-3.14.16-6.37.66-9.48.86-5.35,4-9.59,7.14-13.87,3.9-5.26,7.3-10.89,11.07-16.25.82-1.17,2.3-1.87,3.48-2.79.85,1.26,2.18,2.41,2.47,3.78a48.82,48.82,0,0,1-2.94,30.18c-3,7.15-4.63,15-6.14,22.69-.59,3,.58,6.48,1.29,9.66,1,4.53,2.35,9,3.71,14.09l27.9-4.64.13-1.09c-1.67-.94-3.29-2-5-2.79-9-4.22-14.53-11.54-18.12-20.4a16,16,0,0,1-.46-8.34,82,82,0,0,1,3.61-12.61c.43-1.22,1.9-2.78,3-2.85s2.58,1.46,3.1,2.64c3.72,8.52,7.46,17,10.75,25.74,2.45,6.47,7.15,11.23,11.24,16.48a2.18,2.18,0,0,0,2,.47c5.61-1.81,11.18-3.73,17.81-6-2.42-2.54-4.13-4.93-6.38-6.55-4.18-3-8.72-5.49-13-8.3-12.6-8.2-19.23-20-19.6-34.88-.22-9,1.06-18.15,1.91-27.2.12-1.31,1.57-3.41,2.54-3.49a5.37,5.37,0,0,1,4.08,2.24c4.87,7.66,6.31,16.37,7.8,25.19,2.16,12.69,6.45,24.51,16.58,33.46,5.17,4.57,10,9.6,11.38,17.39l18.79-8.54-9.76-5.52c-3.24-1.83-6.63-3.43-9.69-5.52a32.65,32.65,0,0,1-12.11-15.63c-4.46-11.65-8.93-23.3-13.17-35-.58-1.58-.54-4.12.38-5.34,1.53-2,4.21-1.43,5.9.08a91,91,0,0,1,9.39,9.44c4.13,4.92,7.64,10.38,11.91,15.17a32.11,32.11,0,0,1,7.64,15.42c1.85,9.49,7.44,16.16,14.65,21.84a3.43,3.43,0,0,0,3.3,0c4.11-3.57,8.08-7.31,12-11.13,1.55-1.52,2.61-3.56,4.19-5,1.8-1.7,4.2-.84,4.21,1.6,0,2-.29,4.74-1.58,6A120.33,120.33,0,0,1,666,1295c-3.61,2.64-6.1,5.13-5,10s2,10,2.78,15c.46,2.9,1.32,6,.69,8.75-1.75,7.53-.67,14.73.87,22.09,2.18,10.39-1.47,19.91-5.43,29.24-1,2.31-3,2.35-4.19.1-.83-1.59-.87-3.57-1.43-5.31-1.64-5.08-2.58-10.58-5.22-15.07-4.33-7.36-6.29-14.7-4.81-23.18,1.08-6.24.9-12.71,2.14-18.91.92-4.63,3.2-9,5.29-14.57-3,1.76-6,2.61-7.63,4.56-4.81,5.66-8.52,11.72-6.75,20,1.21,5.67-1,11.25-3.28,16.54-3.19,7.43-5.17,15.16-4.87,23.28a73.79,73.79,0,0,0,1.46,11.06,25.5,25.5,0,0,1-1.56,15.76c-2,4.39-4.1,8.72-6.19,13.06a4.13,4.13,0,0,1-1.28,1.86c-1.16.62-2.74,1.54-3.67,1.16s-1.54-2.28-1.45-3.45c.31-4.36,1.3-8.68,1.4-13a23.13,23.13,0,0,0-1.48-9.33c-8-18.9-3.87-36.55,5.45-53.52,3.35-6.11,7.89-11.57,11.87-17.34a5.66,5.66,0,0,0,1.09-3.39c-5,1.82-10,3.59-14.91,5.5-.59.23-1,1.11-1.36,1.75-3.2,5.47-6.38,10.86-8,17.19-.74,2.94-3.2,5.73-5.49,7.94-4,3.87-5.43,8.16-3.56,13.37,3.33,9.28,2.66,18.62.09,27.81a28.3,28.3,0,0,1-5.49,9.93c-4,4.89-7.5,9.93-9.65,15.92-.44,1.22-2.13,2-3.24,3-.91-1.19-2.38-2.27-2.65-3.6-1.8-8.84-1.58-17.31,2.18-26,2.43-5.62,2.59-12.33,3.21-18.61.64-6.43.44-12.93.87-19.39.33-4.81,3-8.37,7-10.93,3.14-2,6.36-3.88,9.52-5.85,3.72-2.31,6.27-5.62,8.48-9.91-9.71,1.94-18.92,3.74-28.11,5.69a4.08,4.08,0,0,0-2.55,2.05c-1.57,3.84-2.87,7.79-4.26,11.7-1.55,4.32-2.89,8.72-4.7,12.93-1.92,4.45-2.41,8.74-.7,13.37,3.2,8.63,2.33,17.29-.59,25.77-3.36,9.72-6.7,19.47-10.65,29-2,4.78-5.26,9-8.07,13.47a6.78,6.78,0,0,1-2.47,2.08c-2.48,1.34-3.85.47-3.53-2.34a35.43,35.43,0,0,1,1.41-7.07c2.91-9,2.8-18,1.16-27.28a32.23,32.23,0,0,1,.29-12.34c2.27-10.13,5.22-20.12,7.82-30.18,1.55-6,5.1-10.82,8.92-15.53,3.69-4.53,7.13-9.25,10.67-13.89l-.69-.63c-6.84.83-13.69,1.61-20.51,2.57a3.23,3.23,0,0,0-1.9,2c-.61,2.09-.88,4.28-1.32,6.43a25.65,25.65,0,0,1-7.36,13.67,16.4,16.4,0,0,0-5.16,11.73,32.82,32.82,0,0,1-4.64,16.25,13.59,13.59,0,0,0-.7,13.47c3.9,8.58,3.53,17.73,3.29,26.84-.06,2.25-1.54,2.84-3.4,2.18a8.62,8.62,0,0,1-3-2c-3.21-3.15-6.36-6.37-9.51-9.59a20.37,20.37,0,0,1-5.73-19c1.06-5.81,1.5-11.76,2.81-17.5,3.18-13.94,8.44-26.71,20.88-35.3,2.92-2,5.26-4.87,8.62-8a40.34,40.34,0,0,0-4.26-.49c-5.59,0-11.19.21-16.78.24-2.88,0-4.81,1.19-5.76,3.94s-1.82,5.87-3.09,8.64a86.82,86.82,0,0,1-5.66,10.71c-3.21,5-5.5,10.15-5.65,16.2a36.46,36.46,0,0,1-8.42,22.71c-5.78,7-12,13.62-18.08,20.4a75.29,75.29,0,0,1-5.1,5.59,16.67,16.67,0,0,1-3.81,2c-.5-1.55-1.64-3.21-1.39-4.63a74.24,74.24,0,0,1,12.43-30.46,30.24,30.24,0,0,0,5.64-17.54,14.1,14.1,0,0,1,1.78-6.88c4.26-7.15,8.65-14.24,13.46-21,2.56-3.63,6.05-6.59,9.33-10.07-4.5-.81-9.15-1.65-13.79-2.51-3.33-.62-6.68-1.2-10-1.93s-5.88.06-7.15,3.45c-.81,2.14-2,4.28-2.14,6.49-.64,7.89-4.4,14-9.69,19.6a37.66,37.66,0,0,0-6.86,9.82c-6.16,13.43-16.34,22.85-28.74,30.3-3.06,1.85-5.84,4.17-8.81,6.17-.73.49-2.2,1-2.51.73-.74-.73-1.54-2.08-1.35-3a18.82,18.82,0,0,1,2.25-5,13.27,13.27,0,0,1,2.43-3.1c10.76-10,17.23-22.53,21.24-36.47,2.87-10,8.61-17.43,18-22.4,4.23-2.25,7.69-6,12.08-9.47-3.83-1.43-6.55-2.55-9.34-3.47-6.31-2.08-11.26.14-13.75,6.33-3.34,8.32-9.69,13.28-18,15.55a86.44,86.44,0,0,0-25.48,11.84,51.88,51.88,0,0,1-27.86,8.71c-1.4,0-4-.89-4-1.5-.11-1.73.29-4.07,1.45-5.18,2.66-2.56,5.91-4.5,8.88-6.76,4.28-3.25,8.61-6.44,12.75-9.87,7.39-6.11,15.5-10.67,25-12.46S445.29,1317.27,454,1312.67Z" fill="#2d2d2d"/>
    </g>
    <g opacity="0.41">
      <path d="M599.35,1197.58a12.77,12.77,0,0,0-.29-1.7c-2.56-7.83-2-15.57.46-23.34,1.19-3.82,2-7.76,2.93-11.67.79-3.35,0-6.59-.85-9.82-.36-1.33-1.19-3.09.42-3.73.93-.37,2.84.37,3.65,1.24,5.46,5.86,9.45,12.49,10.37,20.69.61,5.38-.57,10.38-2.48,15.33a95.23,95.23,0,0,0-3.76,10.63,12.56,12.56,0,0,0,3.36,12.55,29,29,0,0,0,5,4.13c-.06-1.3-.1-2.59-.2-3.89-.45-5.68.22-11.13,3.77-15.81,2.36-3.09,5-3,7.41.16,3,3.87,3.72,8.36,3.2,13.06-.41,3.61-1.08,7.19-1.66,10.78a2.7,2.7,0,0,0,1.78,3.22c10.84,4.37,21.86,8.19,33.77,7.33,4-.28,7.82-1.66,11.73-2.52,1.2-.26,2.79-1.56,3.49.25.58,1.54-.93,2.48-2.22,3.12a31.39,31.39,0,0,1-12.63,2.8c-13.71.66-26.32-3.62-38.64-9-1.93-.84-3.81-1.82-5.67-2.81a16.18,16.18,0,0,0-14.4-.64,108.22,108.22,0,0,1-12.22,4.44,45.37,45.37,0,0,1-9.48,1.06c-2.39.11-3.21-.92-3-3.33.33-4.58,2.82-7.76,6.82-9.71,2.28-1.11,4.75-1.85,7.14-2.75.83-.32,1.66-.61,2.56-.94-1.46-1.14-5.45-2-8.45-1.55a31.31,31.31,0,0,1-17-2.74,45,45,0,0,1-23.93-23.73,2.9,2.9,0,0,1-.44-1.25c.07-.86.07-2,.6-2.45a3,3,0,0,1,2.43.08,9.56,9.56,0,0,1,2.88,1.86,49.91,49.91,0,0,0,17.82,10.65c4.43,1.6,8.85,3.24,13.28,4.86l.43-.37a15.34,15.34,0,0,0-1.5-2.63c-2.76-3.28-5.68-6.42-8.4-9.73-5-6.07-8.2-13.08-10.61-20.49-2.35-7.23-4.72-14.44-7-21.68a5.1,5.1,0,0,1,0-2.2c.21-1.48,1.14-1.52,2.22-.92a6.89,6.89,0,0,1,1.33,1.09c4.78,4.63,9.5,9.33,14.34,13.9,6.24,5.88,9.45,13.19,10.67,21.55.68,4.73,1.36,9.47,2.32,14.15,1,4.89,4,8.65,7.63,11.91A5.37,5.37,0,0,0,599.35,1197.58Z" fill="#2d2d2d"/>
    </g>
    <g opacity="0.41">
      <path d="M645,1142.11c-1.68-3.27-3.3-6.57-5.06-9.8a54.34,54.34,0,0,1-6.75-30.85c.49-6.44,1.62-12.76,4.54-18.73,1.92-3.94,2.85-8.36,4.44-12.48.52-1.35,1.71-2.43,2.6-3.64.85,1.23,2.14,2.36,2.48,3.71a43.05,43.05,0,0,1,.91,16.69c-1.32,9.22-2.8,18.41-4.05,27.64a62.48,62.48,0,0,0,0,7.8c.68-.57,1-.69,1.06-.9,3.4-7.21,6.83-14.41,10.13-21.67.77-1.71.92-3.68,1.62-5.42.43-1,1.29-2.6,2.1-2.68a3.22,3.22,0,0,1,3.48,2.58,27.78,27.78,0,0,1-.64,17c-2,5.51-4.35,10.86-6.31,16.36-3.63,10.17-2.51,20,2.49,29.5,1.16,2.2,2.36,4.37,3.55,6.56l.67,0a17.55,17.55,0,0,0,.42-2.76,61.1,61.1,0,0,1,5.36-25.58c2.05-4.42,4.85-8.5,7.36-12.7a31.4,31.4,0,0,0,4.38-14.12c0-.16-.08-.35,0-.47.58-1.14,1.19-2.27,1.78-3.41,1,.87,2.57,1.55,3,2.65a36.58,36.58,0,0,1,2.06,15.79c-.75,9.31-3.95,17.81-8.09,26.07a72.4,72.4,0,0,0-7.08,25.41A24.34,24.34,0,0,0,674.2,1189a31.6,31.6,0,0,0,1.92,2.83c1.14-4.75,2-9.23,3.31-13.6a60.27,60.27,0,0,1,13.21-23.56c.94-1,2.64-1.41,4-2.08.07,1.63.65,3.46.12,4.86-4.94,13-8.16,26.46-8.51,40.38-.28,11.29,0,22.6.49,33.89.6,15.14-1.62,29.74-8.4,43.33-3.61,7.25-8.26,14-12.44,21a2.63,2.63,0,0,1-.46.54c-.86.81-1.83,2-3,.83a3.29,3.29,0,0,1-.13-2.86,18.78,18.78,0,0,1,2.35-3.83c12.09-16.9,18.75-35.47,18.06-56.51-.26-8.2-5.46-12.61-11.3-16.68-4.41-3.07-9.23-5.55-13.65-8.61a95.42,95.42,0,0,1-8.91-7.44c-.53-.46-1-1.8-.73-2.17a3.55,3.55,0,0,1,2.44-1.42,12.68,12.68,0,0,1,3.9.93c4.92,1.69,9.82,3.43,15.56,5.44a39.39,39.39,0,0,0-2.48-4c-6.09-7.39-14.09-12.08-22.54-16.31a224.49,224.49,0,0,1-20.14-11.56,21.18,21.18,0,0,1-8.15-10.27,18.24,18.24,0,0,1-.54-3.15,195,195,0,0,1,23.7,8.82c7.46,3.49,14.55,7.8,22.14,11.93-.46-1.21-.84-2.26-1.26-3.3-3.07-7.66-9.14-12.67-15.7-17-8.19-5.4-16.63-10.44-25-15.49s-13.87-12.33-15.7-22.06c-.19-1,.54-2.24.85-3.37,1,.47,2.29.68,3,1.43,3.76,4.12,8.54,6.73,13.25,9.53,6.66,4,13.15,8.23,19.71,12.36a14.46,14.46,0,0,0,1.42.71Z" fill="#2d2d2d"/>
    </g>
    <g opacity="0.41">
      <path d="M660.56,938.52c.59-.3,1.21-.55,1.77-.9,8.27-5.19,16.43-10.56,24.82-15.54,5.92-3.53,11.93-6.82,16.67-12,.87-1,2.48-1.22,3.75-1.8.38,1.42,1.31,2.94,1.07,4.24-2.3,12.25-9.06,21.36-19.76,27.76s-21.21,12.69-31.51,19.5c-8.26,5.46-15.9,11.78-19.76,21.41-.53,1.31-1,2.64-1.58,4.16,9.55-5.21,18.47-10.62,27.86-15s19.24-7.72,29.82-11.1a23.36,23.36,0,0,1-.68,4,26.71,26.71,0,0,1-10.25,12.93,284.06,284.06,0,0,1-25.36,14.54c-10.63,5.33-20.7,11.22-28.35,20.52a49.29,49.29,0,0,0-3.12,5c7.21-2.53,13.38-4.73,19.58-6.85a15.92,15.92,0,0,1,4.91-1.17,4.48,4.48,0,0,1,3.06,1.79c.35.47-.25,2.15-.91,2.73a120.16,120.16,0,0,1-11.22,9.36c-5.56,3.85-11.63,7-17.17,10.83-7.35,5.13-13.9,10.68-14.23,21-.86,26.48,7.52,49.84,22.73,71.12a23.78,23.78,0,0,1,3,4.81c.42,1.05.48,2.91-.16,3.6-1.42,1.52-2.65,0-3.73-1a3.22,3.22,0,0,1-.58-.69c-5.26-8.76-11.11-17.25-15.66-26.37-8.52-17.11-11.33-35.47-10.56-54.53.57-14.21,1-28.44.61-42.64-.44-17.52-4.49-34.42-10.71-50.82-.67-1.77.06-4.07.15-6.12,1.69.85,3.83,1.3,5,2.61a76,76,0,0,1,16.63,29.66c1.6,5.5,2.72,11.14,4.15,17.11a37.81,37.81,0,0,0,2.43-3.56,30.79,30.79,0,0,0,3.54-18.1,91.56,91.56,0,0,0-8.92-32c-5.2-10.38-9.23-21.08-10.18-32.81a45.79,45.79,0,0,1,2.6-19.86c.51-1.38,2.45-2.24,3.74-3.34.75,1.43,1.51,2.85,2.24,4.29.08.15,0,.39,0,.59a39.52,39.52,0,0,0,5.51,17.77c3.16,5.29,6.68,10.42,9.26,16a76.73,76.73,0,0,1,6.75,32.19,24.44,24.44,0,0,0,.52,3.47l.85,0c1.49-2.75,3-5.49,4.47-8.26,6.3-11.93,7.7-24.32,3.14-37.12-2.47-6.93-5.49-13.66-8-20.58a35,35,0,0,1-.8-21.45,4,4,0,0,1,4.38-3.26c1,.11,2.1,2.06,2.63,3.38.89,2.19,1.08,4.68,2,6.82,4.15,9.14,8.47,18.2,12.75,27.27.12.26.47.42,1.33,1.13,0-3.73.34-6.82-.06-9.81-1.58-11.61-3.44-23.18-5.11-34.79a54.17,54.17,0,0,1,1.16-21c.43-1.71,2-3.12,3.12-4.67,1.11,1.51,2.61,2.88,3.26,4.57,2,5.19,3.17,10.75,5.6,15.71,3.66,7.52,5.09,15.47,5.71,23.57a68.5,68.5,0,0,1-8.49,38.83c-2.23,4.06-4.26,8.22-6.38,12.33Z" fill="#2d2d2d"/>
    </g>
    <g opacity="0.53">
      <path d="M-3.19,840.87c-5.6,3.86-7.13,8.07-5,14.12,2.27,6.57,3.56,13.14,2.05,20.13a7,7,0,0,0,1,5.21c6,7.48,4.22,15.36,1.73,23.39-1.13,3.66-1.9,7.43-3.23,11-.48,1.28-2.11,2.14-3.21,3.19-.68-1.41-2-2.82-1.93-4.22.12-10.24-2-20.1-4.69-29.88-2.41-8.7-3-17.42-.24-26.17a14.6,14.6,0,0,0,.24-2.19c-1.45,1.23-2.49,2.06-3.45,3-3,2.8-6,5.58-9,8.48a5.17,5.17,0,0,0-1.63,3c-.19,5.46-.3,10.93-.1,16.38a10.24,10.24,0,0,0,1.8,5.86c5.2,6.2,6.62,13.47,6.85,21.18a69.73,69.73,0,0,1-6.7,31.58,7.68,7.68,0,0,1-1.49,2.59,14.71,14.71,0,0,1-3.09,1.66c-.36-1.23-1.15-2.51-1-3.66.58-4.43,1.66-8.79,2.18-13.21a38.15,38.15,0,0,0-2.46-19.63c-4.57-10.62-5-21.56-3.8-32.77l.33-3.12-.77-.29a27,27,0,0,0-2.9,3.72c-4.55,8.4-9.43,16.66-13.37,25.34a55.79,55.79,0,0,1-19.43,23.17,5.51,5.51,0,0,1-2.69,1.07c-2.18.11-3.24-1.41-2-3.15,5-7.32,6.91-15.8,9.56-24,2.52-7.83,8-13.48,14.19-18.71,10.25-8.67,20.22-17.65,30.3-26.52a12.79,12.79,0,0,0,1.22-1.54c-4.27-.34-7.81.25-10.65,3.14-1.73,1.76-3.19,3.81-5,5.41-2.61,2.25-5.2,4.79-8.27,6.17a44.12,44.12,0,0,0-16.74,13.34,21.13,21.13,0,0,1-2.6,3.16,11.18,11.18,0,0,1-3,1.34c-.32-1.16-1.14-2.46-.87-3.45a83.81,83.81,0,0,1,3.86-11.66c5.2-11.79,13.44-20.86,25.32-26.13a25.77,25.77,0,0,1,10-1.8c4,0,8,.77,12,1.35,4.15.61,7.27-.55,9.4-4.38,2.3-4.13,4.91-8.09,7.33-12.15a13.63,13.63,0,0,0,.84-2.44,10.92,10.92,0,0,0-1.46.8,22,22,0,0,1-13.66,4.87A21.72,21.72,0,0,0-30,837.47a38.2,38.2,0,0,1-22.56,8c-4.45.12-8.89.84-13.34,1.1-2.1.12-4.15-.56-4.65-3s1.26-3.67,3.07-4.63c2.09-1.12,4.31-2,6.43-3.06a47.31,47.31,0,0,0,14.56-11c4.38-5,9.73-7.12,16.37-6,5.32.87,10.69,1.42,16,2.29a11,11,0,0,0,10.05-3,40,40,0,0,1,5.67-4.75c5.21-3.39,5.67-9,7.41-14.94-2.66,1.26-4.76,2-6.66,3.17A25.28,25.28,0,0,1-14.71,805a26.44,26.44,0,0,0-16.66,3.15c-8.16,4.4-16.72,3.93-25.37,2.47-3.17-.53-4.41-3.38-2.92-6.27,1.77-3.45,4.76-5.32,8.42-6.46,6.51-2,13-4.08,19.38-6.49s12.45-3.15,18.64-.5c7.07,3,14.38,3,21.78,2.51a2.21,2.21,0,0,0,1.65-1.26c1.28-7.07,3-14.1,2.53-21.81-4.6,2.48-9,4.6-13.22,7.17-6.23,3.83-12.67,4.67-19.93,3.71-7.64-1-15.46-.79-23.21-1-4.9-.1-9.7-.47-13.76-3.57-1.78-1.36-3.21-3.09-2.6-5.61.56-2.33,2.36-3.35,4.49-3.94,7.81-2.13,15.56-4.59,23.47-6.28a24,24,0,0,1,18.1,3.67A21.32,21.32,0,0,0,5.15,767,39.18,39.18,0,0,1,11,765.56c1.83-.31,2.69-1.09,2.63-3-.11-4.27-.07-8.54-.1-13.48a31.89,31.89,0,0,0-4.41,2.31c-8.74,6.76-18.48,8.15-29,5.65-2.57-.61-5.26-.69-7.8-1.37-4.36-1.17-7.6-4.11-10.87-7.1-4-3.68-8.39-7-12.51-10.56a13.37,13.37,0,0,1-2-3.12c1.11-.59,2.18-1.6,3.34-1.72a40.56,40.56,0,0,1,24.74,5c5.67,3.13,12,5.11,18.27,7,2.45.76,5.41.08,8.11-.23,3.84-.46,7.65-1.18,12-1.87-.46-7.48-1-15.49-1.45-23.5l-.89-.21c-.92,1.31-1.92,2.57-2.74,3.93-4.27,7.06-10.81,11-18.46,13.25a13.25,13.25,0,0,1-6.94-.33,68.68,68.68,0,0,1-10.13-4.07c-1-.46-2.14-1.82-2.11-2.72s1.43-2,2.45-2.34c7.38-2.35,14.76-4.71,22.24-6.69,5.57-1.48,9.92-5,14.62-7.9a1.86,1.86,0,0,0,.56-1.58c-1-4.8-2.14-9.58-3.43-15.27-2.31,1.8-4.43,3-6,4.73-2.84,3.2-5.29,6.75-8,10.09-7.87,9.72-18.26,14.2-30.56,13.23-7.52-.59-14.95-2.43-22.37-3.91-1.07-.21-2.69-1.6-2.67-2.4a4.46,4.46,0,0,1,2.2-3.19c6.76-3.38,14.1-3.82,21.53-4.3,10.7-.7,20.86-3.23,29.14-10.86,4.23-3.89,8.81-7.46,15.37-7.93C3.92,685.66,2.22,680.6.28,674.82l-5.4,7.6c-1.79,2.53-3.41,5.2-5.41,7.56a27.09,27.09,0,0,1-14,8.68c-10,2.7-20.06,5.4-30.14,7.91A5.5,5.5,0,0,1-59,705.8c-1.56-1.45-.82-3.61.57-4.89a77.62,77.62,0,0,1,8.62-7c4.43-3,9.26-5.44,13.59-8.57a26.75,26.75,0,0,1,13.43-5c8-.71,14-4.77,19.34-10.25a2.88,2.88,0,0,0,.31-2.74c-2.6-3.71-5.36-7.32-8.19-10.86-1.13-1.42-2.72-2.46-3.82-3.9-1.26-1.64-.34-3.55,1.68-3.35,1.7.17,3.9.65,4.86,1.83a99,99,0,0,1,9,12.67c1.88,3.22,3.73,5.49,7.82,5s8.46-.79,12.7-1c2.44-.13,5.11-.57,7.31.19,6.09,2.09,12.14,1.82,18.37,1.17,8.79-.91,16.36,2.93,23.75,7,1.83,1,1.68,2.69-.28,3.47-1.38.56-3,.42-4.52.74-4.34.91-9,1.22-12.93,3-6.46,3-12.71,4-19.61,2C27.85,684,22.48,683.55,17.45,682c-3.75-1.16-7.16-3.43-11.6-5.64C7,679,7.49,681.54,9,683.07c4.28,4.47,9,8.07,16,7.31,4.8-.52,9.23,1.8,13.41,4.13a44.75,44.75,0,0,0,18.87,6,62.56,62.56,0,0,0,9.28-.26,21.18,21.18,0,0,1,12.92,2.64c3.46,2,6.87,4.14,10.29,6.25.53.33,1.21.7,1.43,1.22.41,1,1,2.4.64,3.13s-2,1.08-3,.91c-3.58-.63-7.08-1.82-10.67-2.28a19.41,19.41,0,0,0-7.86.42c-16.34,5-30.6.08-43.85-9.1-4.78-3.3-8.91-7.53-13.34-11.32A4.72,4.72,0,0,0,10.38,691c1.07,4.28,2.11,8.56,3.27,12.82.13.51.83.91,1.33,1.28,4.26,3.12,8.45,6.21,13.55,8.07,2.38.86,4.48,3.13,6.11,5.23,2.86,3.66,6.29,5.19,10.76,4.09,8-2,15.66-.61,23.05,2.31a23.64,23.64,0,0,1,7.75,5.39,45.23,45.23,0,0,0,12.36,9.37c1,.46,1.46,1.93,2.17,2.93-1.07.66-2.09,1.78-3.21,1.89-7.48.73-14.47-.18-21.34-4-4.46-2.5-10-3.22-15.14-4.27s-10.68-1.47-16-2.38c-4-.68-6.68-3.22-8.45-6.75-1.39-2.78-2.68-5.6-4-8.39a19.84,19.84,0,0,0-7.48-7.88c.77,8.21,1.47,16,2.3,23.77a3.35,3.35,0,0,0,1.48,2.29c3,1.63,6.2,3,9.32,4.53,3.44,1.66,7,3.15,10.31,5a14.29,14.29,0,0,0,11,1.72c7.42-1.91,14.52-.45,21.29,2.7,7.76,3.61,15.55,7.22,23.07,11.31,3.79,2.06,7,5.13,10.47,7.83a5.68,5.68,0,0,1,1.5,2.23c.9,2.17.06,3.22-2.23,2.72A30,30,0,0,1,97.88,773c-7.21-3.19-14.69-3.87-22.49-3.31a26.92,26.92,0,0,1-10.2-1.29c-8.2-2.75-16.21-6.06-24.32-9.07-4.86-1.8-8.52-5.15-12.1-8.72-3.43-3.44-7-6.7-10.59-10l-.58.52c.1,5.74.16,11.47.37,17.21A2.69,2.69,0,0,0,19.5,760c1.68.69,3.47,1.1,5.21,1.64A21.38,21.38,0,0,1,35.4,769a13.66,13.66,0,0,0,9.27,5.28,27.21,27.21,0,0,1,13.06,5.24,11.33,11.33,0,0,0,11.09,1.73c7.45-2.5,15-1.41,22.51-.42,1.86.24,2.23,1.51,1.52,3a7.19,7.19,0,0,1-1.91,2.28c-2.89,2.39-5.82,4.72-8.75,7A17,17,0,0,1,66,796.24c-4.72-1.38-9.6-2.25-14.25-3.83-11.27-3.83-21.4-9.28-27.44-20.32-1.42-2.59-3.58-4.78-5.93-7.83-.38,1.69-.68,2.58-.77,3.48-.44,4.64-.79,9.29-1.24,13.92a4.55,4.55,0,0,0,2.77,5.11c2.31,1.08,4.7,2,6.89,3.3a72.84,72.84,0,0,1,8.38,5.61c3.86,3.08,7.94,5.43,12.93,6.07a30.3,30.3,0,0,1,18.09,8.92c5.31,5.39,10.25,11.13,15.35,16.72,1.41,1.56,2.93,3,4.18,4.7a14.27,14.27,0,0,1,1.36,3.33c-1.32.28-2.8,1.09-4,.76a61.78,61.78,0,0,1-24.17-12.91,25.07,25.07,0,0,0-14-6.17A11.94,11.94,0,0,1,38.57,815c-5.55-4.14-11-8.39-16.26-12.95-2.78-2.43-4.93-5.58-7.53-8.59-1.06,3.66-2.15,7.43-3.26,11.2-.8,2.71-1.58,5.43-2.46,8.11s-.45,4.88,2.25,6.22c1.7.85,3.37,2,5.18,2.33,6.48,1.2,11.22,4.84,15.4,9.71a31.31,31.31,0,0,0,7.55,6.52C50,843.83,57,853.07,62.07,864c1.26,2.7,2.95,5.19,4.35,7.83.34.64.67,1.9.39,2.13a3.31,3.31,0,0,1-2.57.87,16,16,0,0,1-4-2.3,11.09,11.09,0,0,1-2.36-2.28c-7.37-9.77-17.18-16.19-28.38-20.71a29.24,29.24,0,0,1-17-16.79c-1.5-3.7-4.27-6.88-6.8-10.82C4.19,825,3,827.12,2,829.35c-2.26,5-.85,9.34,4.07,11.93,6.6,3.48,10.16,9.16,11.33,16.22A72,72,0,0,0,25,879.61a43.19,43.19,0,0,1,4.82,23.83c-.09,1.16-1.08,3.22-1.58,3.2-1.44-.06-3.35-.59-4.17-1.64-1.89-2.43-3.22-5.29-4.84-7.94-2.32-3.82-4.59-7.68-7.08-11.4C7.76,879,4.69,871.9,4,863.87S-.13,848.47-3.19,840.87Z" fill="#2d2d2d"/>
    </g>
    <g opacity="0.59">
      <path d="M615.57,14.68C603.27,8.35,590.35,4,576.45,3.15a111.92,111.92,0,0,0-16.68.3c-13,1.2-22.66,7.84-29.72,18.76-7.42,11.49-6.25,26.19,3.37,35.91,2.83,2.85,6.15,5.22,9,8.05,2.35,2.32,4.61,3.33,7.63,1.34a7.55,7.55,0,0,1,2.28-.66,14.59,14.59,0,0,1,9.2.63c2.2.88,2.63,1.71,2.75,4.09a7.94,7.94,0,0,0,1.11,3.84,15.65,15.65,0,0,1,2.72,8.15c.12,2.5,1,3.75,3.56,4.39,3.1.79,3.75,4.06,1.76,6.53a13.68,13.68,0,0,0-2.24,3.88,3.47,3.47,0,0,1-3,2.56,14.77,14.77,0,0,0-3.28.84c-2.38,1-3.2.78-4.36-1.57a5.86,5.86,0,0,0-4.28-3.29c-2.49-.56-5-1.23-7.41-1.94a12.3,12.3,0,0,1-8.53-14,2.79,2.79,0,0,0-1.4-3.23A89.24,89.24,0,0,1,531,71.78c-9.59-8.43-15.37-18.8-15.14-31.88.14-7.58.57-15.26,4.74-21.89a111.88,111.88,0,0,1,10-13.52C536.26-2,544-4.93,552-6.87c12.66-3.06,25.37-2.52,38.07-.17L595-6.1a3,3,0,0,0-1.22-1.34,38.09,38.09,0,0,0-12.79-5c-5.26-.9-10.56-1.6-15.77-2.7q-13.83-2.93-15.63-15.57c-.62-4.27-.92-8.6-1.22-12.91a8.36,8.36,0,0,1,3.47-7.75c3.63-2.61,4.56-6,3.43-10.2-1.34-4.94-1.33-10-1.25-15.08a18.64,18.64,0,0,1,4.07-11c3.1-4.1,7.35-6,12.46-4.59A20.55,20.55,0,0,1,577-89.12c5,3.6,7.67,8.72,8.72,14.73.19,1.09.46,2.17.69,3.29.71-.18,1.2-.31,1.7-.42,4.34-1,7.21.39,8.84,4.56a22.13,22.13,0,0,1,1.44,6.11c.25,3,.15,6,.13,9a75.46,75.46,0,0,0,8.2,35.25c4.45,8.77,11.09,15.89,18.26,22.52,1.2,1.11,2.54,2.08,3.81,3.11l.39-.27c-.46-2.27-.93-4.54-1.39-6.82a2.87,2.87,0,0,1,1-3.22A2.48,2.48,0,0,1,632-.8c4.27,3.73,8.71,7.3,12.65,11.36a41.25,41.25,0,0,1,10.26,18.07c.83,3.07.47,4.4-2.24,6.06a19.86,19.86,0,0,1-5.74,2.48c-5.61,1.3-11.11.28-16.37-1.75-8.57-3.31-17-3.75-25.78-.47a108,108,0,0,1-16.4,4.66c-6.14,1.27-9.74-2.67-8.54-8.86a12.1,12.1,0,0,1,1.56-3.92c2.51-4.06,6.31-6.44,10.81-7.81a32.14,32.14,0,0,1,14.19-.81c3.94.58,7.24-.73,10.84-2.43A19.46,19.46,0,0,0,615.57,14.68ZM585.2-21.21c-3.51-7.86-2.64-15.09,2.88-21.82,3.52-4.28,6.75-8.84,6.81-14.71a27.42,27.42,0,0,0-.79-7.57c-1-3.57-4-4.32-6.9-2.06-3.4,2.6-5.09,6.37-6.55,10.19a25.22,25.22,0,0,0-1.41,12.74c.16,1.12,0,2.16-1.29,2.38s-1.68-.95-1.84-2a26.12,26.12,0,0,1,1.49-14.06c1.25-3.09,3.11-5.93,4.5-9a8,8,0,0,0,.77-4,38,38,0,0,0-1.55-7c-1.71-5.4-5.52-8.94-10.65-11-3.7-1.51-8.08.37-10.73,4.25a17.69,17.69,0,0,0-2.92,11c.15,3.62.79,7.22,1.25,10.82.21,1.63.58,3.25.72,4.89a7.76,7.76,0,0,1-3.21,7.45c-3.46,2.48-4.69,5.87-4.17,10,.4,3.16.95,6.3,1.3,9.46.74,6.72,4.82,10.69,11,12.25,6.8,1.73,13.79,2.72,20.69,4,1.17.22,2.34.37,3.91.61C587.28-16.82,586.19-19,585.2-21.21ZM547.79,81.4c-1.37-4-1.42-3.89,2.74-4.54,2.24-.35,4.47-.86,6.67-1.41a4.63,4.63,0,0,0,3.38-3.31c.29-.9.13-1.41-.89-1.78a11.5,11.5,0,0,0-11,1.56c-2.46,1.7-2.66,1.69-4.84-.2-4.06-3.54-8.28-6.93-12.15-10.67-10-9.69-12.79-24.86-6.36-37.09,7-13.25,17.75-21.73,33-23.63a89.83,89.83,0,0,1,43.88,5.2c2.78,1.07,5.62,2,8.43,3l.28-.4c-2.45-2.28-4.87-4.61-7.38-6.83-3-2.68-6.92-3.31-10.66-4.24a85.58,85.58,0,0,0-41.17-.51C541.15-1,533.24,5.13,527.07,13.85c-8.56,12.09-10.22,25.14-5.63,39.08,2.56,7.8,7.64,13.73,14.13,18.54,2.24,1.65,4.59,3.16,7,4.6a2.42,2.42,0,0,1,1.36,2.79c-.16.84-.2,1.7-.38,2.53-.74,3.35.16,5.91,3.06,8.22C548.9,87.07,548.79,84.26,547.79,81.4Zm88.54-56.75c-5.51-5.57-12-7-19.54-5-5.16,1.36-8.24,5-11,9.06a8.82,8.82,0,0,0-1.39,2.87,10.36,10.36,0,0,0,1.86-.35c8-3,15.82-2,23.69.54,3.23,1,6.55,1.81,9.87,2.56a10.07,10.07,0,0,0,7-.81C642.37,31.27,639.47,27.83,636.33,24.65Z" fill="#2d2d2d"/>
    </g>
    <g opacity="0.53">
      <path d="M568.25,372.86c.23,6.8-2.24,10.53-8.33,12.47-6.63,2.1-12.68,5-17.39,10.36a7,7,0,0,1-4.79,2.27c-9.58-.33-14.85,5.78-19.81,12.57-2.26,3.08-4.83,6-6.91,9.16-.74,1.15-.46,3-.64,4.48,1.53-.3,3.42-.12,4.53-1,8.15-6.21,17.31-10.41,26.78-14.06,8.42-3.25,15.75-8,21.15-15.42a15.88,15.88,0,0,1,1.61-1.5c-.12,1.9-.16,3.23-.31,4.54-.45,4.08-.87,8.18-1.47,12.24a5.12,5.12,0,0,1-1.42,3.09c-4.26,3.41-8.58,6.76-13.08,9.85a10.25,10.25,0,0,1-5.78,2.06c-8.07-.48-14.75,2.72-21.09,7.13A69.89,69.89,0,0,0,500,455.35a7.68,7.68,0,0,0-1.19,2.74,14.56,14.56,0,0,0,.51,3.47c1.2-.44,2.7-.57,3.54-1.38,3.2-3.1,6.05-6.58,9.3-9.63a38.11,38.11,0,0,1,17.22-9.74c11.25-2.67,20.27-8.87,28.56-16.49l2.31-2.13.7.44a28.55,28.55,0,0,1-1.26,4.55c-4,8.66-7.75,17.51-12.37,25.85a55.84,55.84,0,0,0-7,29.42,5.55,5.55,0,0,0,.75,2.79c1.21,1.81,3.06,1.76,3.75-.24,2.9-8.36,8.56-15,13.59-22,4.77-6.7,6-14.48,6.54-22.55.84-13.4,2.11-26.76,3.21-40.14a13,13,0,0,1,.51-1.9c2.82,3.23,4.46,6.42,3.83,10.43-.38,2.43-1.15,4.82-1.33,7.27-.25,3.43-.74,7,0,10.31a44.14,44.14,0,0,1-.72,21.4,21,21,0,0,0-1,4,11.65,11.65,0,0,0,.69,3.16c1.12-.43,2.65-.54,3.29-1.36a84,84,0,0,0,7-10c6.36-11.21,8.72-23.23,5.87-35.9a25.81,25.81,0,0,0-4.55-9.14c-2.36-3.22-5.39-5.95-8.22-8.8s-3.9-6.16-2.09-10.16c1.94-4.31,3.56-8.76,5.37-13.13a15.51,15.51,0,0,1,1.46-2.13,10.77,10.77,0,0,1,.24,1.65,22,22,0,0,0,4.23,13.87A21.76,21.76,0,0,1,587,392.33,38.3,38.3,0,0,0,594,415.19c2.56,3.65,4.62,7.63,7.08,11.36,1.15,1.75,2.92,3,5.15,2s2.19-3.21,1.88-5.23c-.35-2.34-1-4.65-1.38-7a47.09,47.09,0,0,1,.15-18.25c1.41-6.52-.09-12.06-4.93-16.75-3.87-3.75-7.52-7.72-11.38-11.48A11,11,0,0,1,587,360a39.86,39.86,0,0,0,.43-7.39c-.39-6.2,3.82-9.9,7.56-14.86.59,2.89,1.2,5,1.44,7.24a25.24,25.24,0,0,0,7.48,15.73A26.42,26.42,0,0,1,611.32,376c1.34,9.18,6.82,15.77,13.15,21.84,2.32,2.22,5.34,1.51,6.78-1.4,1.71-3.48,1.43-7,.16-10.62-2.26-6.42-4.49-12.87-6.36-19.42s-4.9-11.86-10.72-15.26c-6.63-3.86-11-9.76-15-16a2.24,2.24,0,0,1,0-2.08c4.91-5.24,9.54-10.8,16-15,.76,5.17,1.71,10,2.14,14.88.64,7.29,3.81,13,8.91,18.21,5.37,5.53,9.85,11.94,14.6,18.06,3,3.87,6.16,7.5,11.07,8.91,2.16.62,4.41.74,6.06-1.25,1.54-1.84,1.28-3.9.48-5.95-2.94-7.55-5.59-15.23-9-22.59a24,24,0,0,0-13.74-12.34,21.28,21.28,0,0,1-13.38-13.82,40.06,40.06,0,0,0-2.3-5.55c-.84-1.66-.73-2.8.87-3.93,3.49-2.45,6.9-5,10.87-7.95a30.4,30.4,0,0,1,.78,4.91c-.21,11.06,4.49,19.69,12.79,26.66,2,1.7,3.68,3.82,5.74,5.45,3.54,2.8,7.84,3.64,12.19,4.48,5.35,1,10.6,2.58,15.93,3.75a13.46,13.46,0,0,0,3.71-.25c-.19-1.25,0-2.7-.61-3.71a40.63,40.63,0,0,0-18.8-16.86c-5.89-2.67-11.28-6.6-16.54-10.47-2.06-1.52-3.29-4.29-4.64-6.64-1.93-3.36-3.62-6.85-5.66-10.74l19.73-12.86.7.6c-.5,1.51-.91,3.06-1.52,4.54-3.12,7.63-2.41,15.26.38,22.71a13.22,13.22,0,0,0,4.41,5.38,67.41,67.41,0,0,0,9.31,5.7c.94.51,2.73.64,3.43.07s.77-2.35.42-3.36c-2.51-7.32-5-14.66-7.9-21.85-2.13-5.34-1.94-10.91-2.38-16.43a1.88,1.88,0,0,1,.94-1.4c4.46-2,9-4,14.29-6.36-.06,2.93.24,5.35-.23,7.62-.88,4.19-2.26,8.27-3.33,12.42-3.11,12.13-.5,23.13,7.61,32.43,5,5.68,10.87,10.55,16.49,15.62.81.73,2.88,1.21,3.52.71a4.49,4.49,0,0,0,1.24-3.67c-1.32-7.44-5.35-13.6-9.39-19.85-5.82-9-9.85-18.66-8.67-29.86.6-5.71.74-11.52-2.8-17.07L699.44,271c-1.07,3.32-2,6.1-2.88,8.88-1,2.94-2.14,5.84-2.84,8.84a27.15,27.15,0,0,0,1.37,16.41c3.82,9.66,7.64,19.32,11.64,28.9a5.51,5.51,0,0,0,3.24,3.07c2.08.39,3.38-1.5,3.57-3.38a75.88,75.88,0,0,0,.45-11.07c-.23-5.35-1.16-10.67-1.23-16a26.7,26.7,0,0,0-4-13.76c-4.2-6.86-4.53-14.11-3.31-21.65a2.89,2.89,0,0,1,2-1.88c4.53-.12,9.07-.06,13.6.1,1.81.06,3.6.71,5.41.74,2.06,0,3-1.85,1.68-3.35-1.15-1.26-2.85-2.74-4.36-2.81a100.61,100.61,0,0,0-15.53.36c-3.7.41-6.63.28-8.7-3.27s-4.41-7.26-6.76-10.8c-1.35-2-2.58-4.45-4.5-5.76-5.32-3.63-8.71-8.66-11.9-14-4.52-7.6-12.11-11.39-19.8-14.88-1.9-.87-3.17.25-2.62,2.29.38,1.44,1.47,2.68,2.11,4.07,1.85,4,4.38,7.94,5.28,12.18,1.48,6.95,4.42,12.55,10.1,16.93,4.17,3.22,7.71,7.29,11.95,10.4,3.17,2.32,7,3.7,11.45,6-2.85.64-5.14,1.77-7.24,1.51-6.14-.78-11.83-2.4-15.4-8.47-2.46-4.17-7-6.34-11.32-8.31a44.63,44.63,0,0,1-16.1-11.54,62.14,62.14,0,0,1-5.33-7.61,21.28,21.28,0,0,0-9.83-8.79c-3.69-1.56-7.42-3-11.15-4.52a3.31,3.31,0,0,0-1.83-.42c-1.06.27-2.55.59-2.9,1.35s.33,2.26,1.05,2.93c2.64,2.5,5.68,4.6,8.19,7.21a19.11,19.11,0,0,1,4.35,6.55c5.71,16.13,18.2,24.61,33.47,29.77,5.49,1.86,11.35,2.65,17,4a4.65,4.65,0,0,1,2.57,1.46c-4.07,1.69-8.13,3.41-12.24,5-.49.2-1.22-.12-1.82-.3-5-1.56-10-3.08-14.56-6.07-2.11-1.39-5.18-1.72-7.84-1.78-4.65-.11-7.92-1.95-9.7-6.2-3.18-7.56-8.86-12.92-15.6-17.11a23.78,23.78,0,0,0-9-3,44.89,44.89,0,0,1-14.88-4.33c-1-.5-2.43,0-3.66,0,.12,1.24-.17,2.73.41,3.7,3.87,6.43,8.77,11.51,16,14.72,4.66,2.09,8.54,6.11,12.46,9.61s7.54,7.69,11.44,11.4c2.91,2.78,6.57,3.44,10.46,2.76,3.06-.54,6.09-1.2,9.14-1.77,3.58-.68,7-.08,10.78,1.3-7.05,4.28-13.71,8.36-20.45,12.33a3.32,3.32,0,0,1-2.72.18c-3.12-1.47-6.14-3.16-9.2-4.77-3.38-1.78-6.68-3.73-10.16-5.29a14.28,14.28,0,0,1-7.95-7.81c-2.9-7.09-8.3-11.92-14.87-15.48-7.53-4.07-15.07-8.17-22.84-11.77-3.91-1.81-8.32-2.59-12.53-3.72a5.48,5.48,0,0,0-2.69.12c-2.27.57-2.62,1.87-.85,3.41a29.86,29.86,0,0,0,4.85,3.55c6.86,3.88,11.87,9.48,16.07,16.08a26.86,26.86,0,0,0,7.12,7.41c7.1,4.94,14.53,9.4,21.79,14.11,4.34,2.82,9.21,3.77,14.22,4.51,4.8.7,9.57,1.67,14.36,2.52l-.07.77c-4.66,3.34-9.3,6.72-14,10a2.65,2.65,0,0,1-2.31-.18c-1.56-.93-3-2.13-4.43-3.2A21.36,21.36,0,0,0,602.94,299a13.61,13.61,0,0,1-9.77-4.29,27.31,27.31,0,0,0-12-7.36,11.29,11.29,0,0,1-8-7.87c-2.44-7.46-7.82-12.86-13.1-18.31-1.3-1.35-2.54-.89-3.31.57a7.1,7.1,0,0,0-.69,2.89c-.2,3.74-.31,7.49-.44,11.23a17,17,0,0,0,7.18,14.89c3.92,3,7.53,6.36,11.57,9.15,9.8,6.76,20.22,11.64,32.68,9.9,2.93-.41,6,0,9.82.09a34.94,34.94,0,0,1-2.33,2.69c-3.46,3.12-7,6.17-10.43,9.31a4.58,4.58,0,0,1-5.76.82c-2.24-1.21-4.42-2.58-6.76-3.56a69.68,69.68,0,0,0-9.5-3.38c-4.77-1.26-9.09-3.13-12.58-6.76a30.31,30.31,0,0,0-17.95-9.2c-7.49-1-15.05-1.58-22.58-2.34-2.09-.21-4.18-.55-6.27-.55a14.37,14.37,0,0,0-3.48.89c.56,1.23.8,2.89,1.75,3.63a61.78,61.78,0,0,0,24.78,11.69,25.11,25.11,0,0,1,13.33,7.59,12,12,0,0,0,5,3.22c6.64,2,13.33,3.86,20.1,5.32,3.61.79,7.42.64,11.39.92-2.3,3-4.68,6.17-7,9.31-1.7,2.25-3.42,4.5-5,6.8s-3.64,3.28-6.33,1.91c-1.7-.86-3.62-1.52-5-2.77-4.82-4.48-10.57-6.11-17-6.57a31.17,31.17,0,0,1-9.74-2.17c-11.34-4.77-22.88-4.82-34.68-2.41-2.92.59-5.93.73-8.89,1.18-.72.11-1.93.6-1.94,1a3.31,3.31,0,0,0,.84,2.58,15.78,15.78,0,0,0,4.22,1.83,11.1,11.1,0,0,0,3.24.53c12.24.09,23.24,4.13,33.55,10.42a29.2,29.2,0,0,0,23.62,3.64c3.87-1,8.07-.67,12.74-1-1.54,3-2.58,5.25-3.77,7.39-2.7,4.82-7,6.25-12,3.85-6.73-3.22-13.42-2.69-19.78.58a72,72,0,0,1-22.29,7.08,43.12,43.12,0,0,0-22,10.34c-.88.76-1.95,2.79-1.63,3.18.91,1.12,2.47,2.33,3.8,2.37,3.08.07,6.17-.57,9.26-.86,4.46-.41,8.91-.89,13.38-1.12,8-.41,15.51-2.18,22.36-6.44S560.32,374.94,568.25,372.86Z" fill="#2d2d2d"/>
    </g>
    <g opacity="0.6">
      <path d="M496.84-6.5A7.09,7.09,0,0,0,495.7-6c-14,8.79-17.78,24.87-7,38.05a117.06,117.06,0,0,0,8.88,9.09A33.27,33.27,0,0,1,506.13,54a27,27,0,0,1,1.16,7.17c.14,2.2-.84,3.32-3,3.89-9.29,2.51-17.83,0-22.67-9.41a44.86,44.86,0,0,1-2.46-6A54,54,0,0,0,474.61,39c-2.92-4.8-3.14-10.18-2.19-15.62.31-1.76.8-3.48,1.17-5.23a3,3,0,0,0-.1-1.66,82.92,82.92,0,0,0-10.67,25.57,58.12,58.12,0,0,0,.39,27.82,20.45,20.45,0,0,1,1.72-1.69,13.9,13.9,0,0,1,3.24-2.12,2.92,2.92,0,0,1,2.6.42,3.65,3.65,0,0,1,.43,2.77,29.5,29.5,0,0,1-1.6,4.31c2.08.14,4,.64,5.76.31,5.61-1,11.2-2.28,16.75-3.64,4.44-1.08,8.9-2.22,13.4-1a24.43,24.43,0,0,1,7.57,3.41c3.36,2.36,2.89,5.75-.8,7.59-2,1-4.23,1.65-6.29,2.58-1.38.63-2.64,1.49-4.16,2.37,2.49,1.07,4.59,2,6.67,2.9A20.41,20.41,0,0,1,511,89.46c5.76,3.64,6.62,9.64,1.88,14.5-1.47,1.51-1.52,2.5-.42,4.18,1.78,2.73,2.68,5.76,1.32,9-1.61,3.88-4.91,5.64-9.62,5.22a24,24,0,0,1-3.37-.46c-1.45-.34-1.86.28-2,1.61-.55,4.16-1.4,8.27-3.74,11.85a29.41,29.41,0,0,1-3.75,4.77c-7.2,7.2-17.21,6.35-23.2-1.89-.81-1.11-1.56-2.25-2.44-3.54-4.61,3.37-9.43,4.79-14.74,1.92s-6.42-7.82-7-13.49c-.64.57-1.08.91-1.46,1.32-2,2.08-3.92,4.19-5.9,6.26-1.08,1.13-2.32,1.89-4,1.27s-2.15-1.89-2.29-3.5c-.78-8.61.1-16.82,5.6-24a3,3,0,0,0,.41-.79,4.26,4.26,0,0,0,.08-.84l-2.75-.4c-3.47-.54-6.64-1.68-7.7-5.44a10.39,10.39,0,0,1,2.78-10.55,11.36,11.36,0,0,1,3.2-2.25c5.82-2.79,11.74-5.33,18.12-6.59.56-.11,1.12-.29,1.84-.49-.33-1-.65-1.8-.89-2.64-.54-1.92.14-3.06,2.13-3.26,1.58-.16,3.18,0,5.09,0-4.93-22.36-.37-42.73,12.58-61.86-1.14.22-1.74.33-2.34.46-4.55,1-9,2.23-13.64,2.86C446.9,13.77,441,9.57,439,1.87c-.61-2.36-1-4.79-1.57-7.16-.84-3.26-2.26-5.91-6.29-6a1.5,1.5,0,0,1-1-2.63,6.77,6.77,0,0,1,3.43-1.91,14.63,14.63,0,0,1,9.35,1.69c3.92,2.15,7.92,4.18,11.76,6.45a26.3,26.3,0,0,0,25.05,1.58c3.8-1.65,7.76-3.47,10.86-6.13,10.92-9.38,23.52-14.87,37.51-17.55a39.62,39.62,0,0,0,4.7-1.11,11.36,11.36,0,0,1,7.52.39,22,22,0,0,1,9.51,5.8c.7.78,1.38,2.29,1.07,3.07A3.71,3.71,0,0,1,548-20c-3,.09-6.07-.29-9.11-.29a81.85,81.85,0,0,0-25.63,4.41c-5.44,1.8-8.41,6.7-7.89,13.24a116,116,0,0,0,2.1,13.21c.65,3.29,1.65,6.52.78,9.88a13.19,13.19,0,0,1-1.64,3.92c-2.74,4.13-7.73,4.35-10.9.54a15.85,15.85,0,0,1-3.36-10.7,51.41,51.41,0,0,1,3.8-18.84C496.41-5.17,496.57-5.73,496.84-6.5ZM465.6,126.71a42.48,42.48,0,0,1,3.1,3.94c1,1.67,1.7,3.57,2.75,5.21,3.49,5.42,9.53,6.76,14.76,3.31A17.7,17.7,0,0,0,493,130.6c2.89-7.4,2-14.87.27-22.34a7.92,7.92,0,0,0-1.05-1.78c-1,3.21-1.84,6.09-2.91,8.86-2.05,5.32-5.55,6.32-10.19,3a12.43,12.43,0,0,0-7.87-2.38c-5,.15-9.42-1.34-12.58-5.53A2.87,2.87,0,0,0,458,110c-3.27,3-6.52,6-9.73,9a1.52,1.52,0,0,0-.42,1.1,66.3,66.3,0,0,0,1.37,8.8c1,3.54,3.85,5,7.39,5.13,3.17.16,5.3-1.35,6.74-4.1A35,35,0,0,1,465.6,126.71Zm2.26-45.84c-3.36-.53-3.52-.41-3.28,2.9.48,6.74,0,13.31-2.52,19.69a5.61,5.61,0,0,0,3.42,7.56,13,13,0,0,0,4.52.88c4.35,0,8.43.73,11.95,3.45,1.27,1,2.08.6,2.86-.64A20.65,20.65,0,0,0,488,101.92C487.28,91.79,478.39,82.51,467.86,80.87Zm-27.2-91.58-.56.31c1.29,4.72,2.32,9.54,4,14.14,1.2,3.36,4.21,5,7.78,5.07,9.52.23,17.84-3.17,25.4-8.7.1-.07.09-.28.15-.47a6.43,6.43,0,0,0-1.28-.18A19.06,19.06,0,0,0,474-.21a26.79,26.79,0,0,1-17.59-2.23c-4-1.95-7.79-4.12-11.69-6.18C443.37-9.33,442-10,440.66-10.71ZM477.28,78.2l-.17.64c2.46,1.43,4.87,3,7.39,4.24a10.55,10.55,0,0,0,9.16.36c5.42-2.2,10.87-4.3,16.31-6.46a13.36,13.36,0,0,0,1.38-.83c-2.13-1.05-3.82-2.36-5.69-2.71a21.62,21.62,0,0,0-8.09-.21C490.76,74.63,484,76.51,477.28,78.2Zm22.33-27.11.29-.33a6.71,6.71,0,0,0-.81-1.55c-2.54-2.83-5-5.79-7.72-8.39-6.09-5.74-10.85-12.2-12.38-20.65a8.82,8.82,0,0,0-.88-1.75A20.94,20.94,0,0,0,476,28.11c0,7,2.5,12.5,9.19,15.65,4,1.9,8,4.06,11.93,6.1C497.92,50.29,498.77,50.68,499.61,51.09Zm.6-54.2c-3.2,5.68-4.7,15.36-3.33,21.17a6.87,6.87,0,0,0,1.31,3.07c.87.92,2.21,2,3.3,1.95,1.61-.08,2.65-1.64,2.71-3.31a32.61,32.61,0,0,0-.28-6.92c-.88-4.74-2.07-9.42-3.14-14.13C500.67-1.78,500.48-2.27,500.21-3.11ZM501.41,61c-1.55-5.64-12.61-13.11-18.27-12.45C485,57.84,493.36,64.15,501.41,61Zm11.5-81.81.2.69c9-2.51,18.12-4.51,27.53-4.15a2.45,2.45,0,0,0,.87-.2c.27-.09.53-.24,1-.47-2.51-1.43-4.75-2.85-7.64-2.12-6.12,1.54-12.26,3-18.37,4.6A23,23,0,0,0,512.91-20.84Z" fill="#2d2d2d"/>
    </g>
    <g opacity="0.53">
      <path d="M630.75,71.49c-3.48,4.27-6.14,9-6.4,14.58-.25,5.37-.18,10.76-.12,16.14.11,9.5-2.18,18.19-8.09,25.83-4.59,5.92-9,12-13.51,18a7.46,7.46,0,0,1-1.3,1.44c-1.09.86-2.13,1-2.62-.63a5.7,5.7,0,0,1-.4-2.44c1.29-8.45,2.67-16.89,4-25.34,1.38-8.66,3.73-17,8.21-24.63,2.45-4.15,5.15-8.16,7.65-12.28a18.75,18.75,0,0,0,1.21-3.19l-.55-.33c-4.63,2.57-9.26,5.16-13.91,7.72a56.21,56.21,0,0,0-18,15,10.67,10.67,0,0,1-2.87,2.57c-.77.46-2.09.87-2.69.51s-.86-1.68-1.1-2.61a3.32,3.32,0,0,1,.27-1.47A50.63,50.63,0,0,1,603.06,69.7a35.29,35.29,0,0,1,18.42-6c3.41-.07,7.7-1.66,9.12-3.19l-3-.59c-2.81-.59-5.69-1-8.43-1.82-4.78-1.47-8.1-4.57-9.27-9.6-.61-2.65.12-3.95,2.8-4.23a49.49,49.49,0,0,1,10.72-.48,118.23,118.23,0,0,1,14.36,2.81,18.2,18.2,0,0,0,15.9-3.24c1.89-1.43,3.81-2.84,5.81-4.11,12.77-8.12,26-15.07,41.4-16.73,4.86-.53,9.76-.58,14.52.9,1.56.49,3.4,1.28,3,3.08-.45,2.15-2.45,1-3.84.9-4.5-.27-9-1.13-13.48-.76-13.39,1.12-25,7.3-36.26,14a3.05,3.05,0,0,0-1.42,3.9c1.27,3.89,2.65,7.75,3.72,11.69,1.41,5.14,1.41,10.26-1.27,15.09-2.15,3.87-5,4.49-8.21,1.46-4.77-4.58-6.46-10.52-7-16.92-.11-1.45-.29-2.9-.44-4.35A32.17,32.17,0,0,0,645.4,57a14.15,14.15,0,0,0-1.54,14.54,106.55,106.55,0,0,0,6,11.17c3,5.16,5.17,10.52,5.44,16.61.41,9.27-2.87,17.35-7.92,24.81-.75,1.1-2.74,2.27-3.84,2-1.91-.43-1.29-2.53-1.12-4.08.41-3.74.69-7.48-.76-11.07-1.7-4.18-3.31-8.41-5.31-12.46-4-8.21-6.06-16.71-4.58-25.87a14.61,14.61,0,0,0,0-1.94A7.15,7.15,0,0,0,630.75,71.49Z" fill="#2d2d2d"/>
    </g>
    <g opacity="0.53">
      <path d="M405.76-18.79a10.16,10.16,0,0,0-1.4.29c-6.45,2.36-12.9,2.08-19.44.29-3.21-.88-6.51-1.46-9.79-2.11-2.81-.56-5.49.17-8.15,1-1.1.34-2.53,1.08-3.12-.24a3.61,3.61,0,0,1,.93-3.07c4.72-4.71,10.13-8.22,16.92-9.23a26.7,26.7,0,0,1,12.83,1.63,77.94,77.94,0,0,0,8.95,2.82,10.46,10.46,0,0,0,10.35-3.15,23.76,23.76,0,0,0,3.29-4.3c-1.07.09-2.15.16-3.23.28-4.71.54-9.27.14-13.26-2.69-2.64-1.86-2.6-4.06-.08-6.16,3.13-2.63,6.84-3.34,10.77-3,3,.23,6,.69,9,1.07A2.24,2.24,0,0,0,423-47c3.32-9.15,6.19-18.42,5.13-28.31-.35-3.28-1.61-6.46-2.43-9.69-.26-1-1.38-2.28.11-2.91,1.26-.53,2.09.7,2.66,1.76a26.33,26.33,0,0,1,2.69,10.43c.94,11.39-2.26,22-6.37,32.41-.64,1.63-1.4,3.22-2.17,4.8a13.47,13.47,0,0,0-.13,12,86,86,0,0,1,4,10,36.73,36.73,0,0,1,1.15,7.86c.17,2-.67,2.69-2.68,2.62a9.38,9.38,0,0,1-8.27-5.4c-1-1.87-1.68-3.9-2.5-5.86-.28-.68-.55-1.37-.85-2.1-.91,1.25-1.47,4.59-1.05,7.07A26.07,26.07,0,0,1,410.52,2a37.42,37.42,0,0,1-19.06,20.6,2.41,2.41,0,0,1-1,.4c-.72,0-1.68,0-2.05-.42a2.46,2.46,0,0,1,0-2,7.84,7.84,0,0,1,1.47-2.45,41.48,41.48,0,0,0,8.34-15.13c1.21-3.74,2.45-7.46,3.67-11.19l-.32-.35a13.75,13.75,0,0,0-2.15,1.32c-2.64,2.39-5.18,4.92-7.85,7.27A51.45,51.45,0,0,1,374.79,9.4c-5.94,2.16-11.88,4.34-17.84,6.46a4.16,4.16,0,0,1-1.83.05c-1.23-.13-1.3-.9-.82-1.82a5.51,5.51,0,0,1,.86-1.14c3.72-4.11,7.49-8.17,11.16-12.33C371-4.74,377-7.62,384-8.87c3.91-.71,7.84-1.41,11.71-2.34,4-1,7.08-3.56,9.69-6.69A4.87,4.87,0,0,0,405.76-18.79Z" fill="#2d2d2d"/>
    </g>
    <g opacity="0.53">
      <path d="M561.83,188.68c-.54-.13-1.07-.3-1.61-.38-8.05-1.16-16.12-2.14-24.13-3.5-5.66-1-11.25-2.1-17.05-1.36-1.06.13-2.23-.57-3.35-.88.52-1.11.75-2.57,1.61-3.26,8.05-6.54,17.25-8.69,27.49-7s20.3,3.37,30.51,4.6c8.19,1,16.44,1.08,24.08-3,1-.55,2.06-1.13,3.25-1.79-8.87-1.84-17.45-3.2-25.79-5.47a205.5,205.5,0,0,1-24.9-9,19.25,19.25,0,0,1,2.56-2.16A22.27,22.27,0,0,1,568,152.83a242.87,242.87,0,0,1,23.94,4.42c9.61,2.35,19.18,4,29.05,2.25a40.18,40.18,0,0,0,4.69-1.51c-5.94-2.28-11-4.21-16.12-6.2a13.06,13.06,0,0,1-3.74-1.9,3.7,3.7,0,0,1-1-2.79c0-.48,1.32-1.22,2.05-1.24A102.88,102.88,0,0,1,619,146c5.6.55,11.13,1.84,16.74,2.37,7.42.71,14.57.7,20.34-5.67C670.9,126.32,678.17,107,680,85.26a20,20,0,0,1,.71-4.65c.3-.89,1.26-2.11,2-2.19,1.72-.2,1.67,1.43,1.81,2.66a3.14,3.14,0,0,1,0,.75c-1.38,8.41-2.24,16.94-4.27,25.18-3.8,15.45-11.91,28.63-22.66,40.32-8,8.7-15.93,17.53-23.35,26.74-9.16,11.36-15.69,24.27-20.58,38-.52,1.49-2.23,2.55-3.38,3.81-.62-1.45-1.73-2.89-1.78-4.36a63.25,63.25,0,0,1,5.42-27.79c1.94-4.35,4.27-8.53,6.57-13.09a30.86,30.86,0,0,0-3.45,1,25.64,25.64,0,0,0-12,9.58,76.09,76.09,0,0,0-11.56,25.11c-2.29,9.4-5.49,18.36-11.2,26.32a38.26,38.26,0,0,1-12.35,11.21c-1.07.6-2.77.1-4.18.1.29-1.31.58-2.62.89-3.93,0-.14.23-.23.33-.36a32.81,32.81,0,0,0,6.07-14.25c.85-5.06,1.37-10.22,2.73-15.14a63.83,63.83,0,0,1,13.06-24.07,20.24,20.24,0,0,0,1.53-2.49l-.51-.49c-2.43.95-4.87,1.86-7.28,2.83-10.43,4.19-18,11.3-22,21.89-2.16,5.73-3.87,11.62-6,17.35a29.16,29.16,0,0,1-11,14.05A3.37,3.37,0,0,1,539,239c-.58-.61-.22-2.43.15-3.56.62-1.86,1.84-3.55,2.37-5.43,2.29-8,4.42-16.12,6.6-24.18a5.89,5.89,0,0,0-.24-1.44c-2,2.38-3.89,4.15-5.24,6.26-5.26,8.23-10.31,16.58-15.5,24.84a45.16,45.16,0,0,1-12,12.71c-1.19.86-3,.88-4.5,1.29.11-1.56-.11-3.24.39-4.66,1.53-4.38,3.78-8.54,4.91-13,1.72-6.75,5.1-12.57,9.07-18.05a57,57,0,0,1,26.31-20.08c3.59-1.37,7.12-2.92,10.69-4.39Z" fill="#2d2d2d"/>
    </g>
    <g opacity="0.53">
      <path d="M655,589.59c.39-.53.83-1,1.17-1.6,5-8.32,9.88-16.75,15.11-25,3.7-5.79,7.57-11.42,9.46-18.15.35-1.23,1.67-2.19,2.53-3.28,1,1.09,2.48,2,2.85,3.29,3.45,11.93,1.51,23.07-5.13,33.56s-13.19,20.8-19.3,31.47c-4.9,8.57-8.87,17.61-8,27.92.12,1.39.29,2.79.46,4.4,6.17-8.91,11.67-17.73,18.06-25.85s13.66-15.49,21.55-23.24A22.81,22.81,0,0,1,695,597a26.6,26.6,0,0,1-3.32,16.1,286.56,286.56,0,0,1-16,24.31c-7.08,9.5-13.4,19.26-16,31a47.44,47.44,0,0,0-.52,5.87c5.28-5.49,9.79-10.21,14.35-14.87a15.87,15.87,0,0,1,3.84-3.24,4.45,4.45,0,0,1,3.53.21c.52.27.74,2,.42,2.85a121.69,121.69,0,0,1-5.79,13.35c-3.23,5.92-7.22,11.41-10.43,17.34-4.24,7.85-7.57,15.73-3.25,25.06,11.11,23.94,29,41,52.11,53.09a23.62,23.62,0,0,1,4.79,3c.85.75,1.73,2.38,1.47,3.28-.59,2-2.37,1.16-3.78.75a3.42,3.42,0,0,1-.83-.36c-8.61-5.44-17.62-10.37-25.76-16.45-15.24-11.4-26-26.48-33.83-43.79C650,701.52,644,688.68,637.3,676.2c-8.24-15.39-19.41-28.61-32.3-40.42-1.39-1.27-1.77-3.64-2.62-5.51,1.89,0,4-.55,5.64.09a75.54,75.54,0,0,1,28.09,18.93c3.89,4.17,7.41,8.69,11.36,13.36a36.25,36.25,0,0,0,.56-4.26,30.53,30.53,0,0,0-5-17.68,90.87,90.87,0,0,0-22.26-24.46c-9.29-6.91-17.67-14.62-23.77-24.63a45.62,45.62,0,0,1-6.59-18.84c-.17-1.46,1.18-3.09,1.83-4.65,1.31.94,2.62,1.86,3.92,2.81.14.11.15.37.25.54a39.26,39.26,0,0,0,12.86,13.34c5.18,3.29,10.62,6.28,15.41,10.08a76.39,76.39,0,0,1,20.43,25.61,22.31,22.31,0,0,0,2,2.85L648,623c.09-3.12.22-6.23.28-9.35.25-13.44-4.05-25.1-13.86-34.44-5.3-5-11-9.69-16.29-14.75a34.87,34.87,0,0,1-10.33-18.72,4,4,0,0,1,2.44-4.86c.95-.36,2.79.88,3.86,1.82,1.77,1.55,3.05,3.68,4.88,5.15,7.78,6.27,15.69,12.39,23.57,18.55.22.18.6.16,1.68.42-1.67-3.33-2.75-6.23-4.45-8.71-6.61-9.62-13.45-19.09-20.13-28.67a53.8,53.8,0,0,1-8.38-19.2c-.39-1.71.42-3.69.68-5.55,1.67.85,3.61,1.39,5,2.6,4.11,3.73,7.64,8.15,12,11.48,6.63,5,11.47,11.48,15.65,18.41a68.18,68.18,0,0,1,9.85,38.36c-.16,4.6-.11,9.22-.15,13.83Z" fill="#2d2d2d"/>
    </g>
    <g opacity="0.53">
      <path d="M113.74,912a11.53,11.53,0,0,0,1.58-.27c7.31-2.39,14.53-1.83,21.78.42,3.56,1.12,7.24,1.89,10.88,2.74,3.12.73,6.15,0,9.16-.79,1.25-.34,2.89-1.12,3.48.39.35.87-.35,2.65-1.15,3.4-5.47,5.09-11.66,8.82-19.3,9.68-5,.56-9.69-.54-14.3-2.32a87.23,87.23,0,0,0-9.92-3.5,11.73,11.73,0,0,0-11.71,3.13,27.16,27.16,0,0,0-3.85,4.68c1.21-.06,2.42-.09,3.62-.19,5.3-.42,10.39.21,14.75,3.53,2.89,2.19,2.76,4.64-.14,6.9-3.61,2.82-7.8,3.47-12.19,3-3.36-.38-6.7-1-10.05-1.55a2.54,2.54,0,0,0-3,1.66c-4.07,10.12-7.64,20.39-6.84,31.5.27,3.69,1.56,7.29,2.36,10.94.24,1.13,1.46,2.61-.24,3.26-1.43.54-2.31-.86-2.91-2.07a29.29,29.29,0,0,1-2.61-11.78c-.61-12.79,3.37-24.55,8.38-36,.78-1.8,1.69-3.55,2.62-5.29a15.08,15.08,0,0,0,.6-13.43,100.31,100.31,0,0,1-4.15-11.4,41.94,41.94,0,0,1-1-8.84c-.11-2.23.86-3,3.1-2.83a10.48,10.48,0,0,1,9.06,6.35c1,2.14,1.73,4.44,2.57,6.67.29.77.57,1.55.87,2.38,1.07-1.36,1.82-5.08,1.44-7.88a29.24,29.24,0,0,1,2.57-15.85,42,42,0,0,1,22.14-22.33,2.62,2.62,0,0,1,1.16-.41c.8.07,1.87.07,2.28.56s.21,1.58-.07,2.27a8.77,8.77,0,0,1-1.74,2.68A46.6,46.6,0,0,0,123.05,888c-1.5,4.13-3,8.25-4.53,12.38l.34.4a14.74,14.74,0,0,0,2.46-1.39c3.05-2.58,6-5.31,9.07-7.84,5.66-4.65,12.2-7.65,19.11-9.9,6.74-2.19,13.48-4.4,20.23-6.55a4.89,4.89,0,0,1,2.05,0c1.38.2,1.42,1.07.86,2.07a6.67,6.67,0,0,1-1,1.25c-4.33,4.46-8.71,8.86-13,13.37-5.49,5.82-12.31,8.82-20.11,10-4.41.64-8.84,1.27-13.2,2.17-4.56.93-8.07,3.72-11.11,7.12A5,5,0,0,0,113.74,912Z" fill="#2d2d2d"/>
    </g>
    <g opacity="0.53">
      <path d="M-25.2,1085c-5.3-3.17-10.94-5.35-17.2-4.73-6,.61-12,1.57-17.91,2.51-10.52,1.68-20.53.55-29.95-4.75-7.31-4.12-14.74-8-22.11-12a8.25,8.25,0,0,1-1.81-1.2c-1.13-1.07-1.42-2.2.28-3a6.55,6.55,0,0,1,2.64-.85c9.58.06,19.15.21,28.73.33,9.83.12,19.48,1.36,28.65,5.08,5,2,9.88,4.37,14.86,6.47a19.8,19.8,0,0,0,3.73.82l.28-.66q-5.41-7.08-10.83-14.16a62.83,62.83,0,0,0-19.5-17.46,12.11,12.11,0,0,1-3.32-2.77c-.64-.77-1.3-2.17-1-2.9s1.72-1.22,2.71-1.64a3.81,3.81,0,0,1,1.67.06A56.77,56.77,0,0,1-27.73,1054c4.86,5.61,8.41,12,9.68,19.43.64,3.77,3.11,8.26,5,9.59.06-1.2.1-2.31.17-3.42.19-3.22.15-6.47.64-9.64.85-5.54,3.74-9.73,9.13-11.85,2.83-1.11,4.39-.5,5.14,2.41,1,3.88,2.13,7.85,2.29,11.81a136.18,136.18,0,0,1-.77,16.38,20.38,20.38,0,0,0,6.18,17.09c1.89,1.87,3.77,3.76,5.5,5.77,11.08,12.83,21,26.4,25.31,43.15,1.37,5.31,2.23,10.73,1.36,16.26-.28,1.8-.86,4-2.92,3.84-2.45-.15-1.48-2.56-1.62-4.11-.43-5-.22-10.2-1.36-15.06-3.43-14.67-12.16-26.49-21.48-37.9a3.42,3.42,0,0,0-4.56-.94c-4.1,2-8.15,4.2-12.35,6-5.47,2.39-11.13,3.23-16.92,1-4.65-1.75-5.81-4.86-3-8.85,4.3-6,10.61-8.89,17.62-10.48,1.6-.36,3.17-.8,4.76-1.21a36.39,36.39,0,0,0-6.85-4.49,15.83,15.83,0,0,0-16.37.66,118.44,118.44,0,0,0-11.4,8.51c-5.23,4.15-10.82,7.45-17.52,8.74-10.21,2-19.7-.35-28.8-4.73-1.34-.65-3-2.67-2.86-3.93.17-2.18,2.59-1.84,4.34-1.91,4.21-.15,8.4-.45,12.14-2.65,4.36-2.57,8.79-5,12.95-7.91,8.44-5.83,17.53-9.45,27.93-9.3a16.58,16.58,0,0,0,2.15-.29A6.92,6.92,0,0,0-25.2,1085Z" fill="#2d2d2d"/>
    </g>
    <g opacity="0.53">
      <path d="M84.47,1009.44c.27-.56.58-1.1.8-1.67,3.16-8.54,6.15-17.15,9.52-25.6,2.39-6,5-11.83,5.52-18.35.11-1.2,1.15-2.31,1.76-3.47,1.09.84,2.63,1.43,3.19,2.53,5.26,10.37,5.44,21,1.17,31.77s-8.49,21.44-12.24,32.33c-3,8.74-5.07,17.75-2.45,27.07.35,1.27.75,2.52,1.18,4,4.12-9.28,7.64-18.35,12.09-26.94s9.84-16.64,15.75-25.15a21.79,21.79,0,0,1,1.75,3.32,24.88,24.88,0,0,1-.23,15.39,268.76,268.76,0,0,1-10.5,25.17c-4.84,10-8.94,20.06-9.32,31.29a46.17,46.17,0,0,0,.55,5.49c3.9-6,7.22-11.1,10.6-16.19a14.53,14.53,0,0,1,3-3.65,4.14,4.14,0,0,1,3.28-.43c.53.16,1,1.74.88,2.55a112.53,112.53,0,0,1-3,13.29c-1.93,6-4.64,11.77-6.55,17.78-2.53,8-4.21,15.79,1.4,23.61,14.41,20.08,33.89,32.61,57.23,39.7a22.06,22.06,0,0,1,4.92,1.88c.92.54,2,1.88,1.93,2.76-.19,1.93-2,1.48-3.35,1.35a3.34,3.34,0,0,1-.82-.18c-8.88-3.5-18-6.45-26.57-10.62-16-7.81-28.54-19.8-38.8-34.34-7.64-10.83-15.45-21.59-23.78-31.89-10.28-12.72-22.87-22.92-36.79-31.52-1.5-.93-2.27-3-3.37-4.61,1.73-.33,3.57-1.21,5.19-.91a70.89,70.89,0,0,1,29.16,12.49c4.31,3.16,8.34,6.69,12.79,10.3a37.42,37.42,0,0,0-.23-4,28.68,28.68,0,0,0-7.66-15.4A85.11,85.11,0,0,0,57.68,1040c-9.75-4.73-18.81-10.36-26.18-18.49a42.86,42.86,0,0,1-9.36-16.18c-.4-1.31.55-3,.87-4.59,1.37.63,2.74,1.25,4.1,1.9.15.07.2.31.32.45a36.78,36.78,0,0,0,14.17,10c5.35,2.12,10.87,3.92,15.94,6.57a71.53,71.53,0,0,1,23.28,20,22.07,22.07,0,0,0,2.36,2.27l.66-.45c-.46-2.88-.89-5.77-1.38-8.64-2.13-12.41-8.13-22.38-18.78-29.25-5.76-3.72-11.82-7-17.57-10.71a32.68,32.68,0,0,1-12.79-15.41,3.78,3.78,0,0,1,1.4-4.9c.81-.49,2.71.32,3.86,1,1.9,1.12,3.46,2.85,5.39,3.88,8.26,4.4,16.61,8.65,24.93,12.93.24.13.59,0,1.63.09-2.13-2.77-3.63-5.25-5.62-7.23-7.77-7.69-15.72-15.2-23.54-22.84a50.38,50.38,0,0,1-11.08-16.19c-.65-1.5-.26-3.47-.34-5.22,1.68.48,3.56.64,5,1.52,4.42,2.71,8.45,6.15,13.06,8.45,7,3.48,12.56,8.55,17.62,14.19a63.84,63.84,0,0,1,15.78,33.56c.66,4.26,1.52,8.49,2.29,12.74Z" fill="#2d2d2d"/>
    </g>
    <g opacity="0.53">
      <path d="M224.68,1114.22c-5.79-5-7-9.82-4-16.32,3.28-7.06,5.48-14.24,4.61-22.2a7.86,7.86,0,0,1,1.75-5.68c7.53-7.66,6.48-16.64,4.64-25.88-.84-4.2-1.26-8.5-2.33-12.63-.39-1.49-2.11-2.63-3.22-3.93-.91,1.49-2.49,2.92-2.63,4.48-1.05,11.43-4.52,22.17-8.67,32.76-3.7,9.41-5.32,19.06-3.3,29.13a16.6,16.6,0,0,1,0,2.47c-1.47-1.54-2.54-2.58-3.51-3.69-3-3.47-6.09-6.92-9-10.49a5.75,5.75,0,0,1-1.47-3.51c.41-6.1.92-12.21,1.78-18.26.32-2.22,1.15-4.85,2.67-6.33,6.52-6.31,8.94-14.24,10.09-22.82a78.2,78.2,0,0,0-3.83-36,8.55,8.55,0,0,0-1.35-3.05,16.38,16.38,0,0,0-3.26-2.21c-.54,1.32-1.57,2.66-1.53,4,.13,5,.83,10,.9,15a42.71,42.71,0,0,1-5,21.58c-6.32,11.31-8,23.46-8,36.08v3.52l-.89.24a30.64,30.64,0,0,1-2.8-4.48c-4.1-9.89-8.59-19.66-12-29.79a62.46,62.46,0,0,0-19-28.07,6.22,6.22,0,0,0-2.87-1.5c-2.41-.37-3.77,1.2-2.65,3.28,4.71,8.73,5.87,18.4,7.88,27.88,1.91,9,7.38,16,13.66,22.49,10.42,10.84,20.49,22,30.7,33a14.22,14.22,0,0,1,1.18,1.86c-4.79-.12-8.68-1.18-11.5-4.73-1.72-2.17-3.12-4.61-5-6.61-2.64-2.81-5.24-5.93-8.5-7.83a49.53,49.53,0,0,1-17.12-16.8,22.88,22.88,0,0,0-2.53-3.83,12.66,12.66,0,0,0-3.13-1.82c-.49,1.25-1.56,2.6-1.37,3.74a94.16,94.16,0,0,0,3,13.44c4.44,13.74,12.57,24.8,25.2,32a28.91,28.91,0,0,0,11,3.17c4.44.49,9,.06,13.5-.13,4.69-.19,8,1.45,10,6,2.08,4.87,4.53,9.58,6.77,14.39a16.41,16.41,0,0,1,.64,2.81,13.39,13.39,0,0,1-1.53-1,24.67,24.67,0,0,0-14.66-7,24.33,24.33,0,0,1-13.54-6,42.9,42.9,0,0,0-24.22-11.48c-5-.65-9.8-2-14.73-2.76-2.33-.38-4.69.14-5.54,2.76s1,4.23,2.9,5.52c2.2,1.48,4.57,2.71,6.81,4.14a53.17,53.17,0,0,1,14.95,14c4.31,6.1,10,9.06,17.55,8.62,6-.35,12.08-.36,18.1-.71a12.38,12.38,0,0,1,10.86,4.51,45,45,0,0,0,5.77,5.94c5.41,4.39,5.28,10.66,6.54,17.51-2.83-1.71-5.08-2.83-7.07-4.31a28.29,28.29,0,0,0-18.65-5.73,29.7,29.7,0,0,1-18.21-5.43c-8.58-5.85-18.17-6.31-28-5.69-3.59.23-5.3,3.26-4,6.65,1.58,4,4.69,6.48,8.64,8.18,7,3,14,6,20.85,9.46s13.51,5,20.72,2.71c8.22-2.55,16.37-1.66,24.56-.27a2.46,2.46,0,0,1,1.69,1.59c.61,8,1.69,16.06.3,24.59-4.84-3.29-9.55-6.17-13.91-9.51-6.5-5-13.58-6.67-21.77-6.43-8.64.24-17.33-.92-26-1.63-5.47-.45-10.86-.6-15.74,2.39-2.15,1.31-3.95,3.07-3.56,6,.36,2.66,2.25,4,4.55,4.9,8.46,3.29,16.81,6.92,25.44,9.72,6.93,2.24,14.08,1.26,20.59-2,7.2-3.59,14.25-3.84,21.54-.58a44.8,44.8,0,0,0,6.33,2.31c2,.56,2.87,1.52,2.58,3.69-.61,4.74-1.06,9.51-1.66,15a34,34,0,0,1-4.65-3.08c-9-8.54-19.66-11.21-31.7-9.64-2.92.38-5.94.15-8.84.62-5,.8-8.95,3.71-12.94,6.66-4.91,3.63-10.16,6.8-15.16,10.32-1.09.77-1.74,2.15-2.6,3.25,1.17.79,2.25,2,3.53,2.31a45.52,45.52,0,0,0,28.15-2.75c6.67-2.84,14-4.31,21.17-5.72,2.82-.56,6,.53,9,1.2,4.23.95,8.4,2.19,13.15,3.46-1.37,8.28-2.85,17.16-4.33,26l-1,.12c-.87-1.56-1.84-3.08-2.6-4.69-3.93-8.36-10.77-13.55-19-16.9a14.82,14.82,0,0,0-7.78-.43,76.87,76.87,0,0,0-11.76,3.36c-1.14.4-2.59,1.78-2.66,2.79s1.36,2.41,2.46,2.89c7.95,3.47,15.9,7,24,10,6,2.28,10.48,6.66,15.38,10.48a2.07,2.07,0,0,1,.44,1.83c-1.69,5.23-3.48,10.43-5.58,16.62-2.37-2.26-4.6-3.85-6.11-6-2.79-3.9-5.11-8.13-7.73-12.16-7.66-11.75-18.71-17.94-32.54-18.28-8.44-.21-16.93,1-25.38,1.78-1.22.11-3.18,1.47-3.25,2.37a5,5,0,0,0,2.09,3.8c7.14,4.55,15.27,5.89,23.49,7.28,11.84,2,22.87,6,31.22,15.47,4.26,4.82,9,9.33,16.22,10.61l-8,17.53c-1.92-3.4-3.54-6.25-5.14-9.1-1.71-3-3.2-6.19-5.15-9a30.41,30.41,0,0,0-14.58-11.29c-10.87-4.16-21.74-8.33-32.68-12.29-1.48-.53-3.84-.5-5,.35-1.9,1.43-1.33,3.93.08,5.52a86.53,86.53,0,0,0,8.8,8.75c4.59,3.86,9.69,7.12,14.16,11.11a29.83,29.83,0,0,0,14.38,7.12c8.85,1.73,15.08,7,20.38,13.67a3.26,3.26,0,0,1,0,3.09c-3.33,3.83-6.83,7.53-10.39,11.15-1.42,1.45-3.32,2.43-4.71,3.9-1.59,1.68-.78,3.92,1.49,3.93,1.91,0,4.43-.27,5.63-1.47A112.12,112.12,0,0,0,208.15,1312c2.46-3.36,4.79-5.69,9.29-4.7,4.65,1,9.34,1.85,14,2.6,2.7.43,5.62,1.23,8.16.64,7-1.64,13.74-.63,20.61.81,9.7,2,18.57-1.37,27.28-5.07,2.16-.91,2.19-2.81.09-3.9-1.48-.78-3.32-.82-5-1.34-4.73-1.53-9.86-2.4-14.05-4.87-6.87-4-13.71-5.86-21.63-4.49-5.82,1-11.85.85-17.64,2-4.31.86-8.38,3-13.58,4.94,1.63-2.84,2.43-5.58,4.24-7.12,5.29-4.48,10.94-8,18.66-6.3,5.3,1.13,10.5-.94,15.43-3.05,6.94-3,14.14-4.83,21.73-4.55a69.15,69.15,0,0,1,10.31,1.36,23.75,23.75,0,0,0,14.7-1.45c4.09-1.86,8.14-3.83,12.19-5.78a3.82,3.82,0,0,0,1.73-1.2c.58-1.07,1.43-2.55,1.08-3.41s-2.12-1.44-3.22-1.36c-4.06.29-8.1,1.21-12.16,1.31a21.67,21.67,0,0,1-8.7-1.38c-17.63-7.5-34.09-3.61-49.93,5.08-5.69,3.13-10.78,7.37-16.17,11.08a5.27,5.27,0,0,1-3.16,1c1.7-4.64,3.35-9.3,5.13-13.91.21-.55,1-.92,1.63-1.27,5.1-3,10.14-6,16-7.43,2.74-.68,5.34-3,7.41-5.12,3.61-3.75,7.61-5.06,12.47-3.32,8.65,3.11,17.37,2.48,25.94.09a26.68,26.68,0,0,0,9.27-5.12c4.56-3.73,9.25-7,14.85-9,1.13-.41,1.85-2,2.76-3-1.12-.85-2.13-2.21-3.36-2.46-8.25-1.68-16.15-1.48-24.25,2-5.25,2.27-11.51,2.43-17.37,3s-12.06.41-18.08.82c-4.5.3-7.81,2.81-10.2,6.55-1.87,2.93-3.62,5.93-5.46,8.88-2.16,3.47-5.24,5.85-9.24,7.91,1.81-9,3.49-17.65,5.31-26.22a3.76,3.76,0,0,1,1.91-2.38c3.58-1.47,7.27-2.67,10.91-4,4-1.44,8.14-2.69,12.06-4.38,4.15-1.79,8.16-2.24,12.47-.65,8.06,3,16.14,2.18,24-.55,9.07-3.13,18.17-6.25,27-9.94,4.46-1.86,8.44-4.91,12.57-7.52a6.31,6.31,0,0,0,1.93-2.31c1.25-2.31.45-3.59-2.17-3.29a33.4,33.4,0,0,0-6.6,1.31c-8.4,2.72-16.82,2.62-25.45,1.09a29.93,29.93,0,0,0-11.51.27c-9.45,2.11-18.77,4.87-28.16,7.29-5.61,1.45-10.09,4.75-14.48,8.33-4.23,3.43-8.63,6.64-13,10l-.59-.65c.78-6.38,1.5-12.77,2.41-19.13.09-.69,1.13-1.54,1.89-1.77,2-.57,4-.82,6-1.23a23.89,23.89,0,0,0,12.75-6.87,15.25,15.25,0,0,1,10.95-4.81,30.56,30.56,0,0,0,15.15-4.33,12.66,12.66,0,0,1,12.57-.65c8,3.63,16.54,3.29,25,3.06,2.1,0,2.66-1.43,2-3.17a7.73,7.73,0,0,0-1.87-2.75c-2.93-3-5.94-5.94-8.94-8.88a19,19,0,0,0-17.72-5.35c-5.42,1-11,1.4-16.32,2.63-13,3-24.92,7.87-32.93,19.47-1.88,2.73-4.54,4.91-7.51,8a37.68,37.68,0,0,1-.45-4c0-5.22.19-10.43.22-15.65,0-2.68,1.11-4.49,3.67-5.38s5.48-1.69,8.07-2.88a79.23,79.23,0,0,0,10-5.28c4.66-3,9.47-5.13,15.11-5.27a34,34,0,0,0,21.2-7.85c6.53-5.39,12.7-11.23,19-16.87,1.75-1.57,3.62-3,5.2-4.75a15.52,15.52,0,0,0,1.9-3.56c-1.44-.46-3-1.53-4.32-1.3a69.23,69.23,0,0,0-28.42,11.6,28.12,28.12,0,0,1-16.35,5.26,13.24,13.24,0,0,0-6.43,1.66c-6.66,4-13.28,8.07-19.62,12.55-3.37,2.39-6.14,5.65-9.38,8.71-.77-4.2-1.54-8.53-2.35-12.86-.57-3.11-1.12-6.23-1.8-9.33s.06-5.48,3.23-6.67c2-.75,4-1.83,6-2,7.36-.59,13.06-4.1,18.29-9a34.7,34.7,0,0,1,9.16-6.39c12.53-5.75,21.32-15.25,28.27-26.81,1.72-2.86,3.89-5.45,5.75-8.23.46-.68,1-2,.69-2.33a3.77,3.77,0,0,0-2.77-1.27,18,18,0,0,0-4.71,2.1,12,12,0,0,0-2.89,2.27c-9.35,10-21,16.07-34,19.81-9.3,2.68-16.26,8-20.89,16.75-2.1,3.94-5.56,7.17-8.83,11.26-1.34-3.57-2.38-6.11-3.24-8.71-1.94-5.88.13-10.5,5.91-12.82,7.75-3.11,12.38-9,14.5-16.77a80.83,80.83,0,0,1,11-23.76,48.39,48.39,0,0,0,8.13-26c0-1.3-.83-3.72-1.4-3.75-1.61-.1-3.79.27-4.83,1.34-2.39,2.49-4.2,5.53-6.31,8.29-3,4-6,8-9.2,11.9-5.71,6.89-10,14.46-11.63,23.34S229,1106.09,224.68,1114.22Z" fill="#2d2d2d"/>
    </g>
    <g opacity="0.53">
      <path d="M-44.93,1214.92c-7.38,1.93-12.06.15-15.68-6-3.92-6.73-8.57-12.63-15.6-16.46a7.83,7.83,0,0,1-3.67-4.67c-2-10.55-10-14.81-18.61-18.57-3.93-1.71-7.7-3.81-11.71-5.29-1.44-.53-3.36.23-5.06.4.7,1.6,1,3.71,2.18,4.72,8.79,7.37,15.64,16.35,22,25.8,5.63,8.41,12.63,15.25,22.06,19.33a16.56,16.56,0,0,1,2,1.39c-2.11.33-3.56.61-5,.78-4.58.51-9.16,1.06-13.75,1.41a5.75,5.75,0,0,1-3.72-.8c-4.78-3.82-9.51-7.72-14-11.87-1.64-1.53-3.33-3.71-3.67-5.81-1.47-8.94-6.6-15.46-13-21.3a78.17,78.17,0,0,0-31.72-17.36,8.65,8.65,0,0,0-3.29-.63,16.44,16.44,0,0,0-3.66,1.41c.77,1.2,1.28,2.81,2.38,3.53,4.17,2.74,8.67,5,12.81,7.79a42.74,42.74,0,0,1,14.88,16.43c5.68,11.64,14.68,20,25.06,27.16,1,.66,1.93,1.33,2.89,2l-.31.87a30.84,30.84,0,0,1-5.28-.26c-10.46-2.27-21-4.15-31.3-7.15a62.38,62.38,0,0,0-33.87-.41,6.23,6.23,0,0,0-2.88,1.5c-1.68,1.77-1.16,3.78,1.19,4.05,9.86,1.11,18.46,5.67,27.39,9.43,8.5,3.57,17.31,3,26.26,1.6,14.85-2.37,29.77-4.28,44.66-6.37a14.47,14.47,0,0,1,2.21.09c-2.84,3.87-5.93,6.46-10.46,6.75-2.75.18-5.56-.07-8.27.33-3.82.57-7.87.93-11.28,2.52a49.4,49.4,0,0,1-23.57,4.48,23.46,23.46,0,0,0-4.58-.1,12.87,12.87,0,0,0-3.29,1.53c.75,1.12,1.25,2.77,2.3,3.26a94.21,94.21,0,0,0,12.72,5.23c13.82,4.2,27.54,3.82,40.69-2.42a28.73,28.73,0,0,0,8.87-7.22c2.93-3.36,5.18-7.35,7.59-11.15,2.52-4,5.78-5.77,10.6-4.79,5.18,1.07,10.45,1.74,15.67,2.65a16.27,16.27,0,0,1,2.68,1.07,12.36,12.36,0,0,1-1.74.66,24.68,24.68,0,0,0-14.12,8,24.34,24.34,0,0,1-12.66,7.69,42.78,42.78,0,0,0-23.25,13.36c-3.35,3.69-7.2,6.92-10.67,10.52-1.63,1.7-2.55,3.93-.88,6.12s4,1.6,6.18.77c2.47-1,4.83-2.21,7.29-3.23a53.11,53.11,0,0,1,20-4.33c7.47-.06,13.16-3.06,17.09-9.5,3.15-5.16,6.6-10.12,9.75-15.27a12.34,12.34,0,0,1,9.89-6.35,44.8,44.8,0,0,0,8.17-1.35c6.69-2,11.77,1.73,18.11,4.61-3,1.35-5.22,2.55-7.56,3.35a28.29,28.29,0,0,0-15.35,12.05,29.72,29.72,0,0,1-14.85,11.86c-9.7,3.72-15.55,11.33-20.63,19.75-1.86,3.07-.34,6.21,3.19,7,4.23,1,8-.15,11.65-2.43,6.47-4.05,13-8.08,19.66-11.73s11.77-8.28,14-15.47c2.6-8.21,8-14.4,13.79-20.34a2.49,2.49,0,0,1,2.27-.48c6.94,4.08,14.15,7.77,20.37,13.78-5.47,2.11-10.52,4.33-15.74,6-7.81,2.5-13.22,7.36-17.71,14.22-4.73,7.24-10.63,13.71-16.15,20.41-3.49,4.24-6.68,8.58-7,14.3-.14,2.51.28,5,2.87,6.31,2.39,1.22,4.58.44,6.62-.94,7.52-5.08,15.27-9.86,22.48-15.35,5.8-4.42,9.07-10.85,10.11-18.06,1.15-8,5-13.9,11.81-18a43.88,43.88,0,0,0,5.5-3.87c1.6-1.34,2.89-1.49,4.51,0,3.54,3.21,7.2,6.3,11.37,9.92a33.85,33.85,0,0,1-5.18,2.06c-12.13,2.5-20.42,9.76-26,20.54-1.35,2.62-3.26,5-4.53,7.62-2.19,4.56-2.06,9.46-1.91,14.42.19,6.11-.2,12.23-.17,18.34,0,1.33.77,2.66,1.19,4,1.32-.51,3-.68,3.9-1.58a45.51,45.51,0,0,0,13.8-24.69c1.47-7.1,4.44-14,7.37-20.65,1.16-2.64,3.89-4.66,6.13-6.72,3.19-2.93,6.59-5.64,10.34-8.82l18.91,18.4-.48.9c-1.78-.17-3.58-.24-5.34-.53-9.11-1.54-17.27,1.11-24.73,6a14.69,14.69,0,0,0-4.79,6.14,77.44,77.44,0,0,0-3.95,11.58c-.31,1.16,0,3.14.77,3.77s2.76.26,3.78-.37c7.39-4.55,14.79-9.1,21.94-14,5.31-3.65,11.45-4.8,17.38-6.65a2.06,2.06,0,0,1,1.75.68c3.33,4.37,6.58,8.81,10.47,14.06-3.21.65-5.79,1.58-8.38,1.62-4.8.08-9.6-.44-14.4-.58-14-.41-25.41,5.14-33.57,16.3-5,6.82-8.85,14.47-13,21.86-.6,1.07-.61,3.45.09,4A5,5,0,0,0,21,1356c7.81-3.27,13.55-9.19,19.38-15.15,8.41-8.58,18-15.35,30.51-16.82,6.39-.75,12.77-2,18-7.27,3.29,5.54,6.35,10.67,9.85,16.54l-10.41-1c-3.46-.33-6.91-.91-10.37-.93a30.34,30.34,0,0,0-17.59,5.54c-9.62,6.55-19.24,13.1-28.73,19.83-1.28.91-2.6,2.87-2.55,4.29.09,2.38,2.47,3.34,4.57,3.08a85.42,85.42,0,0,0,12.21-2.23c5.79-1.57,11.38-3.9,17.2-5.29a29.8,29.8,0,0,0,14.05-7.75c6.47-6.29,14.31-8.43,22.85-8.95a3.22,3.22,0,0,1,2.55,1.74c1.25,4.92,2.3,9.9,3.24,14.89.38,2,.11,4.11.52,6.09.48,2.27,2.77,2.88,4.08,1,1.09-1.56,2.3-3.79,2-5.46a112.32,112.32,0,0,0-4.22-16.88c-1.36-3.94-1.94-7.18,1.44-10.32s6.85-6.61,10.14-10c1.9-2,4.22-3.92,5.18-6.35,2.67-6.7,7.32-11.64,12.42-16.46,7.2-6.81,9.47-16,11.4-25.3.47-2.29-1.06-3.4-3.16-2.3-1.48.77-2.56,2.27-3.93,3.31-3.95,3-7.59,6.73-12,8.77-7.23,3.33-12.63,7.92-16,15.2-2.49,5.36-6.07,10.22-8.42,15.63-1.75,4-2.32,8.59-3.69,14-1.4-3-3.2-5.18-3.43-7.55-.66-6.9-.29-13.52,5.47-18.92,4-3.7,5.22-9.16,6.29-14.42,1.51-7.39,4.1-14.37,8.66-20.43a67.94,67.94,0,0,1,7-7.7,23.8,23.8,0,0,0,7.19-12.9c.8-4.43,1.49-8.87,2.2-13.31a3.84,3.84,0,0,0,0-2.1c-.56-1.09-1.28-2.64-2.19-2.84s-2.4.92-2.95,1.87c-2.08,3.5-3.63,7.34-5.87,10.73a21.38,21.38,0,0,1-6.09,6.36c-16.22,10.21-22.41,26-24.3,43.91-.68,6.47-.1,13.07-.13,19.6a5.27,5.27,0,0,1-1,3.18c-2.85-4-5.73-8.06-8.51-12.14-.33-.49-.16-1.38-.11-2.07.46-5.89.9-11.72,3.05-17.41,1-2.65.6-6.09,0-9-1-5.11.18-9.14,4.38-12.13,7.49-5.34,12-12.86,14.87-21.26a26.66,26.66,0,0,0,1.08-10.53c-.46-5.88-.47-11.6,1.07-17.34.31-1.16-.57-2.65-.91-4-1.33.43-3,.48-3.94,1.35-6.08,5.82-10.42,12.42-12.17,21.08-1.13,5.6-4.57,10.83-7.44,16s-6.54,10.14-9.64,15.32c-2.32,3.87-2.14,8-.44,12.11,1.34,3.21,2.81,6.36,4.19,9.55,1.62,3.76,1.81,7.65,1.22,12.11-6.4-6.65-12.51-12.93-18.51-19.31a3.82,3.82,0,0,1-.86-2.94c.84-3.77,2-7.49,3-11.23,1.12-4.13,2.43-8.22,3.28-12.4.9-4.43,2.81-8,6.58-10.62,7-4.91,11-12,13.26-20.06,2.6-9.23,5.22-18.48,7.24-27.86,1-4.72.78-9.73,1-14.61a6.32,6.32,0,0,0-.79-2.91c-1.19-2.34-2.7-2.41-4-.09a34.38,34.38,0,0,0-2.68,6.17c-2.56,8.45-7.44,15.31-13.62,21.53a30,30,0,0,0-6.34,9.6c-3.66,9-6.71,18.2-10.07,27.29-2,5.44-1.85,11-1.42,16.65.41,5.43.53,10.88.78,16.32l-.87.11c-4.8-4.27-9.63-8.51-14.34-12.88a3,3,0,0,1-.37-2.57c.64-1.93,1.6-3.75,2.41-5.63a24,24,0,0,0,1.63-14.39,15.29,15.29,0,0,1,2.29-11.74A30.51,30.51,0,0,0,51.72,1208a12.71,12.71,0,0,1,6.63-10.69c7.56-4.5,12.15-11.7,16.8-18.82,1.15-1.75.34-3-1.44-3.48a7.79,7.79,0,0,0-3.33,0c-4.14.7-8.26,1.49-12.39,2.28a19,19,0,0,0-14.5,11.5c-2.28,5-5.1,9.81-7.16,14.91-5,12.37-7.74,25-2.77,38.15,1.17,3.1,1.44,6.54,2.32,10.76a37.1,37.1,0,0,1-3.52-1.89c-4.26-3-8.46-6.11-12.74-9.11-2.19-1.54-3.05-3.48-2.31-6.09s1.73-5.46,2.23-8.26A79.91,79.91,0,0,0,20.89,1216c.2-5.53,1.19-10.71,4.29-15.42a34,34,0,0,0,5.64-21.88c-.7-8.44-2-16.84-3-25.25-.29-2.34-.43-4.71-.94-7a15.61,15.61,0,0,0-1.83-3.59c-1.21.92-3,1.59-3.54,2.81a69.22,69.22,0,0,0-6.68,30,28.11,28.11,0,0,1-5,16.43,13.39,13.39,0,0,0-2.3,6.22c-.53,7.75-.94,15.52-.87,23.28,0,4.14,1.13,8.27,1.8,12.67-3.89-1.76-7.89-3.59-11.91-5.4-2.88-1.31-5.76-2.64-8.68-3.84s-4.47-3.18-3.64-6.45c.52-2.07.77-4.33,1.81-6.11,3.71-6.38,4.07-13.06,3-20.17a35,35,0,0,1,0-11.18c2.43-13.57-.36-26.2-5.9-38.51-1.37-3-2.26-6.3-3.47-9.41-.3-.76-1.13-2-1.53-1.9-1,.17-2.3.78-2.61,1.56a17.8,17.8,0,0,0-1,5.06,12.21,12.21,0,0,0,.22,3.67C-22.35,1155-24,1168-28.4,1180.82a32.79,32.79,0,0,0,1.84,26.71c2,4,2.73,8.65,4.22,13.68-3.69-.94-6.37-1.53-9-2.31-5.94-1.76-8.55-6.1-7.16-12.16,1.86-8.15-.36-15.33-5.51-21.48a80.81,80.81,0,0,1-13.22-22.62,48.38,48.38,0,0,0-16.72-21.51c-1-.77-3.53-1.43-3.88-1-1,1.27-1.94,3.27-1.65,4.74.68,3.38,2.14,6.6,3.22,9.91,1.54,4.77,3.17,9.52,4.51,14.34,2.41,8.62,6.21,16.43,12.54,22.86S-49.16,1206.77-44.93,1214.92Z" fill="#2d2d2d"/>
    </g>
  </g>
</svg>
