<svg id="Layer_1" data-name="Layer 1" xmlns="http://www.w3.org/2000/svg" viewBox="0 0 567.66 304.45">
  <path d="M163,566.77c-13.48-.71-25.74-.65-37.81-2.15-17.52-2.17-32.28-11.28-46.52-21-10.2-7-18.07-16.21-25.21-26.28-5.28-7.43-12.09-13.77-17.35-21.21C23.37,478.12,12.26,459.36,14,436c.74-10.25,2.6-20.34,4.31-30.48,3.57-21.25,15.9-37.17,29-52.8,9.4-11.21,20.16-21,33-28.28,8.54-4.86,16.54-10.71,25.25-15.19a216.21,216.21,0,0,1,27.71-11.86c6.6-2.3,13.76-3,20.65-4.46,6.18-1.34,12.32-2.84,18.48-4.25a14.37,14.37,0,0,1,2.84-.38q19.51-.52,39-1c13.49-.34,27.09.27,40.44-1.27,13-1.49,25.82-4.84,38.57-8,25.25-6.17,50.6-12.07,76.57-13.72,23.7-1.5,47.53-2.59,71.24-1.8,21.54.73,43.29,1.77,64.37,7.26,8.19,2.14,16.18,5.08,24.17,7.9,5.78,2,12,3.63,17,6.93a101.24,101.24,0,0,1,18.87,16c4.36,4.77,7.39,10.9,10.32,16.77,1.63,3.27,1.62,7.32,2.73,10.91,3.45,11.2,3.23,22.74,2.53,34.13-.64,10.52-2.74,21-4.21,31.42-.75,5.31-2.1,10.6-2.19,15.92-.19,11.47-3.68,22.11-7.43,32.67a231.51,231.51,0,0,1-10.42,25,77,77,0,0,1-10.1,14.8c-6.09,7.3-12.63,14.23-19.13,21.17-1.22,1.3-3.26,1.79-4.72,2.92-3.66,2.83-6.93,6.25-10.84,8.65-7,4.3-13.37,9.93-21.86,11.61-2.09.42-3.9,2.12-6,2.85-7.66,2.69-15.3,5.44-23.08,7.74-8,2.37-16.15,4.24-24.23,6.32a12.21,12.21,0,0,1-1.89.31c-24.06,2.27-48.05,4.68-72.28,5.44-12.67.39-25.66-.46-38.12,1.75-10.1,1.8-20.08.56-30,1.74-8.77,1-17.45,2.9-26.17,4.39-.62.1-1.28.07-1.92.11-10.63.69-21.29,1.07-31.87,2.17-9.26,1-18.42,2.75-27.63,4.18-.63.1-1.25.31-1.89.35Z" transform="translate(-13.78 -262.32)" fill="#df9fb0"/>
</svg>
