<svg id="Layer_1" data-name="Layer 1" xmlns="http://www.w3.org/2000/svg" viewBox="0 0 566.88 312.27">
  <path d="M290.33,571.69c-17-1.41-35.48-2.58-53.82-4.57-17-1.85-34.1-4.09-51-7.06-20.19-3.55-40.14-8.62-58.6-17.7a173.84,173.84,0,0,1-68.36-59.47C48,467.3,38,451.47,29.57,434.6c-9.31-18.71-14.7-38.37-14.65-59.31,0-14.86,5-28.43,12.09-41.3,2.63-4.74,5-9.62,7.74-14.29,4.71-8,12.69-12.41,20-17.46,17.14-11.81,34.77-22.69,55.28-27.79,15.88-3.94,31.64-8.65,47.73-11.47,23-4,46.38-3.93,69.7-3.08,10.52.37,21.13.12,31.52,1.49,26,3.42,52.54,3.53,78,11.17,8.21,2.46,16.53,4.67,24.93,6.43,14,2.93,28.13,5.28,42.16,8.11,17.33,3.5,34.88,2.91,52.41,3.31,18.61.42,37.32.47,55.13,7.35a74.19,74.19,0,0,1,33.7,26.11,179.11,179.11,0,0,1,23.07,43.75c4.64,12.46,9.28,25.18,11.53,38.19,2.22,12.83,2,26.19,1.68,39.28-.12,5.19-3.51,10.25-5.17,15.45-4.19,13-12.17,24-21.73,33.08-10.54,10-22,20-34.84,26.4-18.45,9.18-38.42,15.4-57.95,22.28-15.16,5.33-30.41,10.8-46.05,14.31-28.41,6.37-56.84,13.1-86.39,12.51C316.93,568.87,304.36,570.7,290.33,571.69Z" transform="translate(-14.92 -259.42)" fill="#b3906b"/>
</svg>
