<svg id="Layer_1" data-name="Layer 1" xmlns="http://www.w3.org/2000/svg" viewBox="0 0 555.26 318.81">
  <path d="M309.84,264.2c11.89-.88,23.77-1.95,35.67-2.59,20.85-1.13,41.28,1.93,61.77,5.62,17.51,3.16,34.93,6.55,51.65,12.46,14.49,5.12,28.44,11.75,42.63,17.73a3.26,3.26,0,0,1,1.19.75c11.61,12.68,27.18,21.71,35,37.84,2.19,4.51,4.73,9.06,5.72,13.88,3.26,15.81,12.1,28.93,19.67,42.65,9.2,16.68,13.78,34.66,16,53.37,1.2,10.23-.26,20.15-5.32,29.25-4.73,8.51-9.68,16.9-14.75,25.22C552.6,511,542.64,518,532.7,525c-14.43,10.12-28.88,20-45.88,25.71-28.72,9.62-58.28,15.16-88.19,19.11-19.87,2.63-39.76,5.17-59.68,7.36-10.12,1.11-20.33,1.63-30.52,1.94-18.39.56-36.79.86-55.19,1-6.27.06-12.54-.83-18.81-.84-6.75,0-13.49.54-20.24.79-21.82.82-42.93-2.72-64.29-7.52-26.19-5.89-47.68-19.64-69.34-33.93-15.66-10.33-27-24.2-35.16-41a188.4,188.4,0,0,0-11.08-19.17c-6.93-10.85-9.34-23-9.88-35.45a194.93,194.93,0,0,1,1-29.19c.6-5.48,2.78-11,5.11-16,4.65-10.12,9.48-20.21,15.1-29.81,2.6-4.45,6.83-8.24,11-11.44Q70.48,345.92,85,336.31a69.27,69.27,0,0,1,14.68-7.22c11.26-4.08,23-6.88,34-11.59,18.27-7.86,36-16.91,54.11-25.24,10.11-4.67,20.12-9.94,30.72-13.09a574.26,574.26,0,0,1,56-13.9c11.47-2.18,23.47-1.56,35.23-2.2Z" transform="translate(-24.28 -261.37)" fill="#e6924b"/>
</svg>
