<svg id="Layer_1" data-name="Layer 1" xmlns="http://www.w3.org/2000/svg" viewBox="0 0 584.24 259.8">
  <path d="M190.67,304.65c13.18,0,26.4.7,39.51-.17,16.31-1.1,32.54-3.42,48.78-5.35,14.29-1.7,28.52-4.31,42.86-5.21,21-1.31,42-2.06,63-1.9,13.37.11,26.78,2,40.08,3.64,15.42,2,30.9,3.89,46.06,7.18,17.88,3.89,35.69,8.25,52,17.22,12,6.57,23.39,13.76,33.07,23.41,7,7,12.55,15,18.14,23.26,13.14,19.33,16.89,40.66,15.66,63a107.15,107.15,0,0,1-17.3,53.46c-6.59,10.1-13.76,19.62-22.86,27.45-11.16,9.61-22.72,18.73-36.49,24.57-18.92,8-38.49,13.47-59,14.72-15.72,1-31.49,2.06-47.22,1.81-25.11-.39-50.2-1.75-75.3-2.89-17.86-.81-35.7-2-53.56-2.9-23.12-1.1-46.25-2-69.37-3-19.83-.91-39.67-1.71-59.47-3-24-1.58-48.11-2.7-71.58-8.84-14.18-3.7-27.63-9.1-39.65-17.5C20.47,501.33,9.62,484.8,6.68,463.15a90.93,90.93,0,0,1,3-37.84c3.3-11.46,6.43-23.08,11.17-34a191.07,191.07,0,0,1,24.19-40.68c9-11.61,19.46-21.38,32-28.52a112.16,112.16,0,0,1,27.56-11.07,175.31,175.31,0,0,1,34.32-5.21c17.21-.84,34.49-.22,51.74-.22Z" transform="translate(-5.89 -292)" fill="#c6a2c0"/>
</svg>
