<svg id="Layer_1" data-name="Layer 1" xmlns="http://www.w3.org/2000/svg" viewBox="0 0 571.22 411.46">
  <path d="M192.33,213.5c27.49,1.37,55.64,2.58,83.18,9.26,9.87,2.39,19.44,6.18,29.4,8,14.12,2.59,28.47,4,42.73,5.83,11,1.41,22.15,2.28,33.11,4.09,20,3.29,40.35,5.57,59.77,11,30.88,8.69,62.46,15.93,90.74,32.11,9.22,5.27,18.7,10.32,27.11,16.73,10,7.65,14.5,19.27,17.7,31.15s6,24.18,9.25,36.19c2.63,9.61,2.26,19.11.35,28.72-.7,3.52-1.53,7.13-1.45,10.67a165.94,165.94,0,0,1-9.41,57.91c-4.07,11.88-5.71,24.58-9.58,36.55a118.16,118.16,0,0,1-26.51,44.49c-9.41,10-18.89,20.14-29.31,29.07a175.25,175.25,0,0,1-27.58,18.82c-14.09,8-28.23,16.46-43.32,22.12a126.63,126.63,0,0,1-44.29,7.81c-14.29,0-28.58.71-42.87.89-17.15.22-33.75-3.29-50.43-7-20.19-4.48-38.74-13.34-58.18-19.73-18.2-6-37.14-9.74-55.26-16A420,420,0,0,1,135.59,561c-15.18-7.59-29.53-17.06-43.53-26.73-9-6.21-16.58-14.39-24.94-21.52-24.42-20.81-38.48-47.89-46.55-78.29-2.41-9.08-2.68-18.75-3.73-28.17A128.79,128.79,0,0,1,30.37,331.9a45.53,45.53,0,0,0,2.75-8.39c4.17-14.74,12.84-26.82,22.52-38.33C60.17,279.79,64,273.67,69.15,269a254.22,254.22,0,0,1,26.92-21.89c8.87-6.14,18.66-11,28.16-16.2a80,80,0,0,1,12.53-5.74c10.86-3.73,21.68-7.78,32.82-10.37C176.65,213.12,184.27,213.86,192.33,213.5Z" transform="translate(-15.98 -213.5)" fill="#a0bcd1"/>
</svg>
