<svg id="Layer_1" data-name="Layer 1" xmlns="http://www.w3.org/2000/svg" viewBox="0 0 580.23 372.19">
  <path d="M251.76,236.77c20.59,0,41.18-.26,61.76.15,6.78.13,13.52,2,20.3,3,8.19,1.21,16.43,2.12,24.6,3.52,7.62,1.3,15.16,3.07,22.75,4.63.64.13,1.31.13,1.95.26Q395.06,251,407,253.59c5.34,1.18,10.7,2.34,16,3.64,3.61.88,7.2,1.87,10.73,3,8.14,2.6,16.31,5.13,24.34,8,13.53,4.86,27.31,9.14,39.49,17.21,3,2,6.79,2.88,10.06,4.57a138.35,138.35,0,0,1,12.87,7.35c4.54,3,8.8,6.49,13.11,9.86,3.83,3,7.91,5.78,11.26,9.25,6.43,6.68,12.74,13.53,18.49,20.79a69.34,69.34,0,0,1,9.13,15.19c2.8,6.37,3.68,13.66,6.91,19.75,4.65,8.77,3.62,18.44,6.05,27.34,5.38,19.78,1,39.63,2.54,59.36-5.35,8.5-1.87,18.75-5.64,27.71-2.79,6.63-3.93,13.93-6.27,20.77-4.73,13.8-10.12,27.35-19.55,38.79-5.91,7.17-12.5,13.81-18.06,21.23-6.26,8.37-16.39,11.58-23.47,19-3.26,3.4-9.24,4.17-14,6.2-2.55,1.09-5,2.34-7.55,3.48-10.92,4.94-22.74,6.55-34.12,9.67-14.4,3.94-28.45,1.58-42.61,2.29-14.45.72-29.17,1.46-43.38-.58-6.94-1-14.87.66-21.51-4.14-2.14-1.54-6.11-.4-9.19-.81-5.77-.77-11.57-1.48-17.23-2.78-6.31-1.45-12.47-3.55-18.71-5.32a12.9,12.9,0,0,0-2.92-.36,31.53,31.53,0,0,1-12.14-2.48c-6.61-3-14.2-3.77-21.31-5.7-6-1.63-11.82-3.69-17.79-5.34-4.74-1.31-9.63-2.11-14.36-3.47-7-2-13.93-4.34-20.88-6.54-2.25-.71-4.5-1.41-6.74-2.15-4.77-1.58-9.55-3.12-14.29-4.77-2.85-1-5.67-3.15-8.45-3.06-5.65.18-9.76-2.83-14.37-5a71.55,71.55,0,0,0-9.33-3.39c-4-1.29-8.18-2.32-12.21-3.66-2.1-.71-4-2-6.07-2.78-7.54-2.89-15-6.3-22.73-8.33-6.07-1.59-11.74-3.1-16-8a3.13,3.13,0,0,0-2.33-.55c-7.53.74-12.93-4.42-19.12-7.15-6.77-3-13.1-7.09-19.41-11-2.46-1.53-4.39-3.92-6.47-6C52.32,497,44.42,489.8,37.5,481.75c-4-4.63-6.39-10.62-9.46-16-.31-.55-.14-1.55-.54-1.84-6.88-4.94-7.3-13.52-10.22-20.28A101.17,101.17,0,0,1,9.72,416c-1.54-12.41-2.4-24.81-1.08-36.92.86-7.82-.09-16.32,4.23-23.9,2.12-3.71,1.93-8.67,3.47-12.81,2.24-6,5-11.8,7.72-17.64a51.7,51.7,0,0,1,3.6-6.57c1.77-2.77,3.72-5.43,5.64-8.09,4.93-6.87,9.86-13.74,14.89-20.54A20.22,20.22,0,0,1,52,285.7c2.74-2.15,5.42-4.52,8.48-6.1,8.24-4.26,14-12.22,23.17-15.13,4.24-1.35,8-4.32,12.12-6,4.67-1.91,9.6-3.17,14.39-4.82,4.3-1.48,8.55-3.11,12.81-4.7a15.19,15.19,0,0,1,2.19-1c5.8-1.09,12.21-.9,17.29-3.42,8.25-4.09,17.52-.88,25.5-5a9.31,9.31,0,0,1,2.89-.49C197.73,235.09,224.78,237.14,251.76,236.77Z" transform="translate(-7.99 -236.56)" fill="#a1c786"/>
</svg>
