<svg xmlns="http://www.w3.org/2000/svg" viewBox="0 0 1317.33 685">
  <g id="background">
    <rect width="1316.79" height="685" fill="#e9d4c7"/>
  </g>
  <g id="shapes">
    <g id="Layer_3" data-name="Layer 3">
      <path d="M329.22,938.36c-28.68.32-57.09-1.94-84.83-9.72-38.85-10.9-71-31.84-94.49-64.91-11-15.5-16.5-33.14-17-52.42s4.83-37,10.21-55.08c3-10.09,5.83-20.58,6.28-31A61.33,61.33,0,0,0,139.07,688c-13.91-20.66-28.36-41-42.48-61.47-7.17-10.43-13.22-21.4-16.26-33.89-4.91-20.16-1.83-39.07,9.22-56.41,16.65-26.13,40-43.92,69.61-53.13,6.82-2.12,14.17-2.52,21.24-3.91,12.64-2.47,25.43-2.93,38.26-2.89,6.14,0,12.33-.34,18.43.26,6.35.62,12.59,2.26,18.91,3.31,7,1.17,14.35,1.38,21.12,3.43,18.11,5.47,36.35,10.81,53.88,17.85,28.48,11.43,55.13,26.62,81.28,42.66a72,72,0,0,0,17.7,8c7.46,2.1,15.09.48,20.44-5.4,6.14-6.75,11.47-14.27,16.94-21.62,9.25-12.41,20.48-22.06,36.49-23.31A62.14,62.14,0,0,1,544.19,512c36.94,24.94,62.17,58.24,71.37,102.42,4.12,19.75,4.79,39.84,3.23,60-1,12.87-1.38,25.79-2.08,38.68-1.66,30.64-9.38,59.64-21.2,88-10.63,25.48-27,46.2-46.37,65.15-23.12,22.62-51,36.85-81.35,47-27,9-54.37,16.54-82.47,20.82-18.51,2.81-37.31,3.72-56,5.49Z" fill="#e3c4bc" opacity="0.37"/>
    </g>
    <g id="Layer_4" data-name="Layer 4">
      <path d="M1234.33,415.7c0-18.7-.64-37.42.15-56.09,1.19-28.29,4.43-56.36,15.68-82.78,13.25-31.11,34.13-55.41,65-70.1,20.73-9.86,45.07-5.21,62,10.29,20.68,18.94,33.53,43,45.17,67.84a379.78,379.78,0,0,1,29.3,92.14c3,16.32,4.59,32.92,7.32,49.31,4.17,25,4.6,50.21,3.71,75.41-.59,17-2.33,33.92-3.79,50.85a265,265,0,0,1-19.61,81c-11.23,26.54-26.25,50.61-46.67,71-27.4,27.31-60.65,44.11-98.12,52.66-31.93,7.28-64.42,9.49-97,7.74a274.61,274.61,0,0,1-101.89-25.78c-38.28-17.84-72.92-41.24-104.66-69-18.34-16.05-34.39-34.23-49.25-53.47-12.44-16.12-16.81-35.5-21.56-54.71-5.33-21.53-6.16-43.47-4.7-65.35s7.47-42.33,21.2-60.11c14.22-18.42,37-18.58,51.06.22,12.17,16.26,20.43,34.65,27.91,53.35s18.27,35.11,31,50.37c5,6,11.92,9.16,19.43,10.76,6.14,1.31,12.26-4.22,12.61-11.4.48-10-.18-19.85-3.57-29.48q-15.79-44.79-31.18-89.73c-7.4-21.59-12.08-43.85-12.09-66.66,0-23.57,3.47-46.62,17-67,14.47-21.83,38-27.28,60.82-14.45,18,10.13,29.53,25.33,37.16,44.17,16.57,40.9,33.43,81.69,50.14,122.54a84.08,84.08,0,0,0,17.21,26.67c6.86,7.15,12.5,6,15.2-3.59a119.77,119.77,0,0,0,3.91-22.54c.66-8,.15-16.07.15-24.11Z" fill="#8fa0a7" opacity="0.33"/>
    </g>
    <g id="Layer_7" data-name="Layer 7">
      <path d="M62.1,329.67c-20.59,0-41.18.26-61.76-.15-6.78-.13-13.52-2-20.3-3-8.19-1.21-16.43-2.12-24.6-3.52-7.62-1.3-15.16-3.07-22.75-4.63-.64-.13-1.31-.13-2-.26q-11.94-2.67-23.88-5.26c-5.34-1.18-10.7-2.34-16-3.64-3.61-.88-7.2-1.87-10.73-3-8.14-2.6-16.31-5.13-24.34-8-13.53-4.86-27.31-9.14-39.49-17.21-3-2-6.79-2.88-10.06-4.57a138.67,138.67,0,0,1-12.87-7.35c-4.54-3-8.8-6.49-13.11-9.86-3.83-3-7.91-5.78-11.26-9.25-6.43-6.68-12.74-13.53-18.49-20.79A69.34,69.34,0,0,1-258.62,214c-2.8-6.37-3.68-13.66-6.91-19.75-4.65-8.77-3.62-18.44-6.05-27.34-5.38-19.78-1-39.63-2.54-59.36,5.35-8.5,1.87-18.75,5.64-27.71,2.79-6.63,3.93-13.93,6.27-20.77,4.73-13.8,10.12-27.35,19.55-38.79C-236.75,13.1-230.16,6.46-224.6-1c6.26-8.37,16.39-11.58,23.47-19,3.26-3.4,9.24-4.17,14-6.2,2.55-1.09,5-2.34,7.55-3.48,10.92-4.94,22.74-6.55,34.12-9.67,14.4-3.94,28.45-1.58,42.61-2.29,14.45-.72,29.17-1.46,43.38.58,6.94,1,14.87-.66,21.51,4.14,2.14,1.54,6.11.4,9.19.81,5.77.77,11.57,1.48,17.23,2.78C-5.23-31.84.93-29.74,7.17-28a13.11,13.11,0,0,0,2.92.36,31.45,31.45,0,0,1,12.14,2.48c6.61,3,14.2,3.77,21.31,5.7,6,1.63,11.82,3.69,17.79,5.34C66.07-12.78,71-12,75.69-10.62c7,2,13.93,4.34,20.88,6.54,2.25.71,4.5,1.41,6.74,2.15,4.77,1.58,9.55,3.12,14.29,4.77,2.85,1,5.67,3.15,8.45,3.06,5.65-.18,9.76,2.83,14.37,5a72.22,72.22,0,0,0,9.33,3.39c4,1.29,8.18,2.32,12.21,3.66,2.1.71,4,2,6.07,2.78,7.54,2.89,15,6.3,22.73,8.33,6.07,1.59,11.74,3.1,16,8a3.16,3.16,0,0,0,2.33.55c7.53-.74,12.93,4.42,19.12,7.15,6.77,3,13.1,7.09,19.41,11,2.46,1.53,4.39,3.92,6.47,6,7.45,7.68,15.35,14.88,22.27,22.93,4,4.63,6.39,10.62,9.46,16,.31.55.14,1.55.54,1.84,6.88,4.94,7.3,13.52,10.22,20.28a101.18,101.18,0,0,1,7.56,27.63c1.54,12.41,2.4,24.81,1.08,36.92-.86,7.82.09,16.32-4.23,23.9-2.12,3.71-1.93,8.67-3.47,12.81-2.24,6-5,11.8-7.72,17.64a51.7,51.7,0,0,1-3.6,6.57c-1.77,2.77-3.72,5.43-5.64,8.09-4.93,6.87-9.86,13.74-14.89,20.54a20,20,0,0,1-3.81,3.83c-2.74,2.15-5.42,4.52-8.48,6.1-8.24,4.26-14,12.22-23.17,15.13-4.24,1.35-8,4.32-12.12,6-4.67,1.91-9.6,3.17-14.39,4.82-4.3,1.48-8.55,3.11-12.81,4.7a15.48,15.48,0,0,1-2.19,1c-5.8,1.09-12.21.9-17.29,3.42-8.25,4.09-17.52.88-25.5,5a9.47,9.47,0,0,1-2.89.49C116.13,331.35,89.08,329.3,62.1,329.67Z" fill="#a1c786" opacity="0.19"/>
    </g>
    <g id="Layer_10" data-name="Layer 10">
      <path d="M401.19-145.46c11.89-.88,23.77-1.95,35.67-2.59,20.85-1.13,41.28,1.93,61.77,5.62,17.51,3.16,34.93,6.55,51.65,12.46,14.49,5.12,28.44,11.75,42.63,17.73a3.21,3.21,0,0,1,1.19.75c11.61,12.68,27.18,21.71,35,37.84,2.19,4.51,4.73,9.06,5.72,13.88,3.26,15.81,12.1,28.93,19.67,42.65,9.2,16.68,13.78,34.66,16,53.37,1.2,10.23-.26,20.15-5.32,29.25-4.73,8.51-9.68,16.9-14.75,25.22C644,101.34,634,108.34,624.05,115.34c-14.43,10.12-28.88,20-45.88,25.71-28.72,9.62-58.28,15.16-88.19,19.11-19.87,2.63-39.76,5.17-59.68,7.36-10.12,1.11-20.33,1.63-30.52,1.94-18.39.56-36.79.86-55.19,1-6.27.06-12.54-.83-18.81-.84-6.75,0-13.49.54-20.24.79-21.82.82-42.93-2.72-64.29-7.52C215.06,157,193.57,143.25,171.91,129c-15.66-10.33-27-24.2-35.16-41a187.32,187.32,0,0,0-11.08-19.17c-6.93-10.85-9.34-23-9.88-35.45a196.26,196.26,0,0,1,1-29.19c.6-5.48,2.78-11,5.11-16C126.55-22,131.38-32.06,137-41.66c2.6-4.45,6.83-8.24,11-11.44q13.83-10.63,28.35-20.25A69.5,69.5,0,0,1,191-80.57c11.26-4.08,23-6.88,34-11.59,18.27-7.86,36-16.91,54.11-25.24,10.11-4.67,20.12-9.94,30.72-13.09a574.45,574.45,0,0,1,56-13.9c11.47-2.18,23.47-1.56,35.23-2.2Z" fill="#e7924a" opacity="0.26"/>
    </g>
    <g id="Layer_11" data-name="Layer 11">
      <path d="M847.37,904.29c-13.48.59-25.68,1.82-37.84,1.48-17.64-.48-33.21-8.13-48.31-16.44-10.83-6-19.54-14.41-27.62-23.75-6-6.89-13.35-12.55-19.3-19.45-14.4-16.71-27.26-34.32-27.76-57.74-.25-10.27.63-20.49,1.37-30.75,1.51-21.49,12.26-38.52,23.81-55.33,8.28-12.06,18-22.84,30.14-31.31,8-5.66,15.43-12.25,23.67-17.54A216.52,216.52,0,0,1,792,639c6.35-2.92,13.41-4.31,20.13-6.42,6-1.92,12-4,18-6a14,14,0,0,1,2.79-.65q19.36-2.38,38.72-4.73c13.4-1.63,27-2.33,40.13-5.14,12.8-2.73,25.24-7.29,37.63-11.65,24.54-8.56,49.21-16.87,74.91-21,23.44-3.76,47.06-7.13,70.74-8.61,21.51-1.34,43.26-2.38,64.76,1.06,8.36,1.35,16.6,3.51,24.82,5.55,6,1.44,12.29,2.46,17.59,5.27a101.38,101.38,0,0,1,20.31,14.12c4.8,4.33,8.4,10.14,11.88,15.7,1.94,3.1,2.31,7.13,3.76,10.6,4.51,10.82,5.4,22.33,5.79,33.73.37,10.54-.72,21.17-1.18,31.68-.24,5.36-1.08,10.75-.66,16.06.91,11.43-1.54,22.36-4.26,33.23a233.06,233.06,0,0,1-8,25.88,77.17,77.17,0,0,1-8.64,15.7c-5.36,7.85-11.21,15.38-17,22.91-1.09,1.41-3.08,2.09-4.42,3.36-3.37,3.16-6.3,6.88-10,9.64-6.56,5-12.36,11.17-20.65,13.65-2,.62-3.68,2.49-5.7,3.42-7.37,3.41-14.71,6.88-22.23,9.91-7.74,3.13-15.67,5.77-23.51,8.61a12.13,12.13,0,0,1-1.86.49c-23.73,4.57-47.38,9.26-71.42,12.34-12.58,1.6-25.59,2-37.78,5.39-9.88,2.76-19.93,2.48-29.7,4.61-8.63,1.83-17.09,4.56-25.62,6.87-.61.16-1.27.2-1.91.3-10.51,1.7-21.09,3.1-31.51,5.21-9.12,1.88-18.07,4.5-27.1,6.81-.62.16-1.22.43-1.85.53Z" fill="#dfa0b0" opacity="0.35"/>
    </g>
    <g id="Layer_5" data-name="Layer 5">
      <path d="M151,879.17C107.71,879.85,67.73,868.89,32,844A134.71,134.71,0,0,1-8.49,799.71c-11.17-19.52-11.69-39.29-1.27-59.29,2.88-5.5,5.93-10.93,8.58-16.54,2.07-4.4.93-6.62-3.75-7.94-3.59-1-7.27-1.74-10.92-2.54-19.55-4.31-32.81-16.78-43.08-33.17-11-17.5-17.47-36.84-22.58-56.58-8.27-31.94-16.52-63.91-23.3-96.18-5-23.62-4.45-47.83-2.47-71.9A240.75,240.75,0,0,1-89.4,381.82c9.52-22.79,24.54-41.33,45.49-54.68,35-22.3,81.44-17.41,112,14.48,18.93,19.74,30,43.24,35.5,69.75,3.46,16.71,3.34,33.43,1,50.24-.86,6.28-1.89,12.6-1.91,18.91a78,78,0,0,0,2.06,16.88c1,4.54,5,7,9.89,5.67a129.76,129.76,0,0,0,17.81-6.57c10-4.33,19.63-9.67,29.87-13.3a39.82,39.82,0,0,1,26.94,0c9.75,3.49,16,12.91,16.83,23.24,1.1,14.19-3.25,27-8.33,39.84-4.84,12.25-10.09,24.5-13.24,37.23-10.72,43.33,6.85,80.8,44.09,102.75,20.71,12.21,43.33,19.44,66,26.57,16.61,5.2,33.74,9.15,48.73,18.6,14.46,9.06,26.22,20.8,31.22,37.27,9,29.37.27,49.07-30.63,57.1-22.49,5.84-43.69,13.62-63.75,25.39-20.59,12.08-43.45,18.35-66.91,22.2-13.5,2.21-27.05,4.2-40.65,5.64C165.54,879.79,158.25,879.17,151,879.17Z" fill="#c3845f" opacity="0.33"/>
    </g>
    <g id="Layer_6" data-name="Layer 6">
      <path d="M1167.34,353.93c-21.82.74-41.8-4.07-58.48-18.89-12.62-11.21-20.11-25.65-25.53-41.43-7.34-21.4-7.72-43.37-6-65.56,2.74-34.88,14.76-67.53,24.24-100.8,2.26-8,4.21-16.26,4.54-24.47.7-17.39-8.38-26.91-25.62-30.27-21.62-4.22-42.34-.23-63,5.46-27.07,7.48-54,15.38-81.17,22.63-12.13,3.26-24.58,5.12-37.33,2.18C882.34,99,871.08,88.18,861.52,75,846.9,54.8,839,32.41,840.58,7.33c1.16-18.2,8.62-34.12,19.36-48.61,16.61-22.44,38.89-38.07,62.49-52.09,23.24-13.81,47.79-24.43,74.52-29.43a201.14,201.14,0,0,1,50.49-3.21c12.69.85,25.35,2,37.22,7.38,13,5.91,23.58,14.91,33.56,24.73,12,11.81,24.43,23,39.29,31.18,12.67,7,26.43,10.3,40.51,12.73,7.38,1.27,14.72,2.9,22.14,3.82,6.29.78,12.72.47,19,1.16,39.8,4.39,73.63,20.5,99.6,51.58,26.41,31.61,40.93,68.71,49.19,108.52a189.13,189.13,0,0,1,3.87,30.45c1.13,26.19-6.73,50.21-19.45,72.79-29,51.56-69.8,91-122.78,117.53-19,9.51-39.46,14.73-60.71,16.48C1181.74,352.91,1174.53,353.39,1167.34,353.93Z" fill="#d3a659" opacity="0.4"/>
    </g>
  </g>
  <g id="floral">
    <g opacity="0.53">
      <path d="M1300.34,186.3c-5.59,3.87-7.12,8.07-5,14.12,2.27,6.57,3.56,13.15,2,20.14a7,7,0,0,0,1,5.2c6,7.49,4.22,15.36,1.73,23.4-1.13,3.65-1.9,7.43-3.23,11-.48,1.29-2.11,2.14-3.21,3.19-.68-1.4-2-2.82-1.93-4.22.12-10.24-2-20.1-4.69-29.88-2.41-8.69-3-17.41-.24-26.17a14.43,14.43,0,0,0,.24-2.19c-1.45,1.24-2.49,2.06-3.46,3-3,2.8-6,5.58-8.95,8.48a5.17,5.17,0,0,0-1.63,3c-.19,5.46-.3,10.93-.1,16.38a10.22,10.22,0,0,0,1.8,5.87c5.2,6.19,6.62,13.46,6.85,21.18a69.76,69.76,0,0,1-6.7,31.58,7.63,7.63,0,0,1-1.49,2.58,14.51,14.51,0,0,1-3.09,1.66c-.36-1.22-1.15-2.5-1-3.66.58-4.42,1.66-8.78,2.18-13.21a38.15,38.15,0,0,0-2.46-19.63c-4.57-10.62-5-21.56-3.8-32.76l.33-3.12-.77-.3a28.24,28.24,0,0,0-2.9,3.72c-4.55,8.4-9.43,16.66-13.37,25.35a55.85,55.85,0,0,1-19.43,23.17,5.53,5.53,0,0,1-2.69,1.06c-2.18.11-3.24-1.41-2.05-3.15,5-7.32,6.9-15.8,9.56-24,2.52-7.83,8-13.48,14.19-18.7,10.25-8.67,20.22-17.66,30.3-26.52a13.08,13.08,0,0,0,1.22-1.55c-4.27-.33-7.82.25-10.65,3.15-1.73,1.76-3.19,3.81-5,5.41-2.61,2.25-5.2,4.78-8.27,6.17a44,44,0,0,0-16.74,13.34,21.09,21.09,0,0,1-2.61,3.16,11.42,11.42,0,0,1-2.94,1.33c-.32-1.16-1.14-2.45-.87-3.45a84.12,84.12,0,0,1,3.86-11.65c5.2-11.79,13.44-20.87,25.32-26.13a25.59,25.59,0,0,1,10-1.8c4,0,8,.77,12,1.35,4.15.6,7.27-.55,9.4-4.39,2.3-4.13,4.91-8.09,7.33-12.15a13.77,13.77,0,0,0,.84-2.43,10.09,10.09,0,0,0-1.46.79,22.08,22.08,0,0,1-13.66,4.88,21.79,21.79,0,0,0-12.57,4.09,38.2,38.2,0,0,1-22.57,8c-4.45.13-8.88.85-13.33,1.1-2.1.12-4.15-.56-4.66-3s1.27-3.67,3.08-4.63c2.09-1.11,4.31-2,6.43-3.05a47.47,47.47,0,0,0,14.56-11c4.38-5,9.73-7.12,16.37-6,5.32.87,10.69,1.43,16,2.29a11,11,0,0,0,10-3,40.67,40.67,0,0,1,5.67-4.75c5.21-3.39,5.67-9,7.41-14.93-2.67,1.25-4.76,2-6.66,3.17a25.35,25.35,0,0,1-17.09,3.38,26.41,26.41,0,0,0-16.67,3.14c-8.16,4.4-16.71,3.93-25.37,2.47-3.16-.53-4.4-3.38-2.91-6.26,1.77-3.46,4.76-5.33,8.42-6.47,6.51-2,13-4.07,19.38-6.48s12.45-3.15,18.64-.5c7.07,3,14.38,3,21.78,2.5a2.21,2.21,0,0,0,1.65-1.26c1.28-7.07,3-14.1,2.53-21.8-4.61,2.47-9,4.59-13.22,7.16-6.23,3.83-12.67,4.67-19.93,3.71-7.65-1-15.46-.78-23.21-.94-4.9-.11-9.7-.48-13.76-3.57-1.78-1.37-3.21-3.1-2.6-5.62.56-2.33,2.36-3.35,4.48-3.93,7.82-2.14,15.57-4.6,23.48-6.28a24,24,0,0,1,18.1,3.66,21.29,21.29,0,0,0,19.07,2.5,40.45,40.45,0,0,1,5.83-1.47c1.83-.31,2.68-1.09,2.63-3-.11-4.27-.07-8.54-.1-13.47a30.84,30.84,0,0,0-4.41,2.31c-8.74,6.76-18.48,8.14-29,5.64-2.57-.61-5.26-.68-7.8-1.36-4.36-1.17-7.6-4.12-10.87-7.1-4-3.68-8.39-7-12.51-10.56a13.25,13.25,0,0,1-2-3.12c1.11-.6,2.18-1.6,3.34-1.73a40.63,40.63,0,0,1,24.74,5c5.67,3.13,12,5.12,18.27,7,2.45.75,5.41.08,8.11-.24,3.84-.45,7.65-1.17,12-1.86-.46-7.49-1-15.5-1.45-23.51l-.89-.2c-.92,1.3-1.92,2.56-2.75,3.92-4.26,7.06-10.8,11-18.45,13.25a13.19,13.19,0,0,1-6.95-.33,66.86,66.86,0,0,1-10.12-4.07c-1-.46-2.14-1.81-2.11-2.71s1.43-2,2.45-2.34c7.38-2.36,14.76-4.72,22.24-6.7,5.57-1.47,9.92-4.95,14.61-7.89a1.85,1.85,0,0,0,.57-1.59c-1-4.79-2.14-9.57-3.43-15.26-2.31,1.79-4.43,3-6,4.73-2.84,3.2-5.29,6.75-8,10.08-7.87,9.73-18.26,14.2-30.56,13.24-7.52-.59-14.95-2.43-22.37-3.91-1.07-.22-2.69-1.6-2.67-2.41a4.44,4.44,0,0,1,2.2-3.18c6.76-3.38,14.1-3.82,21.53-4.31,10.7-.69,20.85-3.23,29.14-10.85,4.23-3.89,8.81-7.47,15.37-7.94l-5.46-16.29-5.4,7.61c-1.79,2.52-3.41,5.2-5.41,7.55a27.11,27.11,0,0,1-14,8.69c-10,2.69-20.06,5.39-30.14,7.9a5.5,5.5,0,0,1-4.39-.77c-1.56-1.44-.82-3.61.57-4.89a76.71,76.71,0,0,1,8.62-7c4.43-3,9.26-5.43,13.59-8.56a26.66,26.66,0,0,1,13.42-5c8-.72,14-4.78,19.35-10.26a2.87,2.87,0,0,0,.31-2.74c-2.6-3.71-5.36-7.31-8.19-10.86-1.13-1.41-2.72-2.46-3.82-3.89-1.26-1.64-.34-3.55,1.68-3.35,1.7.16,3.9.64,4.86,1.82a99.71,99.71,0,0,1,9,12.67c1.88,3.22,3.73,5.5,7.82,5s8.46-.78,12.7-1c2.44-.13,5.11-.58,7.31.18,6.08,2.1,12.14,1.82,18.37,1.18,8.79-.91,16.36,2.92,23.74,7,1.84,1,1.69,2.7-.27,3.48-1.39.55-3,.41-4.52.73-4.34.92-9,1.22-12.93,3-6.47,3-12.71,3.94-19.61,2-5.08-1.44-10.45-1.84-15.48-3.4-3.75-1.16-7.16-3.42-11.61-5.64,1.19,2.68,1.65,5.19,3.12,6.72,4.28,4.46,9,8.06,16,7.31,4.8-.52,9.23,1.79,13.41,4.13a44.74,44.74,0,0,0,18.87,6,62.56,62.56,0,0,0,9.28-.26A21.25,21.25,0,0,1,1383,48.36c3.46,2,6.87,4.15,10.29,6.25.53.33,1.21.71,1.42,1.22.42,1,1,2.4.65,3.14s-2,1.08-3,.91c-3.58-.64-7.08-1.83-10.68-2.28a19.18,19.18,0,0,0-7.85.42c-16.34,5-30.6.07-43.86-9.1-4.77-3.31-8.9-7.53-13.33-11.32a4.59,4.59,0,0,0-2.72-1.19c1.08,4.27,2.12,8.56,3.27,12.81.14.52.84.92,1.34,1.28,4.25,3.12,8.45,6.22,13.55,8.07,2.37.86,4.48,3.14,6.11,5.23,2.86,3.67,6.29,5.19,10.76,4.09,8-2,15.66-.6,23,2.31a23.71,23.71,0,0,1,7.76,5.4c3.71,3.73,7.57,7.07,12.36,9.36,1,.47,1.46,1.93,2.17,2.94-1.07.65-2.09,1.77-3.21,1.88-7.48.73-14.47-.17-21.35-4-4.45-2.5-10-3.21-15.13-4.26s-10.68-1.47-16-2.39c-4-.68-6.68-3.22-8.45-6.75-1.39-2.77-2.68-5.6-4-8.39a19.82,19.82,0,0,0-7.48-7.87c.77,8.2,1.47,16,2.3,23.76a3.39,3.39,0,0,0,1.48,2.3c3,1.63,6.2,3,9.32,4.53,3.44,1.65,7,3.14,10.3,5a14.27,14.27,0,0,0,11,1.72c7.42-1.9,14.52-.45,21.29,2.7,7.76,3.62,15.55,7.22,23.07,11.31,3.79,2.06,7,5.13,10.46,7.84a5.53,5.53,0,0,1,1.51,2.23c.9,2.16.06,3.22-2.23,2.72a30.56,30.56,0,0,1-5.74-1.78c-7.21-3.19-14.69-3.87-22.49-3.31a26.72,26.72,0,0,1-10.2-1.29c-8.2-2.75-16.21-6-24.32-9.06-4.86-1.81-8.53-5.15-12.1-8.73s-7-6.69-10.59-10l-.58.52c.1,5.74.16,11.48.37,17.21a2.67,2.67,0,0,0,1.53,1.74c1.67.69,3.47,1.1,5.21,1.65a21.36,21.36,0,0,1,10.69,7.27,13.63,13.63,0,0,0,9.27,5.28,27.35,27.35,0,0,1,13.06,5.24,11.33,11.33,0,0,0,11.09,1.73c7.44-2.49,15-1.4,22.51-.42,1.86.25,2.23,1.52,1.52,3a7.15,7.15,0,0,1-1.91,2.27c-2.89,2.39-5.82,4.72-8.76,7.05a17,17,0,0,1-16.22,3.13c-4.72-1.38-9.61-2.26-14.25-3.84-11.27-3.82-21.4-9.27-27.44-20.32-1.42-2.59-3.58-4.77-5.93-7.82-.38,1.69-.68,2.57-.77,3.48-.44,4.64-.79,9.28-1.24,13.92a4.56,4.56,0,0,0,2.77,5.11c2.31,1.07,4.7,2,6.89,3.29a72.84,72.84,0,0,1,8.38,5.61c3.86,3.09,7.94,5.43,12.93,6.07a30.39,30.39,0,0,1,18.09,8.92c5.31,5.39,10.25,11.14,15.34,16.73a62,62,0,0,1,4.19,4.7,14.27,14.27,0,0,1,1.36,3.33c-1.33.28-2.8,1.08-4,.76a61.8,61.8,0,0,1-24.17-12.92,25.14,25.14,0,0,0-14-6.17,11.89,11.89,0,0,1-5.55-2.06c-5.55-4.15-11-8.39-16.26-12.95-2.78-2.43-4.93-5.58-7.53-8.6-1.07,3.66-2.16,7.44-3.27,11.21-.79,2.71-1.57,5.43-2.45,8.11s-.45,4.87,2.25,6.22c1.7.84,3.37,2,5.18,2.33,6.48,1.2,11.22,4.84,15.4,9.7A31.13,31.13,0,0,0,1343,183c10.59,6.25,17.52,15.49,22.63,26.4,1.26,2.7,3,5.2,4.35,7.83.34.64.67,1.91.39,2.14a3.35,3.35,0,0,1-2.57.86,15.63,15.63,0,0,1-4-2.29,11.34,11.34,0,0,1-2.36-2.28c-7.37-9.77-17.18-16.2-28.38-20.72a29.21,29.21,0,0,1-17-16.79c-1.5-3.69-4.27-6.88-6.8-10.81-1.52,3-2.68,5.2-3.68,7.44-2.27,5-.85,9.33,4.07,11.92,6.59,3.48,10.16,9.16,11.33,16.22a71.8,71.8,0,0,0,7.62,22.12,43.14,43.14,0,0,1,4.82,23.82c-.09,1.16-1.08,3.23-1.58,3.21-1.45-.06-3.35-.59-4.17-1.64-1.89-2.43-3.22-5.29-4.84-7.94-2.32-3.83-4.59-7.69-7.08-11.41-4.43-6.64-7.5-13.75-8.17-21.79S1303.4,193.91,1300.34,186.3Z" fill="#2d2d2d"/>
    </g>
    <g opacity="0.6">
      <path d="M24.38,46.41c9.52,19.16,13.37,38.76,14.49,58.76,1.57-.25,2.87-.5,4.2-.65,2-.21,3.82.11,5.09,2.28a3.64,3.64,0,0,1-1,5.1c-1.57,1.22-3.38,2.16-5.23,3.32,2.41,2.68,4.76,5.24,7.08,7.84a55.2,55.2,0,0,1,12.37,22.15c1.16,4.2,1.4,8.21-.29,11.89a3.57,3.57,0,0,0,.28,2.46c1.28,3.07,2.87,6.06,4,9.16,1.78,4.86,1.07,7.09-2.95,9.29-2.37,1.31-3.25,3.44-3.62,6.05-1.19,8.42-4.79,15.21-11.13,20.28-7,5.58-15.67,3.25-20.83-5.82-1.31-2.31-2.34-4.74-3.58-7.27l-3.12.64c-7.26,1.52-12.73-1.76-15.68-9.39a32.34,32.34,0,0,1-1.85-16.79c.12-.82.24-1.64.4-2.67-.78,0-1.33-.06-1.87,0-6,.32-11.3-2.61-14.85-8.24-5.57-8.85-5.27-17.76.62-24.35A35.27,35.27,0,0,1,4.81,119.77c4.58-1.19,9.21-2.3,13.72-3.64a41.55,41.55,0,0,0,5.55-2.61c-2.51-2.5-4.71-4.65-6.84-6.87a6.37,6.37,0,0,1-1.73-2.49c-.28-1.17-.44-2.76.15-3.45s2.22-.84,3.29-.5a66.13,66.13,0,0,1,6.8,2.94c2.7-7.28-6.44-42.87-12.94-48.38-2,5.7-4.56,11-4.67,17.44-.08,4.85,0,9.75-.32,14.54A29.55,29.55,0,0,1,6,95.07a4.46,4.46,0,0,1-3.37,2.38C.79,97.67-.23,95.81-1,94.22-4.94,86.08-9,78-12.77,69.78-18.2,58-18.68,46.9-14,36.49-11.21,30.34-8.51,24.13-5.74,18c1.31-2.91,2.25-3.35,5.75-2.53A48.34,48.34,0,0,0,28.5,14a48.54,48.54,0,0,1,21.22-2.68c10.65.91,21.28,1.44,32,2.8,6.88.88,13.82,2.85,20.72,4.55a20.66,20.66,0,0,1,5.66,2.7c5,3.08,6.06,7.64,2.77,11.36-5.76,6.5-13.4,10.05-22.48,11.11-3.36.39-5.83,1.22-7.17,4.64C80.36,50.55,78,52.13,75.78,53c-8,3.31-16.36,3.05-25-3-2.82-2-5.77-3.71-8.66-5.56l-.47.44a11.17,11.17,0,0,0,1.25,1.88c8.31,8.4,16.52,16.89,25,25.09A52.16,52.16,0,0,0,84.07,82c.11-1,.2-1.87.32-2.75.24-1.82,1.27-2.34,3.07-1.36,2.89,1.58,5.81,3.12,8.61,4.88,1.71,1.08,2.51.8,3.17-.69a44.94,44.94,0,0,1,9.31-14.36,40.38,40.38,0,0,1,19.88-10.69,27.13,27.13,0,0,1,21.25,3.68,10.61,10.61,0,0,1,1,.67c3.62,2.84,3.59,3.86.56,6.29A78.86,78.86,0,0,0,145,73.79l.56.74,6.6-.36a48.86,48.86,0,0,1,33,9.64c10.52,7.75,13.46,18.58,7.64,28.13-3.38,5.54-8.6,8.54-15.21,9.59-3.48.55-7,.91-10.94,1.41,2.13,2.71,4.07,5.17,6,7.65.78,1,1.57,2,2.26,3.06,1.89,2.89,1.46,4.29-1.6,4.8a28.11,28.11,0,0,1-17.37-2.69c-3.22-1.58-3.54-2.16-4.79,1.19-1.1,3-3.22,3.1-5.73.23-7.32-8.39-16.53-13.83-25.73-19.34a13.08,13.08,0,0,0-1.64-.66c1,3.48,1.86,6.7,3,9.85.34.93,1.54,1.73,2.43,2.48,4.28,3.65,8.69,7.16,12.85,11a18.14,18.14,0,0,1,3.41,5.07c1.45,2.77.74,4.43-2,5a21.62,21.62,0,0,1-11.1-.77c-14.89-4.87-24.78-15-30.28-29.55-1.67-4.38-2.78-8.89-4-13.36a2.72,2.72,0,0,0-2.26-2.2,51.59,51.59,0,0,1-7-2.31C79.86,100.9,79,99.23,80,96.24c.65-2,.09-2.83-2.06-3.76C67.4,87.93,58.53,80.77,50.55,72.33,43.54,64.91,36.63,57.4,29.6,50a54.9,54.9,0,0,0-4.62-4ZM-11.69,148.17c1.06,2,1.93,4.55,3.57,6.53,3.26,4,7.26,4,11.26,3.06,1.82-.43,3.8-1.79,5.68.43,1.69,2,.41,3.75-.3,5.43-2.37,5.59-2,11.62.39,17.91,2.33,6,8,8,12.15,4.16a36.7,36.7,0,0,0,3.65-4.53c.75-.94,1.54-1.77,3.06-.77a2.46,2.46,0,0,1,1.09,3.32c-2.59,5.77.05,11,4.35,16,2.55,3,5.57,4,8.31,2.1a40.19,40.19,0,0,0,8.06-7.16c3.08-3.68,3.87-8.68,4.69-13.57.54-3.18,1.9-5.69,4.79-7.18a3.49,3.49,0,0,0,1.88-2.65c-.12-4.31-2.44-8-5.93-11.65-.66,3-1.14,5.63-1.82,8.16-2.42,9.08-10.6,11.74-19.78,6.44-8.89-5.14-14.85-12.29-17-22.09-1-4.7-2.12-9.4-3.13-13.87Zm40-117c1.08.73,1.58,1.08,2.09,1.4,7.46,4.56,15,9,22.36,13.69,8,5,15.33,5.46,22,1.06a8,8,0,0,0,3-3.82,5.12,5.12,0,0,1,4.37-3.73c2.1-.31,4.23-.53,6.32-.89,6.65-1.14,12.54-3.65,17.07-8.24A5.33,5.33,0,0,0,107,26.44c-.34-2-2.56-2.56-4.33-3-2.57-.62-5.16-1.13-7.73-1.66C78.75,18.46,64,20.14,50.75,27a36.9,36.9,0,0,1-18.69,4.13C31,31,30,31.14,28.28,31.19ZM155.16,79.05l-.18.67c.71.4,1.42.79,2.12,1.2,3.64,2.17,7.29,4.33,10.92,6.51,1.67,1,3.26,2.19,5,3.06,2.56,1.31,3,2.25,1.82,4.52-2,3.92-5.34,6.48-9.18,8.5-7,3.67-14.85,5-23.12,5.39-1.68.07-3.35.21-5.29.33a12.57,12.57,0,0,0,.91,1.12,52.5,52.5,0,0,1,12.11,15.74,6,6,0,0,0,1.66,2c4.78,3.58,9.87,5.85,15.44,5.81.66,0,1.3-.13,2.61-.26-3-3-5.28-5.89-8.08-7.94a137,137,0,0,0-12.28-7.45c-1.79-1-3-2.28-3.14-4.23,1.45-1.11,3-.95,4.74,0,2.06,1.14,4.14,2.24,6.25,3.23a6,6,0,0,0,2.78.75c5.85-.46,11.72-.88,17.49-1.64a14.27,14.27,0,0,0,10.89-7.42c4-6.84,2.67-14.32-3.56-19.62a43.5,43.5,0,0,0-12.9-7.69A40.24,40.24,0,0,0,155.16,79.05Zm-123,30.19c2-1.2,1.83-3,1.8-4.71-.14-10.55-2-21.14-4.66-31.76C26.92,63.23,23.84,53.91,18,45.28c-1.9-2.81-3.57-5.76-5.33-8.64-.94-1.53-1.11-3.18.2-3.87.65-.33,2.25.63,3.33,1.21s1.72,1.39,2.63,2A122.45,122.45,0,0,1,40.66,54.74c7.59,8.16,14.46,17,23.23,24.07,5.7,4.59,11.73,8.37,18.5,10.48,1.53.48,3,.89,4.43-.65-1.13-.62-2-1.17-2.95-1.6A94.21,94.21,0,0,1,53,64.05c-7-7.79-14.07-15.42-22.23-22-7.4-6-15-11.49-23.81-14.6-.89-.31-1.8-.55-2.7-.82l-.49.45C6.44,32,9,37,11.7,41.92c3.55,6.62,7.91,13,10.55,19.88,5.48,14.16,9,28.58,9.2,43.06A33.41,33.41,0,0,0,32.14,109.24ZM146.42,64.37c-13.38-8.28-34.15,2.31-38.87,14.41,1.23-.2,2.26-.28,3.23-.53a89.93,89.93,0,0,1,23.11-3.12,6.73,6.73,0,0,0,4.57-1.52C141.28,70.8,143.71,67.58,146.42,64.37ZM-1.31,26.57l-.59.08C-3.34,37.88.92,48.94,5,60.68a13.35,13.35,0,0,0,1.48-3C7.1,53.79,7.63,49.87,8.16,46a2.38,2.38,0,0,0-.28-1.3Q3.31,35.62-1.31,26.57Zm100,78c1.41,6.07,9.06,15.09,15.4,18.17C114.28,116,106.71,108.62,98.68,104.57Z" fill="#2d2d2d"/>
    </g>
    <g opacity="0.6">
      <path d="M1286.25,654.41a10.69,10.69,0,0,0,.93-.8c10.46-12.83,8.85-29.26-5.59-38.29a114.45,114.45,0,0,0-11.32-5.75,33.18,33.18,0,0,1-12.23-9.43,27.05,27.05,0,0,1-3.41-6.42c-.83-2-.27-3.4,1.57-4.63,8-5.36,16.89-5.71,24.49,1.62a46.59,46.59,0,0,1,4.24,4.85,53.15,53.15,0,0,0,7.76,8.61c4.3,3.61,6.23,8.64,7.08,14.09.28,1.76.36,3.56.57,5.33a3,3,0,0,0,.63,1.54,83.06,83.06,0,0,0,1.9-27.64,58,58,0,0,0-9.31-26.23,17.92,17.92,0,0,1-1.09,2.16,13.52,13.52,0,0,1-2.38,3,2.88,2.88,0,0,1-2.59.44,3.64,3.64,0,0,1-1.3-2.48,28.57,28.57,0,0,1,.13-4.59c-2,.53-4,.67-5.55,1.54-5,2.79-9.88,5.77-14.7,8.83-3.85,2.45-7.71,5-12.37,5.26a24.39,24.39,0,0,1-8.26-.81c-3.94-1.15-4.59-4.52-1.68-7.45,1.59-1.6,3.48-2.91,5.13-4.46,1.1-1,2-2.26,3.17-3.57-2.69-.22-5-.38-7.24-.6a22.16,22.16,0,0,1-2.82-.49c-6.63-1.59-9.37-7-6.44-13.12.91-1.91.63-2.86-.94-4.1-2.57-2-4.4-4.6-4.15-8.1.29-4.19,2.84-6.92,7.43-8a24.31,24.31,0,0,1,3.34-.65c1.49-.14,1.68-.86,1.41-2.18-.82-4.11-1.33-8.28-.26-12.42a29.68,29.68,0,0,1,2-5.72c4.51-9.13,14.26-11.54,22.59-5.66,1.11.79,2.19,1.64,3.44,2.57,3.28-4.67,7.39-7.56,13.34-6.55s8.59,5.35,11,10.52c.42-.74.73-1.21,1-1.72,1.2-2.6,2.36-5.22,3.57-7.82.67-1.42,1.6-2.53,3.37-2.48s2.65,1.1,3.3,2.58c3.51,7.9,5.31,16,2.39,24.48a3.31,3.31,0,0,0-.14.89,4.08,4.08,0,0,0,.2.81l2.74-.5c3.45-.6,6.82-.54,9,2.68a10.37,10.37,0,0,1,.75,10.88,11.39,11.39,0,0,1-2.3,3.17c-4.62,4.5-9.41,8.81-15.05,12-.5.29-1,.64-1.59,1.06.64.82,1.2,1.5,1.7,2.22,1.13,1.64.85,2.94-1,3.76-1.45.66-3,1.07-4.81,1.69,11.85,19.59,14.07,40.35,7.95,62.62,1-.58,1.54-.87,2.07-1.19,4-2.38,7.85-5,12-7.09,7.09-3.55,14-1.47,18.37,5.19,1.34,2,2.46,4.23,3.79,6.27,1.84,2.82,4,4.88,7.87,3.64a1.5,1.5,0,0,1,1.82,2.16,6.72,6.72,0,0,1-2.64,2.91,14.62,14.62,0,0,1-9.39,1.4c-4.41-.78-8.84-1.41-13.21-2.33a26.29,26.29,0,0,0-24.23,6.55c-3.07,2.78-6.24,5.77-8.32,9.29-7.33,12.38-17.5,21.63-29.89,28.66A38.37,38.37,0,0,0,1260,689a11.37,11.37,0,0,1-7.25,2.05,22,22,0,0,1-10.87-2.45c-.91-.51-2-1.72-2-2.56a3.69,3.69,0,0,1,2.18-2.44c2.84-1.06,5.84-1.67,8.71-2.65a82,82,0,0,0,22.87-12.4c4.57-3.45,5.81-9.05,3.21-15.08a115,115,0,0,0-6.23-11.83c-1.67-2.91-3.65-5.65-3.9-9.11a13.37,13.37,0,0,1,.29-4.24c1.27-4.79,5.93-6.6,10.15-4a15.78,15.78,0,0,1,6.62,9,51.53,51.53,0,0,1,2.45,19.06C1286.22,653,1286.25,653.6,1286.25,654.41Zm-13.19-136.18a44.11,44.11,0,0,1-4.2-2.74c-1.51-1.25-2.75-2.84-4.28-4.06-5-4-11.2-3.34-15,1.61a17.75,17.75,0,0,0-3.67,10.29c-.36,7.94,2.86,14.74,6.92,21.24a8.2,8.2,0,0,0,1.57,1.36c0-3.38-.22-6.36-.1-9.33.24-5.69,3.23-7.77,8.68-6.14a12.41,12.41,0,0,0,8.22-.26c4.71-1.76,9.35-1.76,13.69,1.19a3.07,3.07,0,0,0,.77.21c2.13-3.91,4.25-7.78,6.32-11.67a1.45,1.45,0,0,0,0-1.17,64.83,64.83,0,0,0-4.12-7.89c-2.07-3-5.24-3.47-8.65-2.5-3,.87-4.58,3-5.06,6A36.15,36.15,0,0,1,1273.06,518.23Zm12.57,44.13c3.36-.58,3.47-.74,2.18-3.8a44.71,44.71,0,0,1-3.94-19.45,5.6,5.6,0,0,0-5.66-6.06,12.8,12.8,0,0,0-4.56.61c-4.12,1.4-8.22,2-12.43.57-1.52-.52-2.16.1-2.5,1.53a20.66,20.66,0,0,0,1.11,13.12C1263.74,558.26,1275.14,564.18,1285.63,562.36Zm55.17,78,.43-.47c-2.74-4.06-5.26-8.3-8.3-12.12-2.22-2.8-5.58-3.37-9-2.3-9.09,2.84-15.87,8.72-21.26,16.39-.07.1,0,.3,0,.5a6.07,6.07,0,0,0,1.27-.25,19,19,0,0,0,1.9-1,26.81,26.81,0,0,1,17.38-3.54c4.36.58,8.7,1.4,13,2.1C1337.79,639.92,1339.29,640.13,1340.8,640.36Zm-63.23-72.44,0-.67c-2.78-.56-5.55-1.23-8.35-1.64a10.58,10.58,0,0,0-8.8,2.6c-4.42,3.82-8.91,7.56-13.36,11.35a12.63,12.63,0,0,0-1,1.23c2.35.32,4.37,1,6.25.74a21.85,21.85,0,0,0,7.73-2.39C1266,575.62,1271.72,571.69,1277.57,567.92Zm-12.44,32.83-.17.41a7.18,7.18,0,0,0,1.26,1.21c3.32,1.87,6.56,3.89,10,5.47,7.61,3.48,14.19,8.07,18.36,15.58a8.16,8.16,0,0,0,1.39,1.37,20.84,20.84,0,0,0-1.09-9.86c-2.28-6.63-6.38-11-13.72-11.87-4.44-.5-8.84-1.29-13.26-1.95ZM1282,652.28c1.21-6.41-.48-16-3.64-21.11a6.75,6.75,0,0,0-2.23-2.49c-1.12-.6-2.74-1.2-3.75-.8a3.17,3.17,0,0,0-1.5,4,32.08,32.08,0,0,0,2.48,6.46c2.36,4.21,5,8.27,7.51,12.38C1281.1,651.17,1281.44,651.57,1282,652.28ZM1260.25,592c3.28,4.84,16.15,8.37,21.3,5.92C1276.79,589.67,1266.86,586.38,1260.25,592Zm15.37,81.17-.41-.59c-7.74,5.27-15.71,10.08-24.73,12.77a2.41,2.41,0,0,0-.76.47,10.8,10.8,0,0,0-.83.77c2.84.55,5.41,1.18,7.92-.44,5.3-3.43,10.65-6.78,15.92-10.25A23.21,23.21,0,0,0,1275.62,673.15Z" fill="#2d2d2d"/>
    </g>
    <g opacity="0.53">
      <path d="M1212.65,63.18a9.88,9.88,0,0,0-1.41.24c-6.53,2.13-13,1.64-19.44-.38-3.18-1-6.46-1.68-9.71-2.44-2.79-.66-5.49,0-8.18.71-1.11.3-2.57,1-3.11-.35a3.61,3.61,0,0,1,1-3c4.88-4.55,10.41-7.87,17.23-8.64a26.7,26.7,0,0,1,12.77,2.07,78.87,78.87,0,0,0,8.85,3.13,10.47,10.47,0,0,0,10.45-2.8,23.79,23.79,0,0,0,3.43-4.18c-1.07.06-2.15.09-3.23.17-4.73.38-9.27-.18-13.17-3.14-2.57-2-2.45-4.15.13-6.17,3.23-2.51,7-3.1,10.88-2.66,3,.33,6,.9,9,1.38a2.26,2.26,0,0,0,2.69-1.49c3.63-9,6.82-18.19,6.1-28.11-.24-3.29-1.39-6.51-2.1-9.76-.22-1-1.3-2.33.21-2.91,1.28-.49,2.07.77,2.6,1.85A26.2,26.2,0,0,1,1240,7.17c.54,11.42-3,21.91-7.48,32.18-.7,1.6-1.51,3.17-2.34,4.72a13.49,13.49,0,0,0-.54,12,89,89,0,0,1,3.71,10.17,37.7,37.7,0,0,1,.88,7.89c.09,2-.77,2.67-2.77,2.53a9.36,9.36,0,0,1-8.09-5.68c-.93-1.9-1.54-4-2.29-5.94-.26-.69-.51-1.39-.78-2.13-1,1.22-1.63,4.54-1.29,7a26,26,0,0,1-2.29,14.15A37.43,37.43,0,0,1,1196.94,104a2.46,2.46,0,0,1-1,.37c-.71-.06-1.67-.06-2-.5a2.47,2.47,0,0,1,.06-2,7.91,7.91,0,0,1,1.55-2.4,41.6,41.6,0,0,0,8.87-14.84c1.33-3.69,2.69-7.37,4-11.06l-.3-.35a13.34,13.34,0,0,0-2.19,1.24c-2.73,2.3-5.35,4.74-8.1,7a51.19,51.19,0,0,1-17.06,8.83c-6,2-12,3.93-18.06,5.85a4.3,4.3,0,0,1-1.82,0c-1.23-.18-1.27-1-.77-1.85a5.61,5.61,0,0,1,.9-1.11c3.86-4,7.77-7.91,11.58-11.94,4.9-5.19,11-7.87,17.94-8.88,3.94-.57,7.89-1.13,11.79-1.93,4.07-.84,7.2-3.32,9.91-6.36A5,5,0,0,0,1212.65,63.18Z" fill="#2d2d2d"/>
    </g>
    <g opacity="0.53">
      <path d="M1223.41,647.45a13.05,13.05,0,0,0,.6-1.3c2-6.58,6-11.6,11.36-15.77,2.63-2.06,5.06-4.36,7.54-6.6,2.12-1.93,3.13-4.51,4.06-7.13.38-1.09.65-2.69,2.06-2.36a3.59,3.59,0,0,1,1.91,2.57c1,6.6.56,13-2.69,19.09a26.58,26.58,0,0,1-9,9.32,80,80,0,0,0-7.61,5.5A10.48,10.48,0,0,0,1228,661a23.58,23.58,0,0,0,1.49,5.2c.57-.92,1.15-1.82,1.7-2.75,2.38-4.11,5.42-7.53,10.07-9,3.07-1,4.81.34,5,3.61.23,4.09-1.41,7.49-4,10.47-2,2.28-4.14,4.41-6.23,6.59a2.26,2.26,0,0,0-.31,3.06c5.36,8.12,11.09,15.95,19.66,21,2.84,1.68,6.14,2.56,9.22,3.83.95.38,2.66.25,2.28,1.82-.33,1.33-1.81,1.26-3,1.09a26.29,26.29,0,0,1-10-4.06c-9.7-6-16.31-14.94-22.21-24.45-.93-1.49-1.75-3-2.56-4.6a13.46,13.46,0,0,0-9.55-7.27,86.73,86.73,0,0,1-10.48-2.74,36.88,36.88,0,0,1-7-3.76c-1.69-1.05-1.76-2.15-.5-3.72a9.36,9.36,0,0,1,9.26-3.42c2.09.32,4.14,1,6.2,1.5.71.17,1.43.36,2.19.56-.46-1.47-2.81-3.91-5-5a26.07,26.07,0,0,1-10.34-9.93,37.45,37.45,0,0,1-5.16-27.59,2.38,2.38,0,0,1,.29-1.06c.45-.55,1-1.34,1.56-1.39s1.27.65,1.63,1.2a7.94,7.94,0,0,1,1.09,2.64,41.76,41.76,0,0,0,7.17,15.73c2.28,3.2,4.53,6.41,6.8,9.61l.47,0a13.29,13.29,0,0,0,.21-2.51c-.34-3.55-.85-7.08-1.15-10.64a51.31,51.31,0,0,1,2.44-19.05c1.81-6.06,3.6-12.13,5.45-18.18a4.45,4.45,0,0,1,1-1.5c.85-.91,1.5-.5,2,.43a6.19,6.19,0,0,1,.4,1.37c1.08,5.44,2.08,10.89,3.24,16.31,1.48,7,.22,13.51-2.9,19.81-1.77,3.57-3.55,7.13-5.11,10.79-1.63,3.83-1.37,7.81-.41,11.77A4.09,4.09,0,0,0,1223.41,647.45Z" fill="#2d2d2d"/>
    </g>
    <g opacity="0.53">
      <path d="M1166.47,25.14c-2.72,1.41-5.48,2.75-8.16,4.22A45.23,45.23,0,0,1,1132.62,35,42.13,42.13,0,0,1,1117,31.2c-3.29-1.6-7-2.38-10.4-3.7a14.33,14.33,0,0,1-3-2.16c1-.71,2-1.78,3.09-2.06a35.91,35.91,0,0,1,13.89-.77c7.67,1.11,15.33,2.34,23,3.38a51.32,51.32,0,0,0,6.49,0c-.47-.57-.57-.8-.74-.88-6-2.83-12-5.69-18-8.43-1.42-.65-3.06-.77-4.51-1.36-.88-.35-2.16-1.07-2.23-1.74a2.67,2.67,0,0,1,2.15-2.9,23.16,23.16,0,0,1,14.19.53c4.58,1.63,9,3.62,13.62,5.26,8.47,3,16.67,2.09,24.56-2.07,1.83-1,3.64-2,5.46-3l0-.56a14.06,14.06,0,0,0-2.3-.35A50.72,50.72,0,0,1,1160.92,6a117.61,117.61,0,0,1-10.58-6.13,26.1,26.1,0,0,0-11.76-3.65c-.13,0-.29.07-.39,0l-2.84-1.49c.73-.85,1.3-2.13,2.21-2.47a30.33,30.33,0,0,1,13.14-1.72c7.76.62,14.84,3.29,21.71,6.73a60.32,60.32,0,0,0,21.16,5.9,20.27,20.27,0,0,0,12-2.34,26.62,26.62,0,0,0,2.35-1.6c-3.94-.95-7.68-1.69-11.31-2.75a50.26,50.26,0,0,1-19.62-11c-.87-.78-1.17-2.2-1.74-3.32,1.36-.05,2.88-.54,4-.09a101.87,101.87,0,0,0,33.62,7.08c9.4.23,18.82,0,28.21-.4,12.61-.51,24.77,1.34,36.08,7,6,3,11.65,6.88,17.45,10.36a2.44,2.44,0,0,1,.46.39c.67.71,1.69,1.52.68,2.46a2.75,2.75,0,0,1-2.38.11,15.23,15.23,0,0,1-3.18-2c-14.08-10.06-29.54-15.61-47-15-6.83.22-10.5,4.55-13.89,9.42-2.56,3.66-4.62,7.68-7.17,11.36a80.83,80.83,0,0,1-6.19,7.42c-.39.44-1.5.83-1.81.61a3,3,0,0,1-1.18-2,10.14,10.14,0,0,1,.77-3.25c1.41-4.1,2.86-8.18,4.53-13a31.28,31.28,0,0,0-3.32,2.07c-6.16,5.06-10.06,11.73-13.58,18.76a186.84,186.84,0,0,1-9.62,16.77,17.69,17.69,0,0,1-8.56,6.79,15.51,15.51,0,0,1-2.62.44,162.84,162.84,0,0,1,7.34-19.72c2.91-6.22,6.49-12.12,9.94-18.44-1,.38-1.89.7-2.75,1-6.38,2.56-10.55,7.61-14.17,13.07-4.5,6.82-8.7,13.84-12.9,20.85s-10.26,11.55-18.37,13.07c-.86.16-1.86-.45-2.8-.7a7.78,7.78,0,0,1,1.19-2.49c3.43-3.13,5.61-7.11,7.94-11,3.3-5.55,6.85-11,10.28-16.41.23-.37.4-.79.6-1.18Z" fill="#2d2d2d"/>
    </g>
    <g opacity="0.53">
      <path d="M997.19,21.46c-.28-.48-.52-1-.84-1.43C991.58,13.45,986.68,7,982.08.26c-3.25-4.74-6.31-9.55-10.87-13.2-.84-.67-1.15-2-1.7-3,1.16-.4,2.37-1.25,3.46-1.12,10.31,1.25,18.24,6.37,24.15,14.9S1008.81,14.76,1015,23c5,6.57,10.65,12.57,18.86,15.25,1.12.37,2.24.7,3.54,1.09-4.84-7.65-9.83-14.77-14-22.33A204.34,204.34,0,0,1,1012.6-7.21a19.69,19.69,0,0,1,3.33.35A22.14,22.14,0,0,1,1027.23,1a235.93,235.93,0,0,1,13.46,20.28c5,8.54,10.44,16.59,18.59,22.44a39.76,39.76,0,0,0,4.34,2.32c-2.49-5.86-4.65-10.86-6.75-15.9a12.82,12.82,0,0,1-1.23-4,3.69,3.69,0,0,1,1.31-2.65c.37-.31,1.8.1,2.32.62a98.22,98.22,0,0,1,8.39,8.81c3.5,4.41,6.42,9.28,9.93,13.68,4.66,5.83,9.63,11,18.22,10.68,22-.72,41-9,57.85-22.75a19.13,19.13,0,0,1,3.84-2.72c.85-.41,2.39-.56,3-.06,1.34,1.1.12,2.19-.66,3.15a3,3,0,0,1-.54.52c-7,4.85-13.73,10.17-21.07,14.44-13.74,8-28.85,11.34-44.73,11.74-11.83.3-23.68.75-35.46,1.81-14.53,1.32-28.35,5.6-41.64,11.65-1.43.66-3.38.18-5.09.22.61-1.45.87-3.26,1.9-4.31A63.24,63.24,0,0,1,1037,55.48c4.48-1.63,9.1-2.86,14-4.38a30.86,30.86,0,0,0-3.09-1.82,25.57,25.57,0,0,0-15.22-2,75.9,75.9,0,0,0-26.09,9.14c-8.34,4.89-17,8.82-26.7,10.24a38.18,38.18,0,0,1-16.65-1.08c-1.17-.35-2-1.92-3-2.92,1.14-.71,2.28-1.42,3.44-2.1.12-.08.33,0,.49,0a32.68,32.68,0,0,0,14.46-5.54c4.23-2.91,8.3-6.12,12.79-8.56a63.82,63.82,0,0,1,26.37-7.36,19.1,19.1,0,0,0,2.85-.62V37.8c-2.37-1.09-4.72-2.2-7.1-3.27-10.25-4.58-20.63-5.07-31-.58-5.61,2.43-11,5.3-16.66,7.72a29.13,29.13,0,0,1-17.78,1.83A3.37,3.37,0,0,1,945.11,40c0-.85,1.59-1.86,2.66-2.37,1.77-.86,3.83-1.15,5.55-2.08,7.37-3.94,14.66-8,22-12.07.21-.12.32-.41.87-1.16-3.11.2-5.69.08-8.15.58-9.56,1.94-19.08,4.11-28.63,6.13a45.21,45.21,0,0,1-17.5.18c-1.45-.26-2.71-1.53-4-2.34,1.2-1,2.25-2.33,3.62-3,4.2-1.94,8.76-3.22,12.75-5.5,6-3.46,12.57-5.07,19.27-6a57,57,0,0,1,32.72,5c3.5,1.63,7.06,3.09,10.6,4.63Z" fill="#2d2d2d"/>
    </g>
    <g opacity="0.53">
      <path d="M223.76,42.68c.25.5.46,1,.75,1.48,4.32,6.88,8.79,13.68,12.94,20.66,2.94,4.94,5.68,9.94,10,13.89.79.72,1,2.06,1.5,3.12-1.18.32-2.45,1.09-3.53.88-10.2-1.91-17.78-7.54-23.12-16.44S211.73,48.61,206.06,40c-4.55-6.88-9.81-13.24-17.83-16.45-1.09-.44-2.19-.84-3.46-1.32,4.33,8,8.84,15.38,12.51,23.2a205.93,205.93,0,0,1,9.23,24.82,19.61,19.61,0,0,1-3.3-.56,22.26,22.26,0,0,1-10.76-8.53,237.38,237.38,0,0,1-12.11-21.11c-4.44-8.85-9.34-17.24-17.09-23.61a39.81,39.81,0,0,0-4.18-2.6c2.1,6,3.93,11.14,5.7,16.3a13,13,0,0,1,1,4.09,3.69,3.69,0,0,1-1.48,2.55c-.4.29-1.79-.21-2.28-.76a100.12,100.12,0,0,1-7.79-9.34c-3.21-4.63-5.8-9.68-9-14.3C140.9,6.29,136.28.84,127.69.56c-22-.71-41.5,6.26-59.22,18.93a19.8,19.8,0,0,1-4,2.47c-.88.35-2.43.4-3-.14-1.26-1.18,0-2.2.86-3.1a2.22,2.22,0,0,1,.58-.48c7.3-4.39,14.36-9.26,22-13C99.11-1.9,114.4-4.24,130.27-3.6c11.82.48,23.68.8,35.5.51,14.59-.37,28.66-3.74,42.31-8.91,1.48-.56,3.39.05,5.1.11-.71,1.41-1.09,3.2-2.18,4.18A63.28,63.28,0,0,1,186.31,6.14C181.73,7.47,177,8.4,172.07,9.59a32,32,0,0,0,3,2,25.6,25.6,0,0,0,15.07,3,76,76,0,0,0,26.62-7.43C225.37,2.8,234.28-.55,244-1.34A38.18,38.18,0,0,1,260.58.82c1.15.43,1.86,2.05,2.78,3.12-1.19.62-2.38,1.26-3.57,1.86-.13.07-.33,0-.5,0a32.85,32.85,0,0,0-14.79,4.58c-4.41,2.63-8.68,5.57-13.31,7.72a63.91,63.91,0,0,1-26.8,5.61,20.39,20.39,0,0,0-2.89.44l0,.71c2.29,1.24,4.56,2.5,6.87,3.72,9.93,5.24,20.25,6.41,30.91,2.61,5.77-2.06,11.37-4.57,17.14-6.62a29.18,29.18,0,0,1,17.85-.67,3.36,3.36,0,0,1,2.71,3.65c-.09.84-1.7,1.75-2.81,2.19-1.82.74-3.89.9-5.67,1.71-7.61,3.45-15.16,7.05-22.71,10.61-.22.11-.35.4-.95,1.11,3.12,0,5.69.29,8.17,0,9.67-1.31,19.31-2.86,29-4.25a45.35,45.35,0,0,1,17.48,1c1.42.36,2.6,1.71,3.89,2.6-1.26.93-2.4,2.18-3.81,2.72-4.32,1.66-8.95,2.64-13.08,4.65-6.26,3.06-12.88,4.24-19.62,4.76a57,57,0,0,1-32.33-7.07c-3.38-1.85-6.85-3.54-10.27-5.31Z" fill="#2d2d2d"/>
    </g>
    <g opacity="0.53">
      <path d="M19.36,495.84c5.17-4.43,6.25-8.77,3.55-14.57C20,475,18,468.56,18.8,461.46a7,7,0,0,0-1.57-5.07c-6.72-6.83-5.78-14.85-4.14-23.1.75-3.75,1.13-7.58,2.08-11.27.35-1.33,1.88-2.35,2.87-3.51.82,1.33,2.23,2.6,2.36,4,.93,10.2,4,19.79,7.73,29.24,3.3,8.4,4.75,17,2.94,26a14.83,14.83,0,0,0,0,2.2c1.31-1.37,2.26-2.3,3.13-3.29,2.71-3.1,5.44-6.18,8-9.36a5.15,5.15,0,0,0,1.32-3.14c-.37-5.44-.83-10.9-1.59-16.3a10.32,10.32,0,0,0-2.39-5.65c-5.81-5.62-8-12.71-9-20.36A69.76,69.76,0,0,1,34,389.75,7.74,7.74,0,0,1,35.18,387a14.3,14.3,0,0,1,2.91-2c.48,1.18,1.4,2.37,1.37,3.53-.12,4.46-.75,8.91-.81,13.37a38.22,38.22,0,0,0,4.47,19.27c5.64,10.09,7.18,20.93,7.16,32.2,0,1,0,2.09,0,3.14l.79.21a29,29,0,0,0,2.5-4c3.66-8.82,7.66-17.54,10.69-26.59A55.82,55.82,0,0,1,81.2,401.14a5.5,5.5,0,0,1,2.56-1.33c2.16-.34,3.37,1.06,2.36,2.92-4.2,7.79-5.24,16.43-7,24.89-1.7,8-6.58,14.23-12.19,20.06-9.29,9.68-18.29,19.65-27.4,29.51a13.21,13.21,0,0,0-1,1.66c4.28-.11,7.74-1.06,10.27-4.23,1.53-1.93,2.77-4.11,4.45-5.9,2.36-2.5,4.68-5.29,7.59-7a44.12,44.12,0,0,0,15.28-15,20.58,20.58,0,0,1,2.26-3.41,11.3,11.3,0,0,1,2.79-1.63c.44,1.12,1.39,2.32,1.22,3.34a84,84,0,0,1-2.64,12c-4,12.26-11.22,22.14-22.48,28.6a25.8,25.8,0,0,1-9.81,2.83,80.72,80.72,0,0,1-12-.12c-4.19-.17-7.17,1.3-8.9,5.34-1.86,4.34-4.05,8.55-6,12.83a13.48,13.48,0,0,0-.58,2.51,11.23,11.23,0,0,0,1.37-.94,22,22,0,0,1,13.08-6.26,21.77,21.77,0,0,0,12.08-5.36A38.21,38.21,0,0,1,68,486.21c4.41-.58,8.74-1.75,13.14-2.46,2.08-.34,4.19.12,4.94,2.46s-.88,3.78-2.58,4.92c-2,1.33-4.08,2.42-6.08,3.7a47.28,47.28,0,0,0-13.34,12.45c-3.85,5.45-9,8.09-15.67,7.7-5.38-.32-10.78-.32-16.16-.63a11,11,0,0,0-9.69,4,39.71,39.71,0,0,1-5.15,5.3c-4.83,3.91-4.71,9.51-5.83,15.63,2.52-1.53,4.53-2.53,6.3-3.84a25.25,25.25,0,0,1,16.65-5.13,26.42,26.42,0,0,0,16.25-4.84c7.67-5.22,16.23-5.63,25-5.08,3.21.21,4.73,2.91,3.55,5.94-1.41,3.61-4.19,5.78-7.71,7.3C65.32,536.33,59.05,539,53,542.09s-12.06,4.42-18.49,2.42c-7.34-2.27-14.61-1.48-21.93-.24-.58.1-1.47.89-1.5,1.42-.55,7.16-1.51,14.33-.27,21.95,4.32-2.94,8.53-5.51,12.41-8.49,5.8-4.45,12.12-5.95,19.44-5.74,7.71.21,15.46-.82,23.18-1.46,4.89-.4,9.7-.53,14.06,2.14,1.91,1.17,3.51,2.74,3.17,5.31-.32,2.38-2,3.58-4.06,4.38-7.56,2.93-15,6.17-22.7,8.66a24,24,0,0,1-18.39-1.77,21.28,21.28,0,0,0-19.22-.53A40.65,40.65,0,0,1,13,572.21c-1.79.49-2.56,1.36-2.31,3.29.55,4.23,1,8.49,1.49,13.39a30.7,30.7,0,0,0,4.15-2.75c8-7.62,17.54-10,28.29-8.6,2.61.34,5.3.13,7.9.55,4.45.71,8,3.31,11.54,5.94,4.38,3.25,9.07,6.08,13.53,9.21a13.38,13.38,0,0,1,2.32,2.9c-1,.71-2,1.82-3.14,2.06a40.6,40.6,0,0,1-25.13-2.45c-6-2.53-12.5-3.85-18.9-5.11-2.51-.49-5.39.48-8,1.08-3.78.84-7.5,1.95-11.74,3.08,1.23,7.4,2.55,15.32,3.86,23.24l.91.1c.78-1.39,1.65-2.74,2.33-4.18,3.51-7.46,9.61-12.1,17-15.08a13.23,13.23,0,0,1,6.94-.39,67.8,67.8,0,0,1,10.49,3c1,.35,2.32,1.58,2.38,2.48s-1.22,2.15-2.2,2.58c-7.09,3.1-14.19,6.21-21.43,9-5.39,2-9.35,6-13.72,9.36a1.84,1.84,0,0,0-.4,1.63c1.51,4.67,3.11,9.31,5,14.83,2.11-2,4.1-3.44,5.45-5.31,2.5-3.48,4.57-7.26,6.91-10.86,6.83-10.49,16.7-16,29-16.32,7.54-.18,15.11.88,22.65,1.59,1.09.1,2.84,1.31,2.91,2.12a4.5,4.5,0,0,1-1.87,3.39c-6.38,4.06-13.63,5.26-21,6.5-10.57,1.8-20.41,5.37-27.87,13.8-3.8,4.31-8,8.34-14.47,9.48L33,661.36c1.72-3,3.16-5.57,4.59-8.12,1.53-2.7,2.86-5.53,4.6-8.07a27.1,27.1,0,0,1,13-10.08c9.7-3.72,19.4-7.44,29.17-11a5.5,5.5,0,0,1,4.45.31c1.7,1.28,1.18,3.51-.07,4.92a76.25,76.25,0,0,1-7.86,7.81c-4.09,3.45-8.65,6.36-12.63,9.92a26.59,26.59,0,0,1-12.84,6.36c-7.9,1.54-13.45,6.2-18.19,12.2a2.89,2.89,0,0,0,0,2.75c3,3.42,6.09,6.73,9.27,10,1.27,1.29,3,2.17,4.2,3.48,1.42,1.5.7,3.5-1.33,3.51-1.7,0-4-.24-5-1.32a99.6,99.6,0,0,1-10.23-11.68c-2.2-3-4.27-5.08-8.29-4.19s-8.34,1.65-12.53,2.31c-2.42.39-5,1.1-7.29.58-6.27-1.46-12.26-.56-18.39.72-8.66,1.81-16.58-1.23-24.35-4.52-1.93-.82-1.95-2.51-.08-3.49,1.32-.69,3-.72,4.42-1.19,4.23-1.36,8.81-2.14,12.55-4.35,6.12-3.6,12.23-5.23,19.3-4,5.19.9,10.58.75,15.74,1.78,3.86.77,7.48,2.67,12.13,4.41-1.46-2.54-2.17-5-3.79-6.36-4.72-4-9.76-7.09-16.65-5.62-4.73,1-9.37-.83-13.77-2.72a44.71,44.71,0,0,0-19.39-4.06,61,61,0,0,0-9.21,1.21,21.23,21.23,0,0,1-13.12-1.29c-3.65-1.67-7.26-3.42-10.88-5.16-.56-.28-1.28-.58-1.54-1.07-.52-1-1.28-2.28-1-3.05s1.9-1.28,2.87-1.21c3.63.26,7.23,1.08,10.85,1.17A19.37,19.37,0,0,0-40.51,631c15.74-6.7,30.43-3.23,44.56,4.53,5.09,2.8,9.63,6.58,14.44,9.89a4.65,4.65,0,0,0,2.82.9c-1.51-4.14-3-8.3-4.58-12.41-.19-.5-.92-.82-1.45-1.13-4.56-2.67-9-5.31-14.32-6.63-2.45-.62-4.77-2.66-6.61-4.58-3.22-3.35-6.79-4.51-11.13-3-7.72,2.77-15.51,2.22-23.16.08a23.87,23.87,0,0,1-8.27-4.57,45,45,0,0,0-13.25-8c-1-.36-1.65-1.77-2.47-2.69,1-.76,1.9-2,3-2.21,7.35-1.5,14.41-1.32,21.64,1.81,4.69,2,10.27,2.16,15.5,2.68s10.77.36,16.14.72c4,.28,7,2.52,9.1,5.85,1.67,2.62,3.23,5.3,4.87,7.93a19.78,19.78,0,0,0,8.25,7.06c-1.61-8.08-3.11-15.75-4.73-23.4a3.42,3.42,0,0,0-1.71-2.13c-3.2-1.31-6.49-2.38-9.74-3.55-3.6-1.28-7.27-2.4-10.77-3.91a14.3,14.3,0,0,0-11.13-.58c-7.18,2.66-14.4,2-21.45-.49-8.1-2.79-16.22-5.58-24.12-8.87-4-1.66-7.53-4.38-11.22-6.72A5.59,5.59,0,0,1-82,575.53c-1.12-2.06-.4-3.2,1.94-2.93a30.27,30.27,0,0,1,5.89,1.17c7.5,2.43,15,2.33,22.71,1A26.69,26.69,0,0,1-41.2,575c8.44,1.89,16.76,4.35,25.14,6.51,5,1.29,9,4.24,12.93,7.43,3.77,3.07,7.7,5.93,11.56,8.88l.53-.57c-.69-5.7-1.34-11.4-2.15-17.08a2.67,2.67,0,0,0-1.69-1.58c-1.74-.51-3.57-.73-5.35-1.1a21.35,21.35,0,0,1-11.39-6.13,13.63,13.63,0,0,0-9.77-4.3,27.17,27.17,0,0,1-13.52-3.86,11.33,11.33,0,0,0-11.22-.58c-7.14,3.25-14.76,2.94-22.34,2.74-1.88-.05-2.37-1.28-1.82-2.84a7.08,7.08,0,0,1,1.67-2.45c2.62-2.68,5.3-5.3,8-7.92a17,17,0,0,1,15.82-4.78c4.84.88,9.79,1.25,14.57,2.34,11.61,2.65,22.24,7,29.39,17.39,1.68,2.43,4.06,4.38,6.7,7.17a32.77,32.77,0,0,0,.41-3.54c0-4.66-.17-9.32-.2-14a4.56,4.56,0,0,0-3.28-4.8c-2.41-.83-4.89-1.51-7.2-2.57a70.87,70.87,0,0,1-8.91-4.72c-4.15-2.67-8.45-4.58-13.49-4.7a30.34,30.34,0,0,1-18.91-7c-5.83-4.81-11.34-10-17-15.05-1.56-1.4-3.23-2.71-4.64-4.25a13.73,13.73,0,0,1-1.7-3.17c1.29-.41,2.67-1.36,3.86-1.16a61.76,61.76,0,0,1,25.36,10.35,25.18,25.18,0,0,0,14.6,4.7,11.88,11.88,0,0,1,5.74,1.48C-13.57,529.39-7.67,533-2,537c3,2.13,5.49,5.05,8.38,7.77.68-3.74,1.38-7.61,2.1-11.48.51-2.77,1-5.56,1.6-8.32s-.05-4.89-2.87-6c-1.78-.67-3.57-1.64-5.4-1.78-6.57-.53-11.66-3.66-16.32-8.07a31.2,31.2,0,0,0-8.18-5.71c-11.18-5.13-19-13.6-25.23-23.92-1.53-2.56-3.47-4.87-5.14-7.35-.4-.6-.86-1.82-.61-2.08A3.39,3.39,0,0,1-51.22,469,15.84,15.84,0,0,1-47,470.9a11,11,0,0,1,2.58,2c8.34,9,18.76,14.34,30.37,17.68A29.25,29.25,0,0,1,4.59,505.55c1.87,3.52,4.95,6.4,7.88,10.05,1.19-3.18,2.12-5.45,2.89-7.77,1.73-5.25-.12-9.38-5.28-11.45-6.92-2.77-11-8.06-12.94-15a71.86,71.86,0,0,0-9.86-21.21A43.24,43.24,0,0,1-20,437c0-1.17.74-3.33,1.25-3.36,1.44-.08,3.39.25,4.31,1.21,2.13,2.22,3.75,4.92,5.63,7.4,2.71,3.56,5.36,7.17,8.22,10.61C4.53,459,8.32,465.78,9.81,473.7S15.53,488.58,19.36,495.84Z" fill="#2d2d2d"/>
    </g>
    <g opacity="0.53">
      <path d="M115.19,616.86a9.88,9.88,0,0,0,1.41-.24c6.53-2.13,13-1.64,19.43.38,3.19,1,6.47,1.68,9.72,2.44,2.79.66,5.49,0,8.18-.71,1.11-.3,2.57-1,3.1.35a3.58,3.58,0,0,1-1,3c-4.87,4.55-10.4,7.87-17.23,8.64A26.68,26.68,0,0,1,126,628.69a78.87,78.87,0,0,0-8.85-3.13,10.47,10.47,0,0,0-10.45,2.8,23.83,23.83,0,0,0-3.44,4.18c1.08-.06,2.16-.09,3.24-.17,4.73-.38,9.27.18,13.16,3.14,2.58,2,2.46,4.15-.13,6.17-3.22,2.51-7,3.1-10.87,2.66-3-.33-6-.9-9-1.38A2.26,2.26,0,0,0,97,644.45c-3.64,9-6.82,18.19-6.11,28.11.24,3.29,1.39,6.51,2.11,9.76.22,1,1.3,2.33-.22,2.91-1.27.49-2.06-.77-2.59-1.85a26.2,26.2,0,0,1-2.33-10.51c-.55-11.42,3-21.91,7.47-32.18.7-1.6,1.52-3.17,2.34-4.72a13.43,13.43,0,0,0,.54-12,89,89,0,0,1-3.7-10.17,37.7,37.7,0,0,1-.88-7.89c-.1-2,.77-2.67,2.77-2.53a9.33,9.33,0,0,1,8.08,5.68c.93,1.9,1.55,4,2.3,5.94.26.69.51,1.39.78,2.13,1-1.22,1.62-4.54,1.29-7A26.12,26.12,0,0,1,111.14,596,37.45,37.45,0,0,1,130.9,576a2.47,2.47,0,0,1,1-.37c.71.06,1.67.06,2,.5a2.43,2.43,0,0,1-.07,2,7.73,7.73,0,0,1-1.55,2.4,41.57,41.57,0,0,0-8.86,14.84c-1.34,3.69-2.7,7.37-4,11.06l.31.35a13.34,13.34,0,0,0,2.19-1.24c2.73-2.3,5.34-4.74,8.1-7a51.19,51.19,0,0,1,17.06-8.83c6-2,12-3.93,18-5.85a4.34,4.34,0,0,1,1.83,0c1.23.18,1.27,1,.77,1.85a5.33,5.33,0,0,1-.91,1.11c-3.85,4-7.77,7.91-11.57,11.94-4.9,5.19-11,7.87-17.95,8.88-3.94.57-7.88,1.13-11.78,1.93-4.07.84-7.2,3.32-9.92,6.36A5.16,5.16,0,0,0,115.19,616.86Z" fill="#2d2d2d"/>
    </g>
    <g opacity="0.53">
      <path d="M161.37,654.9c2.72-1.41,5.47-2.75,8.16-4.22a45.23,45.23,0,0,1,25.69-5.62,42.13,42.13,0,0,1,15.59,3.78c3.29,1.6,7,2.38,10.4,3.7a14.33,14.33,0,0,1,3,2.16c-1,.71-2,1.78-3.09,2.06a35.91,35.91,0,0,1-13.89.77c-7.68-1.11-15.33-2.34-23-3.38a51.28,51.28,0,0,0-6.49,0c.48.57.58.8.75.88,6,2.83,12,5.69,18,8.43,1.41.65,3.06.77,4.51,1.36.87.35,2.16,1.07,2.23,1.74a2.68,2.68,0,0,1-2.15,2.9,23.16,23.16,0,0,1-14.19-.53c-4.59-1.63-9-3.62-13.62-5.26-8.47-3-16.67-2.09-24.56,2.07-1.83,1-3.64,2-5.46,3l0,.56a14.06,14.06,0,0,0,2.3.35A50.72,50.72,0,0,1,166.92,674a119,119,0,0,1,10.58,6.13,26.06,26.06,0,0,0,11.76,3.65c.13,0,.28-.07.39,0,.95.49,1.89,1,2.83,1.49-.72.85-1.29,2.13-2.2,2.47a30.37,30.37,0,0,1-13.15,1.72c-7.75-.62-14.83-3.29-21.7-6.73a60.37,60.37,0,0,0-21.16-5.9,20.26,20.26,0,0,0-12,2.34,28.25,28.25,0,0,0-2.36,1.6c4,1,7.68,1.69,11.32,2.75a50.33,50.33,0,0,1,19.62,11c.87.78,1.17,2.2,1.73,3.32-1.35,0-2.88.54-4.05.09a101.87,101.87,0,0,0-33.62-7.08c-9.39-.23-18.81,0-28.21.4-12.61.51-24.76-1.34-36.07-7-6-3-11.65-6.88-17.46-10.36a2.38,2.38,0,0,1-.45-.39c-.67-.71-1.69-1.52-.69-2.46a2.77,2.77,0,0,1,2.39-.11,15.76,15.76,0,0,1,3.18,2C51.7,683,67.16,688.53,84.68,688c6.82-.22,10.5-4.55,13.89-9.42,2.56-3.66,4.62-7.68,7.17-11.36a79.26,79.26,0,0,1,6.19-7.42c.39-.44,1.5-.83,1.81-.6a3,3,0,0,1,1.18,2,10.43,10.43,0,0,1-.78,3.25c-1.4,4.1-2.85,8.18-4.52,13a31.28,31.28,0,0,0,3.32-2.07c6.16-5.06,10-11.73,13.58-18.76a186.84,186.84,0,0,1,9.62-16.77,17.66,17.66,0,0,1,8.55-6.79,15.67,15.67,0,0,1,2.63-.44A164.53,164.53,0,0,1,140,652.28c-2.91,6.22-6.5,12.12-9.94,18.44,1-.38,1.88-.7,2.75-1.05,6.37-2.56,10.55-7.61,14.16-13.07,4.51-6.82,8.7-13.84,12.9-20.85s10.27-11.55,18.37-13.07c.86-.16,1.87.45,2.81.7a8,8,0,0,1-1.19,2.49c-3.43,3.13-5.61,7.11-7.94,11-3.3,5.55-6.85,11-10.28,16.41a13.07,13.07,0,0,0-.6,1.18Z" fill="#2d2d2d"/>
    </g>
    <g opacity="0.53">
      <path d="M330.88,667.82c.25.49.46,1,.75,1.48C336,676.18,340.42,683,344.57,690c2.94,4.93,5.68,9.94,10,13.88.79.72,1,2.07,1.5,3.13-1.18.31-2.45,1.08-3.53.88-10.2-1.91-17.78-7.54-23.12-16.44s-10.56-17.67-16.23-26.24c-4.55-6.88-9.81-13.24-17.83-16.46-1.09-.43-2.19-.83-3.46-1.31,4.34,8,8.84,15.37,12.51,23.2a205.29,205.29,0,0,1,9.23,24.82,19.61,19.61,0,0,1-3.3-.56,22.22,22.22,0,0,1-10.76-8.54,237,237,0,0,1-12.11-21.11c-4.44-8.85-9.34-17.23-17.09-23.61a41.55,41.55,0,0,0-4.18-2.6c2.11,6,3.93,11.15,5.7,16.31a13,13,0,0,1,1,4.08,3.71,3.71,0,0,1-1.48,2.56c-.39.28-1.79-.21-2.28-.76a101.83,101.83,0,0,1-7.79-9.35c-3.21-4.63-5.8-9.68-9-14.29C248,631.43,243.4,626,234.81,625.7c-22.05-.72-41.5,6.26-59.22,18.93a19.75,19.75,0,0,1-4,2.46c-.88.35-2.43.4-3-.13-1.26-1.19,0-2.21.86-3.11a3,3,0,0,1,.58-.48c7.3-4.38,14.36-9.25,22-13,14.24-7.09,29.53-9.43,45.4-8.79,11.83.47,23.68.8,35.5.5,14.59-.36,28.66-3.73,42.32-8.91,1.47-.56,3.38,0,5.09.12-.71,1.41-1.08,3.19-2.18,4.17a63.16,63.16,0,0,1-24.69,13.85c-4.58,1.34-9.27,2.27-14.24,3.46a34.11,34.11,0,0,0,3,2,25.51,25.51,0,0,0,15.07,2.94,76,76,0,0,0,26.62-7.42c8.65-4.33,17.56-7.69,27.32-8.48A38.15,38.15,0,0,1,367.7,626c1.15.43,1.86,2,2.78,3.11-1.19.63-2.38,1.26-3.57,1.87-.13.07-.33,0-.49,0a32.86,32.86,0,0,0-14.8,4.59c-4.41,2.63-8.68,5.56-13.31,7.71a63.76,63.76,0,0,1-26.8,5.62,17.87,17.87,0,0,0-2.89.44l0,.7c2.29,1.24,4.57,2.51,6.87,3.73,9.93,5.23,20.25,6.41,30.91,2.6,5.77-2,11.37-4.56,17.14-6.61a29.1,29.1,0,0,1,17.85-.67,3.36,3.36,0,0,1,2.71,3.65c-.09.84-1.7,1.74-2.8,2.19-1.83.74-3.9.9-5.68,1.7-7.61,3.46-15.15,7.06-22.71,10.62-.22.1-.35.39-.94,1.11a64.26,64.26,0,0,0,8.16-.06c9.67-1.31,19.31-2.86,29-4.24a45,45,0,0,1,17.48,1c1.43.36,2.6,1.7,3.89,2.6-1.26.92-2.4,2.17-3.81,2.71-4.32,1.67-8.94,2.64-13.08,4.66-6.26,3.05-12.88,4.24-19.62,4.76a57.06,57.06,0,0,1-32.33-7.07c-3.38-1.85-6.85-3.55-10.27-5.31Z" fill="#2d2d2d"/>
    </g>
  </g>
</svg>
