<svg xmlns="http://www.w3.org/2000/svg" viewBox="0 0 685.34 1316.42">
  <g id="background">
    <rect x="-315.56" y="315.56" width="1316.79" height="685" transform="translate(1000.89 315.22) rotate(90)" fill="#e9d4c7"/>
  </g>
  <g id="shapes">
    <g id="Layer_3" data-name="Layer 3">
      <path d="M-202.17,376.51c-.32-28.68,1.94-57.09,9.72-84.83,10.9-38.85,31.84-71,64.91-94.49,15.5-11,33.14-16.5,52.42-17S-38.12,185-20,190.4c10.09,3,20.58,5.83,31,6.28a61.5,61.5,0,0,0,37.23-10.32c20.66-13.91,41-28.36,61.47-42.48,10.43-7.17,21.4-13.22,33.89-16.26,20.16-4.91,39.07-1.83,56.41,9.22,26.13,16.65,43.92,40,53.13,69.61,2.12,6.82,2.52,14.17,3.91,21.24,2.47,12.64,2.93,25.43,2.89,38.26,0,6.14.34,12.33-.26,18.43-.62,6.35-2.26,12.59-3.31,18.91-1.17,7-1.38,14.35-3.43,21.12-5.47,18.11-10.81,36.35-17.85,53.88-11.43,28.48-26.62,55.13-42.66,81.28a71.47,71.47,0,0,0-8,17.7c-2.1,7.46-.48,15.09,5.4,20.44,6.75,6.14,14.27,11.47,21.62,16.94,12.41,9.25,22.06,20.48,23.31,36.49a62.17,62.17,0,0,1-10.53,40.34c-24.94,36.94-58.24,62.17-102.42,71.37-19.75,4.12-39.84,4.79-60,3.23-12.87-1-25.79-1.38-38.68-2.08-30.64-1.66-59.64-9.38-88-21.2-25.48-10.63-46.2-27-65.15-46.37-22.62-23.12-36.85-51-47-81.35-9-27-16.54-54.37-20.82-82.47-2.81-18.51-3.72-37.31-5.49-56Z" fill="#e3c4bc" opacity="0.37"/>
    </g>
    <g id="Layer_4" data-name="Layer 4">
      <path d="M174.38,1030.77c0-20.6-.71-41.21.16-61.78,1.31-31.15,4.88-62.07,17.27-91.17,14.6-34.26,37.59-61,71.59-77.2,22.83-10.86,49.64-5.74,68.29,11.33,22.77,20.86,36.92,47.36,49.74,74.72A417.57,417.57,0,0,1,413.7,988.15c3.31,18,5.06,36.25,8.07,54.31,4.59,27.53,5.06,55.3,4.08,83-.65,18.72-2.56,37.36-4.17,56-2.67,30.84-9.51,60.58-21.6,89.21-12.37,29.24-28.91,55.75-51.4,78.2-30.18,30.08-66.8,48.58-108.07,58-35.16,8-71,10.45-106.83,8.52a302.28,302.28,0,0,1-112.22-28.39c-42.16-19.65-80.31-45.42-115.27-76-20.19-17.68-37.87-37.7-54.24-58.89-13.7-17.76-18.51-39.1-23.74-60.26-5.87-23.71-6.79-47.88-5.18-72s8.23-46.62,23.35-66.21c15.66-20.28,40.75-20.46,56.23.25,13.41,17.9,22.51,38.16,30.74,58.75s20.13,38.67,34.15,55.48c5.5,6.55,13.12,10.09,21.4,11.85,6.76,1.44,13.5-4.65,13.88-12.56.53-11-.19-21.86-3.93-32.46q-17.38-49.33-34.34-98.83c-8.15-23.78-13.3-48.29-13.31-73.42,0-26,3.82-51.34,18.72-73.79,15.94-24,41.85-30,67-15.91,19.83,11.15,32.53,27.9,40.93,48.64,18.25,45,36.82,90,55.22,135a92.67,92.67,0,0,0,19,29.37c7.55,7.87,13.77,6.61,16.74-4a133.19,133.19,0,0,0,4.31-24.83c.72-8.81.16-17.7.16-26.55Z" fill="#8fa0a7" opacity="0.33"/>
    </g>
    <g id="Layer_7" data-name="Layer 7">
      <path d="M479.26,79.54c0-20.59-.26-41.18.15-61.76.13-6.78,2-13.52,3-20.3,1.21-8.19,2.12-16.43,3.52-24.6,1.3-7.62,3.07-15.16,4.63-22.75.13-.64.13-1.31.26-2q2.67-11.94,5.26-23.88c1.18-5.34,2.34-10.7,3.64-16,.88-3.61,1.87-7.2,3-10.73,2.6-8.14,5.13-16.31,8-24.34,4.86-13.53,9.14-27.31,17.21-39.49,2-3,2.88-6.79,4.57-10.06a139.65,139.65,0,0,1,7.35-12.87c3-4.54,6.49-8.8,9.86-13.11,3-3.83,5.78-7.91,9.25-11.26,6.68-6.43,13.53-12.74,20.79-18.49a69.58,69.58,0,0,1,15.19-9.13c6.37-2.8,13.66-3.68,19.75-6.91,8.77-4.65,18.44-3.62,27.34-6,19.78-5.38,39.63-1,59.36-2.54,8.5,5.35,18.75,1.87,27.71,5.64,6.63,2.79,13.93,3.93,20.77,6.27,13.8,4.73,27.35,10.12,38.79,19.55,7.17,5.91,13.81,12.5,21.23,18.06,8.37,6.26,11.58,16.39,19,23.47,3.4,3.26,4.17,9.24,6.2,14,1.09,2.55,2.34,5,3.48,7.55,4.94,10.92,6.55,22.74,9.67,34.12,3.94,14.4,1.58,28.45,2.29,42.61C851.25-71,852-56.24,850-42c-1,6.94.66,14.87-4.14,21.51-1.54,2.14-.4,6.11-.81,9.19-.77,5.77-1.48,11.57-2.78,17.23-1.45,6.31-3.55,12.47-5.32,18.71a13,13,0,0,0-.36,2.92,31.3,31.3,0,0,1-2.48,12.14c-3,6.61-3.77,14.2-5.7,21.31-1.63,6-3.69,11.82-5.34,17.79-1.31,4.74-2.11,9.63-3.47,14.36-2,7-4.34,13.93-6.54,20.88-.71,2.25-1.41,4.5-2.15,6.74-1.58,4.77-3.12,9.55-4.77,14.29-1,2.85-3.15,5.67-3.06,8.45.18,5.65-2.83,9.76-5,14.37a73.18,73.18,0,0,0-3.39,9.33c-1.29,4-2.32,8.18-3.66,12.21-.71,2.1-2,4-2.78,6.07-2.89,7.54-6.3,15-8.33,22.73-1.59,6.07-3.1,11.74-8,16a3.16,3.16,0,0,0-.55,2.33c.74,7.53-4.42,12.93-7.15,19.12-3,6.77-7.09,13.1-11,19.41-1.53,2.46-3.92,4.39-6,6.47-7.68,7.45-14.88,15.35-22.93,22.27-4.63,4-10.62,6.39-16,9.46-.55.31-1.55.14-1.84.54-4.94,6.88-13.52,7.3-20.28,10.22a101.08,101.08,0,0,1-27.63,7.56c-12.41,1.54-24.81,2.4-36.92,1.08-7.82-.86-16.32.09-23.9-4.23C594,316.31,589,316.5,584.86,315c-6-2.24-11.8-5-17.64-7.72a51.7,51.7,0,0,1-6.57-3.6c-2.77-1.77-5.43-3.72-8.09-5.64-6.87-4.93-13.74-9.86-20.54-14.89a20.62,20.62,0,0,1-3.83-3.81c-2.15-2.74-4.52-5.42-6.1-8.48-4.26-8.24-12.22-14-15.13-23.17-1.35-4.24-4.32-8-6-12.12-1.91-4.67-3.17-9.6-4.82-14.39-1.48-4.3-3.11-8.55-4.7-12.81a16,16,0,0,1-1-2.19c-1.09-5.8-.9-12.21-3.42-17.29-4.09-8.25-.88-17.52-5-25.5a9.47,9.47,0,0,1-.49-2.89C477.58,133.57,479.63,106.52,479.26,79.54Z" fill="#a1c786" opacity="0.19"/>
    </g>
    <g id="Layer_10" data-name="Layer 10">
      <path d="M768.52,611.14c.66,8.88,1.46,17.75,1.94,26.63.84,15.56-1.44,30.81-4.2,46.11C763.9,697,761.37,710,757,722.44c-3.82,10.82-8.77,21.23-13.24,31.82a2.36,2.36,0,0,1-.56.89c-9.46,8.67-16.2,20.29-28.24,26.13-3.37,1.63-6.77,3.53-10.36,4.27-11.81,2.43-21.6,9-31.84,14.68-12.46,6.87-25.88,10.29-39.85,11.95a35.54,35.54,0,0,1-21.83-4c-6.35-3.54-12.62-7.23-18.83-11-7.93-4.83-13.15-12.26-18.38-19.68-7.55-10.77-14.93-21.56-19.19-34.25-7.18-21.44-11.32-43.51-14.27-65.84-2-14.83-3.86-29.68-5.49-44.55-.83-7.55-1.22-15.18-1.45-22.78-.42-13.73-.64-27.47-.74-41.2-.05-4.68.61-9.36.62-14,0-5-.4-10.07-.59-15.11-.61-16.29,2-32.05,5.62-48,4.39-19.55,14.66-35.59,25.33-51.76,7.71-11.69,18.06-20.16,30.6-26.25a138.37,138.37,0,0,0,14.31-8.27c8.1-5.17,17.17-7,26.47-7.37a145.52,145.52,0,0,1,21.79.74,39.39,39.39,0,0,1,11.94,3.82c7.56,3.47,15.09,7.07,22.26,11.27,3.32,1.94,6.15,5.1,8.54,8.21q7.93,10.32,15.11,21.16a51.18,51.18,0,0,1,5.39,11c3,8.41,5.14,17.17,8.65,25.38,5.87,13.64,12.63,26.88,18.85,40.4,3.48,7.55,7.42,15,9.77,22.93a428.94,428.94,0,0,1,10.38,41.81c1.62,8.56,1.16,17.52,1.64,26.3Z" fill="#e7924a" opacity="0.26"/>
    </g>
    <g id="Layer_11" data-name="Layer 11">
      <path d="M-217,725.1c-.58-13.48-1.81-25.68-1.48-37.84.48-17.65,8.14-33.21,16.45-48.32,6-10.82,14.41-19.54,23.75-27.61,6.89-6,12.54-13.35,19.45-19.3,16.7-14.41,34.31-27.26,57.73-27.77,10.28-.24,20.5.64,30.75,1.37,21.5,1.52,38.53,12.27,55.34,23.81,12.06,8.29,22.83,18.06,31.31,30.14,5.66,8,12.24,15.44,17.54,23.68a216.52,216.52,0,0,1,14.46,26.45c2.92,6.35,4.3,13.41,6.42,20.13,1.92,6,4,12,6,18a15.8,15.8,0,0,1,.65,2.8q2.38,19.36,4.73,38.72c1.63,13.4,2.32,27,5.13,40.13,2.73,12.8,7.29,25.24,11.66,37.63,8.56,24.54,16.86,49.21,21,74.9,3.77,23.45,7.13,47.07,8.62,70.74,1.33,21.51,2.38,43.26-1.06,64.77-1.35,8.36-3.51,16.59-5.55,24.82-1.44,5.94-2.47,12.29-5.27,17.58a101.16,101.16,0,0,1-14.12,20.32c-4.33,4.8-10.14,8.4-15.71,11.88-3.1,1.93-7.13,2.31-10.6,3.76-10.81,4.51-22.32,5.39-33.73,5.79-10.53.37-21.16-.72-31.67-1.18-5.36-.24-10.76-1.08-16.06-.66-11.44.91-22.36-1.54-33.23-4.27a231.72,231.72,0,0,1-25.89-8,76.83,76.83,0,0,1-15.69-8.64c-7.85-5.36-15.38-11.21-22.91-17-1.41-1.09-2.09-3.08-3.36-4.42-3.17-3.37-6.88-6.3-9.65-10-4.95-6.56-11.16-12.36-13.65-20.65-.62-2-2.48-3.68-3.41-5.7-3.41-7.37-6.88-14.71-9.91-22.23-3.13-7.74-5.77-15.67-8.62-23.52a12.91,12.91,0,0,1-.49-1.85c-4.56-23.73-9.26-47.38-12.33-71.43-1.6-12.57-2-25.58-5.4-37.77-2.75-9.88-2.48-19.94-4.6-29.7-1.84-8.63-4.56-17.09-6.88-25.63a18.85,18.85,0,0,1-.29-1.9c-1.71-10.51-3.11-21.09-5.21-31.51-1.89-9.12-4.5-18.08-6.81-27.11-.16-.61-.43-1.21-.53-1.84Z" fill="#dfa0b0" opacity="0.35"/>
    </g>
    <g id="Layer_5" data-name="Layer 5">
      <path d="M-98.24,141.76C-98.92,98.44-88,58.46-63.09,22.68A134.71,134.71,0,0,1-18.78-17.76C.74-28.93,20.51-29.45,40.51-19c5.5,2.88,10.93,5.93,16.54,8.58,4.4,2.07,6.62.93,7.94-3.75,1-3.59,1.74-7.27,2.54-10.92C71.84-44.67,84.31-57.93,100.7-68.2c17.5-11,36.84-17.47,56.58-22.58,31.94-8.27,63.91-16.52,96.18-23.3,23.62-5,47.83-4.45,71.9-2.47a241,241,0,0,1,73.75,17.88c22.79,9.52,41.33,24.54,54.68,45.49,22.3,35,17.41,81.44-14.48,112-19.74,18.93-43.24,30-69.75,35.5-16.71,3.46-33.43,3.34-50.24,1-6.28-.86-12.6-1.89-18.91-1.91a79.21,79.21,0,0,0-16.88,2.06c-4.54,1-7,5-5.67,9.89a129.76,129.76,0,0,0,6.57,17.81c4.33,10,9.67,19.63,13.3,29.87a39.82,39.82,0,0,1,0,26.94c-3.49,9.75-12.91,16-23.24,16.83-14.19,1.1-27-3.25-39.84-8.33-12.25-4.84-24.5-10.09-37.23-13.24-43.33-10.72-80.8,6.85-102.75,44.09-12.21,20.71-19.44,43.33-26.57,66C62.9,302,59,319.12,49.5,334.11c-9.06,14.46-20.8,26.22-37.27,31.22-29.37,9-49.07.27-57.1-30.63C-50.71,312.21-58.49,291-70.26,271-82.34,250.36-88.61,227.5-92.46,204c-2.21-13.5-4.2-27-5.64-40.65C-98.86,156.27-98.24,149-98.24,141.76Z" fill="#c3845f" opacity="0.33"/>
    </g>
    <g id="Layer_6" data-name="Layer 6">
      <path d="M331.41,1167c-.74-21.82,4.07-41.8,18.89-58.48,11.21-12.62,25.65-20.11,41.43-25.53,21.4-7.34,43.37-7.72,65.56-6,34.88,2.74,67.53,14.76,100.8,24.24,8,2.26,16.26,4.21,24.47,4.54,17.39.7,26.91-8.38,30.27-25.62,4.22-21.62.23-42.34-5.46-63-7.48-27.07-15.38-54-22.63-81.17-3.26-12.13-5.12-24.58-2.18-37.33,3.78-16.65,14.6-27.91,27.8-37.47,20.18-14.62,42.57-22.49,67.65-20.94,18.2,1.16,34.12,8.62,48.61,19.36,22.44,16.61,38.07,38.89,52.09,62.49,13.81,23.24,24.43,47.79,29.43,74.52a201.14,201.14,0,0,1,3.21,50.49c-.85,12.69-2,25.35-7.38,37.22-5.91,13-14.91,23.58-24.73,33.56-11.81,12-23,24.43-31.18,39.29-7,12.67-10.3,26.43-12.73,40.51-1.27,7.38-2.9,14.72-3.82,22.14-.78,6.29-.47,12.72-1.16,19-4.39,39.8-20.5,73.63-51.58,99.6-31.61,26.41-68.71,40.93-108.52,49.19a189.27,189.27,0,0,1-30.45,3.87c-26.19,1.13-50.21-6.73-72.79-19.45-51.56-29-91-69.8-117.53-122.78-9.51-19-14.73-39.46-16.48-60.71C332.43,1181.4,332,1174.19,331.41,1167Z" fill="#d3a659" opacity="0.4"/>
    </g>
  </g>
  <g id="floral">
    <g opacity="0.41">
      <path d="M194.59,39.92c4.32,6.25,9,7.95,15.76,5.62,7.34-2.53,14.69-4,22.49-2.29a7.78,7.78,0,0,0,5.81-1.16c8.37-6.67,17.16-4.71,26.13-1.94,4.08,1.27,8.3,2.13,12.29,3.61,1.44.54,2.39,2.36,3.57,3.59-1.57.76-3.15,2.18-4.71,2.16-11.44-.14-22.45,2.2-33.37,5.23-9.72,2.69-19.46,3.32-29.23.27a16.81,16.81,0,0,0-2.45-.27c1.38,1.62,2.3,2.78,3.3,3.86,3.13,3.36,6.24,6.75,9.48,10A5.75,5.75,0,0,0,227,70.42c6.09.22,12.2.34,18.29.11,2.23-.09,4.92-.64,6.55-2,6.92-5.81,15-7.4,23.65-7.66a78,78,0,0,1,35.27,7.49A8.65,8.65,0,0,1,313.64,70a16.25,16.25,0,0,1,1.85,3.45c-1.36.4-2.79,1.29-4.09,1.12-4.94-.65-9.8-1.86-14.75-2.43a42.51,42.51,0,0,0-21.92,2.74c-11.86,5.1-24.08,5.56-36.59,4.24l-3.49-.36-.33.86a30.35,30.35,0,0,0,4.16,3.23c9.38,5.09,18.6,10.54,28.3,14.94a62.23,62.23,0,0,1,25.88,21.7,6.14,6.14,0,0,1,1.19,3c.12,2.44-1.57,3.62-3.52,2.29-8.17-5.57-17.64-7.71-26.84-10.68-8.74-2.81-15.05-9-20.89-15.85C232.92,86.83,222.89,75.69,213,64.44a15.2,15.2,0,0,0-1.73-1.37c-.37,4.77.28,8.73,3.52,11.9,2,1.93,4.25,3.56,6,5.63,2.52,2.91,5.35,5.81,6.9,9.23a49.17,49.17,0,0,0,14.89,18.7,22.78,22.78,0,0,1,3.53,2.91,12.82,12.82,0,0,1,1.49,3.29c-1.29.35-2.74,1.27-3.85,1a93.7,93.7,0,0,1-13-4.32c-13.16-5.8-23.3-15-29.18-28.27a28.87,28.87,0,0,1-2-11.21c0-4.46.86-8.93,1.51-13.37.68-4.63-.61-8.12-4.9-10.5-4.61-2.57-9-5.48-13.56-8.19a15.62,15.62,0,0,0-2.73-.93,12.7,12.7,0,0,0,.89,1.63,24.62,24.62,0,0,1,5.45,15.26,24.31,24.31,0,0,0,4.57,14A42.7,42.7,0,0,1,199.68,95c.14,5,.95,9.92,1.23,14.89.13,2.35-.62,4.63-3.31,5.2s-4.09-1.41-5.17-3.43c-1.24-2.34-2.22-4.82-3.41-7.18a53,53,0,0,0-12.29-16.26c-5.61-4.9-8-10.86-6.75-18.29,1-5.94,1.6-11.93,2.56-17.87a12.33,12.33,0,0,0-3.35-11.23,44.35,44.35,0,0,1-5.3-6.33c-3.79-5.82-10-6.33-16.68-8.28,1.4,3,2.28,5.32,3.54,7.44a28.26,28.26,0,0,1,3.77,19.09A29.59,29.59,0,0,0,158,71.39c4.92,9.11,4.39,18.67,2.77,28.33-.6,3.54-3.78,4.92-7,3.26-3.85-2-5.94-5.31-7.21-9.41C144.31,86.31,142,79,139.33,71.93s-3.51-13.9-.55-20.82c3.37-7.89,3.33-16.06,2.79-24.32a2.49,2.49,0,0,0-1.41-1.85c-7.89-1.42-15.74-3.32-24.35-2.82,2.77,5.14,5.14,10.11,8,14.77,4.28,7,5.22,14.15,4.15,22.25-1.13,8.54-.88,17.27-1.06,25.92-.11,5.48-.52,10.83-4,15.37-1.53,2-3.46,3.59-6.28,2.91-2.59-.63-3.74-2.64-4.39-5-2.39-8.73-5.13-17.38-7-26.22-1.52-7.11.19-14.09,4.09-20.22,4.3-6.76,5.28-13.73,2.79-21.3a44.18,44.18,0,0,1-1.64-6.5c-.35-2.05-1.22-3-3.39-2.94-4.77.12-9.54.08-15,.11a33.67,33.67,0,0,0,2.58,4.92c7.55,9.77,9.09,20.64,6.3,32.42-.68,2.86-.76,5.87-1.52,8.71-1.31,4.86-4.6,8.48-7.94,12.13-4.1,4.5-7.78,9.38-11.78,14-.88,1-2.31,1.51-3.49,2.24-.67-1.24-1.79-2.43-1.93-3.73A45.37,45.37,0,0,1,79.88,64.3c3.5-6.32,5.71-13.44,7.85-20.4.84-2.74.08-6-.27-9-.5-4.3-1.31-8.55-2.08-13.4L59.13,23.07l-.23,1c1.46,1,2.86,2.14,4.39,3.06,7.88,4.76,12.33,12.07,14.79,20.61a14.68,14.68,0,0,1-.37,7.76,75.44,75.44,0,0,1-4.54,11.31c-.51,1.08-2,2.39-3,2.35s-2.26-1.6-2.62-2.73C64.89,58.19,62.25,49.94,60,41.59c-1.64-6.22-5.53-11.08-8.81-16.32a2,2,0,0,0-1.77-.63C44.1,25.78,38.77,27,32.41,28.46c2,2.58,3.35,5,5.28,6.67C41.27,38.3,45.23,41,49,44.05c10.87,8.8,15.87,20.39,14.79,34.14-.66,8.39-2.72,16.69-4.37,25-.24,1.2-1.78,3-2.69,3a5,5,0,0,1-3.55-2.46c-3.78-7.55-4.27-15.75-4.81-24-.78-12-3.61-23.29-12.13-32.55-4.34-4.72-8.33-9.83-8.85-17.16L9.14,36l8.49,6c2.83,2,5.81,3.81,8.44,6a30.26,30.26,0,0,1,9.7,15.62c3,11.2,6,22.41,8.83,33.66.38,1.52.1,3.86-.86,4.91-1.61,1.74-4,.91-5.46-.64A86.34,86.34,0,0,1,30.51,92c-3.36-5-6.07-10.34-9.57-15.17a29.87,29.87,0,0,1-5.58-15c-.8-9-5.34-15.66-11.46-21.61A3.21,3.21,0,0,0,.84,39.9c-4.14,2.91-8.16,6-12.12,9.15-1.58,1.26-2.75,3-4.35,4.27-1.83,1.4-4,.37-3.75-1.88.19-1.9.73-4.36,2-5.43A111.78,111.78,0,0,1-3.18,36C.41,33.89,3,31.83,2.43,27.26S1.55,17.81,1.3,13.08c-.15-2.73-.64-5.71.2-8.17,2.34-6.79,2-13.55,1.31-20.51-1-9.82,3.27-18.27,7.83-26.52,1.13-2.05,3-1.89,3.88.3.62,1.55.47,3.38.82,5.06,1,4.84,1.36,10,3.38,14.43C22-15.11,23.12-8.13,21-.43c-1.6,5.67-2.05,11.67-3.79,17.29-1.3,4.19-3.83,8-6.3,13,3-1.33,5.79-1.83,7.5-3.48,5-4.78,9-10,8.16-17.85-.58-5.37,2-10.31,4.62-15C34.8-13.07,37.38-20,37.87-27.57a67.72,67.72,0,0,0-.29-10.36,23.74,23.74,0,0,1,3-14.43c2.26-3.86,4.63-7.67,7-11.49.37-.59.78-1.35,1.36-1.59,1.13-.46,2.68-1.16,3.5-.72s1.21,2.25,1,3.32c-.71,4-2,7.91-2.55,11.93a21.55,21.55,0,0,0,.47,8.77C57-23.89,51.4-8,41.15,6.84c-3.68,5.33-8.41,9.94-12.64,14.89a5.25,5.25,0,0,0-1.33,3c4.78-1.2,9.57-2.36,14.32-3.65.57-.15,1-.93,1.43-1.49,3.48-4.75,6.94-9.44,9-15.14,1-2.65,3.5-5,5.84-6.82,4.09-3.19,5.8-7,4.57-12-2.19-8.9-.68-17.48,2.58-25.73a26.5,26.5,0,0,1,6-8.66c4.17-4.14,7.9-8.46,10.46-13.8.52-1.09,2.16-1.63,3.28-2.43.73,1.19,2,2.34,2.1,3.59.82,8.35-.19,16.16-4.5,23.83-2.79,5-3.59,11.16-4.76,16.91S75.89-8.73,74.87-2.8c-.76,4.42-3.6,7.46-7.54,9.43-3.1,1.56-6.26,3-9.37,4.51-3.67,1.78-6.34,4.6-8.8,8.35,9.17-.87,17.86-1.65,26.55-2.57a3.74,3.74,0,0,0,2.55-1.65c1.83-3.4,3.4-6.93,5.07-10.41C85.17,1,86.84-2.94,88.91-6.65c2.2-3.93,3.06-7.86,1.92-12.3-2.12-8.29-.49-16.22,3-23.78,4-8.67,8.07-17.37,12.63-25.76,2.3-4.24,5.73-7.87,8.75-11.69a6.15,6.15,0,0,1,2.49-1.68c2.42-1,3.6-.08,3,2.49a34,34,0,0,1-2,6.41c-3.56,8-4.32,16.41-3.69,25.12a29.9,29.9,0,0,1-1.45,11.38c-3.07,9.16-6.76,18.11-10.12,27.17-2,5.42-5.76,9.52-9.75,13.51-3.84,3.83-7.47,7.88-11.2,11.83l.58.65c6.41-.12,12.82-.18,19.22-.42a3,3,0,0,0,1.95-1.7c.77-1.88,1.22-3.88,1.83-5.82a23.84,23.84,0,0,1,8.13-11.94,15.22,15.22,0,0,0,5.89-10.36A30.53,30.53,0,0,1,126-28.12,12.64,12.64,0,0,0,128-40.51c-2.79-8.31-1.57-16.74-.47-25.14.27-2.08,1.69-2.49,3.36-1.7a8,8,0,0,1,2.53,2.14c2.68,3.22,5.28,6.5,7.88,9.77a19,19,0,0,1,3.49,18.12c-1.54,5.28-2.52,10.73-4.28,15.92-4.28,12.59-10.36,23.9-22.7,30.64-2.89,1.59-5.33,4-8.74,6.62a39.52,39.52,0,0,0,3.89.87c5.18.49,10.37.88,15.55,1.39,2.66.26,4.56-.65,5.7-3.1s2.25-5.26,3.69-7.7A78.53,78.53,0,0,1,144.12-2c3.44-4.31,6.06-8.87,6.78-14.45a33.87,33.87,0,0,1,10-20.2c6-5.93,12.44-11.44,18.68-17.14a70.07,70.07,0,0,1,5.25-4.67A15.78,15.78,0,0,1,188.51-60c.31,1.48,1.21,3.13.84,4.42a68.89,68.89,0,0,1-14.42,27A28,28,0,0,0,168-12.93a13.28,13.28,0,0,1-2.3,6.2c-4.63,6.2-9.38,12.34-14.47,18.16-2.71,3.11-6.23,5.51-9.59,8.41,4.08,1.19,8.3,2.41,12.51,3.65,3,.89,6.06,1.75,9.06,2.74s5.44.51,6.94-2.51c.95-1.9,2.23-3.77,2.6-5.79,1.34-7.23,5.41-12.52,10.84-17.2a34.67,34.67,0,0,0,7.28-8.43c7-11.83,17.3-19.57,29.49-25.27,3-1.41,5.8-3.3,8.74-4.86.72-.38,2.13-.75,2.39-.44a3.73,3.73,0,0,1,1,2.88,17.89,17.89,0,0,1-2.56,4.45,12,12,0,0,1-2.55,2.63c-10.91,8.24-18.09,19.19-23.13,31.7-3.61,9-9.63,15.3-18.75,19-4.13,1.67-7.68,4.77-12.08,7.6,3.4,1.69,5.81,3,8.31,4.1,5.63,2.53,10.42.95,13.31-4.54,3.89-7.37,10.24-11.35,18.12-12.65a80.73,80.73,0,0,0,24.7-8.51A48.13,48.13,0,0,1,264.46,3c1.3.1,3.61,1.21,3.59,1.77-.07,1.61-.67,3.74-1.84,4.65-2.71,2.12-5.9,3.6-8.86,5.4-4.27,2.6-8.59,5.14-12.74,7.91-7.42,4.95-15.36,8.38-24.34,9.13S203.08,36.5,194.59,39.92Z" fill="#2d2d2d"/>
    </g>
    <g opacity="0.41">
      <path d="M669.13,2.69c-19.16,9.52-38.76,13.37-58.75,14.5.24,1.56.5,2.87.64,4.2.22,2-.11,3.82-2.28,5.08a3.63,3.63,0,0,1-5.09-1c-1.22-1.58-2.17-3.39-3.33-5.24-2.67,2.42-5.24,4.76-7.84,7.08a55.31,55.31,0,0,1-22.14,12.38c-4.21,1.16-8.22,1.4-11.9-.3a3.63,3.63,0,0,0-2.46.28c-3.07,1.28-6.06,2.87-9.16,4-4.85,1.78-7.09,1.07-9.29-2.94-1.3-2.38-3.44-3.26-6-3.63-8.43-1.19-15.22-4.79-20.29-11.13C505.62,19,508,10.27,517,5.11c2.3-1.31,4.73-2.34,7.27-3.58-.23-1.1-.43-2.11-.65-3.12-1.52-7.25,1.76-12.72,9.39-15.68a32.35,32.35,0,0,1,16.79-1.85l2.68.4c0-.78,0-1.33,0-1.87-.32-6,2.62-11.3,8.25-14.85,8.84-5.57,17.75-5.27,24.35.62a35.32,35.32,0,0,1,10.64,17.94c1.19,4.58,2.3,9.21,3.65,13.72A39.69,39.69,0,0,0,602,2.39c2.51-2.5,4.66-4.71,6.88-6.84a6.44,6.44,0,0,1,2.48-1.73c1.17-.27,2.77-.44,3.46.15s.83,2.23.49,3.29a68.3,68.3,0,0,1-2.93,6.8c7.27,2.7,42.86-6.44,48.37-12.94-5.7-2-11-4.55-17.44-4.67-4.85-.08-9.75,0-14.53-.32a29.54,29.54,0,0,1-8.33-1.87,4.49,4.49,0,0,1-2.38-3.37c-.21-1.79,1.64-2.81,3.24-3.58,8.14-3.94,16.24-8,24.43-11.77,11.74-5.43,22.88-5.91,33.29-1.22,6.16,2.78,12.36,5.48,18.52,8.25,2.91,1.31,3.35,2.26,2.53,5.75a48.41,48.41,0,0,0,1.45,28.49A48.68,48.68,0,0,1,704.22,28c-.91,10.65-1.44,21.28-2.8,31.95-.87,6.88-2.84,13.83-4.55,20.72a20.49,20.49,0,0,1-2.69,5.66c-3.09,5-7.65,6.06-11.37,2.77-6.5-5.76-10-13.4-11.1-22.48-.4-3.36-1.22-5.82-4.65-7.17-2.06-.81-3.65-3.21-4.55-5.39-3.32-8-3.06-16.36,3-25,2-2.82,3.71-5.77,5.55-8.65l-.44-.48a11.17,11.17,0,0,0-1.88,1.25c-8.39,8.31-16.88,16.52-25.08,25-4.46,4.62-7.56,10.15-10.12,16.15,1,.11,1.88.2,2.75.32,1.82.24,2.35,1.27,1.36,3.08-1.58,2.88-3.12,5.8-4.88,8.6-1.07,1.71-.8,2.51.7,3.17a44.9,44.9,0,0,1,14.35,9.31,40.3,40.3,0,0,1,10.69,19.88A27.13,27.13,0,0,1,654.8,128c-.21.33-.42.67-.66,1-2.85,3.62-3.87,3.59-6.29.56a80.8,80.8,0,0,0-6.1-6.18l-.74.56.36,6.6a48.83,48.83,0,0,1-9.63,33C624,174,613.16,176.92,603.6,171.1c-5.54-3.38-8.54-8.6-9.58-15.21-.55-3.48-.92-7-1.41-10.93-2.72,2.12-5.18,4.06-7.65,6-1,.78-2,1.57-3.07,2.26-2.89,1.89-4.29,1.46-4.79-1.6a28.19,28.19,0,0,1,2.68-17.37c1.58-3.21,2.16-3.54-1.18-4.79-3-1.1-3.1-3.22-.23-5.73,8.38-7.32,13.82-16.53,19.33-25.73a13.68,13.68,0,0,0,.67-1.64c-3.48,1-6.7,1.86-9.86,3-.93.33-1.73,1.53-2.48,2.42-3.65,4.28-7.16,8.69-11,12.85A18.14,18.14,0,0,1,570,118c-2.77,1.45-4.42.74-5-2a21.62,21.62,0,0,1,.77-11.1c4.87-14.89,15-24.78,29.55-30.28,4.38-1.67,8.9-2.77,13.36-4a2.72,2.72,0,0,0,2.2-2.26,50.27,50.27,0,0,1,2.32-7c1.42-3.22,3.09-4.09,6.08-3.13,2,.65,2.83.09,3.77-2.06,4.55-10.49,11.7-19.36,20.14-27.34,7.42-7,14.93-13.92,22.34-20.94a54.67,54.67,0,0,0,3.94-4.63ZM567.37-33.38c-2,1.06-4.55,1.93-6.53,3.57-4,3.27-4,7.27-3.05,11.26.43,1.82,1.78,3.8-.44,5.68-2,1.69-3.75.41-5.43-.3-5.59-2.37-11.62-2-17.9.39-6,2.33-8,8-4.17,12.15A37.54,37.54,0,0,0,534.38,3c1,.74,1.77,1.53.77,3.06a2.47,2.47,0,0,1-3.32,1.09c-5.77-2.6-11,0-16,4.34-3,2.55-4,5.57-2.11,8.31a39.94,39.94,0,0,0,7.17,8.06c3.67,3.08,8.67,3.87,13.56,4.7,3.18.53,5.69,1.89,7.19,4.78a3.48,3.48,0,0,0,2.64,1.88c4.31-.12,8-2.44,11.65-5.93-3-.66-5.62-1.14-8.16-1.81-9.08-2.43-11.73-10.61-6.44-19.79,5.14-8.88,12.29-14.85,22.1-17,4.7-1,9.39-2.13,13.86-3.14C574.07-16.49,570.83-24.67,567.37-33.38Zm117,40c-.72,1.09-1.08,1.58-1.39,2.09-4.56,7.46-9,15-13.7,22.36-5,8-5.46,15.33-1.06,22a8,8,0,0,0,3.82,3,5.09,5.09,0,0,1,3.73,4.36c.31,2.1.53,4.24.89,6.32,1.14,6.66,3.65,12.54,8.24,17.07a5.37,5.37,0,0,0,4.22,1.45c2-.35,2.56-2.57,3-4.34.62-2.57,1.14-5.15,1.67-7.73,3.32-16.15,1.65-30.88-5.18-44.14a36.85,36.85,0,0,1-4.12-18.7C684.5,9.31,684.4,8.27,684.35,6.59ZM636.49,133.47l-.67-.17c-.4.7-.79,1.41-1.2,2.11-2.16,3.64-4.32,7.29-6.51,10.92-1,1.67-2.18,3.26-3.06,5-1.31,2.56-2.25,3-4.52,1.83-3.91-2-6.48-5.34-8.5-9.19-3.67-7-5-14.84-5.39-23.12-.07-1.68-.21-3.34-.33-5.29a14.38,14.38,0,0,0-1.12.91,52.46,52.46,0,0,1-15.73,12.11,6.08,6.08,0,0,0-2,1.67c-3.58,4.77-5.86,9.86-5.81,15.43,0,.66.12,1.31.25,2.61,3-3,5.89-5.27,7.94-8.08a137,137,0,0,0,7.45-12.28c1-1.79,2.29-3,4.23-3.14,1.11,1.45,1,3,0,4.74-1.14,2.06-2.23,4.14-3.23,6.25a6.14,6.14,0,0,0-.75,2.78c.46,5.85.88,11.72,1.64,17.49a14.3,14.3,0,0,0,7.42,10.89c6.85,4,14.33,2.67,19.63-3.56a43.68,43.68,0,0,0,7.68-12.9A40.24,40.24,0,0,0,636.49,133.47Zm-30.19-123c1.21,2,3,1.83,4.71,1.81,10.55-.15,21.14-2,31.76-4.67,9.54-2.35,18.86-5.44,27.5-11.31,2.8-1.91,5.75-3.58,8.64-5.34,1.52-.93,3.18-1.11,3.86.2.34.65-.62,2.25-1.21,3.33s-1.39,1.72-2,2.63A122,122,0,0,1,660.8,19c-8.16,7.59-17,14.46-24.07,23.23-4.59,5.7-8.37,11.73-10.48,18.5-.48,1.53-.89,3,.65,4.43.62-1.13,1.18-2,1.6-2.95a94.35,94.35,0,0,1,23-30.83c7.8-7,15.42-14.07,22-22.23,6-7.4,11.49-15,14.6-23.81.31-.89.55-1.8.82-2.7l-.45-.49c-5,2.63-9.92,5.23-14.87,7.89C667-6.44,660.57-2.08,653.75.56c-14.17,5.48-28.59,9-43.07,9.2A33.41,33.41,0,0,0,606.3,10.45Zm44.87,114.28c8.29-13.38-2.31-34.15-14.4-38.86.19,1.22.28,2.25.52,3.22a89.93,89.93,0,0,1,3.12,23.11,6.79,6.79,0,0,0,1.52,4.57C644.75,119.59,648,122,651.17,124.73ZM689-23l-.08-.59c-11.23-1.44-22.28,2.82-34,6.86a13.35,13.35,0,0,0,3,1.48c3.87.66,7.79,1.19,11.71,1.73a2.45,2.45,0,0,0,1.29-.29Q679.94-18.38,689-23ZM611,77c-6.06,1.4-15.09,9-18.17,15.39C599.51,92.59,606.92,85,611,77Z" fill="#2d2d2d"/>
    </g>
    <g opacity="0.41">
      <path d="M68.15,1310.11a11.78,11.78,0,0,0,1.74.13c23.42-2.38,38.33-20.52,32.89-44.11-1.35-5.85-3.61-11.49-5.6-17.18-2.49-7.08-3.78-14.34-2.82-21.78a38.76,38.76,0,0,1,3-9.88c1.22-2.89,3.16-3.69,6.24-3.08,13.43,2.65,22.73,11.25,23,26.27a63.58,63.58,0,0,1-.63,9.13c-.68,5.47-1.33,10.86-.84,16.45.7,8-2.42,15-7.05,21.3-1.49,2.05-3.21,3.94-4.79,5.94a4.27,4.27,0,0,0-.91,2.17,118.18,118.18,0,0,0,29.7-25.88,82.62,82.62,0,0,0,17-35.73,27.2,27.2,0,0,1-3.27,1.07,19.35,19.35,0,0,1-5.46.66c-1.13-.12-2.78-1.2-3-2.16-.3-1.11.4-2.78,1.19-3.8a40.93,40.93,0,0,1,4.75-4.49c-2.56-1.48-4.69-3.33-7.14-4-7.82-2.21-15.72-4.13-23.65-5.9-6.34-1.42-12.75-2.77-17.73-7.16a34.43,34.43,0,0,1-7.5-9.12c-2.8-5.11-.07-9.15,5.8-9.17,3.22,0,6.43.57,9.64.67,2.15.07,4.31-.24,6.79-.4-2.49-2.93-4.62-5.39-6.68-7.89a29.81,29.81,0,0,1-2.35-3.33c-5-8.26-2.38-16.46,6.72-19.67,2.84-1,3.51-2.23,3.18-5.06-.55-4.61.21-9,4-12.33,4.5-3.91,9.81-4.09,15.55-.59a35.22,35.22,0,0,1,4,2.71c1.63,1.35,2.54.81,3.6-.78,3.32-5,7-9.66,12.23-12.75a42.38,42.38,0,0,1,7.78-3.72c13.72-4.65,25.95,2.73,28.4,17,.33,1.91.57,3.84.88,6,8-1.41,15-.18,20,6.82s3.26,14,.46,21.62c1.17-.32,1.95-.48,2.69-.75,3.83-1.42,7.63-2.88,11.46-4.28,2.1-.76,4.15-.94,5.89.89s1.55,3.76.72,5.91c-4.42,11.47-10.71,21.39-22.22,27a4.77,4.77,0,0,0-1,.75,7.13,7.13,0,0,0-.62,1c1.09.75,2.18,1.49,3.26,2.25,4.08,2.88,7.4,6.31,6.39,11.78a14.75,14.75,0,0,1-10.19,11.7,16,16,0,0,1-5.5.86c-9.17-.11-18.32-.6-27.25-3-.79-.21-1.61-.33-2.66-.54-.19,1.47-.3,2.71-.53,3.94-.51,2.78-2.1,3.81-4.76,2.81-2.11-.8-4.09-2-6.53-3.14-7.79,31.61-26.42,54.73-55,71,1.6.43,2.43.67,3.28.88,6.4,1.62,12.94,2.85,19.2,4.94,10.7,3.56,15.59,12.62,13.26,23.69-.72,3.4-1.79,6.72-2.5,10.12-1,4.68-.85,9,4.25,11.57a2.14,2.14,0,0,1-.34,4,9.52,9.52,0,0,1-5.58.27,20.81,20.81,0,0,1-10.86-8c-3.64-5.21-7.46-10.31-10.93-15.63-7.33-11.22-17.75-17.12-30.95-17.78-5.89-.3-12.08-.47-17.71,1-19.83,5.09-39.35,4.16-58.87-1.23a55.47,55.47,0,0,0-6.7-1.53c-3.82-.56-6.72-2.56-9.34-5.23-3.8-3.87-7-8.13-8.48-13.4-.4-1.43-.31-3.78.57-4.58s3.33-.85,4.65-.26c3.92,1.79,7.56,4.19,11.43,6.1a116.49,116.49,0,0,0,35.46,10.52c8.07,1.13,14.94-3.25,18.39-11.93a164.6,164.6,0,0,0,5.65-18.16c1.23-4.6,2-9.36,5.23-13.09a18.37,18.37,0,0,1,4.56-4c6.08-3.54,12.59-.67,14.22,6.18,1.33,5.56.09,10.8-2.45,15.76a72.92,72.92,0,0,1-16.7,21.63C69.53,1308.68,69,1309.3,68.15,1310.11Zm123.68-150.2a61.37,61.37,0,0,1-1.47-7c-.26-2.78.09-5.62-.23-8.38-1-9.11-7.89-14.62-16.73-13.51a25.18,25.18,0,0,0-14,6.65c-8.34,7.63-11.94,17.7-14.4,28.33a11.6,11.6,0,0,0,.21,2.93c3.36-3.44,6.18-6.6,9.28-9.46,6-5.5,11.07-4.57,14.9,2.55a17.76,17.76,0,0,0,8.54,8c6.5,3,11.17,7.63,12.57,15a3.68,3.68,0,0,0,.56,1c6.07-1.79,12.09-3.55,18.09-5.38a2,2,0,0,0,1.21-1.13c1.35-4,3-8,3.79-12.09,1-5.13-1.78-8.74-6.18-11.19-4-2.21-7.61-1.61-11.17,1A53,53,0,0,1,191.83,1159.91Zm-31.73,57c4,2.79,4.23,2.74,6-1.63,3.62-8.89,8.41-17,15.59-23.52,3.61-3.3,3.73-8.17.4-11.79a18.16,18.16,0,0,0-5.21-4c-5.54-2.73-10.29-6.24-13.06-11.92-1-2.06-2.27-2.08-4.06-1a29.39,29.39,0,0,0-12.07,14.32C142.21,1190.79,147.71,1208.21,160.1,1216.93Zm-23,133.91.9,0c1.33-6.84,3.05-13.64,3.85-20.54.58-5-2.23-9-6.74-11.36-12-6.28-24.74-7.18-37.86-4.9-.17,0-.3.31-.49.52a8.56,8.56,0,0,0,1.53,1,26.36,26.36,0,0,0,2.9.91,38.13,38.13,0,0,1,21,13.92c3.81,5,7.34,10.16,11,15.24C134.54,1347.37,135.85,1349.1,137.14,1350.84Zm9.26-136.43.63-.72c-2.25-3.36-4.35-6.82-6.76-10a15,15,0,0,0-11.46-6.23c-8.29-.6-16.57-1.35-24.85-2a19.44,19.44,0,0,0-2.28.18c2,2.69,3.37,5.43,5.54,7A30.91,30.91,0,0,0,117.4,1208C127,1210.48,136.72,1212.31,146.4,1214.41Zm-45.53,20.51-.58.24a9.83,9.83,0,0,0,.06,2.49c1.45,5.2,2.67,10.5,4.56,15.56,4.16,11.15,6.16,22.38,2.79,34.12a11.79,11.79,0,0,0,0,2.79,29.65,29.65,0,0,0,8.82-11c4.38-9,4.69-17.51-1.86-25.73-4-5-7.59-10.19-11.38-15.29C102.51,1237,101.68,1236,100.87,1234.92ZM66,1303.65c7.66-5.22,15.66-16.61,17.57-24.88a9.66,9.66,0,0,0,.26-4.75c-.52-1.72-1.55-4-3-4.57-2.11-.91-4.42.43-5.54,2.52a46.28,46.28,0,0,0-4,9c-1.86,6.6-3.3,13.32-4.9,20C66.23,1301.68,66.17,1302.42,66,1303.65Zm38.81-82.46c-1.57,8.17,7.83,24.66,15.46,27.37C123.74,1235.51,117.06,1222.21,104.79,1221.19Zm-66.16,97.08.18-1c-13.09-2.47-25.94-5.65-37.73-12a3.52,3.52,0,0,0-1.23-.29c-.4,0-.82,0-1.6,0,2.3,3.4,4.25,6.62,8.41,7.52,8.77,1.89,17.52,3.88,26.31,5.69A31.32,31.32,0,0,0,38.63,1318.27Z" fill="#2d2d2d"/>
    </g>
    <g opacity="0.41">
      <path d="M57.08,137.86a11.34,11.34,0,0,0,.27,1.57c2.38,7.29,1.83,14.49-.42,21.71-1.11,3.55-1.88,7.22-2.73,10.85-.73,3.11,0,6.13.79,9.13.34,1.24,1.11,2.87-.39,3.47-.87.35-2.64-.35-3.39-1.15-5.08-5.45-8.79-11.62-9.65-19.24-.56-5,.53-9.66,2.31-14.26a86.61,86.61,0,0,0,3.5-9.88,11.68,11.68,0,0,0-3.13-11.67,26.23,26.23,0,0,0-4.67-3.84c.06,1.2.1,2.41.19,3.61.42,5.29-.2,10.36-3.51,14.7-2.18,2.88-4.63,2.75-6.88-.14-2.81-3.6-3.46-7.77-3-12.15.38-3.35,1-6.68,1.54-10a2.52,2.52,0,0,0-1.65-3C16.2,113.49,6,109.94-5.12,110.74c-3.67.26-7.27,1.55-10.91,2.34-1.12.25-2.6,1.46-3.24-.23-.55-1.43.86-2.31,2.06-2.9a29.49,29.49,0,0,1,11.75-2.61c12.74-.6,24.46,3.37,35.93,8.35,1.79.79,3.54,1.69,5.27,2.62a15,15,0,0,0,13.39.6,99,99,0,0,1,11.36-4.14,41.65,41.65,0,0,1,8.81-1c2.22-.11,3,.86,2.83,3.1a10.44,10.44,0,0,1-6.34,9c-2.13,1-4.42,1.73-6.64,2.57l-2.38.87c1.36,1.06,5.07,1.81,7.86,1.43a29.17,29.17,0,0,1,15.8,2.56,41.84,41.84,0,0,1,22.26,22.07,2.85,2.85,0,0,1,.41,1.16c-.08.79-.07,1.86-.56,2.27a2.76,2.76,0,0,1-2.26-.07A8.93,8.93,0,0,1,97.6,157,46.37,46.37,0,0,0,81,147.14c-4.12-1.49-8.23-3-12.35-4.52l-.4.34a15.83,15.83,0,0,0,1.39,2.45c2.57,3,5.29,6,7.82,9.05,4.63,5.64,7.62,12.15,9.86,19,2.18,6.72,4.39,13.43,6.53,20.16a4.68,4.68,0,0,1,0,2c-.2,1.37-1.06,1.42-2.07.86a6.55,6.55,0,0,1-1.23-1c-4.45-4.31-8.83-8.68-13.34-12.93-5.8-5.47-8.78-12.27-9.91-20-.64-4.4-1.27-8.81-2.16-13.16-.93-4.55-3.71-8-7.1-11.08A5.74,5.74,0,0,0,57.08,137.86Z" fill="#2d2d2d"/>
    </g>
    <g opacity="0.41">
      <path d="M12,1239.92a16,16,0,0,0,1.91-.7c8.58-4.65,17.73-5.6,27.29-4.43,4.7.57,9.47.7,14.21.93,4.07.2,7.69-1.38,11.26-3.08,1.48-.71,3.35-2.05,4.44-.31.63,1,.16,3.39-.67,4.52-5.66,7.6-12.54,13.66-21.9,16.48-6.13,1.85-12.21,1.54-18.38.37a111.92,111.92,0,0,0-13.18-2.12A14.89,14.89,0,0,0,3,1258.17a34,34,0,0,0-3.74,6.73c1.5-.36,3-.68,4.49-1.07,6.52-1.73,13-2.11,19.22,1,4.1,2.09,4.49,5.18,1.39,8.66-3.87,4.34-8.94,6.11-14.54,6.51-4.28.3-8.6.27-12.9.36a3.21,3.21,0,0,0-3.38,2.76c-2.78,13.56-4.89,27.2-1.35,40.89,1.17,4.54,3.6,8.75,5.43,13.12.56,1.35,2.42,2.93.45,4.13-1.66,1-3.09-.55-4.11-1.93-3.13-4.22-4.78-9.1-6-14.11-3.67-15.83-1.38-31.42,2.25-46.92.56-2.43,1.3-4.82,2.06-7.2A19.14,19.14,0,0,0-10,1254.22a127.38,127.38,0,0,1-7.78-13.29A52.82,52.82,0,0,1-21,1230.11c-.65-2.75.39-3.93,3.23-4.24,5.4-.59,9.63,1.63,12.76,5.87,1.78,2.43,3.17,5.15,4.72,7.74.54.9,1.07,1.8,1.64,2.77,1-1.94,1.11-6.76,0-10.16A37.2,37.2,0,0,1,1,1211.7a53.25,53.25,0,0,1,22.55-32.92,3.38,3.38,0,0,1,1.36-.78c1-.09,2.35-.34,3,.18s.63,1.92.43,2.84a11.33,11.33,0,0,1-1.55,3.75,59,59,0,0,0-8.61,23c-.93,5.5-1.89,11-2.84,16.5l.52.42a19.26,19.26,0,0,0,2.75-2.3c3.22-3.92,6.26-8,9.54-11.86,6-7.1,13.49-12.33,21.61-16.71,7.92-4.28,15.82-8.57,23.76-12.8a6,6,0,0,1,2.56-.45c1.77-.06,2,1,1.55,2.39a8.36,8.36,0,0,1-1,1.78c-4.38,6.56-8.85,13-13.14,19.66-5.53,8.52-13.37,13.82-22.84,17-5.37,1.81-10.75,3.6-16,5.72-5.49,2.2-9.23,6.48-12.25,11.42A6.34,6.34,0,0,0,12,1239.92Z" fill="#2d2d2d"/>
    </g>
    <g opacity="0.41">
      <path d="M14.61,189.43c1.56,3,3.06,6.11,4.71,9.11a50.56,50.56,0,0,1,6.27,28.69c-.46,6-1.51,11.87-4.22,17.42-1.79,3.67-2.65,7.77-4.13,11.61a16.37,16.37,0,0,1-2.41,3.38c-.8-1.15-2-2.19-2.31-3.45a40.18,40.18,0,0,1-.85-15.52c1.23-8.57,2.6-17.12,3.77-25.7a57.69,57.69,0,0,0,0-7.25c-.63.53-.89.64-1,.83-3.16,6.71-6.35,13.4-9.42,20.16-.72,1.58-.86,3.42-1.51,5-.4,1-1.2,2.41-1.95,2.49a3,3,0,0,1-3.24-2.41A25.89,25.89,0,0,1-1,218c1.82-5.12,4-10.09,5.87-15.21,3.37-9.46,2.33-18.62-2.32-27.43-1.07-2-2.2-4.07-3.3-6.1l-.63,0a17.19,17.19,0,0,0-.38,2.56,56.8,56.8,0,0,1-5,23.78c-1.9,4.11-4.51,7.91-6.84,11.82a29.06,29.06,0,0,0-4.07,13.13c0,.14.07.32,0,.43-.54,1.06-1.1,2.12-1.66,3.17-.94-.81-2.38-1.44-2.76-2.47A33.92,33.92,0,0,1-24,207c.7-8.66,3.68-16.57,7.52-24.25A67.32,67.32,0,0,0-9.9,159.17a22.66,22.66,0,0,0-2.61-13.37,30.08,30.08,0,0,0-1.79-2.63c-1.06,4.41-1.89,8.57-3.07,12.64a56.19,56.19,0,0,1-12.29,21.91c-.87,1-2.45,1.3-3.71,1.93-.06-1.51-.6-3.21-.1-4.52,4.59-12.12,7.58-24.6,7.91-37.55.26-10.49,0-21-.45-31.5-.57-14.09,1.5-27.66,7.8-40.29,3.36-6.75,7.68-13,11.57-19.49a2.64,2.64,0,0,1,.43-.51c.8-.75,1.7-1.89,2.76-.77a3.12,3.12,0,0,1,.12,2.66,17.77,17.77,0,0,1-2.19,3.56c-11.24,15.72-17.43,33-16.8,52.54.25,7.63,5.08,11.73,10.51,15.52,4.1,2.85,8.58,5.16,12.69,8a87.83,87.83,0,0,1,8.29,6.92c.49.43.93,1.67.68,2a3.29,3.29,0,0,1-2.27,1.31A11.38,11.38,0,0,1,4,136.69c-4.58-1.57-9.14-3.19-14.47-5.06a36.27,36.27,0,0,0,2.3,3.72c5.66,6.87,13.1,11.22,21,15.16a209.38,209.38,0,0,1,18.73,10.75,19.66,19.66,0,0,1,7.57,9.55,16.6,16.6,0,0,1,.5,2.93,184.22,184.22,0,0,1-22-8.2c-6.94-3.25-13.53-7.25-20.59-11.1.43,1.13.79,2.11,1.17,3.07C1,164.63,6.6,169.3,12.71,173.33c7.61,5,15.45,9.72,23.28,14.41s12.9,11.46,14.59,20.52c.18,1-.5,2.08-.78,3.13-.94-.43-2.13-.63-2.77-1.33-3.5-3.83-7.94-6.26-12.32-8.87-6.2-3.68-12.23-7.65-18.34-11.48a14.66,14.66,0,0,0-1.31-.67Z" fill="#2d2d2d"/>
    </g>
    <g opacity="0.41">
      <path d="M10.49,378.48a16,16,0,0,0-1.6.95c-7.35,5.31-14.6,10.79-22.08,15.92-5.28,3.63-10.66,7-14.74,12.15-.75.93-2.23,1.28-3.37,1.89-.44-1.29-1.39-2.64-1.25-3.86,1.39-11.51,7.11-20.37,16.65-27S3,365.5,12.15,358.56c7.34-5.57,14-11.89,17-21.07.41-1.24.77-2.5,1.22-3.95-8.55,5.41-16.5,11-24.95,15.63s-17.38,8.33-27,12.1a22.27,22.27,0,0,1,.39-3.72,24.81,24.81,0,0,1,8.72-12.61,263.8,263.8,0,0,1,22.65-15c9.54-5.59,18.53-11.66,25.07-20.76a47.06,47.06,0,0,0,2.59-4.85c-6.54,2.78-12.14,5.19-17.76,7.54a14.43,14.43,0,0,1-4.48,1.38,4.12,4.12,0,0,1-3-1.47c-.35-.41.1-2,.68-2.59a112.91,112.91,0,0,1,9.84-9.37c4.93-3.9,10.37-7.17,15.28-11.09,6.51-5.2,12.24-10.75,11.93-20.34-.81-24.62-10-45.8-25.41-64.62a21.37,21.37,0,0,1-3-4.28c-.46-.95-.63-2.67-.07-3.35,1.23-1.49,2.46-.14,3.52.74a2.75,2.75,0,0,1,.58.6c5.42,7.82,11.36,15.33,16.14,23.52,8.94,15.36,12.66,32.23,13.1,50,.33,13.21.83,26.45,2,39.6,1.46,16.23,6.25,31.67,13,46.51.73,1.6.19,3.78.24,5.69-1.62-.69-3.64-1-4.81-2.13a70.62,70.62,0,0,1-17.23-26.51c-1.82-5-3.2-10.17-4.89-15.62a38.09,38.09,0,0,0-2,3.45,28.61,28.61,0,0,0-2.18,17,85,85,0,0,0,10.21,29.13c5.46,9.32,9.85,19,11.44,29.82a42.71,42.71,0,0,1-1.21,18.59c-.39,1.32-2.14,2.23-3.27,3.33-.78-1.28-1.57-2.56-2.34-3.85-.08-.14,0-.36,0-.55A36.57,36.57,0,0,0,48,399.24c-3.24-4.72-6.83-9.27-9.56-14.28a71.28,71.28,0,0,1-8.21-29.45,22.47,22.47,0,0,0-.7-3.19h-.79c-1.22,2.64-2.46,5.27-3.65,7.93-5.11,11.45-5.67,23-.65,34.64,2.71,6.27,5.91,12.33,8.62,18.61a32.63,32.63,0,0,1,2,19.85,3.77,3.77,0,0,1-3.87,3.29c-.95,0-2.07-1.78-2.65-3-1-2-1.28-4.28-2.31-6.21-4.41-8.23-9-16.37-13.49-24.53-.13-.24-.46-.36-1.3-1,.23,3.47.1,6.35.65,9.1,2.17,10.68,4.6,21.31,6.85,32a50.45,50.45,0,0,1,.2,19.55c-.29,1.61-1.71,3-2.61,4.52-1.13-1.33-2.6-2.51-3.31-4-2.17-4.69-3.59-9.78-6.14-14.24-3.86-6.75-5.66-14-6.73-21.52a63.67,63.67,0,0,1,5.52-36.55c1.82-3.9,3.45-7.88,5.17-11.83Z" fill="#2d2d2d"/>
    </g>
    <g opacity="0.41">
      <path d="M640.07,218.19a16.12,16.12,0,0,0-1.57.54c-7.42,3.32-14.77,6.8-22.26,9.93-5.3,2.21-10.64,4.23-15.15,8-.82.68-2.19.72-3.3,1-.15-1.22-.74-2.57-.38-3.62,3.31-9.83,10-16.56,19.51-20.6s19-8,28.25-12.4c7.45-3.55,14.47-7.86,18.78-15.36.58-1,1.13-2.05,1.79-3.24-8.48,3.18-16.46,6.61-24.72,9.14a204.59,204.59,0,0,1-25.87,5.68,19.15,19.15,0,0,1,1-3.19,22.18,22.18,0,0,1,10-9.46,235.53,235.53,0,0,1,22.6-9.05c9.38-3.15,18.37-6.84,25.76-13.62a40.72,40.72,0,0,0,3.16-3.78c-6.24,1.25-11.59,2.34-16.94,3.37a13,13,0,0,1-4.18.39,3.74,3.74,0,0,1-2.33-1.83c-.22-.42.46-1.74,1.08-2.15a101,101,0,0,1,10.34-6.41c5-2.52,10.39-4.39,15.41-6.93,6.66-3.37,12.7-7.19,14.18-15.65,3.78-21.73-.41-42-10.48-61.28a20.27,20.27,0,0,1-1.88-4.31c-.22-.92-.06-2.46.55-3,1.35-1.09,2.18.32,3,1.29a2.55,2.55,0,0,1,.39.63c3.33,7.84,7.16,15.52,9.85,23.57,5,15.09,5.21,30.56,2.36,46.19-2.12,11.64-4.1,23.33-5.45,35.08-1.68,14.49-.31,28.89,2.91,43.14.35,1.54-.52,3.35-.83,5-1.3-.9-3-1.52-3.83-2.74a63.29,63.29,0,0,1-10.26-26.39c-.68-4.72-1-9.5-1.44-14.58a32.92,32.92,0,0,0-2.41,2.65,25.65,25.65,0,0,0-5,14.51,76.29,76.29,0,0,0,3.63,27.4c3.08,9.17,5.16,18.46,4.58,28.23a38.33,38.33,0,0,1-4.45,16.08c-.59,1.08-2.29,1.56-3.47,2.32-.46-1.27-.92-2.53-1.36-3.8,0-.14.08-.32.09-.49a32.85,32.85,0,0,0-2.48-15.29c-2-4.73-4.29-9.37-5.77-14.26a63.8,63.8,0,0,1-1.82-27.32,19,19,0,0,0,0-2.92l-.69-.14c-1.55,2.09-3.12,4.17-4.65,6.28C649.62,214,647,224,649.3,235.13c1.23,6,2.93,11.89,4.16,17.89a29.22,29.22,0,0,1-1.83,17.78,3.38,3.38,0,0,1-4,2.17c-.81-.21-1.49-1.93-1.77-3.09-.48-1.91-.35-4-.9-5.86-2.36-8-4.87-16-7.34-24-.07-.23-.34-.39-1-1.08a63.31,63.31,0,0,0-1.09,8.09c-.05,9.76.13,19.52.16,29.28a45.09,45.09,0,0,1-3.4,17.17c-.55,1.36-2.05,2.34-3.11,3.49-.74-1.38-1.82-2.68-2.16-4.15-1-4.51-1.36-9.23-2.78-13.6-2.15-6.63-2.4-13.35-2-20.1a57,57,0,0,1,11.51-31c2.31-3.08,4.47-6.28,6.69-9.42Z" fill="#2d2d2d"/>
    </g>
    <g opacity="0.41">
      <path d="M454,1312.67c-5.32-6.2-10.53-7.5-17.5-4.26-7.57,3.52-15.26,5.87-23.8,4.94a8.43,8.43,0,0,0-6.09,1.88c-8.2,8.07-17.83,6.94-27.73,5-4.51-.9-9.11-1.35-13.55-2.5-1.59-.41-2.82-2.25-4.21-3.44,1.6-1,3.13-2.68,4.8-2.83,12.25-1.12,23.77-4.84,35.12-9.29,10.09-4,20.44-5.71,31.23-3.53a19.61,19.61,0,0,0,2.65,0c-1.66-1.58-2.77-2.72-4-3.76-3.72-3.25-7.41-6.53-11.24-9.64a6.2,6.2,0,0,0-3.77-1.59c-6.54.45-13.09,1-19.57,1.92-2.38.33-5.2,1.22-6.79,2.86-6.76,7-15.26,9.58-24.46,10.81a83.75,83.75,0,0,1-38.55-4.1,9.1,9.1,0,0,1-3.27-1.45,17.56,17.56,0,0,1-2.37-3.49c1.42-.58,2.85-1.69,4.25-1.65,5.36.14,10.7.9,16.05,1a45.79,45.79,0,0,0,23.15-5.36c12.12-6.78,25.14-8.62,38.67-8.6h3.77l.26-1a32.86,32.86,0,0,0-4.81-3c-10.6-4.4-21.07-9.21-31.93-12.84a66.94,66.94,0,0,1-30.09-20.35,6.68,6.68,0,0,1-1.6-3.08c-.41-2.59,1.28-4,3.51-2.83,9.36,5,19.73,6.29,29.89,8.44,9.67,2,17.09,7.91,24.1,14.64,11.63,11.17,23.6,22,35.43,32.91a16.11,16.11,0,0,0,2,1.27c-.13-5.14-1.27-9.3-5.08-12.34-2.31-1.84-4.94-3.33-7.08-5.35-3-2.83-6.36-5.62-8.4-9.11a52.89,52.89,0,0,0-18-18.35,24.32,24.32,0,0,1-4.1-2.72,13.66,13.66,0,0,1-2-3.35c1.34-.53,2.79-1.67,4-1.47a100.62,100.62,0,0,1,14.41,3.18c14.73,4.75,26.58,13.47,34.34,27a30.78,30.78,0,0,1,3.4,11.78c.52,4.76.07,9.64-.13,14.47-.21,5,1.55,8.61,6.4,10.68,5.22,2.24,10.27,4.86,15.42,7.26a16.87,16.87,0,0,0,3,.69,13.22,13.22,0,0,0-1.12-1.64,26.37,26.37,0,0,1-7.52-15.72,26.13,26.13,0,0,0-6.45-14.51,45.87,45.87,0,0,1-12.3-26c-.7-5.3-2.11-10.5-3-15.79-.4-2.49.16-5,3-5.93s4.54,1.06,5.92,3.1c1.59,2.36,2.9,4.9,4.44,7.3a56.72,56.72,0,0,0,14.95,16c6.54,4.62,9.72,10.74,9.24,18.82-.38,6.46-.38,12.94-.75,19.4a13.24,13.24,0,0,0,4.82,11.64,47.83,47.83,0,0,1,6.38,6.18c4.7,5.81,11.42,5.67,18.76,7-1.83-3-3-5.43-4.61-7.57a30.33,30.33,0,0,1-6.15-20,31.76,31.76,0,0,0-5.82-19.52c-6.27-9.21-6.77-19.49-6.1-30,.25-3.85,3.5-5.68,7.13-4.27,4.34,1.7,6.95,5,8.77,9.27,3.22,7.52,6.48,15,10.14,22.35,3.59,7.15,5.3,14.48,2.91,22.21-2.74,8.81-1.79,17.54-.3,26.33a2.68,2.68,0,0,0,1.71,1.81c8.6.65,17.21,1.81,26.36.32-3.52-5.19-6.61-10.24-10.19-14.91-5.35-7-7.15-14.56-6.9-23.34.26-9.26-1-18.58-1.75-27.85-.48-5.87-.63-11.64,2.57-16.88,1.4-2.3,3.29-4.22,6.38-3.81,2.85.39,4.3,2.42,5.25,4.88,3.53,9.07,7.42,18,10.42,27.27,2.4,7.43,1.35,15.09-2.14,22.08-3.86,7.71-4.13,15.27-.63,23.09a47.8,47.8,0,0,1,2.48,6.78c.6,2.15,1.63,3.07,3.95,2.77,5.09-.66,10.2-1.15,16.09-1.79-1.33-2-2.1-3.72-3.31-5-9.15-9.62-12-21.07-10.33-34,.41-3.14.16-6.37.66-9.48.86-5.35,4-9.59,7.14-13.87,3.9-5.26,7.3-10.89,11.07-16.25.82-1.17,2.3-1.87,3.48-2.79.85,1.26,2.18,2.41,2.47,3.78a48.82,48.82,0,0,1-2.94,30.18c-3,7.15-4.63,15-6.14,22.69-.59,3,.58,6.48,1.29,9.66,1,4.53,2.35,9,3.71,14.09l27.9-4.64.13-1.09c-1.67-.94-3.29-2-5-2.79-9-4.22-14.53-11.54-18.12-20.4a16,16,0,0,1-.46-8.34,82,82,0,0,1,3.61-12.61c.43-1.22,1.9-2.78,3-2.85s2.58,1.46,3.1,2.64c3.72,8.52,7.46,17,10.75,25.74,2.45,6.47,7.15,11.23,11.24,16.48a2.18,2.18,0,0,0,2,.47c5.61-1.81,11.18-3.73,17.81-6-2.42-2.54-4.13-4.93-6.38-6.55-4.18-3-8.72-5.49-13-8.3-12.6-8.2-19.23-20-19.6-34.88-.22-9,1.06-18.15,1.91-27.2.12-1.31,1.57-3.41,2.54-3.49a5.37,5.37,0,0,1,4.08,2.24c4.87,7.66,6.31,16.37,7.8,25.19,2.16,12.69,6.45,24.51,16.58,33.46,5.17,4.57,10,9.6,11.38,17.39l18.79-8.54-9.76-5.52c-3.24-1.83-6.63-3.43-9.69-5.52a32.65,32.65,0,0,1-12.11-15.63c-4.46-11.65-8.93-23.3-13.17-35-.58-1.58-.54-4.12.38-5.34,1.53-2,4.21-1.43,5.9.08a91,91,0,0,1,9.39,9.44c4.13,4.92,7.64,10.38,11.91,15.17a32.11,32.11,0,0,1,7.64,15.42c1.85,9.49,7.44,16.16,14.65,21.84a3.43,3.43,0,0,0,3.3,0c4.11-3.57,8.08-7.31,12-11.13,1.55-1.52,2.61-3.56,4.19-5,1.8-1.7,4.2-.84,4.21,1.6,0,2-.29,4.74-1.58,6A120.33,120.33,0,0,1,666,1295c-3.61,2.64-6.1,5.13-5,10s2,10,2.78,15c.46,2.9,1.32,6,.69,8.75-1.75,7.53-.67,14.73.87,22.09,2.18,10.39-1.47,19.91-5.43,29.24-1,2.31-3,2.35-4.19.1-.83-1.59-.87-3.57-1.43-5.31-1.64-5.08-2.58-10.58-5.22-15.07-4.33-7.36-6.29-14.7-4.81-23.18,1.08-6.24.9-12.71,2.14-18.91.92-4.63,3.2-9,5.29-14.57-3,1.76-6,2.61-7.63,4.56-4.81,5.66-8.52,11.72-6.75,20,1.21,5.67-1,11.25-3.28,16.54-3.19,7.43-5.17,15.16-4.87,23.28a73.79,73.79,0,0,0,1.46,11.06,25.5,25.5,0,0,1-1.56,15.76c-2,4.39-4.1,8.72-6.19,13.06a4.13,4.13,0,0,1-1.28,1.86c-1.16.62-2.74,1.54-3.67,1.16s-1.54-2.28-1.45-3.45c.31-4.36,1.3-8.68,1.4-13a23.13,23.13,0,0,0-1.48-9.33c-8-18.9-3.87-36.55,5.45-53.52,3.35-6.11,7.89-11.57,11.87-17.34a5.66,5.66,0,0,0,1.09-3.39c-5,1.82-10,3.59-14.91,5.5-.59.23-1,1.11-1.36,1.75-3.2,5.47-6.38,10.86-8,17.19-.74,2.94-3.2,5.73-5.49,7.94-4,3.87-5.43,8.16-3.56,13.37,3.33,9.28,2.66,18.62.09,27.81a28.3,28.3,0,0,1-5.49,9.93c-4,4.89-7.5,9.93-9.65,15.92-.44,1.22-2.13,2-3.24,3-.91-1.19-2.38-2.27-2.65-3.6-1.8-8.84-1.58-17.31,2.18-26,2.43-5.62,2.59-12.33,3.21-18.61.64-6.43.44-12.93.87-19.39.33-4.81,3-8.37,7-10.93,3.14-2,6.36-3.88,9.52-5.85,3.72-2.31,6.27-5.62,8.48-9.91-9.71,1.94-18.92,3.74-28.11,5.69a4.08,4.08,0,0,0-2.55,2.05c-1.57,3.84-2.87,7.79-4.26,11.7-1.55,4.32-2.89,8.72-4.7,12.93-1.92,4.45-2.41,8.74-.7,13.37,3.2,8.63,2.33,17.29-.59,25.77-3.36,9.72-6.7,19.47-10.65,29-2,4.78-5.26,9-8.07,13.47a6.78,6.78,0,0,1-2.47,2.08c-2.48,1.34-3.85.47-3.53-2.34a35.43,35.43,0,0,1,1.41-7.07c2.91-9,2.8-18,1.16-27.28a32.23,32.23,0,0,1,.29-12.34c2.27-10.13,5.22-20.12,7.82-30.18,1.55-6,5.1-10.82,8.92-15.53,3.69-4.53,7.13-9.25,10.67-13.89l-.69-.63c-6.84.83-13.69,1.61-20.51,2.57a3.23,3.23,0,0,0-1.9,2c-.61,2.09-.88,4.28-1.32,6.43a25.65,25.65,0,0,1-7.36,13.67,16.4,16.4,0,0,0-5.16,11.73,32.82,32.82,0,0,1-4.64,16.25,13.59,13.59,0,0,0-.7,13.47c3.9,8.58,3.53,17.73,3.29,26.84-.06,2.25-1.54,2.84-3.4,2.18a8.62,8.62,0,0,1-3-2c-3.21-3.15-6.36-6.37-9.51-9.59a20.37,20.37,0,0,1-5.73-19c1.06-5.81,1.5-11.76,2.81-17.5,3.18-13.94,8.44-26.71,20.88-35.3,2.92-2,5.26-4.87,8.62-8a40.34,40.34,0,0,0-4.26-.49c-5.59,0-11.19.21-16.78.24-2.88,0-4.81,1.19-5.76,3.94s-1.82,5.87-3.09,8.64a86.82,86.82,0,0,1-5.66,10.71c-3.21,5-5.5,10.15-5.65,16.2a36.46,36.46,0,0,1-8.42,22.71c-5.78,7-12,13.62-18.08,20.4a75.29,75.29,0,0,1-5.1,5.59,16.67,16.67,0,0,1-3.81,2c-.5-1.55-1.64-3.21-1.39-4.63a74.24,74.24,0,0,1,12.43-30.46,30.24,30.24,0,0,0,5.64-17.54,14.1,14.1,0,0,1,1.78-6.88c4.26-7.15,8.65-14.24,13.46-21,2.56-3.63,6.05-6.59,9.33-10.07-4.5-.81-9.15-1.65-13.79-2.51-3.33-.62-6.68-1.2-10-1.93s-5.88.06-7.15,3.45c-.81,2.14-2,4.28-2.14,6.49-.64,7.89-4.4,14-9.69,19.6a37.66,37.66,0,0,0-6.86,9.82c-6.16,13.43-16.34,22.85-28.74,30.3-3.06,1.85-5.84,4.17-8.81,6.17-.73.49-2.2,1-2.51.73-.74-.73-1.54-2.08-1.35-3a18.82,18.82,0,0,1,2.25-5,13.27,13.27,0,0,1,2.43-3.1c10.76-10,17.23-22.53,21.24-36.47,2.87-10,8.61-17.43,18-22.4,4.23-2.25,7.69-6,12.08-9.47-3.83-1.43-6.55-2.55-9.34-3.47-6.31-2.08-11.26.14-13.75,6.33-3.34,8.32-9.69,13.28-18,15.55a86.44,86.44,0,0,0-25.48,11.84,51.88,51.88,0,0,1-27.86,8.71c-1.4,0-4-.89-4-1.5-.11-1.73.29-4.07,1.45-5.18,2.66-2.56,5.91-4.5,8.88-6.76,4.28-3.25,8.61-6.44,12.75-9.87,7.39-6.11,15.5-10.67,25-12.46S445.29,1317.27,454,1312.67Z" fill="#2d2d2d"/>
    </g>
    <g opacity="0.41">
      <path d="M599.35,1197.58a12.77,12.77,0,0,0-.29-1.7c-2.56-7.83-2-15.57.46-23.34,1.19-3.82,2-7.76,2.93-11.67.79-3.35,0-6.59-.85-9.82-.36-1.33-1.19-3.09.42-3.73.93-.37,2.84.37,3.65,1.24,5.46,5.86,9.45,12.49,10.37,20.69.61,5.38-.57,10.38-2.48,15.33a95.23,95.23,0,0,0-3.76,10.63,12.56,12.56,0,0,0,3.36,12.55,29,29,0,0,0,5,4.13c-.06-1.3-.1-2.59-.2-3.89-.45-5.68.22-11.13,3.77-15.81,2.36-3.09,5-3,7.41.16,3,3.87,3.72,8.36,3.2,13.06-.41,3.61-1.08,7.19-1.66,10.78a2.7,2.7,0,0,0,1.78,3.22c10.84,4.37,21.86,8.19,33.77,7.33,4-.28,7.82-1.66,11.73-2.52,1.2-.26,2.79-1.56,3.49.25.58,1.54-.93,2.48-2.22,3.12a31.39,31.39,0,0,1-12.63,2.8c-13.71.66-26.32-3.62-38.64-9-1.93-.84-3.81-1.82-5.67-2.81a16.18,16.18,0,0,0-14.4-.64,108.22,108.22,0,0,1-12.22,4.44,45.37,45.37,0,0,1-9.48,1.06c-2.39.11-3.21-.92-3-3.33.33-4.58,2.82-7.76,6.82-9.71,2.28-1.11,4.75-1.85,7.14-2.75.83-.32,1.66-.61,2.56-.94-1.46-1.14-5.45-2-8.45-1.55a31.31,31.31,0,0,1-17-2.74,45,45,0,0,1-23.93-23.73,2.9,2.9,0,0,1-.44-1.25c.07-.86.07-2,.6-2.45a3,3,0,0,1,2.43.08,9.56,9.56,0,0,1,2.88,1.86,49.91,49.91,0,0,0,17.82,10.65c4.43,1.6,8.85,3.24,13.28,4.86l.43-.37a15.34,15.34,0,0,0-1.5-2.63c-2.76-3.28-5.68-6.42-8.4-9.73-5-6.07-8.2-13.08-10.61-20.49-2.35-7.23-4.72-14.44-7-21.68a5.1,5.1,0,0,1,0-2.2c.21-1.48,1.14-1.52,2.22-.92a6.89,6.89,0,0,1,1.33,1.09c4.78,4.63,9.5,9.33,14.34,13.9,6.24,5.88,9.45,13.19,10.67,21.55.68,4.73,1.36,9.47,2.32,14.15,1,4.89,4,8.65,7.63,11.91A5.37,5.37,0,0,0,599.35,1197.58Z" fill="#2d2d2d"/>
    </g>
    <g opacity="0.41">
      <path d="M645,1142.11c-1.68-3.27-3.3-6.57-5.06-9.8a54.34,54.34,0,0,1-6.75-30.85c.49-6.44,1.62-12.76,4.54-18.73,1.92-3.94,2.85-8.36,4.44-12.48.52-1.35,1.71-2.43,2.6-3.64.85,1.23,2.14,2.36,2.48,3.71a43.05,43.05,0,0,1,.91,16.69c-1.32,9.22-2.8,18.41-4.05,27.64a62.48,62.48,0,0,0,0,7.8c.68-.57,1-.69,1.06-.9,3.4-7.21,6.83-14.41,10.13-21.67.77-1.71.92-3.68,1.62-5.42.43-1,1.29-2.6,2.1-2.68a3.22,3.22,0,0,1,3.48,2.58,27.78,27.78,0,0,1-.64,17c-2,5.51-4.35,10.86-6.31,16.36-3.63,10.17-2.51,20,2.49,29.5,1.16,2.2,2.36,4.37,3.55,6.56l.67,0a17.55,17.55,0,0,0,.42-2.76,61.1,61.1,0,0,1,5.36-25.58c2.05-4.42,4.85-8.5,7.36-12.7a31.4,31.4,0,0,0,4.38-14.12c0-.16-.08-.35,0-.47.58-1.14,1.19-2.27,1.78-3.41,1,.87,2.57,1.55,3,2.65a36.58,36.58,0,0,1,2.06,15.79c-.75,9.31-3.95,17.81-8.09,26.07a72.4,72.4,0,0,0-7.08,25.41A24.34,24.34,0,0,0,674.2,1189a31.6,31.6,0,0,0,1.92,2.83c1.14-4.75,2-9.23,3.31-13.6a60.27,60.27,0,0,1,13.21-23.56c.94-1,2.64-1.41,4-2.08.07,1.63.65,3.46.12,4.86-4.94,13-8.16,26.46-8.51,40.38-.28,11.29,0,22.6.49,33.89.6,15.14-1.62,29.74-8.4,43.33-3.61,7.25-8.26,14-12.44,21a2.63,2.63,0,0,1-.46.54c-.86.81-1.83,2-3,.83a3.29,3.29,0,0,1-.13-2.86,18.78,18.78,0,0,1,2.35-3.83c12.09-16.9,18.75-35.47,18.06-56.51-.26-8.2-5.46-12.61-11.3-16.68-4.41-3.07-9.23-5.55-13.65-8.61a95.42,95.42,0,0,1-8.91-7.44c-.53-.46-1-1.8-.73-2.17a3.55,3.55,0,0,1,2.44-1.42,12.68,12.68,0,0,1,3.9.93c4.92,1.69,9.82,3.43,15.56,5.44a39.39,39.39,0,0,0-2.48-4c-6.09-7.39-14.09-12.08-22.54-16.31a224.49,224.49,0,0,1-20.14-11.56,21.18,21.18,0,0,1-8.15-10.27,18.24,18.24,0,0,1-.54-3.15,195,195,0,0,1,23.7,8.82c7.46,3.49,14.55,7.8,22.14,11.93-.46-1.21-.84-2.26-1.26-3.3-3.07-7.66-9.14-12.67-15.7-17-8.19-5.4-16.63-10.44-25-15.49s-13.87-12.33-15.7-22.06c-.19-1,.54-2.24.85-3.37,1,.47,2.29.68,3,1.43,3.76,4.12,8.54,6.73,13.25,9.53,6.66,4,13.15,8.23,19.71,12.36a14.46,14.46,0,0,0,1.42.71Z" fill="#2d2d2d"/>
    </g>
    <g opacity="0.41">
      <path d="M660.56,938.52c.59-.3,1.21-.55,1.77-.9,8.27-5.19,16.43-10.56,24.82-15.54,5.92-3.53,11.93-6.82,16.67-12,.87-1,2.48-1.22,3.75-1.8.38,1.42,1.31,2.94,1.07,4.24-2.3,12.25-9.06,21.36-19.76,27.76s-21.21,12.69-31.51,19.5c-8.26,5.46-15.9,11.78-19.76,21.41-.53,1.31-1,2.64-1.58,4.16,9.55-5.21,18.47-10.62,27.86-15s19.24-7.72,29.82-11.1a23.36,23.36,0,0,1-.68,4,26.71,26.71,0,0,1-10.25,12.93,284.06,284.06,0,0,1-25.36,14.54c-10.63,5.33-20.7,11.22-28.35,20.52a49.29,49.29,0,0,0-3.12,5c7.21-2.53,13.38-4.73,19.58-6.85a15.92,15.92,0,0,1,4.91-1.17,4.48,4.48,0,0,1,3.06,1.79c.35.47-.25,2.15-.91,2.73a120.16,120.16,0,0,1-11.22,9.36c-5.56,3.85-11.63,7-17.17,10.83-7.35,5.13-13.9,10.68-14.23,21-.86,26.48,7.52,49.84,22.73,71.12a23.78,23.78,0,0,1,3,4.81c.42,1.05.48,2.91-.16,3.6-1.42,1.52-2.65,0-3.73-1a3.22,3.22,0,0,1-.58-.69c-5.26-8.76-11.11-17.25-15.66-26.37-8.52-17.11-11.33-35.47-10.56-54.53.57-14.21,1-28.44.61-42.64-.44-17.52-4.49-34.42-10.71-50.82-.67-1.77.06-4.07.15-6.12,1.69.85,3.83,1.3,5,2.61a76,76,0,0,1,16.63,29.66c1.6,5.5,2.72,11.14,4.15,17.11a37.81,37.81,0,0,0,2.43-3.56,30.79,30.79,0,0,0,3.54-18.1,91.56,91.56,0,0,0-8.92-32c-5.2-10.38-9.23-21.08-10.18-32.81a45.79,45.79,0,0,1,2.6-19.86c.51-1.38,2.45-2.24,3.74-3.34.75,1.43,1.51,2.85,2.24,4.29.08.15,0,.39,0,.59a39.52,39.52,0,0,0,5.51,17.77c3.16,5.29,6.68,10.42,9.26,16a76.73,76.73,0,0,1,6.75,32.19,24.44,24.44,0,0,0,.52,3.47l.85,0c1.49-2.75,3-5.49,4.47-8.26,6.3-11.93,7.7-24.32,3.14-37.12-2.47-6.93-5.49-13.66-8-20.58a35,35,0,0,1-.8-21.45,4,4,0,0,1,4.38-3.26c1,.11,2.1,2.06,2.63,3.38.89,2.19,1.08,4.68,2,6.82,4.15,9.14,8.47,18.2,12.75,27.27.12.26.47.42,1.33,1.13,0-3.73.34-6.82-.06-9.81-1.58-11.61-3.44-23.18-5.11-34.79a54.17,54.17,0,0,1,1.16-21c.43-1.71,2-3.12,3.12-4.67,1.11,1.51,2.61,2.88,3.26,4.57,2,5.19,3.17,10.75,5.6,15.71,3.66,7.52,5.09,15.47,5.71,23.57a68.5,68.5,0,0,1-8.49,38.83c-2.23,4.06-4.26,8.22-6.38,12.33Z" fill="#2d2d2d"/>
    </g>
  </g>
</svg>
