<svg id="Layer_1" data-name="Layer 1" xmlns="http://www.w3.org/2000/svg" viewBox="0 0 486.66 566">
  <path d="M314.43,703.94c-43.32.68-83.3-10.28-119.08-35.15a134.84,134.84,0,0,1-40.44-44.31c-11.17-19.52-11.69-39.29-1.27-59.29,2.88-5.5,5.93-10.93,8.58-16.54,2.07-4.4.93-6.62-3.75-7.94-3.59-1-7.27-1.74-10.92-2.54C128,533.86,114.74,521.39,104.47,505c-11-17.5-17.47-36.84-22.58-56.58-8.27-31.94-16.52-63.91-23.3-96.18-5-23.62-4.45-47.83-2.47-71.9A241,241,0,0,1,74,206.59c9.52-22.79,24.54-41.33,45.49-54.68,35-22.3,81.44-17.41,112,14.48,18.93,19.74,30,43.24,35.5,69.75,3.46,16.71,3.34,33.43,1,50.24-.86,6.28-1.89,12.6-1.91,18.91a79,79,0,0,0,2.06,16.88c1,4.54,5,7,9.89,5.67a129.9,129.9,0,0,0,17.81-6.57c10-4.33,19.63-9.67,29.87-13.3a39.76,39.76,0,0,1,26.94,0c9.75,3.49,16,12.91,16.83,23.24,1.1,14.19-3.25,27-8.33,39.84-4.84,12.25-10.09,24.5-13.24,37.23-10.72,43.33,6.85,80.8,44.09,102.75,20.71,12.21,43.33,19.44,66.05,26.57,16.61,5.2,33.74,9.15,48.73,18.6C521.24,565.26,533,577,538,593.47c9,29.37.27,49.07-30.63,57.1-22.49,5.84-43.69,13.62-63.75,25.39-20.59,12.08-43.45,18.35-66.91,22.2-13.5,2.21-27.05,4.2-40.65,5.64C328.94,704.56,321.65,703.94,314.43,703.94Z" transform="translate(-54.7 -138.18)" fill="#c4845f"/>
</svg>
