<svg id="Layer_1" data-name="Layer 1" xmlns="http://www.w3.org/2000/svg" viewBox="0 0 548.29 563.99">
  <path d="M252.14,489.18c0,18.7.64,37.42-.15,56.09-1.19,28.29-4.43,56.36-15.68,82.78-13.25,31.11-34.13,55.41-65,70.1-20.73,9.86-45.07,5.21-62-10.29-20.68-18.94-33.53-43-45.17-67.84a379.62,379.62,0,0,1-29.3-92.14c-3-16.32-4.59-32.92-7.32-49.31-4.17-25-4.6-50.21-3.71-75.41.59-17,2.33-33.92,3.79-50.85,2.42-28,8.63-55,19.61-81,11.23-26.54,26.25-50.61,46.67-71C121.28,173,154.53,156.2,192,147.65c31.93-7.28,64.42-9.49,97-7.74a274.52,274.52,0,0,1,101.89,25.78c38.28,17.84,72.92,41.24,104.66,69,18.34,16.05,34.39,34.23,49.25,53.47,12.44,16.12,16.81,35.5,21.56,54.71,5.33,21.53,6.16,43.47,4.7,65.35s-7.47,42.33-21.2,60.11c-14.22,18.42-37,18.58-51.06-.22-12.17-16.26-20.43-34.65-27.91-53.35s-18.27-35.11-31-50.37c-5-5.95-11.92-9.16-19.43-10.76-6.14-1.31-12.26,4.22-12.61,11.4-.48,10,.18,19.85,3.57,29.48q15.79,44.79,31.18,89.73c7.4,21.59,12.08,43.85,12.09,66.66,0,23.57-3.47,46.62-17,67-14.47,21.83-38,27.28-60.82,14.45-18-10.13-29.53-25.33-37.16-44.17-16.57-40.9-33.43-81.69-50.14-122.54a83.92,83.92,0,0,0-17.21-26.67c-6.86-7.15-12.5-6-15.2,3.59a120.16,120.16,0,0,0-3.91,22.54c-.66,8-.15,16.07-.15,24.11Z" transform="translate(-23.44 -139.34)" fill="#90a0a7"/>
</svg>
