<svg id="Layer_1" data-name="Layer 1" xmlns="http://www.w3.org/2000/svg" viewBox="0 0 551.57 480.45">
  <path d="M349.6,662.21c-21.82.74-41.8-4.07-58.48-18.89-12.62-11.21-20.11-25.65-25.53-41.43-7.34-21.4-7.72-43.37-6-65.56,2.74-34.88,14.76-67.53,24.24-100.8,2.26-8,4.21-16.26,4.54-24.47.7-17.39-8.38-26.91-25.62-30.27-21.62-4.22-42.34-.23-63,5.46-27.07,7.48-54,15.38-81.17,22.63C106.45,412.14,94,414,81.25,411.06c-16.65-3.78-27.91-14.6-37.47-27.8-14.62-20.18-22.49-42.57-20.94-67.65C24,297.41,31.46,281.49,42.2,267c16.61-22.44,38.89-38.07,62.49-52.09,23.24-13.81,47.79-24.43,74.52-29.43a200.71,200.71,0,0,1,50.49-3.21c12.69.85,25.35,2,37.22,7.38,13,5.91,23.58,14.91,33.56,24.73,12,11.81,24.43,23,39.29,31.18,12.67,7,26.43,10.3,40.51,12.73,7.38,1.27,14.72,2.9,22.14,3.82,6.29.78,12.72.47,19,1.16,39.8,4.39,73.63,20.5,99.6,51.58,26.41,31.61,40.93,68.71,49.19,108.52a189.41,189.41,0,0,1,3.87,30.45c1.13,26.19-6.73,50.21-19.45,72.79-29,51.56-69.8,91-122.78,117.53-19,9.51-39.46,14.73-60.71,16.48C364,661.19,356.79,661.67,349.6,662.21Z" transform="translate(-22.64 -181.83)" fill="#d3a558"/>
</svg>
