<svg id="Layer_1" data-name="Layer 1" xmlns="http://www.w3.org/2000/svg" viewBox="0 0 586.4 300.4">
  <path d="M273.35,271.79a185.85,185.85,0,0,1,40.07,4.55c13.89,3.28,28,5.81,41.75,9.48,17.76,4.74,35.48,9.77,52.89,15.64a382.32,382.32,0,0,1,40.43,16.37c15.11,7.13,30,14.89,44.4,23.35,12.48,7.34,25.2,14.87,36,24.4,15.4,13.64,29.44,28.82,38.34,48.05,4.6,9.93,11,19,15.83,28.85a121.65,121.65,0,0,1,8.45,22.15c2.71,10.12-2.44,18.71-12.8,21.05-10.58,2.39-21.46,3.48-32.2,5.19-13.19,2.1-26.32,5.53-39.58,6.05a143.59,143.59,0,0,0-42.44,7.67c-3.22,1.13-6.77,1.29-10.16,2-10,2-16.1-4-21.68-10.7-2.94-3.53-4.81-8-7.78-11.47-8.06-9.47-15.49-19.83-25-27.66-11.17-9.23-24.15-16-38.3-20.7-14.87-5-29.79-7.62-45.23-6.56-12,.83-24,2.84-35.94,4.62-10.35,1.54-20.7,3.15-30.91,5.36a144.7,144.7,0,0,0-23,6.68,336,336,0,0,0-31.67,14.46c-5.85,3.06-10.62,8.12-16.34,11.5-10.21,6-14.64,16.74-21.63,25.36-2.41,3-3.58,6.95-5.31,10.48a72.54,72.54,0,0,1-3.23,6.63c-5.54,8.88-11.17,17.68-16.82,26.49-7.33,11.45-17.61,19.11-30.15,24.27-11.27,4.63-23,5.17-34.86,5.61-16.14.6-32.29.92-48.44,1.25-8.11.17-12.49-4.09-12.27-12.43A110.47,110.47,0,0,1,7.7,544.33c1.49-8.74,3-17.5,4.93-26.15,2.18-9.76,4.1-19.68,7.5-29a376.41,376.41,0,0,1,15.14-34.84c5.25-10.9,11-21.6,17-32.09,5.52-9.6,11.51-18.95,17.73-28.13,4-5.84,8.66-11.18,13.1-16.69,8-9.93,15.92-19.93,24.14-29.69,3-3.57,6.77-6.52,10.2-9.74,5.23-4.91,10.19-10.18,15.79-14.63,7.57-6,15.46-11.68,23.55-17a212.33,212.33,0,0,1,23.32-13.5,258.2,258.2,0,0,1,25.51-10.19c6.79-2.43,13.75-4.44,20.74-6.22a83.48,83.48,0,0,1,13.1-2C250.74,273.48,262.05,272.68,273.35,271.79Z" transform="translate(-5.78 -271.79)" fill="#cec563"/>
</svg>
